<?xml version="1.0" encoding="UTF-8"?>
<!DOCTYPE svg PUBLIC "-//W3C//DTD SVG 1.1//EN" "http://www.w3.org/Graphics/SVG/1.1/DTD/svg11.dtd">
<svg xmlns="http://www.w3.org/2000/svg" version="1.1" width="3840px" height="1080px" style="shape-rendering:geometricPrecision; text-rendering:geometricPrecision; image-rendering:optimizeQuality; fill-rule:evenodd; clip-rule:evenodd" xmlns:xlink="http://www.w3.org/1999/xlink">
<g><path style="opacity:0.498" fill="#000000" d="M 528.5,117.5 C 529.833,118.167 529.833,118.167 528.5,117.5 Z"/></g>
<g><path style="opacity:0.435" fill="#000000" d="M 580.5,117.5 C 581.833,118.167 581.833,118.167 580.5,117.5 Z"/></g>
<g><path style="opacity:0.498" fill="#000000" d="M 515.5,118.5 C 516.833,119.167 516.833,119.167 515.5,118.5 Z"/></g>
<g><path style="opacity:0.373" fill="#000000" d="M 593.5,118.5 C 594.833,119.167 594.833,119.167 593.5,118.5 Z"/></g>
<g><path style="opacity:0.812" fill="#000000" d="M 447.5,130.5 C 448.833,131.167 448.833,131.167 447.5,130.5 Z"/></g>
<g><path style="opacity:0.498" fill="#000000" d="M 436.5,133.5 C 437.833,134.167 437.833,134.167 436.5,133.5 Z"/></g>
<g><path style="opacity:0.435" fill="#000000" d="M 672.5,133.5 C 673.833,134.167 673.833,134.167 672.5,133.5 Z"/></g>
<g><path style="opacity:0.373" fill="#000000" d="M 423.5,137.5 C 424.833,138.167 424.833,138.167 423.5,137.5 Z"/></g>
<g><path style="opacity:0.373" fill="#000000" d="M 685.5,137.5 C 686.833,138.167 686.833,138.167 685.5,137.5 Z"/></g>
<g><path style="opacity:0.561" fill="#000000" d="M 420.5,138.5 C 421.833,139.167 421.833,139.167 420.5,138.5 Z"/></g>
<g><path style="opacity:0.435" fill="#000000" d="M 688.5,138.5 C 689.833,139.167 689.833,139.167 688.5,138.5 Z"/></g>
<g><path style="opacity:0.373" fill="#000000" d="M 722.5,151.5 C 723.833,152.167 723.833,152.167 722.5,151.5 Z"/></g>
<g><path style="opacity:0.435" fill="#000000" d="M 311.5,193.5 C 312.833,194.167 312.833,194.167 311.5,193.5 Z"/></g>
<g><path style="opacity:0.373" fill="#000000" d="M 797.5,193.5 C 798.833,194.167 798.833,194.167 797.5,193.5 Z"/></g>
<g><path style="opacity:0.435" fill="#000000" d="M 300.5,201.5 C 301.833,202.167 301.833,202.167 300.5,201.5 Z"/></g>
<g><path style="opacity:0.435" fill="#000000" d="M 808.5,201.5 C 809.833,202.167 809.833,202.167 808.5,201.5 Z"/></g>
<g><path style="opacity:0.812" fill="#000000" d="M 817.5,208.5 C 818.833,209.167 818.833,209.167 817.5,208.5 Z"/></g>
<g><path style="opacity:0.561" fill="#000000" d="M 286.5,212.5 C 287.833,213.167 287.833,213.167 286.5,212.5 Z"/></g>
<g><path style="opacity:0.561" fill="#000000" d="M 822.5,212.5 C 823.833,213.167 823.833,213.167 822.5,212.5 Z"/></g>
<g><path style="opacity:0.435" fill="#000000" d="M 280.5,217.5 C 281.833,218.167 281.833,218.167 280.5,217.5 Z"/></g>
<g><path style="opacity:0.435" fill="#000000" d="M 828.5,217.5 C 829.833,218.167 829.833,218.167 828.5,217.5 Z"/></g>
<g><path style="opacity:0.624" fill="#000000" d="M 272.5,224.5 C 273.833,225.167 273.833,225.167 272.5,224.5 Z"/></g>
<g><path style="opacity:0.624" fill="#000000" d="M 836.5,224.5 C 837.833,225.167 837.833,225.167 836.5,224.5 Z"/></g>
<g><path style="opacity:0.999" fill="#000000" d="M 554.5,231.5 C 555.496,231.414 556.329,231.748 557,232.5C 561.29,252.918 565.79,273.252 570.5,293.5C 649.792,300.717 712.625,336.383 759,400.5C 783.776,436.99 797.943,477.323 801.5,521.5C 827.852,526.47 854.186,531.637 880.5,537C 885.03,537.879 889.363,539.213 893.5,541C 863.517,547.431 833.184,553.598 802.5,559.5C 792.486,645.408 750.82,710.908 677.5,756C 644.331,774.664 608.664,785.164 570.5,787.5C 567.192,803.538 563.692,819.538 560,835.5C 559.026,840.373 557.526,845.039 555.5,849.5C 550.042,828.973 544.709,808.473 539.5,788C 442.143,777.775 371.976,728.942 329,641.5C 317.932,615.227 310.932,587.894 308,559.5C 278.059,553.539 248.226,547.206 218.5,540.5C 248.378,533.559 278.378,527.226 308.5,521.5C 318.604,430.248 363.937,362.748 444.5,319C 474.726,304.096 506.726,295.596 540.5,293.5C 544.952,272.804 549.619,252.137 554.5,231.5 Z M 525.5,336.5 C 526.833,336.5 528.167,336.5 529.5,336.5C 519.238,385.341 508.238,434.008 496.5,482.5C 494.887,483.427 493.221,484.261 491.5,485C 444.84,493.76 398.34,503.26 352,513.5C 362.207,443.91 398.04,392.076 459.5,358C 480.576,347.696 502.576,340.529 525.5,336.5 Z M 580.5,336.5 C 647.784,346.382 698.95,380.382 734,438.5C 746.671,461.51 755.171,486.01 759.5,512C 710.906,503.513 662.572,493.846 614.5,483C 602.768,434.332 591.434,385.499 580.5,336.5 Z M 351.5,568.5 C 399.486,577.879 447.486,587.379 495.5,597C 496.46,598.419 497.293,599.919 498,601.5C 508.352,649.113 519.185,696.613 530.5,744C 462.717,735.491 411.217,701.657 376,642.5C 363.215,619.361 355.049,594.694 351.5,568.5 Z M 755.5,568.5 C 756.873,568.343 758.207,568.51 759.5,569C 743.643,654.855 694.309,711.521 611.5,739C 601.315,741.334 591.148,743.501 581,745.5C 591.259,696.382 602.259,647.382 614,598.5C 617.306,596.968 620.806,595.801 624.5,595C 668.322,586.389 711.988,577.556 755.5,568.5 Z"/></g>
<g><path style="opacity:0.624" fill="#000000" d="M 239.5,257.5 C 240.833,258.167 240.833,258.167 239.5,257.5 Z"/></g>
<g><path style="opacity:0.624" fill="#000000" d="M 869.5,257.5 C 870.833,258.167 870.833,258.167 869.5,257.5 Z"/></g>
<g><path style="opacity:0.435" fill="#000000" d="M 232.5,265.5 C 233.833,266.167 233.833,266.167 232.5,265.5 Z"/></g>
<g><path style="opacity:0.435" fill="#000000" d="M 876.5,265.5 C 877.833,266.167 877.833,266.167 876.5,265.5 Z"/></g>
<g><path style="opacity:0.624" fill="#000000" d="M 227.5,271.5 C 228.833,272.167 228.833,272.167 227.5,271.5 Z"/></g>
<g><path style="opacity:0.561" fill="#000000" d="M 881.5,271.5 C 882.833,272.167 882.833,272.167 881.5,271.5 Z"/></g>
<g><path style="opacity:0.435" fill="#000000" d="M 216.5,285.5 C 217.833,286.167 217.833,286.167 216.5,285.5 Z"/></g>
<g><path style="opacity:0.435" fill="#000000" d="M 892.5,285.5 C 893.833,286.167 893.833,286.167 892.5,285.5 Z"/></g>
<g><path style="opacity:0.956" fill="#000000" d="M 1127.5,291.5 C 1146.97,290.661 1166.31,291.828 1185.5,295C 1205.57,299.946 1222.4,310.112 1236,325.5C 1243.68,336.131 1247.84,347.797 1248.5,360.5C 1236.17,361.833 1223.83,361.833 1211.5,360.5C 1204.25,342.755 1191.25,331.588 1172.5,327C 1144.99,320.723 1118.99,324.389 1094.5,338C 1076.71,352.677 1069.55,371.51 1073,394.5C 1076.55,416.452 1088.72,431.285 1109.5,439C 1130.62,445.7 1151.95,446.7 1173.5,442C 1191.61,437.457 1204.27,426.624 1211.5,409.5C 1223.83,408.167 1236.17,408.167 1248.5,409.5C 1245.95,434.716 1233.29,453.216 1210.5,465C 1183.39,477.028 1155.06,481.028 1125.5,477C 1101.23,474.531 1079.56,465.864 1060.5,451C 1042,433.113 1032.66,411.113 1032.5,385C 1033.88,342.301 1054.55,313.635 1094.5,299C 1105.4,295.633 1116.4,293.133 1127.5,291.5 Z"/></g>
<g><path style="opacity:0.373" fill="#000000" d="M 208.5,296.5 C 209.833,297.167 209.833,297.167 208.5,296.5 Z"/></g>
<g><path style="opacity:0.373" fill="#000000" d="M 900.5,296.5 C 901.833,297.167 901.833,297.167 900.5,296.5 Z"/></g>
<g><path style="opacity:0.956" fill="#000000" d="M 1340.5,333.5 C 1362.78,331.482 1384.44,333.982 1405.5,341C 1438.74,357.638 1452.24,384.471 1446,421.5C 1439.48,447.023 1423.65,463.856 1398.5,472C 1365.74,481.606 1334.07,478.94 1303.5,464C 1277.79,446.267 1267.63,421.767 1273,390.5C 1278.08,366.743 1291.92,350.243 1314.5,341C 1323.2,338.149 1331.87,335.649 1340.5,333.5 Z M 1353.5,361.5 C 1366.26,360.896 1378.6,363.396 1390.5,369C 1406.89,381.642 1412.72,398.142 1408,418.5C 1402.22,433.602 1391.39,443.102 1375.5,447C 1357.73,450.439 1341.06,447.772 1325.5,439C 1309.93,424.752 1305.76,407.586 1313,387.5C 1322.07,371.886 1335.57,363.219 1353.5,361.5 Z"/></g>
<g><path style="opacity:0.951" fill="#000000" d="M 1558.5,333.5 C 1576.98,330.89 1594.31,334.056 1610.5,343C 1619.28,349.623 1625.61,358.123 1629.5,368.5C 1649.98,337.941 1678.31,327.107 1714.5,336C 1733.64,342.139 1745.47,354.972 1750,374.5C 1751.74,407.485 1751.91,440.485 1750.5,473.5C 1738.88,474.645 1727.21,474.812 1715.5,474C 1715,473.5 1714.5,473 1714,472.5C 1713.96,442.127 1713.29,411.794 1712,381.5C 1707.99,371.238 1700.49,365.405 1689.5,364C 1666.26,360.741 1647.09,367.908 1632,385.5C 1631.83,414.839 1631.33,444.172 1630.5,473.5C 1618.83,474.833 1607.17,474.833 1595.5,473.5C 1594.94,443.142 1594.11,412.809 1593,382.5C 1589.19,371.991 1581.69,365.824 1570.5,364C 1547.34,360.718 1528.17,367.885 1513,385.5C 1512.25,387.332 1511.25,388.999 1510,390.5C 1509.83,418.173 1509.33,445.839 1508.5,473.5C 1496.83,474.833 1485.17,474.833 1473.5,473.5C 1472.33,427.837 1472.17,382.17 1473,336.5C 1484.76,335.346 1496.59,335.179 1508.5,336C 1509.32,347.758 1509.82,359.591 1510,371.5C 1519.95,350.789 1536.12,338.122 1558.5,333.5 Z"/></g>
<g><path style="opacity:0.951" fill="#000000" d="M 1866.5,333.5 C 1895.97,329.337 1920.8,338.003 1941,359.5C 1957.2,382.671 1960.53,407.671 1951,434.5C 1937.1,462.877 1914.26,477.21 1882.5,477.5C 1852.37,477.188 1831.54,463.188 1820,435.5C 1819.67,466.5 1819.33,497.5 1819,528.5C 1806.91,529.488 1794.75,529.822 1782.5,529.5C 1782.33,465.166 1782.5,400.832 1783,336.5C 1794.09,335.347 1805.26,335.18 1816.5,336C 1818.16,347.733 1819.32,359.566 1820,371.5C 1828.78,350.553 1844.28,337.886 1866.5,333.5 Z M 1863.5,361.5 C 1879.53,360.161 1893.86,364.328 1906.5,374C 1920.57,391.737 1922.07,410.571 1911,430.5C 1896.12,446.234 1877.95,451.734 1856.5,447C 1825.67,439.521 1814.17,420.354 1822,389.5C 1825.77,380.436 1831.93,373.603 1840.5,369C 1848.1,365.847 1855.76,363.347 1863.5,361.5 Z"/></g>
<g><path style="opacity:0.946" fill="#000000" d="M 2035.5,333.5 C 2056.12,330.291 2075.12,334.124 2092.5,345C 2100.74,351.678 2106.91,359.845 2111,369.5C 2112.09,358.314 2112.92,347.147 2113.5,336C 2124.83,335.333 2136.17,335.333 2147.5,336C 2148,336.5 2148.5,337 2149,337.5C 2149.83,382.738 2149.66,427.904 2148.5,473C 2142.94,474.121 2137.27,474.621 2131.5,474.5C 2126.12,474.477 2120.78,474.144 2115.5,473.5C 2114.23,470.633 2113.39,467.633 2113,464.5C 2112.89,455.107 2112.22,445.774 2111,436.5C 2096.51,466.938 2072.34,480.438 2038.5,477C 1998.08,469.913 1976.74,445.913 1974.5,405C 1977.12,365.892 1997.45,342.059 2035.5,333.5 Z M 2051.5,362.5 C 2068.25,360.547 2083.59,364.047 2097.5,373C 2111.63,386.679 2115.46,402.846 2109,421.5C 2101.79,435.694 2090.29,444.194 2074.5,447C 2065.17,447.667 2055.83,447.667 2046.5,447C 2019.99,438.826 2009.16,420.993 2014,393.5C 2019.75,374.913 2032.25,364.579 2051.5,362.5 Z"/></g>
<g><path style="opacity:0.947" fill="#000000" d="M 2225.5,333.5 C 2237.17,333.333 2248.84,333.5 2260.5,334C 2279.6,336.618 2293.44,346.451 2302,363.5C 2304.27,369.262 2304.77,375.095 2303.5,381C 2293.5,381.667 2283.5,381.667 2273.5,381C 2271.06,376.047 2268.06,371.381 2264.5,367C 2261.13,364.816 2257.47,363.483 2253.5,363C 2244.79,362.202 2236.12,362.536 2227.5,364C 2218.4,367.028 2215.24,373.195 2218,382.5C 2219.17,383.667 2220.33,384.833 2221.5,386C 2242.16,391.115 2262.82,396.448 2283.5,402C 2305.61,410.636 2313.45,426.469 2307,449.5C 2302.44,459.727 2294.94,466.894 2284.5,471C 2258.04,479.953 2231.71,479.619 2205.5,470C 2188.14,462.763 2177.81,449.93 2174.5,431.5C 2174.57,430.228 2174.9,429.062 2175.5,428C 2186.5,427.333 2197.5,427.333 2208.5,428C 2216.5,442.754 2229,449.587 2246,448.5C 2253.13,448.507 2259.96,447.174 2266.5,444.5C 2271.07,439.492 2272.23,433.825 2270,427.5C 2266.91,423.365 2262.74,420.865 2257.5,420C 2240.31,417.158 2223.31,413.491 2206.5,409C 2180.2,398.912 2172.87,381.079 2184.5,355.5C 2191.08,347.206 2199.41,341.373 2209.5,338C 2214.99,336.598 2220.33,335.098 2225.5,333.5 Z"/></g>
<g><path style="opacity:0.948" fill="#000000" d="M 2381.5,333.5 C 2392.84,333.333 2404.17,333.5 2415.5,334C 2434.95,336.139 2448.78,345.972 2457,363.5C 2459.39,369.239 2459.89,375.072 2458.5,381C 2448.5,381.667 2438.5,381.667 2428.5,381C 2426.05,376.02 2423.05,371.354 2419.5,367C 2416.13,364.816 2412.47,363.483 2408.5,363C 2399.79,362.202 2391.12,362.536 2382.5,364C 2372.04,368.283 2369.7,375.283 2375.5,385C 2377.33,385.748 2379,386.748 2380.5,388C 2400.08,391.649 2419.41,396.316 2438.5,402C 2461.42,410.685 2469.26,426.852 2462,450.5C 2457.07,460.089 2449.57,466.922 2439.5,471C 2413.04,479.953 2386.71,479.619 2360.5,470C 2343.27,462.617 2332.94,449.784 2329.5,431.5C 2329.57,430.228 2329.9,429.062 2330.5,428C 2341.5,427.333 2352.5,427.333 2363.5,428C 2371.63,442.904 2384.3,449.737 2401.5,448.5C 2408.46,448.466 2415.13,447.132 2421.5,444.5C 2430.17,432.697 2427.5,424.53 2413.5,420C 2395.94,417.366 2378.6,413.7 2361.5,409C 2333.46,397.535 2326.96,378.701 2342,352.5C 2346.62,347.867 2351.79,344.034 2357.5,341C 2365.39,337.756 2373.39,335.256 2381.5,333.5 Z"/></g>
<g><path style="opacity:0.373" fill="#000000" d="M 166.5,371.5 C 167.833,372.167 167.833,372.167 166.5,371.5 Z"/></g>
<g><path style="opacity:0.373" fill="#000000" d="M 154.5,402.5 C 155.833,403.167 155.833,403.167 154.5,402.5 Z"/></g>
<g><path style="opacity:0.435" fill="#000000" d="M 153.5,405.5 C 154.833,406.167 154.833,406.167 153.5,405.5 Z"/></g>
<g><path style="opacity:0.498" fill="#000000" d="M 955.5,405.5 C 956.833,406.167 956.833,406.167 955.5,405.5 Z"/></g>
<g><path style="opacity:0.373" fill="#000000" d="M 152.5,408.5 C 153.833,409.167 153.833,409.167 152.5,408.5 Z"/></g>
<g><path style="opacity:0.373" fill="#000000" d="M 956.5,408.5 C 957.833,409.167 957.833,409.167 956.5,408.5 Z"/></g>
<g><path style="opacity:0.435" fill="#000000" d="M 148.5,421.5 C 149.833,422.167 149.833,422.167 148.5,421.5 Z"/></g>
<g><path style="opacity:0.498" fill="#000000" d="M 960.5,421.5 C 961.833,422.167 961.833,422.167 960.5,421.5 Z"/></g>
<g><path style="opacity:0.373" fill="#000000" d="M 133.5,500.5 C 134.833,501.167 134.833,501.167 133.5,500.5 Z"/></g>
<g><path style="opacity:0.435" fill="#000000" d="M 975.5,500.5 C 976.833,501.167 976.833,501.167 975.5,500.5 Z"/></g>
<g><path style="opacity:0.972" fill="#121207" d="M 3210.5,509.5 C 3218.51,509.334 3226.51,509.5 3234.5,510C 3252.17,515.683 3257,526.85 3249,543.5C 3244.65,547.758 3239.49,550.592 3233.5,552C 3226.17,552.667 3218.83,552.667 3211.5,552C 3194.49,546.751 3189.32,535.917 3196,519.5C 3199.98,514.774 3204.81,511.441 3210.5,509.5 Z"/></g>
<g><path style="opacity:0.989" fill="#121207" d="M 1040.5,510.5 C 1083.85,510.074 1127.19,510.574 1170.5,512C 1235.41,522.42 1268.41,560.586 1269.5,626.5C 1270.4,662.507 1257.74,692.674 1231.5,717C 1209.42,732.694 1184.76,741.027 1157.5,742C 1117.47,742.816 1077.47,742.649 1037.5,741.5C 1037.5,664.833 1037.5,588.167 1037.5,511.5C 1038.79,511.737 1039.79,511.404 1040.5,510.5 Z M 1093.5,554.5 C 1110.84,554.333 1128.17,554.5 1145.5,555C 1190.28,557.28 1212.62,580.78 1212.5,625.5C 1213.33,670.502 1191.33,694.669 1146.5,698C 1128.84,698.5 1111.17,698.667 1093.5,698.5C 1093.5,650.5 1093.5,602.5 1093.5,554.5 Z"/></g>
<g><path style="opacity:0.435" fill="#000000" d="M 132.5,513.5 C 133.833,514.167 133.833,514.167 132.5,513.5 Z"/></g>
<g><path style="opacity:0.435" fill="#000000" d="M 976.5,513.5 C 977.833,514.167 977.833,514.167 976.5,513.5 Z"/></g>
<g><path style="opacity:0.987" fill="#121207" d="M 3126.5,519.5 C 3128.83,519.5 3131.17,519.5 3133.5,519.5C 3133.5,537.167 3133.5,554.833 3133.5,572.5C 3172.07,572.17 3210.57,572.504 3249,573.5C 3249.83,629.503 3249.67,685.503 3248.5,741.5C 3230.85,742.807 3213.18,742.807 3195.5,741.5C 3195.5,699.167 3195.5,656.833 3195.5,614.5C 3174.83,614.5 3154.17,614.5 3133.5,614.5C 3133.03,639.898 3133.53,665.231 3135,690.5C 3136.73,693.953 3139.56,695.786 3143.5,696C 3154.08,696.179 3164.58,696.679 3175,697.5C 3175.67,711.833 3175.67,726.167 3175,740.5C 3174.25,741.126 3173.42,741.626 3172.5,742C 3152.47,742.897 3132.47,742.563 3112.5,741C 3095.76,737.257 3085.26,727.09 3081,710.5C 3080.5,678.502 3080.33,646.502 3080.5,614.5C 3070.17,614.5 3059.83,614.5 3049.5,614.5C 3049.33,600.829 3049.5,587.163 3050,573.5C 3060.08,572.514 3070.25,572.181 3080.5,572.5C 3080.33,558.163 3080.5,543.829 3081,529.5C 3083.07,528.475 3085.24,527.642 3087.5,527C 3100.72,524.938 3113.72,522.438 3126.5,519.5 Z"/></g>
<g><path style="opacity:0.98" fill="#121207" d="M 2769.5,520.5 C 2772.45,520.223 2775.28,520.556 2778,521.5C 2778.5,538.497 2778.67,555.497 2778.5,572.5C 2791.84,572.333 2805.17,572.5 2818.5,573C 2819,573.5 2819.5,574 2820,574.5C 2820.17,581 2820.33,587.5 2820.5,594C 2820.48,600.906 2819.81,607.572 2818.5,614C 2805.17,614.5 2791.84,614.667 2778.5,614.5C 2778.33,639.169 2778.5,663.836 2779,688.5C 2780.27,692.77 2783.1,695.27 2787.5,696C 2798.21,696.189 2808.88,696.689 2819.5,697.5C 2820.67,711.822 2820.83,726.155 2820,740.5C 2819.25,741.126 2818.42,741.626 2817.5,742C 2796.81,742.886 2776.14,742.553 2755.5,741C 2736.47,735.807 2726.31,723.307 2725,703.5C 2724.18,674.125 2724.34,644.791 2725.5,615.5C 2714.76,615.135 2704.26,614.135 2694,612.5C 2693.04,599.405 2693.37,586.405 2695,573.5C 2705.11,572.844 2715.27,572.178 2725.5,571.5C 2724.85,565.047 2724.52,558.547 2724.5,552C 2724.39,544.758 2724.89,537.591 2726,530.5C 2740.56,527.068 2755.06,523.734 2769.5,520.5 Z"/></g>
<g><path style="opacity:0.498" fill="#000000" d="M 132.5,565.5 C 133.833,566.167 133.833,566.167 132.5,565.5 Z"/></g>
<g><path style="opacity:0.435" fill="#000000" d="M 976.5,565.5 C 977.833,566.167 977.833,566.167 976.5,565.5 Z"/></g>
<g><path style="opacity:0.986" fill="#121207" d="M 1373.5,570.5 C 1401.33,568.08 1427.66,573.58 1452.5,587C 1481.51,608.547 1493.34,637.38 1488,673.5C 1479.46,710.371 1456.63,732.871 1419.5,741C 1393.14,746.398 1367.14,745.065 1341.5,737C 1304.76,722.934 1286.09,696.267 1285.5,657C 1287.35,614.13 1309.02,586.796 1350.5,575C 1358.28,573.349 1365.94,571.849 1373.5,570.5 Z M 1380.5,612.5 C 1424.72,612.95 1441.55,634.617 1431,677.5C 1425.84,689.329 1417,696.829 1404.5,700C 1390.63,703.594 1376.96,702.927 1363.5,698C 1353.19,692.68 1346.02,684.514 1342,673.5C 1340.54,664.88 1340.2,656.213 1341,647.5C 1343.01,635.327 1349.17,625.827 1359.5,619C 1366.29,615.785 1373.29,613.619 1380.5,612.5 Z"/></g>
<g><path style="opacity:0.982" fill="#121207" d="M 1591.5,570.5 C 1614.98,568.926 1637.65,572.426 1659.5,581C 1676.64,588.808 1689.14,601.308 1697,618.5C 1698.65,623.555 1699.81,628.722 1700.5,634C 1700.25,635.326 1699.58,636.326 1698.5,637C 1681.83,637.667 1665.17,637.667 1648.5,637C 1641.32,622.059 1629.32,614.059 1612.5,613C 1568.11,612.734 1551.28,634.234 1562,677.5C 1567.05,688.886 1575.55,696.386 1587.5,700C 1604.3,704.238 1620.3,702.238 1635.5,694C 1641.1,689.753 1645.1,684.42 1647.5,678C 1665.18,677.167 1682.84,677.334 1700.5,678.5C 1699.51,692.815 1693.85,705.149 1683.5,715.5C 1671.99,726.928 1658.32,734.761 1642.5,739C 1614.29,746.698 1586.29,746.032 1558.5,737C 1518.18,719.89 1500.35,689.39 1505,645.5C 1510.02,610.809 1529.19,587.976 1562.5,577C 1572.17,574.236 1581.84,572.069 1591.5,570.5 Z"/></g>
<g><path style="opacity:0.986" fill="#121207" d="M 2043.5,570.5 C 2064.33,568.703 2082.99,574.036 2099.5,586.5C 2104.94,592.271 2109.61,598.604 2113.5,605.5C 2129.19,581.487 2151.52,569.821 2180.5,570.5C 2219.44,570.946 2242.27,590.279 2249,628.5C 2249.83,666.171 2249.67,703.838 2248.5,741.5C 2231.5,742.833 2214.5,742.833 2197.5,741.5C 2196.67,710.505 2196.17,679.505 2196,648.5C 2192.8,618.127 2176.3,606.961 2146.5,615C 2133.77,620.064 2125.6,629.231 2122,642.5C 2120.55,675.468 2120.05,708.468 2120.5,741.5C 2102.5,742.833 2084.5,742.833 2066.5,741.5C 2066.67,709.832 2066.5,678.165 2066,646.5C 2065.29,637.311 2062.29,628.977 2057,621.5C 2040.01,609.785 2022.85,609.619 2005.5,621C 1999.17,626.481 1995.01,633.314 1993,641.5C 1991.73,674.476 1991.07,707.476 1991,740.5C 1990.25,741.126 1989.42,741.626 1988.5,742C 1971.79,742.818 1955.12,742.652 1938.5,741.5C 1937.33,685.503 1937.17,629.503 1938,573.5C 1954.43,572.342 1970.93,572.176 1987.5,573C 1988.62,573.839 1989.29,575.006 1989.5,576.5C 1990.22,583.48 1990.72,590.48 1991,597.5C 1991.31,598.308 1991.81,598.975 1992.5,599.5C 2005.19,582.32 2022.19,572.653 2043.5,570.5 Z"/></g>
<g><path style="opacity:0.985" fill="#121207" d="M 2356.5,570.5 C 2378.89,568.96 2400.55,572.126 2421.5,580C 2457.74,597.974 2473.41,627.14 2468.5,667.5C 2420.83,668.167 2373.17,668.833 2325.5,669.5C 2326.32,680.65 2330.99,689.817 2339.5,697C 2359.56,708.391 2380.23,709.391 2401.5,700C 2407.36,696.972 2411.69,692.472 2414.5,686.5C 2431.83,685.167 2449.17,685.167 2466.5,686.5C 2464.14,702.021 2456.47,714.521 2443.5,724C 2421.3,738.135 2396.97,744.968 2370.5,744.5C 2344.05,745.059 2320.05,737.893 2298.5,723C 2271.94,698.57 2263.1,668.737 2272,633.5C 2280.7,605.13 2299.2,586.296 2327.5,577C 2337.12,574.007 2346.79,571.841 2356.5,570.5 Z M 2364.5,606.5 C 2377.11,606.275 2389.11,608.775 2400.5,614C 2409.16,619.824 2413.83,627.991 2414.5,638.5C 2384.83,638.5 2355.17,638.5 2325.5,638.5C 2327.04,625.291 2334.04,616.124 2346.5,611C 2352.56,609.265 2358.56,607.765 2364.5,606.5 Z"/></g>
<g><path style="opacity:0.986" fill="#121207" d="M 2599.5,570.5 C 2652.36,567.869 2679.86,592.869 2682,645.5C 2682.82,677.03 2682.66,708.53 2681.5,740C 2681.09,740.945 2680.43,741.612 2679.5,742C 2662.14,742.792 2644.8,742.625 2627.5,741.5C 2627.67,710.498 2627.5,679.498 2627,648.5C 2625.38,625.046 2612.88,613.046 2589.5,612.5C 2569.54,612.556 2555.37,621.556 2547,639.5C 2545.74,645.122 2544.74,650.789 2544,656.5C 2543.83,684.839 2543.33,713.173 2542.5,741.5C 2525.88,742.652 2509.21,742.818 2492.5,742C 2491.33,741.5 2490.5,740.667 2490,739.5C 2489.01,684.084 2489.34,628.751 2491,573.5C 2507.8,572.172 2524.64,572.172 2541.5,573.5C 2542.98,582.095 2543.81,590.762 2544,599.5C 2544.25,600.624 2544.75,601.624 2545.5,602.5C 2558.62,583.607 2576.62,572.94 2599.5,570.5 Z"/></g>
<g><path style="opacity:0.989" fill="#121207" d="M 2905.5,570.5 C 2926.18,568.777 2945.52,572.944 2963.5,583C 2969.69,587.687 2975.02,593.187 2979.5,599.5C 2980.52,591.188 2981.36,582.855 2982,574.5C 2982.5,574 2983,573.5 2983.5,573C 2999.74,572.176 3015.91,572.342 3032,573.5C 3032.83,629.503 3032.67,685.503 3031.5,741.5C 3014.88,742.652 2998.21,742.818 2981.5,742C 2980.33,741.581 2979.33,740.915 2978.5,740C 2979.65,732.914 2979.81,725.747 2979,718.5C 2978.75,717.376 2978.25,716.376 2977.5,715.5C 2966.1,731.029 2950.77,740.196 2931.5,743C 2896.9,748.473 2868.73,737.64 2847,710.5C 2830.01,679.874 2828.01,648.207 2841,615.5C 2854.68,589.248 2876.18,574.248 2905.5,570.5 Z M 2925.5,612.5 C 2968.89,612.974 2985.73,634.307 2976,676.5C 2970.51,688.657 2961.34,696.49 2948.5,700C 2933.96,704.072 2919.96,702.739 2906.5,696C 2896.78,689.739 2890.61,680.906 2888,669.5C 2885.2,654.316 2887.86,640.316 2896,627.5C 2904.1,618.974 2913.94,613.974 2925.5,612.5 Z"/></g>
<g><path style="opacity:0.987" fill="#121207" d="M 3357.5,570.5 C 3380.46,568.996 3402.79,572.496 3424.5,581C 3456.24,596.581 3472.24,622.081 3472.5,657.5C 3471.61,696.551 3452.94,723.051 3416.5,737C 3383.95,747.386 3351.62,746.72 3319.5,735C 3280.61,716.014 3264.11,684.847 3270,641.5C 3277.24,607.917 3297.41,586.084 3330.5,576C 3339.55,573.719 3348.55,571.885 3357.5,570.5 Z M 3364.5,612.5 C 3381.13,611.02 3395.63,615.686 3408,626.5C 3419,641.845 3421.33,658.511 3415,676.5C 3409.61,688.222 3400.78,696.055 3388.5,700C 3370.8,704.523 3354.14,702.19 3338.5,693C 3324.75,679.181 3320.25,662.681 3325,643.5C 3331.32,624.424 3344.49,614.091 3364.5,612.5 Z"/></g>
<g><path style="opacity:0.991" fill="#121208" d="M 3601.5,570.5 C 3622.56,568.807 3641.89,573.641 3659.5,585C 3672.38,596.267 3679.88,610.434 3682,627.5C 3683.73,665.488 3683.9,703.488 3682.5,741.5C 3664.85,742.807 3647.18,742.807 3629.5,741.5C 3629.67,710.832 3629.5,680.165 3629,649.5C 3628.46,636.588 3623.29,626.088 3613.5,618C 3596.87,610.301 3580.54,610.967 3564.5,620C 3552.66,628.863 3546.49,640.696 3546,655.5C 3545.83,684.172 3545.33,712.839 3544.5,741.5C 3527.88,742.652 3511.21,742.818 3494.5,742C 3493.58,741.626 3492.75,741.126 3492,740.5C 3491.33,685.167 3491.33,629.833 3492,574.5C 3492.5,574 3493,573.5 3493.5,573C 3510.21,572.182 3526.88,572.348 3543.5,573.5C 3544.96,582.769 3545.79,592.103 3546,601.5C 3546.41,601.957 3546.91,602.291 3547.5,602.5C 3560.58,583.623 3578.58,572.956 3601.5,570.5 Z"/></g>
<g><path style="opacity:0.989" fill="#131307" d="M 1718.5,572.5 C 1735.55,572.181 1752.55,572.514 1769.5,573.5C 1770.33,605.161 1770.83,636.828 1771,668.5C 1773.3,690.81 1785.64,702.143 1808,702.5C 1833.56,701.597 1848.56,688.597 1853,663.5C 1853.17,633.494 1853.67,603.494 1854.5,573.5C 1872.03,572.172 1889.53,572.172 1907,573.5C 1908.66,628.751 1908.99,684.084 1908,739.5C 1907.5,740.667 1906.67,741.5 1905.5,742C 1888.8,742.79 1872.14,742.623 1855.5,741.5C 1855.12,731.989 1854.12,722.322 1852.5,712.5C 1836.66,733.755 1815.32,744.422 1788.5,744.5C 1743.51,744.015 1719.35,721.348 1716,676.5C 1715.33,642.833 1715.33,609.167 1716,575.5C 1716.7,574.309 1717.53,573.309 1718.5,572.5 Z"/></g>
<g><path style="opacity:0.435" fill="#000000" d="M 133.5,578.5 C 134.833,579.167 134.833,579.167 133.5,578.5 Z"/></g>
<g><path style="opacity:0.373" fill="#000000" d="M 975.5,578.5 C 976.833,579.167 976.833,579.167 975.5,578.5 Z"/></g>
<g><path style="opacity:0.435" fill="#000000" d="M 148.5,657.5 C 149.833,658.167 149.833,658.167 148.5,657.5 Z"/></g>
<g><path style="opacity:0.435" fill="#000000" d="M 960.5,657.5 C 961.833,658.167 961.833,658.167 960.5,657.5 Z"/></g>
<g><path style="opacity:0.373" fill="#000000" d="M 152.5,670.5 C 153.833,671.167 153.833,671.167 152.5,670.5 Z"/></g>
<g><path style="opacity:0.373" fill="#000000" d="M 956.5,670.5 C 957.833,671.167 957.833,671.167 956.5,670.5 Z"/></g>
<g><path style="opacity:0.498" fill="#000000" d="M 153.5,673.5 C 154.833,674.167 154.833,674.167 153.5,673.5 Z"/></g>
<g><path style="opacity:0.498" fill="#000000" d="M 955.5,673.5 C 956.833,674.167 956.833,674.167 955.5,673.5 Z"/></g>
<g><path style="opacity:0.373" fill="#000000" d="M 954.5,676.5 C 955.833,677.167 955.833,677.167 954.5,676.5 Z"/></g>
<g><path style="opacity:0.373" fill="#000000" d="M 166.5,707.5 C 167.833,708.167 167.833,708.167 166.5,707.5 Z"/></g>
<g><path style="opacity:0.373" fill="#000000" d="M 942.5,707.5 C 943.833,708.167 943.833,708.167 942.5,707.5 Z"/></g>
<g><path style="opacity:0.812" fill="#000000" d="M 171.5,718.5 C 172.833,719.167 172.833,719.167 171.5,718.5 Z"/></g>
<g><path style="opacity:0.373" fill="#000000" d="M 208.5,782.5 C 209.833,783.167 209.833,783.167 208.5,782.5 Z"/></g>
<g><path style="opacity:0.373" fill="#000000" d="M 900.5,782.5 C 901.833,783.167 901.833,783.167 900.5,782.5 Z"/></g>
<g><path style="opacity:0.435" fill="#000000" d="M 216.5,793.5 C 217.833,794.167 217.833,794.167 216.5,793.5 Z"/></g>
<g><path style="opacity:0.435" fill="#000000" d="M 892.5,793.5 C 893.833,794.167 893.833,794.167 892.5,793.5 Z"/></g>
<g><path style="opacity:0.561" fill="#000000" d="M 227.5,807.5 C 228.833,808.167 228.833,808.167 227.5,807.5 Z"/></g>
<g><path style="opacity:0.561" fill="#000000" d="M 881.5,807.5 C 882.833,808.167 882.833,808.167 881.5,807.5 Z"/></g>
<g><path style="opacity:0.435" fill="#000000" d="M 232.5,813.5 C 233.833,814.167 233.833,814.167 232.5,813.5 Z"/></g>
<g><path style="opacity:0.373" fill="#000000" d="M 876.5,813.5 C 877.833,814.167 877.833,814.167 876.5,813.5 Z"/></g>
<g><path style="opacity:0.624" fill="#000000" d="M 239.5,821.5 C 240.833,822.167 240.833,822.167 239.5,821.5 Z"/></g>
<g><path style="opacity:0.624" fill="#000000" d="M 869.5,821.5 C 870.833,822.167 870.833,822.167 869.5,821.5 Z"/></g>
<g><path style="opacity:0.624" fill="#000000" d="M 272.5,854.5 C 273.833,855.167 273.833,855.167 272.5,854.5 Z"/></g>
<g><path style="opacity:0.624" fill="#000000" d="M 836.5,854.5 C 837.833,855.167 837.833,855.167 836.5,854.5 Z"/></g>
<g><path style="opacity:0.435" fill="#000000" d="M 280.5,861.5 C 281.833,862.167 281.833,862.167 280.5,861.5 Z"/></g>
<g><path style="opacity:0.435" fill="#000000" d="M 828.5,861.5 C 829.833,862.167 829.833,862.167 828.5,861.5 Z"/></g>
<g><path style="opacity:0.561" fill="#000000" d="M 286.5,866.5 C 287.833,867.167 287.833,867.167 286.5,866.5 Z"/></g>
<g><path style="opacity:0.561" fill="#000000" d="M 822.5,866.5 C 823.833,867.167 823.833,867.167 822.5,866.5 Z"/></g>
<g><path style="opacity:0.373" fill="#000000" d="M 300.5,877.5 C 301.833,878.167 301.833,878.167 300.5,877.5 Z"/></g>
<g><path style="opacity:0.435" fill="#000000" d="M 808.5,877.5 C 809.833,878.167 809.833,878.167 808.5,877.5 Z"/></g>
<g><path style="opacity:0.373" fill="#000000" d="M 311.5,885.5 C 312.833,886.167 312.833,886.167 311.5,885.5 Z"/></g>
<g><path style="opacity:0.373" fill="#000000" d="M 797.5,885.5 C 798.833,886.167 798.833,886.167 797.5,885.5 Z"/></g>
<g><path style="opacity:0.373" fill="#000000" d="M 386.5,927.5 C 387.833,928.167 387.833,928.167 386.5,927.5 Z"/></g>
<g><path style="opacity:0.373" fill="#000000" d="M 417.5,939.5 C 418.833,940.167 418.833,940.167 417.5,939.5 Z"/></g>
<g><path style="opacity:0.373" fill="#000000" d="M 691.5,939.5 C 692.833,940.167 692.833,940.167 691.5,939.5 Z"/></g>
<g><path style="opacity:0.498" fill="#000000" d="M 420.5,940.5 C 421.833,941.167 421.833,941.167 420.5,940.5 Z"/></g>
<g><path style="opacity:0.498" fill="#000000" d="M 688.5,940.5 C 689.833,941.167 689.833,941.167 688.5,940.5 Z"/></g>
<g><path style="opacity:0.373" fill="#000000" d="M 423.5,941.5 C 424.833,942.167 424.833,942.167 423.5,941.5 Z"/></g>
<g><path style="opacity:0.373" fill="#000000" d="M 685.5,941.5 C 686.833,942.167 686.833,942.167 685.5,941.5 Z"/></g>
<g><path style="opacity:0.435" fill="#000000" d="M 436.5,945.5 C 437.833,946.167 437.833,946.167 436.5,945.5 Z"/></g>
<g><path style="opacity:0.435" fill="#000000" d="M 672.5,945.5 C 673.833,946.167 673.833,946.167 672.5,945.5 Z"/></g>
<g><path style="opacity:0.373" fill="#000000" d="M 515.5,960.5 C 516.833,961.167 516.833,961.167 515.5,960.5 Z"/></g>
<g><path style="opacity:0.373" fill="#000000" d="M 593.5,960.5 C 594.833,961.167 594.833,961.167 593.5,960.5 Z"/></g>
<g><path style="opacity:0.435" fill="#000000" d="M 528.5,961.5 C 529.833,962.167 529.833,962.167 528.5,961.5 Z"/></g>
<g><path style="opacity:0.435" fill="#000000" d="M 580.5,961.5 C 581.833,962.167 581.833,962.167 580.5,961.5 Z"/></g>
</svg>
