<?xml version="1.0" encoding="UTF-8"?>
<!DOCTYPE svg PUBLIC "-//W3C//DTD SVG 1.1//EN" "http://www.w3.org/Graphics/SVG/1.1/DTD/svg11.dtd">
<svg xmlns="http://www.w3.org/2000/svg" version="1.1" width="3840px" height="1080px" style="shape-rendering:geometricPrecision; text-rendering:geometricPrecision; image-rendering:optimizeQuality; fill-rule:evenodd; clip-rule:evenodd" xmlns:xlink="http://www.w3.org/1999/xlink">
<g><path style="opacity:0.943" fill="#000000" d="M -0.5,541.5 C -0.5,539.833 -0.5,538.167 -0.5,536.5C 7.71707,535.411 15.7171,533.578 23.5,531C 42.437,528.182 61.437,525.515 80.5,523C 86.6162,520.474 92.9495,518.474 99.5,517C 100.525,514.929 101.358,512.762 102,510.5C 111.695,423.993 151.529,354.159 221.5,301C 261.781,271.88 306.615,254.047 356,247.5C 362.231,247.869 368.398,246.869 374.5,244.5C 375.772,241.618 377.105,238.785 378.5,236C 378.167,235.667 377.833,235.333 377.5,235C 381.715,216.895 385.882,198.728 390,180.5C 391,177.36 393.167,176.027 396.5,176.5C 402.036,193.012 405.869,210.012 408,227.5C 409.755,231.99 411.088,236.657 412,241.5C 412.465,242.931 413.299,244.097 414.5,245C 512.525,255.256 588.691,301.423 643,383.5C 666.852,422.234 681.185,464.234 686,509.5C 686.462,514.629 689.296,517.463 694.5,518C 727.029,523.626 759.363,529.792 791.5,536.5C 791.5,538.167 791.5,539.833 791.5,541.5C 757,548.264 722.666,555.431 688.5,563C 687.286,565.351 686.452,567.851 686,570.5C 675.467,656.751 635.3,726.251 565.5,779C 520.926,810.456 471.26,828.456 416.5,833C 415.376,833.249 414.376,833.749 413.5,834.5C 411.104,839.979 409.27,845.646 408,851.5C 406.006,868.312 402.172,884.646 396.5,900.5C 393.743,901.866 391.577,901.199 390,898.5C 386.087,880.817 382.42,863.151 379,845.5C 378.181,841.38 376.681,837.546 374.5,834C 286.089,825.655 214.255,786.821 159,717.5C 146.47,699.778 135.47,681.112 126,661.5C 118.752,643.368 112.418,625.035 107,606.5C 104.307,593.981 102.64,581.314 102,568.5C 101.505,563.344 98.6718,560.511 93.5,560C 69.8036,554.605 45.8036,550.271 21.5,547C 14.0239,545.409 6.69057,543.576 -0.5,541.5 Z M 155.5,503.5 C 156.114,497.147 156.947,490.814 158,484.5C 173.28,423.202 207.113,374.369 259.5,338C 266.274,334.775 272.607,330.775 278.5,326C 282.065,325.165 285.232,323.665 288,321.5C 288.333,321.833 288.667,322.167 289,322.5C 292.445,320.197 295.945,318.03 299.5,316C 319.573,309.023 340.073,303.523 361,299.5C 360.821,304.58 360.155,309.913 359,315.5C 358.086,314.346 357.253,314.513 356.5,316C 357.022,316.561 357.355,317.228 357.5,318C 349.611,352.957 341.778,387.79 334,422.5C 332.383,423.536 332.216,424.703 333.5,426C 333,426.5 332.5,427 332,427.5C 329.421,441.64 326.254,455.307 322.5,468.5C 316.845,472.377 310.678,473.71 304,472.5C 303.481,473.516 302.647,474.182 301.5,474.5C 280.645,478.592 259.645,483.092 238.5,488C 227.462,489.407 216.462,491.074 205.5,493C 188.588,496.942 171.921,500.442 155.5,503.5 Z M 623.5,463.5 C 627.741,476.473 630.741,489.806 632.5,503.5C 618.822,500.437 604.822,497.77 590.5,495.5C 577.369,492.157 563.703,489.657 549.5,488C 547.956,487.71 546.623,487.044 545.5,486C 534.518,484.531 523.685,482.364 513,479.5C 511.564,479.559 510.231,479.892 509,480.5C 507.144,478.333 504.977,477.666 502.5,478.5C 492.401,475.416 482.068,473.25 471.5,472C 469.58,470.878 467.58,470.044 465.5,469.5C 463.523,458.784 460.856,448.284 457.5,438C 457.24,435.61 457.24,433.11 457.5,430.5C 456.415,428.123 455.248,425.789 454,423.5C 447.735,394.837 441.735,366.17 436,337.5C 431.466,325.673 428.633,313.34 427.5,300.5C 433.866,301.006 440.2,301.839 446.5,303C 519.267,321.241 573.434,363.074 609,428.5C 611.762,435.792 615.095,442.792 619,449.5C 620.235,454.291 621.735,458.958 623.5,463.5 Z M 361.5,779.5 C 346.249,778.099 331.916,774.599 318.5,769C 313.552,767.462 308.552,766.128 303.5,765C 294.38,760.94 285.38,756.607 276.5,752C 269.096,746.376 261.429,741.209 253.5,736.5C 246.985,732.736 240.985,728.236 235.5,723C 190.927,683.009 163.927,633.676 154.5,575C 156.567,574.464 158.401,574.964 160,576.5C 160.561,575.978 161.228,575.645 162,575.5C 172.905,579.014 184.072,581.514 195.5,583C 211.424,586.904 227.757,589.904 244.5,592C 254.519,594.393 264.519,596.893 274.5,599.5C 275.167,599.167 275.833,598.833 276.5,598.5C 289.759,602.029 303.092,605.362 316.5,608.5C 320.564,607.348 323.064,609.014 324,613.5C 330.562,642.502 337.396,671.336 344.5,700C 343.941,700.725 343.608,701.558 343.5,702.5C 346.169,712.894 348.835,723.227 351.5,733.5C 351.291,734.086 350.957,734.586 350.5,735C 351.578,735.674 352.245,736.674 352.5,738C 355.727,751.729 358.727,765.562 361.5,779.5 Z M 632.5,575.5 C 629.913,593.184 625.746,610.517 620,627.5C 615.528,635.482 611.861,643.482 609,651.5C 602.563,661.294 596.73,670.96 591.5,680.5C 590.675,681.386 589.675,681.719 588.5,681.5C 588.046,684.14 586.879,686.473 585,688.5C 575.99,698.541 566.99,708.541 558,718.5C 557.667,718.167 557.333,717.833 557,717.5C 551.479,723.342 545.645,728.842 539.5,734C 533.468,737.998 527.134,741.665 520.5,745C 517.47,747.372 514.47,749.705 511.5,752C 504.363,754.49 497.696,757.823 491.5,762C 477.055,767.176 462.722,771.842 448.5,776C 441.544,777.271 434.544,778.104 427.5,778.5C 434.325,748.542 440.825,718.542 447,688.5C 449.449,682.763 450.949,676.763 451.5,670.5C 451.919,669.328 452.585,668.328 453.5,667.5C 452.332,660.346 453.666,653.679 457.5,647.5C 457.291,646.914 456.957,646.414 456.5,646C 458.868,640.612 460.535,635.112 461.5,629.5C 462.044,622.615 463.544,615.948 466,609.5C 466.689,608.643 467.522,607.977 468.5,607.5C 470.5,607.833 472.5,608.167 474.5,608.5C 475.354,607.478 476.354,606.645 477.5,606C 486.216,604.88 494.883,603.547 503.5,602C 505.898,600.982 508.231,599.815 510.5,598.5C 511.293,598.931 512.127,599.265 513,599.5C 548.908,592.241 584.574,584.908 620,577.5C 620.873,577.735 621.707,578.069 622.5,578.5C 623.281,577.263 624.281,576.263 625.5,575.5C 627.727,576.053 630.061,576.053 632.5,575.5 Z"/></g>
<g><path style="opacity:0.965" fill="#000000" d="M 972.5,243.5 C 991.891,243.076 1011.22,243.909 1030.5,246C 1055.48,250.208 1077.65,260.375 1097,276.5C 1112.25,291.551 1121.41,309.717 1124.5,331C 1123.83,332 1123.17,333 1122.5,334C 1107.5,334.667 1092.5,334.667 1077.5,334C 1072.25,322.847 1065.25,312.847 1056.5,304C 1045.02,295.927 1032.35,290.594 1018.5,288C 1003.2,286.454 987.869,286.121 972.5,287C 908.614,297.262 884.78,333.762 901,396.5C 911.729,418.286 928.896,432.119 952.5,438C 980.565,445.156 1008.57,444.49 1036.5,436C 1055.2,427.966 1068.53,414.633 1076.5,396C 1092.16,395.5 1107.83,395.333 1123.5,395.5C 1120.09,427.405 1104.43,451.238 1076.5,467C 1051.56,478.938 1025.22,485.104 997.5,485.5C 968.569,485.746 940.569,480.912 913.5,471C 873.071,453.233 850.238,422.399 845,378.5C 841.103,313.098 870.27,270.598 932.5,251C 945.789,247.503 959.122,245.003 972.5,243.5 Z"/></g>
<g><path style="opacity:0.965" fill="#000000" d="M 1260.5,297.5 C 1288.88,295.874 1315.54,301.707 1340.5,315C 1372.86,336.913 1386.36,367.413 1381,406.5C 1375.09,438.413 1357.26,460.913 1327.5,474C 1302.05,483.94 1275.72,487.273 1248.5,484C 1220.26,481.827 1196.1,470.994 1176,451.5C 1157.7,428.694 1151.03,402.694 1156,373.5C 1164.55,336.284 1187.38,312.784 1224.5,303C 1236.51,300.246 1248.51,298.413 1260.5,297.5 Z M 1260.5,334.5 C 1277.86,333.337 1294.19,336.837 1309.5,345C 1330.09,361.392 1337.25,382.559 1331,408.5C 1321.73,431.091 1304.89,443.924 1280.5,447C 1264.6,449.035 1249.27,447.035 1234.5,441C 1206.93,425.993 1197.43,403.159 1206,372.5C 1213.61,353.569 1227.44,341.736 1247.5,337C 1251.99,336.24 1256.32,335.406 1260.5,334.5 Z"/></g>
<g><path style="opacity:0.977" fill="#000000" d="M 1540.5,297.5 C 1559.51,296.999 1577.18,301.499 1593.5,311C 1606.28,320.048 1614.44,332.215 1618,347.5C 1635.1,315.103 1662.1,298.437 1699,297.5C 1719.27,297.206 1737.43,303.039 1753.5,315C 1765.56,326.617 1772.73,340.783 1775,357.5C 1775.5,398.499 1775.67,439.499 1775.5,480.5C 1759.83,480.5 1744.17,480.5 1728.5,480.5C 1728.96,441.799 1728.46,403.132 1727,364.5C 1724.96,356.241 1720.8,349.408 1714.5,344C 1685.79,331.539 1658.79,334.539 1633.5,353C 1628.97,357.199 1624.8,361.699 1621,366.5C 1620.5,404.499 1620.33,442.499 1620.5,480.5C 1604.83,480.5 1589.17,480.5 1573.5,480.5C 1573.67,443.832 1573.5,407.165 1573,370.5C 1571.41,353.101 1562.24,342.268 1545.5,338C 1515.46,332.348 1489.96,340.514 1469,362.5C 1466.27,366.241 1463.93,370.241 1462,374.5C 1461.5,409.832 1461.33,445.165 1461.5,480.5C 1445.83,480.5 1430.17,480.5 1414.5,480.5C 1414.5,420.833 1414.5,361.167 1414.5,301.5C 1430.17,301.5 1445.83,301.5 1461.5,301.5C 1461.33,318.17 1461.5,334.837 1462,351.5C 1477.02,317.243 1503.19,299.243 1540.5,297.5 Z"/></g>
<g><path style="opacity:0.958" fill="#000000" d="M 1937.5,297.5 C 1982.17,295.067 2014.67,313.4 2035,352.5C 2044.89,378.483 2044.89,404.483 2035,430.5C 2016.73,465.897 1987.56,483.897 1947.5,484.5C 1907.69,484.518 1880.19,466.185 1865,429.5C 1864.5,470.165 1864.33,510.832 1864.5,551.5C 1849.87,552.617 1835.2,552.783 1820.5,552C 1819.23,551.691 1818.07,551.191 1817,550.5C 1816.33,467.833 1816.33,385.167 1817,302.5C 1831.76,301.343 1846.59,301.177 1861.5,302C 1862.96,317.088 1864.12,332.255 1865,347.5C 1874.35,325.481 1890.18,310.314 1912.5,302C 1920.91,300.161 1929.24,298.661 1937.5,297.5 Z M 1917.5,335.5 C 1934.08,333.867 1950.08,336.034 1965.5,342C 1984.53,353.211 1993.86,370.044 1993.5,392.5C 1991.53,422.304 1975.87,440.137 1946.5,446C 1924.04,449.709 1903.37,445.375 1884.5,433C 1864.98,415.09 1859.81,393.59 1869,368.5C 1876.04,354.796 1886.88,345.296 1901.5,340C 1906.93,338.351 1912.26,336.851 1917.5,335.5 Z"/></g>
<g><path style="opacity:0.96" fill="#000000" d="M 2157.5,297.5 C 2177.22,296.6 2195.89,300.434 2213.5,309C 2228.36,318.562 2238.53,331.728 2244,348.5C 2244.17,332.926 2244.67,317.426 2245.5,302C 2261.07,301.176 2276.57,301.343 2292,302.5C 2292.83,361.737 2292.66,420.904 2291.5,480C 2277.16,480.833 2262.82,480.666 2248.5,479.5C 2246.34,462.921 2244.84,446.255 2244,429.5C 2226.98,468.438 2197.15,486.605 2154.5,484C 2117.36,480.861 2090.53,462.694 2074,429.5C 2064,403.824 2064,378.157 2074,352.5C 2086.08,327.083 2105.58,310.25 2132.5,302C 2140.92,300.147 2149.25,298.647 2157.5,297.5 Z M 2170.5,335.5 C 2185.64,334.638 2200.3,336.805 2214.5,342C 2237.82,354.41 2247.65,373.91 2244,400.5C 2239.06,423.44 2225.23,437.94 2202.5,444C 2181.87,449.576 2161.87,447.909 2142.5,439C 2124.41,428.208 2115.74,412.208 2116.5,391C 2118.11,356.556 2136.11,338.056 2170.5,335.5 Z"/></g>
<g><path style="opacity:0.958" fill="#000000" d="M 2407.5,297.5 C 2421.99,297.55 2436.32,299.05 2450.5,302C 2478.81,310.796 2493.47,329.963 2494.5,359.5C 2480.5,359.667 2466.5,359.5 2452.5,359C 2451.1,351.522 2447.43,345.522 2441.5,341C 2423.52,332.442 2405.52,332.442 2387.5,341C 2380.27,346.967 2378.77,354.133 2383,362.5C 2385.23,364.7 2387.73,366.533 2390.5,368C 2408.01,372.636 2425.68,376.636 2443.5,380C 2458.09,383.059 2471.75,388.393 2484.5,396C 2502.13,412.876 2505.63,432.376 2495,454.5C 2485.02,468.425 2471.52,477.258 2454.5,481C 2424.21,487.251 2394.55,485.251 2365.5,475C 2344.44,465.716 2331.28,449.882 2326,427.5C 2325.29,425.101 2325.46,422.768 2326.5,420.5C 2340.82,419.334 2355.16,419.167 2369.5,420C 2377.44,436.001 2390.44,445.167 2408.5,447.5C 2414.99,446.237 2421.49,446.237 2428,447.5C 2434.21,446.824 2440.04,444.99 2445.5,442C 2456.49,425.298 2452.16,414.631 2432.5,410C 2416.9,406.678 2401.23,403.678 2385.5,401C 2367.35,397.676 2351.85,389.509 2339,376.5C 2325.09,349.398 2330.92,327.565 2356.5,311C 2372.58,302.566 2389.58,298.066 2407.5,297.5 Z"/></g>
<g><path style="opacity:0.959" fill="#000000" d="M 2608.5,297.5 C 2623.31,297.568 2637.98,299.068 2652.5,302C 2673.26,308.431 2687.1,321.931 2694,342.5C 2695.22,348.101 2695.72,353.768 2695.5,359.5C 2681.48,359.833 2667.48,359.499 2653.5,358.5C 2650.96,345.793 2643.29,338.293 2630.5,336C 2615.4,333.012 2601.06,335.012 2587.5,342C 2581.2,349.371 2580.86,357.037 2586.5,365C 2590.05,366.941 2593.71,368.607 2597.5,370C 2616.1,374.254 2634.77,378.254 2653.5,382C 2669.77,385.624 2683.61,393.458 2695,405.5C 2704.97,423.83 2704.3,441.83 2693,459.5C 2681.41,471.709 2667.24,479.209 2650.5,482C 2621.03,487.405 2592.36,484.739 2564.5,474C 2547.32,465.152 2535.48,451.652 2529,433.5C 2527.53,428.975 2527.37,424.475 2528.5,420C 2542.5,419.333 2556.5,419.333 2570.5,420C 2578.69,436.173 2591.86,445.34 2610,447.5C 2616.65,446.253 2623.32,446.253 2630,447.5C 2636.66,446.63 2642.82,444.464 2648.5,441C 2655.76,431.611 2655.1,422.944 2646.5,415C 2639.87,411.592 2632.87,409.259 2625.5,408C 2603.15,405.331 2581.48,399.998 2560.5,392C 2533.6,377.576 2526.43,356.41 2539,328.5C 2549.4,315.044 2562.9,306.21 2579.5,302C 2589.24,300.041 2598.91,298.541 2608.5,297.5 Z"/></g>
<g><path style="opacity:0.95" fill="#000000" d="M 3288.5,519.5 C 3298.31,518.927 3307.98,519.76 3317.5,522C 3332.73,530.031 3336.57,541.864 3329,557.5C 3324.35,562.913 3318.51,566.413 3311.5,568C 3301.35,569.125 3291.35,568.458 3281.5,566C 3267.65,559.802 3262.82,549.302 3267,534.5C 3269.5,529.333 3273.33,525.5 3278.5,523C 3282.05,522.122 3285.39,520.956 3288.5,519.5 Z"/></g>
<g><path style="opacity:0.97" fill="#000000" d="M 851.5,520.5 C 893.501,520.333 935.501,520.5 977.5,521C 1013.54,520.677 1045.21,532.011 1072.5,555C 1094.81,578.551 1106.64,606.717 1108,639.5C 1110.68,674.462 1102.01,706.128 1082,734.5C 1058.18,760.324 1028.68,774.824 993.5,778C 945.5,778.667 897.5,778.667 849.5,778C 848.335,692.903 848.168,607.737 849,522.5C 849.995,521.934 850.828,521.267 851.5,520.5 Z M 911.5,569.5 C 935.891,568.919 960.225,569.753 984.5,572C 1025.95,580.973 1045.95,606.806 1044.5,649.5C 1044.98,697.177 1021.65,723.677 974.5,729C 953.503,729.5 932.503,729.667 911.5,729.5C 911.5,676.167 911.5,622.833 911.5,569.5 Z"/></g>
<g><path style="opacity:0.962" fill="#000000" d="M 2794.5,530.5 C 2797.08,530.083 2799.25,530.75 2801,532.5C 2801.64,551.245 2801.64,569.912 2801,588.5C 2816.42,589.491 2831.92,589.824 2847.5,589.5C 2847.83,604.515 2847.5,619.515 2846.5,634.5C 2831.64,635.827 2816.8,635.827 2802,634.5C 2801.5,635 2801,635.5 2800.5,636C 2801.33,663.761 2801.83,691.595 2802,719.5C 2803.7,723.205 2806.53,725.372 2810.5,726C 2822.55,726.187 2834.55,726.687 2846.5,727.5C 2847.82,744.397 2847.82,761.231 2846.5,778C 2823.83,778.667 2801.17,778.667 2778.5,778C 2753.92,772.405 2741.42,756.905 2741,731.5C 2740.67,699.167 2740.33,666.833 2740,634.5C 2728.54,635.782 2717.04,635.782 2705.5,634.5C 2705.33,619.83 2705.5,605.163 2706,590.5C 2717.33,589.833 2728.67,589.167 2740,588.5C 2740.33,573.167 2740.67,557.833 2741,542.5C 2742.49,540.996 2744.32,540.163 2746.5,540C 2762.69,537.112 2778.69,533.945 2794.5,530.5 Z"/></g>
<g><path style="opacity:0.963" fill="#000000" d="M 3191.5,530.5 C 3193.83,530.5 3196.17,530.5 3198.5,530.5C 3199.48,549.841 3199.82,569.008 3199.5,588C 3242.74,588.17 3285.9,588.67 3329,589.5C 3329.83,652.404 3329.66,715.237 3328.5,778C 3308.59,778.826 3288.76,778.659 3269,777.5C 3269,729.691 3268.33,682.024 3267,634.5C 3244.67,635.833 3222.33,635.833 3200,634.5C 3199.5,635 3199,635.5 3198.5,636C 3199.33,663.428 3199.83,690.928 3200,718.5C 3200.44,722.567 3202.61,725.067 3206.5,726C 3219.41,726.177 3232.24,726.677 3245,727.5C 3245.67,744.167 3245.67,760.833 3245,777.5C 3223.24,778.66 3201.41,778.827 3179.5,778C 3152.69,773.522 3139.19,757.689 3139,730.5C 3138.17,698.791 3138.34,667.125 3139.5,635.5C 3129.01,635.608 3118.34,635.441 3107.5,635C 3105.94,634.682 3104.77,633.849 3104,632.5C 3103.03,618.073 3103.37,603.74 3105,589.5C 3116.58,588.99 3128.08,588.157 3139.5,587C 3138.2,571.876 3138.2,556.709 3139.5,541.5C 3157.02,538.064 3174.36,534.397 3191.5,530.5 Z"/></g>
<g><path style="opacity:0.972" fill="#000000" d="M 1221.5,585.5 C 1257.47,581.455 1290.47,589.288 1320.5,609C 1346.79,632.194 1357.96,661.36 1354,696.5C 1346.77,740.736 1321.27,767.903 1277.5,778C 1250.01,783.203 1222.68,782.536 1195.5,776C 1148.47,760.258 1125.63,727.425 1127,677.5C 1130.39,635.449 1151.89,607.283 1191.5,593C 1201.43,589.654 1211.43,587.154 1221.5,585.5 Z M 1234.5,632.5 C 1271.39,630.231 1291.39,647.397 1294.5,684C 1292.29,717.621 1274.29,734.788 1240.5,735.5C 1203.47,733.303 1185.97,713.636 1188,676.5C 1191.75,649.248 1207.25,634.582 1234.5,632.5 Z"/></g>
<g><path style="opacity:0.969" fill="#000000" d="M 1475.5,585.5 C 1502.91,583.948 1528.91,589.115 1553.5,601C 1576.12,614.09 1588.79,633.59 1591.5,659.5C 1571.5,659.5 1551.5,659.5 1531.5,659.5C 1528.61,650.776 1523.28,643.942 1515.5,639C 1498.26,631.544 1480.59,630.544 1462.5,636C 1442.17,645.282 1432.17,661.282 1432.5,684C 1432.41,710.526 1445.08,727.193 1470.5,734C 1491.7,738.889 1510.2,734.056 1526,719.5C 1528.56,715.538 1530.73,711.371 1532.5,707C 1552.5,706.5 1572.5,706.333 1592.5,706.5C 1590.32,726.369 1581.65,742.869 1566.5,756C 1541.63,773.683 1513.8,782.183 1483,781.5C 1450.48,782.774 1422.15,772.774 1398,751.5C 1380.35,732.247 1371.52,709.414 1371.5,683C 1373.76,635.745 1397.43,605.078 1442.5,591C 1453.53,588.422 1464.53,586.589 1475.5,585.5 Z"/></g>
<g><path style="opacity:0.981" fill="#000000" d="M 1980.5,585.5 C 2005.47,583.763 2026.64,591.763 2044,609.5C 2048.49,614.806 2051.65,620.806 2053.5,627.5C 2054.82,627.67 2055.99,627.337 2057,626.5C 2072.82,598.498 2096.98,584.831 2129.5,585.5C 2172.38,585.554 2197.88,606.554 2206,648.5C 2207.46,691.803 2207.96,735.137 2207.5,778.5C 2187.83,778.5 2168.17,778.5 2148.5,778.5C 2148.67,746.165 2148.5,713.832 2148,681.5C 2148.39,668.799 2145.73,656.799 2140,645.5C 2136.21,639.852 2131.05,636.018 2124.5,634C 2108.36,629.557 2093.36,631.89 2079.5,641C 2069.3,650.574 2063.8,662.407 2063,676.5C 2062.5,710.498 2062.33,744.498 2062.5,778.5C 2042.5,778.5 2022.5,778.5 2002.5,778.5C 2002.67,742.498 2002.5,706.498 2002,670.5C 1997.87,637.831 1979.71,625.664 1947.5,634C 1928.72,641.807 1918.88,655.974 1918,676.5C 1917.5,710.498 1917.33,744.498 1917.5,778.5C 1897.5,778.5 1877.5,778.5 1857.5,778.5C 1857.5,715.5 1857.5,652.5 1857.5,589.5C 1876.83,589.5 1896.17,589.5 1915.5,589.5C 1916.22,600.163 1916.88,610.83 1917.5,621.5C 1920.89,619.488 1923.39,616.488 1925,612.5C 1939.61,595.361 1958.11,586.361 1980.5,585.5 Z"/></g>
<g><path style="opacity:0.963" fill="#000000" d="M 2334.5,585.5 C 2360.06,584.564 2384.39,589.397 2407.5,600C 2436.27,616.35 2451.77,641.184 2454,674.5C 2454.9,682.246 2454.56,689.913 2453,697.5C 2399.9,698.497 2346.74,698.831 2293.5,698.5C 2294.73,717.911 2304.73,730.411 2323.5,736C 2338.17,739.333 2352.84,739.333 2367.5,736C 2378.69,733.257 2387.03,726.923 2392.5,717C 2411.83,716.333 2431.17,716.333 2450.5,717C 2451.06,717.725 2451.39,718.558 2451.5,719.5C 2445.21,741.92 2431.54,758.086 2410.5,768C 2395.57,774.982 2379.91,779.315 2363.5,781C 2340.08,783.176 2317.08,781.176 2294.5,775C 2247.28,756.769 2225.78,722.269 2230,671.5C 2236.01,630.493 2258.84,603.993 2298.5,592C 2310.51,589.172 2322.51,587.006 2334.5,585.5 Z M 2341.5,626.5 C 2355.19,626.534 2367.86,630.034 2379.5,637C 2387.44,644.046 2391.77,652.88 2392.5,663.5C 2359.17,663.5 2325.83,663.5 2292.5,663.5C 2295.5,646.661 2305.17,635.494 2321.5,630C 2328.31,628.864 2334.98,627.698 2341.5,626.5 Z"/></g>
<g><path style="opacity:0.974" fill="#000000" d="M 2601.5,585.5 C 2624.33,583.629 2645.33,588.796 2664.5,601C 2680.64,615.124 2689.48,632.957 2691,654.5C 2691.5,695.832 2691.67,737.165 2691.5,778.5C 2671.59,778.826 2651.76,778.493 2632,777.5C 2631.67,746.833 2631.33,716.167 2631,685.5C 2633.09,644.247 2613.92,627.08 2573.5,634C 2551.52,641.656 2539.69,657.156 2538,680.5C 2537.5,713.165 2537.33,745.832 2537.5,778.5C 2517.5,778.5 2497.5,778.5 2477.5,778.5C 2477.5,715.5 2477.5,652.5 2477.5,589.5C 2496.84,589.167 2516.18,589.5 2535.5,590.5C 2536.7,600.774 2537.37,611.107 2537.5,621.5C 2538.68,621.719 2539.68,621.386 2540.5,620.5C 2551.59,603.271 2567.25,592.437 2587.5,588C 2592.29,587.098 2596.96,586.265 2601.5,585.5 Z"/></g>
<g><path style="opacity:0.971" fill="#000000" d="M 2947.5,585.5 C 2970.8,583.985 2992.13,589.485 3011.5,602C 3016.82,607.49 3022.15,612.656 3027.5,617.5C 3027.34,608.085 3028,598.752 3029.5,589.5C 3048.4,588.175 3067.23,588.175 3086,589.5C 3086.67,652.167 3086.67,714.833 3086,777.5C 3066.24,778.659 3046.41,778.826 3026.5,778C 3025.68,768.244 3025.18,758.41 3025,748.5C 3011.48,766.349 2993.64,777.182 2971.5,781C 2935.12,786.548 2904.96,775.715 2881,748.5C 2867.98,728.94 2861.48,707.274 2861.5,683.5C 2861.12,656.948 2869.29,633.615 2886,613.5C 2903.19,596.988 2923.69,587.655 2947.5,585.5 Z M 2961.5,632.5 C 3013.83,631.347 3034,656.347 3022,707.5C 3007.73,731.204 2986.9,740.037 2959.5,734C 2943.09,730.58 2931.92,721.08 2926,705.5C 2921.37,690.838 2921.37,676.171 2926,661.5C 2932.91,645.751 2944.74,636.085 2961.5,632.5 Z"/></g>
<g><path style="opacity:0.972" fill="#000000" d="M 3445.5,585.5 C 3481.54,581.382 3514.54,589.216 3544.5,609C 3568.1,628.314 3579.43,653.314 3578.5,684C 3577.21,730.958 3554.21,761.624 3509.5,776C 3479.48,783.332 3449.48,783.332 3419.5,776C 3375.62,761.106 3352.62,730.439 3350.5,684C 3352.54,637.864 3375.21,607.197 3418.5,592C 3427.5,589.239 3436.5,587.073 3445.5,585.5 Z M 3459.5,632.5 C 3480.15,630.176 3496.99,636.843 3510,652.5C 3521.28,673.176 3521.28,693.843 3510,714.5C 3498.46,728.656 3483.46,735.656 3465,735.5C 3425.15,732.679 3407.82,711.679 3413,672.5C 3418.44,647.561 3433.94,634.228 3459.5,632.5 Z"/></g>
<g><path style="opacity:0.969" fill="#000000" d="M 3725.5,585.5 C 3746.16,583.864 3765.49,588.03 3783.5,598C 3799.82,609.682 3809.65,625.515 3813,645.5C 3813.85,651.814 3814.51,658.147 3815,664.5C 3815.67,702.167 3815.67,739.833 3815,777.5C 3795.24,778.493 3775.41,778.826 3755.5,778.5C 3755.67,747.832 3755.5,717.165 3755,686.5C 3756.23,643.051 3735.73,625.885 3693.5,635C 3686.58,637.706 3680.41,641.54 3675,646.5C 3666.51,655.82 3662.18,666.82 3662,679.5C 3661.67,712.167 3661.33,744.833 3661,777.5C 3641,778.833 3621,778.833 3601,777.5C 3600.33,715.167 3600.33,652.833 3601,590.5C 3620.42,589.507 3639.92,589.174 3659.5,589.5C 3659.75,599.509 3660.25,609.509 3661,619.5C 3661.31,620.308 3661.81,620.975 3662.5,621.5C 3677.68,599.408 3698.68,587.408 3725.5,585.5 Z"/></g>
<g><path style="opacity:0.965" fill="#000000" d="M 1611.5,588.5 C 1630.74,588.174 1649.91,588.507 1669,589.5C 1670.32,623.415 1670.99,657.415 1671,691.5C 1672.24,724.732 1689.4,739.232 1722.5,735C 1746.92,729.578 1760.42,714.412 1763,689.5C 1763.17,656.162 1763.67,622.828 1764.5,589.5C 1784.17,588.167 1803.83,588.167 1823.5,589.5C 1824.67,652.164 1824.83,714.831 1824,777.5C 1804.91,778.659 1785.74,778.826 1766.5,778C 1765.18,767.2 1763.85,756.366 1762.5,745.5C 1748.85,765.603 1729.85,777.437 1705.5,781C 1683.36,783.477 1662.36,779.81 1642.5,770C 1631.36,763.507 1623.19,754.34 1618,742.5C 1614.73,734.771 1612.4,726.771 1611,718.5C 1609.9,695.188 1609.4,671.855 1609.5,648.5C 1609.51,628.283 1610.18,608.283 1611.5,588.5 Z"/></g>
</svg>
