<?xml version="1.0" encoding="UTF-8"?>
<!DOCTYPE svg PUBLIC "-//W3C//DTD SVG 1.1//EN" "http://www.w3.org/Graphics/SVG/1.1/DTD/svg11.dtd">
<svg xmlns="http://www.w3.org/2000/svg" version="1.1" width="128px" height="128px" style="shape-rendering:geometricPrecision; text-rendering:geometricPrecision; image-rendering:optimizeQuality; fill-rule:evenodd; clip-rule:evenodd" xmlns:xlink="http://www.w3.org/1999/xlink">
<g><path style="opacity:1" fill="#2c2c36" d="M 51.5,-0.5 C 59.5,-0.5 67.5,-0.5 75.5,-0.5C 103.167,6.5 120.5,23.8333 127.5,51.5C 127.5,59.5 127.5,67.5 127.5,75.5C 120.5,103.167 103.167,120.5 75.5,127.5C 67.5,127.5 59.5,127.5 51.5,127.5C 23.8333,120.5 6.5,103.167 -0.5,75.5C -0.5,67.5 -0.5,59.5 -0.5,51.5C 6.5,23.8333 23.8333,6.5 51.5,-0.5 Z"/></g>
<g><path style="opacity:1" fill="#fafafa" d="M 111.5,63.5 C 107.833,63.5 104.167,63.5 100.5,63.5C 100.5,64.5 100.5,65.5 100.5,66.5C 98.7993,82.3748 90.466,93.2081 75.5,99C 72.2432,100.043 68.9099,100.543 65.5,100.5C 63.6565,102.279 62.9898,104.612 63.5,107.5C 62.3882,105.401 61.7215,103.067 61.5,100.5C 48.2662,99.7793 38.0996,93.7793 31,82.5C 28.3007,77.5031 26.8007,72.1698 26.5,66.5C 21.7036,65.9103 17.7036,64.9103 14.5,63.5C 18.5,63.5 22.5,63.5 26.5,63.5C 26.5,62.5 26.5,61.5 26.5,60.5C 29.6304,40.3695 41.2971,29.0362 61.5,26.5C 63.369,24.3647 64.0356,21.6981 63.5,18.5C 64.7089,20.3315 65.3755,22.9982 65.5,26.5C 85.6422,29.1419 97.4755,40.4753 101,60.5C 104.61,61.4478 108.11,62.4478 111.5,63.5 Z"/></g>
<g><path style="opacity:1" fill="#eb9a70" d="M 63.5,18.5 C 64.0356,21.6981 63.369,24.3647 61.5,26.5C 61.5651,23.5718 62.2318,20.9052 63.5,18.5 Z"/></g>
<g><path style="opacity:1" fill="#fba171" d="M 59.5,32.5 C 60.8333,32.5 62.1667,32.5 63.5,32.5C 63.5,42.8333 63.5,53.1667 63.5,63.5C 53.1667,63.5 42.8333,63.5 32.5,63.5C 32.5,62.1667 32.5,60.8333 32.5,59.5C 39.8834,58.0898 47.2167,56.4231 54.5,54.5C 56.4836,47.2329 58.1502,39.8996 59.5,32.5 Z"/></g>
<g><path style="opacity:1" fill="#302f39" d="M 59.5,32.5 C 58.1502,39.8996 56.4836,47.2329 54.5,54.5C 47.2167,56.4231 39.8834,58.0898 32.5,59.5C 35.1667,44.1667 44.1667,35.1667 59.5,32.5 Z"/></g>
<g><path style="opacity:1" fill="#30303a" d="M 67.5,32.5 C 82.8339,35.1673 91.8339,44.1673 94.5,59.5C 87.1912,58.0383 79.8579,56.7049 72.5,55.5C 70.7056,47.8616 69.039,40.1949 67.5,32.5 Z"/></g>
<g><path style="opacity:1" fill="#f19d72" d="M 26.5,60.5 C 26.5,61.5 26.5,62.5 26.5,63.5C 22.5,63.5 18.5,63.5 14.5,63.5C 18.3291,62.2622 22.3291,61.2622 26.5,60.5 Z"/></g>
<g><path style="opacity:1" fill="#f4a277" d="M 111.5,63.5 C 108.603,64.7961 104.936,65.7961 100.5,66.5C 100.5,65.5 100.5,64.5 100.5,63.5C 104.167,63.5 107.833,63.5 111.5,63.5 Z"/></g>
<g><path style="opacity:1" fill="#fda273" d="M 63.5,63.5 C 73.8333,63.5 84.1667,63.5 94.5,63.5C 94.5,64.8333 94.5,66.1667 94.5,67.5C 87.1166,68.9102 79.7833,70.5769 72.5,72.5C 70.5168,79.7656 68.8502,87.099 67.5,94.5C 66.1667,94.5 64.8333,94.5 63.5,94.5C 63.5,84.1667 63.5,73.8333 63.5,63.5 Z"/></g>
<g><path style="opacity:1" fill="#30303a" d="M 32.5,67.5 C 39.7488,69.3165 47.0821,70.8165 54.5,72C 56.7136,79.3568 58.3803,86.8568 59.5,94.5C 44.1808,91.8475 35.1808,82.8475 32.5,67.5 Z"/></g>
<g><path style="opacity:1" fill="#313039" d="M 94.5,67.5 C 91.8237,82.843 82.8237,91.843 67.5,94.5C 68.8502,87.099 70.5168,79.7656 72.5,72.5C 79.7833,70.5769 87.1166,68.9102 94.5,67.5 Z"/></g>
<g><path style="opacity:1" fill="#f3a77e" d="M 65.5,100.5 C 65.4825,103.719 64.8158,106.052 63.5,107.5C 62.9898,104.612 63.6565,102.279 65.5,100.5 Z"/></g>
</svg>
