<?xml version="1.0" encoding="UTF-8"?>
<!DOCTYPE svg PUBLIC "-//W3C//DTD SVG 1.1//EN" "http://www.w3.org/Graphics/SVG/1.1/DTD/svg11.dtd">
<svg xmlns="http://www.w3.org/2000/svg" version="1.1" width="3840px" height="1080px" style="shape-rendering:geometricPrecision; text-rendering:geometricPrecision; image-rendering:optimizeQuality; fill-rule:evenodd; clip-rule:evenodd" xmlns:xlink="http://www.w3.org/1999/xlink">
<g><path style="opacity:0.999" fill="#2d2d36" d="M 629.5,191.5 C 639.524,198.508 649.524,205.508 659.5,212.5C 658.167,212.833 658.167,213.167 659.5,213.5C 661.493,215.163 663.826,216.33 666.5,217C 667.147,218.609 667.98,220.109 669,221.5C 669.333,221.167 669.667,220.833 670,220.5C 671.668,224.165 674.501,226.332 678.5,227C 679.163,228.518 680.163,229.685 681.5,230.5C 684.663,234.822 688.663,238.322 693.5,241C 695.81,242.637 697.31,244.804 698,247.5C 699.637,249.81 701.804,251.31 704.5,252C 708.684,258.346 713.684,263.846 719.5,268.5C 721.808,270.167 723.308,272.5 724,275.5C 725.214,277.049 726.714,278.215 728.5,279C 728.167,279.333 727.833,279.667 727.5,280C 728.891,281.02 730.391,281.853 732,282.5C 732.725,284.949 733.725,287.283 735,289.5C 736,289.833 737,290.167 738,290.5C 744.341,300.329 750.841,309.996 757.5,319.5C 760.091,324.445 762.758,328.778 765.5,332.5C 764.167,332.833 764.167,333.167 765.5,333.5C 767.643,337.216 769.976,340.883 772.5,344.5C 771.167,344.833 771.167,345.167 772.5,345.5C 793.883,386.151 808.383,429.817 816,476.5C 828.506,566.959 814.673,651.125 774.5,729C 774.833,729.333 775.167,729.667 775.5,730C 774.662,731.155 773.662,732.322 772.5,733.5C 771.167,733.833 771.167,734.167 772.5,734.5C 769.976,738.117 767.643,741.784 765.5,745.5C 764.167,745.833 764.167,746.167 765.5,746.5C 762.758,750.222 760.091,754.555 757.5,759.5C 750.492,769.524 743.492,779.524 736.5,789.5C 736.167,788.167 735.833,788.167 735.5,789.5C 733.837,791.493 732.67,793.826 732,796.5C 730.391,797.147 728.891,797.98 727.5,799C 727.833,799.333 728.167,799.667 728.5,800C 724.835,801.668 722.668,804.501 722,808.5C 721.005,809.066 720.172,809.733 719.5,810.5C 718.833,810.5 718.5,810.833 718.5,811.5C 714.178,814.663 710.678,818.663 708,823.5C 706.363,825.81 704.196,827.31 701.5,828C 699.19,829.637 697.69,831.804 697,834.5C 691.017,838.384 685.85,843.051 681.5,848.5C 680.833,848.5 680.5,848.833 680.5,849.5C 678.833,851.808 676.5,853.308 673.5,854C 671.951,855.214 670.785,856.714 670,858.5C 669.667,858.167 669.333,857.833 669,857.5C 667.98,858.891 667.147,860.391 666.5,862C 663.826,862.67 661.493,863.837 659.5,865.5C 658.167,865.833 658.167,866.167 659.5,866.5C 649.524,873.492 639.524,880.492 629.5,887.5C 624.555,890.091 620.222,892.758 616.5,895.5C 616.167,894.167 615.833,894.167 615.5,895.5C 611.784,897.643 608.117,899.976 604.5,902.5C 604.167,901.167 603.833,901.167 603.5,902.5C 562.849,923.883 519.183,938.383 472.5,946C 382.041,958.506 297.875,944.673 220,904.5C 219.667,904.833 219.333,905.167 219,905.5C 217.845,904.662 216.678,903.662 215.5,902.5C 215.167,901.167 214.833,901.167 214.5,902.5C 210.883,899.976 207.216,897.643 203.5,895.5C 203.167,894.167 202.833,894.167 202.5,895.5C 198.778,892.758 194.445,890.091 189.5,887.5C 179.996,880.841 170.329,874.341 160.5,868C 160.167,867 159.833,866 159.5,865C 157.283,863.725 154.949,862.725 152.5,862C 151.853,860.391 151.02,858.891 150,857.5C 149.667,857.833 149.333,858.167 149,858.5C 147.332,854.835 144.499,852.668 140.5,852C 139.934,851.005 139.267,850.172 138.5,849.5C 135.006,844.847 130.673,841.013 125.5,838C 123.19,836.363 121.69,834.196 121,831.5C 119.363,829.19 117.196,827.69 114.5,827C 110.616,821.017 105.949,815.85 100.5,811.5C 99.6851,810.163 98.5185,809.163 97,808.5C 96.3322,804.501 94.1655,801.668 90.5,800C 90.8333,799.667 91.1667,799.333 91.5,799C 90.1095,797.98 88.6095,797.147 87,796.5C 86.3299,793.826 85.1632,791.493 83.5,789.5C 83.1667,788.167 82.8333,788.167 82.5,789.5C 75.5081,779.524 68.5081,769.524 61.5,759.5C 57.6534,753.814 54.8201,748.481 53,743.5C 50.8725,740.697 48.7058,737.864 46.5,735C 46.8333,734.667 47.1667,734.333 47.5,734C 45.1358,732.988 43.8024,731.655 43.5,730C 43.8333,729.667 44.1667,729.333 44.5,729C 19.7038,680.701 4.70381,629.201 -0.5,574.5C -0.5,573.167 -0.5,571.833 -0.5,570.5C 0.833333,568.833 0.833333,567.167 -0.5,565.5C -0.5,548.167 -0.5,530.833 -0.5,513.5C 0.833333,511.833 0.833333,510.167 -0.5,508.5C -0.5,507.167 -0.5,505.833 -0.5,504.5C 4.70381,449.799 19.7038,398.299 44.5,350C 44.1667,349.667 43.8333,349.333 43.5,349C 43.8024,347.345 45.1358,346.012 47.5,345C 47.1667,344.667 46.8333,344.333 46.5,344C 48.9894,340.178 51.6561,336.512 54.5,333C 53.3659,331.984 53.6992,331.317 55.5,331C 55.1667,330.667 54.8333,330.333 54.5,330C 57.2157,326.729 59.549,323.229 61.5,319.5C 68.1585,309.996 74.6585,300.329 81,290.5C 82,290.167 83,289.833 84,289.5C 85.2754,287.283 86.2754,284.949 87,282.5C 88.6095,281.853 90.1095,281.02 91.5,280C 91.1667,279.667 90.8333,279.333 90.5,279C 94.1655,277.332 96.3322,274.499 97,270.5C 100.667,267.167 104.333,263.833 108,260.5C 109.859,255.974 113.026,252.808 117.5,251C 120.475,245.358 124.808,241.025 130.5,238C 133.833,234.333 137.167,230.667 140.5,227C 144.499,226.332 147.332,224.165 149,220.5C 149.333,220.833 149.667,221.167 150,221.5C 151.02,220.109 151.853,218.609 152.5,217C 154.949,216.275 157.283,215.275 159.5,214C 159.833,213 160.167,212 160.5,211C 170.329,204.659 179.996,198.159 189.5,191.5C 209.751,178.948 232.585,167.281 258,156.5C 258.333,156.833 258.667,157.167 259,157.5C 267.873,152.52 277.04,149.187 286.5,147.5C 315.045,138.19 345.045,132.19 376.5,129.5C 398.5,129.5 420.5,129.5 442.5,129.5C 499.308,134.54 552.141,149.874 601,175.5C 601.333,175.167 601.667,174.833 602,174.5C 602.442,176.679 603.442,177.345 605,176.5C 608.822,178.989 612.488,181.656 616,184.5C 617.016,183.366 617.683,183.699 618,185.5C 618.333,185.167 618.667,184.833 619,184.5C 622.271,187.216 625.771,189.549 629.5,191.5 Z"/></g>
<g><path style="opacity:0.004" fill="#000000" d="M 189.5,191.5 C 188.833,190.167 188.833,190.167 189.5,191.5 Z"/></g>
<g><path style="opacity:0.004" fill="#000000" d="M 629.5,190.5 C 630.833,191.167 630.833,191.167 629.5,190.5 Z"/></g>
<g><path style="opacity:0.004" fill="#000000" d="M 659.5,212.5 C 660.833,213.167 660.833,213.167 659.5,212.5 Z"/></g>
<g><path style="opacity:0.004" fill="#000000" d="M 681.5,229.5 C 682.833,230.167 682.833,230.167 681.5,229.5 Z"/></g>
<g><path style="opacity:1" fill="#fcfcfc" d="M 411.5,245.5 C 415.073,257.37 417.739,269.37 419.5,281.5C 420.221,288.249 421.888,294.583 424.5,300.5C 435.699,302.148 447.033,303.815 458.5,305.5C 471.151,309.163 483.818,312.83 496.5,316.5C 500.849,319.341 505.516,321.674 510.5,323.5C 555.549,344.538 590.882,376.538 616.5,419.5C 616.755,421.967 617.755,423.967 619.5,425.5C 629.499,443.814 637.165,463.147 642.5,483.5C 644.236,496.331 646.236,508.998 648.5,521.5C 648.611,522.117 648.944,522.617 649.5,523C 656.364,523.416 663.031,524.583 669.5,526.5C 690.382,529.974 711.048,533.974 731.5,538.5C 731.5,538.833 731.5,539.167 731.5,539.5C 703.833,539.5 676.167,539.5 648.5,539.5C 648.5,542.167 648.5,544.833 648.5,547.5C 648.5,550.5 648.5,553.5 648.5,556.5C 648.5,557.167 648.5,557.833 648.5,558.5C 646.969,563.25 646.302,568.25 646.5,573.5C 646.768,575.099 646.434,576.432 645.5,577.5C 643.217,588.725 640.884,600.059 638.5,611.5C 617.379,673.631 578.045,720.631 520.5,752.5C 518.033,752.755 516.033,753.755 514.5,755.5C 510.337,755.691 507.004,757.357 504.5,760.5C 495.949,763.11 487.615,766.276 479.5,770C 467.467,772.993 455.467,775.493 443.5,777.5C 438.489,777.334 433.489,777.501 428.5,778C 426.942,778.21 425.609,778.71 424.5,779.5C 424.167,779.5 423.833,779.5 423.5,779.5C 419.167,779.5 414.833,779.5 410.5,779.5C 409.833,797.5 409.167,815.5 408.5,833.5C 408.167,833.5 407.833,833.5 407.5,833.5C 403.916,815.293 399.916,797.293 395.5,779.5C 391.433,777.946 387.1,777.28 382.5,777.5C 371.623,777.274 360.956,775.774 350.5,773C 281.219,753.903 229.886,712.403 196.5,648.5C 194.481,644.077 192.481,639.744 190.5,635.5C 189.883,635.389 189.383,635.056 189,634.5C 187.271,629.006 185.437,623.673 183.5,618.5C 183.59,615.848 182.924,613.515 181.5,611.5C 180.778,607.494 179.945,603.494 179,599.5C 178.617,598.944 178.117,598.611 177.5,598.5C 177.075,593.923 176.075,589.59 174.5,585.5C 173.48,575.988 172.147,566.654 170.5,557.5C 151.787,553.483 133.121,549.816 114.5,546.5C 109.453,544.605 104.12,543.605 98.5,543.5C 95.8333,542.833 93.1667,542.167 90.5,541.5C 117.167,540.833 143.833,540.167 170.5,539.5C 170.5,533.5 170.5,527.5 170.5,521.5C 171.999,508.917 173.833,496.25 176,483.5C 177.228,480.402 178.394,477.402 179.5,474.5C 180.924,472.485 181.59,470.152 181.5,467.5C 181.5,467.167 181.5,466.833 181.5,466.5C 183.806,462.915 185.139,458.915 185.5,454.5C 189.753,445.589 193.92,436.589 198,427.5C 200.992,424.875 202.658,421.542 203,417.5C 206.188,413.099 209.355,408.766 212.5,404.5C 214.376,402.116 216.542,399.782 219,397.5C 219.791,396.255 220.291,394.922 220.5,393.5C 224.726,386.602 230.059,380.602 236.5,375.5C 239.5,373.167 242.167,370.5 244.5,367.5C 259.388,351.399 276.722,338.732 296.5,329.5C 299.509,328.27 302.176,326.603 304.5,324.5C 309.496,322.501 314.496,320.501 319.5,318.5C 333.11,314.062 346.777,309.728 360.5,305.5C 372.421,303.268 384.421,301.601 396.5,300.5C 400.833,300.5 405.167,300.5 409.5,300.5C 410.167,282.167 410.833,263.833 411.5,245.5 Z"/></g>
<g><path style="opacity:0.986" fill="#e78d5f" d="M 967.5,255.5 C 998.654,252.607 1028.99,256.107 1058.5,266C 1092.93,279.25 1112.6,304.084 1117.5,340.5C 1102.67,341.808 1087.83,341.808 1073,340.5C 1060.12,312.123 1037.96,297.29 1006.5,296C 980.424,293.413 955.758,298.08 932.5,310C 911.502,324.158 901.169,343.992 901.5,369.5C 901.699,403.204 917.699,425.704 949.5,437C 977.853,445.665 1006.19,445.665 1034.5,437C 1052.5,429.667 1065.17,417 1072.5,399C 1087.17,398.333 1101.83,398.333 1116.5,399C 1114.82,425.081 1103.15,445.748 1081.5,461C 1060.02,473.935 1036.69,481.268 1011.5,483C 976.838,485.522 943.505,480.189 911.5,467C 868.23,442.635 849.064,405.469 854,355.5C 860.047,311.454 883.88,281.62 925.5,266C 939.378,261.53 953.378,258.03 967.5,255.5 Z"/></g>
<g><path style="opacity:1" fill="#f69f72" d="M 408.5,246.5 C 409.497,264.326 409.83,282.326 409.5,300.5C 405.167,300.5 400.833,300.5 396.5,300.5C 395.896,294.719 397.062,289.386 400,284.5C 402.165,271.548 404.998,258.881 408.5,246.5 Z"/></g>
<g><path style="opacity:1" fill="#f8ceb3" d="M 411.5,245.5 C 410.833,263.833 410.167,282.167 409.5,300.5C 409.83,282.326 409.497,264.326 408.5,246.5C 408.247,244.173 408.914,242.173 410.5,240.5C 411.452,242.045 411.785,243.712 411.5,245.5 Z"/></g>
<g><path style="opacity:0.004" fill="#000000" d="M 719.5,267.5 C 720.833,268.167 720.833,268.167 719.5,267.5 Z"/></g>
<g><path style="opacity:1" fill="#999a9d" d="M 419.5,281.5 C 421.808,287.617 423.474,293.95 424.5,300.5C 421.888,294.583 420.221,288.249 419.5,281.5 Z"/></g>
<g><path style="opacity:1" fill="#616168" d="M 424.5,300.5 C 435.235,300.962 445.901,302.128 456.5,304C 457.416,304.278 458.082,304.778 458.5,305.5C 447.033,303.815 435.699,302.148 424.5,300.5 Z"/></g>
<g><path style="opacity:0.986" fill="#e88e5f" d="M 1235.5,306.5 C 1261.35,304.181 1286.35,307.681 1310.5,317C 1338.66,329.498 1355.16,350.998 1360,381.5C 1363.81,435.36 1339.31,468.194 1286.5,480C 1260.27,484.117 1234.27,483.117 1208.5,477C 1168.96,463.918 1147.96,436.585 1145.5,395C 1148.22,350.936 1170.89,322.936 1213.5,311C 1221.04,309.813 1228.37,308.313 1235.5,306.5 Z M 1245.5,341.5 C 1262.34,340.171 1278.34,343.671 1293.5,352C 1309.95,365.563 1316.79,383.063 1314,404.5C 1308.87,426.96 1295.04,440.794 1272.5,446C 1250.16,450.929 1229.49,447.263 1210.5,435C 1197.98,424.63 1191.65,411.296 1191.5,395C 1192.47,371.366 1203.8,355.032 1225.5,346C 1232.26,344.285 1238.93,342.785 1245.5,341.5 Z"/></g>
<g><path style="opacity:0.991" fill="#e78d60" d="M 1506.5,306.5 C 1527.79,304.82 1547.12,309.987 1564.5,322C 1573.87,330.359 1580.37,340.526 1584,352.5C 1600.64,322.336 1626.31,307.003 1661,306.5C 1687.17,305.586 1707.83,315.586 1723,336.5C 1727.6,344.966 1730.6,353.966 1732,363.5C 1732.5,401.832 1732.67,440.165 1732.5,478.5C 1717.83,478.5 1703.17,478.5 1688.5,478.5C 1688.67,446.832 1688.5,415.165 1688,383.5C 1687.43,355.103 1672.93,341.77 1644.5,343.5C 1620.89,343.225 1601.72,352.225 1587,370.5C 1586.5,406.498 1586.33,442.498 1586.5,478.5C 1571.5,478.5 1556.5,478.5 1541.5,478.5C 1541.67,443.498 1541.5,408.498 1541,373.5C 1539.25,358.424 1531.09,348.924 1516.5,345C 1488.28,338.967 1464.11,346.133 1444,366.5C 1441.27,370.241 1438.93,374.241 1437,378.5C 1436.5,411.832 1436.33,445.165 1436.5,478.5C 1421.5,478.5 1406.5,478.5 1391.5,478.5C 1391.5,422.5 1391.5,366.5 1391.5,310.5C 1406.5,310.5 1421.5,310.5 1436.5,310.5C 1436.33,325.17 1436.5,339.837 1437,354.5C 1451.11,325.204 1474.27,309.204 1506.5,306.5 Z"/></g>
<g><path style="opacity:0.98" fill="#e88e60" d="M 1879.5,306.5 C 1914.79,302.643 1943.96,313.976 1967,340.5C 1982.14,361.829 1987.47,385.495 1983,411.5C 1975.38,446.793 1954.21,469.627 1919.5,480C 1895.15,485.659 1871.82,482.992 1849.5,472C 1834.48,461.461 1823.64,447.627 1817,430.5C 1816.67,468.833 1816.33,507.167 1816,545.5C 1801.24,546.491 1786.41,546.824 1771.5,546.5C 1771.17,467.831 1771.5,389.164 1772.5,310.5C 1786.17,309.167 1799.83,309.167 1813.5,310.5C 1814.89,324.811 1816.06,339.145 1817,353.5C 1828.86,325.797 1849.69,310.13 1879.5,306.5 Z M 1870.5,341.5 C 1885.91,340.788 1900.57,343.622 1914.5,350C 1930.32,360.64 1938.32,375.64 1938.5,395C 1937.09,420.743 1924.09,437.41 1899.5,445C 1877.58,449.758 1856.91,446.758 1837.5,436C 1819.76,422.472 1813.26,404.639 1818,382.5C 1823.09,362.741 1835.59,350.241 1855.5,345C 1860.73,344.248 1865.73,343.081 1870.5,341.5 Z"/></g>
<g><path style="opacity:0.981" fill="#e88d5f" d="M 2091.5,306.5 C 2110.52,304.965 2128.52,308.465 2145.5,317C 2159.26,326.024 2169.09,338.191 2175,353.5C 2175.5,339.171 2175.67,324.837 2175.5,310.5C 2190.5,310.5 2205.5,310.5 2220.5,310.5C 2220.5,366.5 2220.5,422.5 2220.5,478.5C 2206.5,478.5 2192.5,478.5 2178.5,478.5C 2176.12,462.941 2174.96,447.274 2175,431.5C 2155.45,471.859 2123.29,488.359 2078.5,481C 2033.7,470.028 2009.7,441.528 2006.5,395.5C 2007.92,355.131 2027.26,327.298 2064.5,312C 2073.45,309.178 2082.45,307.344 2091.5,306.5 Z M 2108.5,341.5 C 2124.42,341.117 2139.42,344.617 2153.5,352C 2172.14,365.911 2178.98,384.411 2174,407.5C 2167.28,429.547 2152.44,442.38 2129.5,446C 2107.97,450.526 2088.31,446.526 2070.5,434C 2057.27,421.328 2051.77,405.828 2054,387.5C 2056.89,367.897 2067.39,354.063 2085.5,346C 2093.12,343.622 2100.79,342.122 2108.5,341.5 Z"/></g>
<g><path style="opacity:0.983" fill="#e88e5f" d="M 2319.5,306.5 C 2329.84,306.334 2340.17,306.5 2350.5,307C 2369.33,308.378 2385.49,315.545 2399,328.5C 2407.28,339.349 2411.12,351.516 2410.5,365C 2397.49,365.833 2384.49,365.666 2371.5,364.5C 2368.1,350.444 2359.1,342.944 2344.5,342C 2332.69,340.591 2321.36,342.258 2310.5,347C 2303.2,352.553 2301.7,359.386 2306,367.5C 2310.86,371.512 2316.36,374.346 2322.5,376C 2339.91,379.283 2357.25,382.95 2374.5,387C 2382.06,389.447 2389.39,392.447 2396.5,396C 2415.25,408.455 2421.42,425.621 2415,447.5C 2409.13,460.367 2399.63,469.534 2386.5,475C 2354.04,486.637 2321.71,486.303 2289.5,474C 2268.83,464.507 2256.17,448.673 2251.5,426.5C 2251.62,425.106 2251.95,423.772 2252.5,422.5C 2266.15,421.334 2279.82,421.167 2293.5,422C 2299.09,434.251 2308.42,442.251 2321.5,446C 2334.6,448.28 2347.6,447.947 2360.5,445C 2368.62,440.581 2371.79,433.747 2370,424.5C 2368.94,421.438 2367.11,418.938 2364.5,417C 2359.05,414.405 2353.38,412.405 2347.5,411C 2325.84,408.669 2304.84,403.669 2284.5,396C 2259.92,384.265 2252.08,365.432 2261,339.5C 2267.33,328.166 2276.5,319.999 2288.5,315C 2298.76,311.356 2309.09,308.522 2319.5,306.5 Z"/></g>
<g><path style="opacity:0.983" fill="#e88d5f" d="M 2509.5,306.5 C 2528.98,304.904 2547.98,307.071 2566.5,313C 2590.02,322.497 2601.36,339.83 2600.5,365C 2587.49,365.833 2574.49,365.666 2561.5,364.5C 2558.08,350.44 2549.08,342.94 2534.5,342C 2523.5,340.715 2512.83,342.048 2502.5,346C 2495.53,349.772 2492.7,355.606 2494,363.5C 2494.91,366.576 2496.74,368.909 2499.5,370.5C 2503.71,372.626 2508.04,374.459 2512.5,376C 2533.89,379.477 2554.89,384.477 2575.5,391C 2602.34,400.854 2612.18,419.687 2605,447.5C 2598.22,462.279 2587.05,472.113 2571.5,477C 2540.49,486.499 2509.82,485.499 2479.5,474C 2458.84,464.515 2446.18,448.681 2441.5,426.5C 2441.62,425.106 2441.95,423.772 2442.5,422.5C 2456.15,421.334 2469.82,421.167 2483.5,422C 2489.84,436.329 2500.84,444.663 2516.5,447C 2527.22,447.875 2537.88,447.541 2548.5,446C 2557.95,441.933 2561.79,434.767 2560,424.5C 2558.97,421.461 2557.14,418.961 2554.5,417C 2549.05,414.405 2543.38,412.405 2537.5,411C 2515.84,408.669 2494.84,403.669 2474.5,396C 2449.92,384.273 2442.08,365.44 2451,339.5C 2457.34,328.233 2466.51,320.066 2478.5,315C 2488.76,311.356 2499.09,308.522 2509.5,306.5 Z"/></g>
<g><path style="opacity:1" fill="#b8b8bc" d="M 360.5,305.5 C 346.777,309.728 333.11,314.062 319.5,318.5C 321.922,316.732 324.588,315.232 327.5,314C 338.49,311.174 349.49,308.341 360.5,305.5 Z"/></g>
<g><path style="opacity:1" fill="#76767c" d="M 496.5,316.5 C 501.968,317.376 506.634,319.71 510.5,323.5C 505.516,321.674 500.849,319.341 496.5,316.5 Z"/></g>
<g><path style="opacity:0.004" fill="#000000" d="M 61.5,319.5 C 60.8333,318.167 60.8333,318.167 61.5,319.5 Z"/></g>
<g><path style="opacity:0.004" fill="#000000" d="M 757.5,318.5 C 758.833,319.167 758.833,319.167 757.5,318.5 Z"/></g>
<g><path style="opacity:1" fill="#8e8d93" d="M 304.5,324.5 C 302.176,326.603 299.509,328.27 296.5,329.5C 298.404,326.789 301.07,325.123 304.5,324.5 Z"/></g>
<g><path style="opacity:0.004" fill="#000000" d="M 765.5,332.5 C 766.833,333.167 766.833,333.167 765.5,332.5 Z"/></g>
<g><path style="opacity:1" fill="#fda272" d="M 385.5,341.5 C 385.833,341.5 386.167,341.5 386.5,341.5C 389.167,341.5 391.833,341.5 394.5,341.5C 399.167,341.5 403.833,341.5 408.5,341.5C 408.5,407.167 408.5,472.833 408.5,538.5C 342.5,538.5 276.5,538.5 210.5,538.5C 210.5,533.167 210.5,527.833 210.5,522.5C 210.19,519.287 210.523,516.287 211.5,513.5C 217.46,512.225 223.46,511.225 229.5,510.5C 233.182,510.665 236.848,510.499 240.5,510C 244.718,508.694 249.051,507.528 253.5,506.5C 255.1,506.551 256.6,506.884 258,507.5C 258.456,506.256 257.956,505.423 256.5,505C 259.695,504.819 262.695,504.319 265.5,503.5C 268.275,502.197 271.275,501.197 274.5,500.5C 301.095,495.924 327.429,490.924 353.5,485.5C 353.629,483.784 353.962,482.117 354.5,480.5C 357.208,475.629 358.541,470.295 358.5,464.5C 363.877,441.891 368.71,419.224 373,396.5C 374.854,390.074 376.854,383.741 379,377.5C 381.705,365.603 383.872,353.603 385.5,341.5 Z"/></g>
<g><path style="opacity:1" fill="#98989d" d="M 379.5,341.5 C 373.743,343.407 367.743,344.74 361.5,345.5C 361.611,344.883 361.944,344.383 362.5,344C 368.132,342.843 373.798,342.009 379.5,341.5 Z"/></g>
<g><path style="opacity:1" fill="#2e2e38" d="M 379.5,341.5 C 381.5,341.5 383.5,341.5 385.5,341.5C 383.872,353.603 381.705,365.603 379,377.5C 376.854,383.741 374.854,390.074 373,396.5C 368.71,419.224 363.877,441.891 358.5,464.5C 357.883,464.611 357.383,464.944 357,465.5C 355.426,470.384 354.593,475.384 354.5,480.5C 353.962,482.117 353.629,483.784 353.5,485.5C 327.429,490.924 301.095,495.924 274.5,500.5C 271.275,501.197 268.275,502.197 265.5,503.5C 262.15,503.335 258.817,503.502 255.5,504C 246.925,506.486 238.259,508.652 229.5,510.5C 223.46,511.225 217.46,512.225 211.5,513.5C 216.038,474.098 231.205,439.432 257,409.5C 285.226,376.989 320.06,355.655 361.5,345.5C 367.743,344.74 373.743,343.407 379.5,341.5 Z"/></g>
<g><path style="opacity:1" fill="#2e2e38" d="M 603.5,489.5 C 604.938,496.755 605.605,504.088 605.5,511.5C 602.167,511.5 598.833,511.5 595.5,511.5C 588.908,508.889 581.908,507.222 574.5,506.5C 567.543,504.959 560.543,503.626 553.5,502.5C 544.638,501.784 535.971,500.117 527.5,497.5C 521.444,495.407 515.111,494.074 508.5,493.5C 494.051,491.178 479.884,488.178 466,484.5C 459.916,455.079 453.416,425.746 446.5,396.5C 445.739,390.582 444.405,384.915 442.5,379.5C 439.462,366.978 436.795,354.312 434.5,341.5C 499.642,351.325 549.475,384.325 584,440.5C 586.161,444.172 587.827,448.172 589,452.5C 590,453.5 591,454.5 592,455.5C 596.527,466.58 600.36,477.913 603.5,489.5 Z"/></g>
<g><path style="opacity:0.004" fill="#000000" d="M 772.5,344.5 C 773.833,345.167 773.833,345.167 772.5,344.5 Z"/></g>
<g><path style="opacity:1" fill="#acacb1" d="M 244.5,367.5 C 242.167,370.5 239.5,373.167 236.5,375.5C 238.167,371.833 240.833,369.167 244.5,367.5 Z"/></g>
<g><path style="opacity:1" fill="#abacaf" d="M 442.5,379.5 C 444.405,384.915 445.739,390.582 446.5,396.5C 443.161,391.43 441.827,385.763 442.5,379.5 Z"/></g>
<g><path style="opacity:1" fill="#aaaaaf" d="M 220.5,393.5 C 220.291,394.922 219.791,396.255 219,397.5C 216.542,399.782 214.376,402.116 212.5,404.5C 214.4,400.268 217.067,396.601 220.5,393.5 Z"/></g>
<g><path style="opacity:1" fill="#ffd4b8" d="M 410.5,539.5 C 410.167,539.5 409.833,539.5 409.5,539.5C 409.5,473.167 409.5,406.833 409.5,340.5C 404.305,340.179 399.305,340.513 394.5,341.5C 391.833,341.5 389.167,341.5 386.5,341.5C 387.609,340.71 388.942,340.21 390.5,340C 397.158,339.5 403.825,339.334 410.5,339.5C 410.5,406.167 410.5,472.833 410.5,539.5 Z"/></g>
<g><path style="opacity:1" fill="#919197" d="M 616.5,419.5 C 618.245,421.033 619.245,423.033 619.5,425.5C 617.755,423.967 616.755,421.967 616.5,419.5 Z"/></g>
<g><path style="opacity:1" fill="#7a7a81" d="M 185.5,454.5 C 185.139,458.915 183.806,462.915 181.5,466.5C 182.256,462.233 183.589,458.233 185.5,454.5 Z"/></g>
<g><path style="opacity:1" fill="#8c8c92" d="M 181.5,467.5 C 181.59,470.152 180.924,472.485 179.5,474.5C 179.41,471.848 180.076,469.515 181.5,467.5 Z"/></g>
<g><path style="opacity:1" fill="#b67a5e" d="M 358.5,464.5 C 358.541,470.295 357.208,475.629 354.5,480.5C 354.593,475.384 355.426,470.384 357,465.5C 357.383,464.944 357.883,464.611 358.5,464.5 Z"/></g>
<g><path style="opacity:1" fill="#909096" d="M 642.5,483.5 C 645.778,495.839 647.778,508.505 648.5,521.5C 646.236,508.998 644.236,496.331 642.5,483.5 Z"/></g>
<g><path style="opacity:1" fill="#6f7075" d="M 508.5,493.5 C 515.111,494.074 521.444,495.407 527.5,497.5C 520.749,497.214 514.416,495.881 508.5,493.5 Z"/></g>
<g><path style="opacity:1" fill="#707076" d="M 574.5,506.5 C 581.908,507.222 588.908,508.889 595.5,511.5C 589.792,510.817 584.125,509.817 578.5,508.5C 577.167,507.833 575.833,507.167 574.5,506.5 Z"/></g>
<g><path style="opacity:1" fill="#b9babc" d="M 553.5,502.5 C 560.543,503.626 567.543,504.959 574.5,506.5C 575.833,507.167 577.167,507.833 578.5,508.5C 570.4,507.323 562.4,505.823 554.5,504C 553.944,503.617 553.611,503.117 553.5,502.5 Z"/></g>
<g><path style="opacity:1" fill="#63636a" d="M 603.5,489.5 C 605.068,491.811 605.902,494.478 606,497.5C 606.567,502.834 607.067,508.167 607.5,513.5C 603.316,513.149 599.316,512.482 595.5,511.5C 598.833,511.5 602.167,511.5 605.5,511.5C 605.605,504.088 604.938,496.755 603.5,489.5 Z"/></g>
<g><path style="opacity:1" fill="#cf8966" d="M 265.5,503.5 C 262.695,504.319 259.695,504.819 256.5,505C 257.956,505.423 258.456,506.256 258,507.5C 256.6,506.884 255.1,506.551 253.5,506.5C 249.051,507.528 244.718,508.694 240.5,510C 236.848,510.499 233.182,510.665 229.5,510.5C 238.259,508.652 246.925,506.486 255.5,504C 258.817,503.502 262.15,503.335 265.5,503.5 Z"/></g>
<g><path style="opacity:0.972" fill="#dadada" d="M 3288.5,519.5 C 3298.31,518.927 3307.98,519.76 3317.5,522C 3332.73,530.031 3336.57,541.864 3329,557.5C 3324.35,562.913 3318.51,566.413 3311.5,568C 3301.35,569.125 3291.35,568.458 3281.5,566C 3267.65,559.802 3262.82,549.302 3267,534.5C 3269.5,529.333 3273.33,525.5 3278.5,523C 3282.05,522.122 3285.39,520.956 3288.5,519.5 Z"/></g>
<g><path style="opacity:0.991" fill="#dbdbdb" d="M 851.5,520.5 C 893.501,520.333 935.501,520.5 977.5,521C 1013.54,520.677 1045.21,532.011 1072.5,555C 1094.81,578.551 1106.64,606.717 1108,639.5C 1110.68,674.462 1102.01,706.128 1082,734.5C 1058.18,760.324 1028.68,774.824 993.5,778C 945.5,778.667 897.5,778.667 849.5,778C 848.335,692.903 848.168,607.737 849,522.5C 849.995,521.934 850.828,521.267 851.5,520.5 Z M 911.5,569.5 C 935.891,568.919 960.225,569.753 984.5,572C 1025.95,580.973 1045.95,606.806 1044.5,649.5C 1044.98,697.177 1021.65,723.677 974.5,729C 953.503,729.5 932.503,729.667 911.5,729.5C 911.5,676.167 911.5,622.833 911.5,569.5 Z"/></g>
<g><path style="opacity:1" fill="#6d6e73" d="M 648.5,521.5 C 656.111,521.634 663.111,523.3 669.5,526.5C 663.031,524.583 656.364,523.416 649.5,523C 648.944,522.617 648.611,522.117 648.5,521.5 Z"/></g>
<g><path style="opacity:1" fill="#f59f72" d="M 170.5,521.5 C 170.5,527.5 170.5,533.5 170.5,539.5C 142.5,539.5 114.5,539.5 86.5,539.5C 87.1522,538.275 88.3189,537.608 90,537.5C 93.1429,536.893 96.3095,536.559 99.5,536.5C 105.62,536.544 111.287,535.211 116.5,532.5C 127.447,530.21 138.447,528.21 149.5,526.5C 153.928,526.29 157.928,525.29 161.5,523.5C 164.261,522.08 167.261,521.413 170.5,521.5 Z"/></g>
<g><path style="opacity:1" fill="#9c6c57" d="M 161.5,523.5 C 157.928,525.29 153.928,526.29 149.5,526.5C 149.611,525.883 149.944,525.383 150.5,525C 154.17,524.452 157.837,523.952 161.5,523.5 Z"/></g>
<g><path style="opacity:0.982" fill="#dadada" d="M 2794.5,530.5 C 2797.08,530.083 2799.25,530.75 2801,532.5C 2801.64,551.245 2801.64,569.912 2801,588.5C 2816.42,589.491 2831.92,589.824 2847.5,589.5C 2847.83,604.515 2847.5,619.515 2846.5,634.5C 2831.64,635.827 2816.8,635.827 2802,634.5C 2801.5,635 2801,635.5 2800.5,636C 2801.33,663.761 2801.83,691.595 2802,719.5C 2803.7,723.205 2806.53,725.372 2810.5,726C 2822.55,726.187 2834.55,726.687 2846.5,727.5C 2847.82,744.397 2847.82,761.231 2846.5,778C 2823.83,778.667 2801.17,778.667 2778.5,778C 2753.92,772.405 2741.42,756.905 2741,731.5C 2740.67,699.167 2740.33,666.833 2740,634.5C 2728.54,635.782 2717.04,635.782 2705.5,634.5C 2705.33,619.83 2705.5,605.163 2706,590.5C 2717.33,589.833 2728.67,589.167 2740,588.5C 2740.33,573.167 2740.67,557.833 2741,542.5C 2742.49,540.996 2744.32,540.163 2746.5,540C 2762.69,537.112 2778.69,533.945 2794.5,530.5 Z"/></g>
<g><path style="opacity:0.986" fill="#dbdbdb" d="M 3191.5,530.5 C 3193.83,530.5 3196.17,530.5 3198.5,530.5C 3199.48,549.841 3199.82,569.008 3199.5,588C 3242.74,588.17 3285.9,588.67 3329,589.5C 3329.83,652.404 3329.66,715.237 3328.5,778C 3308.59,778.826 3288.76,778.659 3269,777.5C 3269,729.691 3268.33,682.024 3267,634.5C 3244.67,635.833 3222.33,635.833 3200,634.5C 3199.5,635 3199,635.5 3198.5,636C 3199.33,663.428 3199.83,690.928 3200,718.5C 3200.44,722.567 3202.61,725.067 3206.5,726C 3219.41,726.177 3232.24,726.677 3245,727.5C 3245.67,744.167 3245.67,760.833 3245,777.5C 3223.24,778.66 3201.41,778.827 3179.5,778C 3152.69,773.522 3139.19,757.689 3139,730.5C 3138.17,698.791 3138.34,667.125 3139.5,635.5C 3129.01,635.608 3118.34,635.441 3107.5,635C 3105.94,634.682 3104.77,633.849 3104,632.5C 3103.03,618.073 3103.37,603.74 3105,589.5C 3116.58,588.99 3128.08,588.157 3139.5,587C 3138.2,571.876 3138.2,556.709 3139.5,541.5C 3157.02,538.064 3174.36,534.397 3191.5,530.5 Z"/></g>
<g><path style="opacity:1" fill="#916654" d="M 116.5,532.5 C 111.287,535.211 105.62,536.544 99.5,536.5C 104.801,534.169 110.468,532.835 116.5,532.5 Z"/></g>
<g><path style="opacity:1" fill="#ffb085" d="M 394.5,341.5 C 399.305,340.513 404.305,340.179 409.5,340.5C 409.5,406.833 409.5,473.167 409.5,539.5C 342.833,539.5 276.167,539.5 209.5,539.5C 209.178,533.642 209.511,527.975 210.5,522.5C 210.5,527.833 210.5,533.167 210.5,538.5C 276.5,538.5 342.5,538.5 408.5,538.5C 408.5,472.833 408.5,407.167 408.5,341.5C 403.833,341.5 399.167,341.5 394.5,341.5 Z"/></g>
<g><path style="opacity:1" fill="#f4e0d0" d="M 86.5,539.5 C 114.5,539.5 142.5,539.5 170.5,539.5C 143.833,540.167 117.167,540.833 90.5,541.5C 87.9272,541.852 85.5938,541.352 83.5,540C 84.448,539.517 85.448,539.351 86.5,539.5 Z"/></g>
<g><path style="opacity:1" fill="#ffccad" d="M 410.5,540.5 C 410.5,540.167 410.5,539.833 410.5,539.5C 476.833,539.5 543.167,539.5 609.5,539.5C 609.666,547.84 609.5,556.173 609,564.5C 608.722,565.416 608.222,566.082 607.5,566.5C 608.203,557.851 608.536,549.185 608.5,540.5C 542.833,540.5 477.167,540.5 411.5,540.5C 411.167,540.5 410.833,540.5 410.5,540.5 Z"/></g>
<g><path style="opacity:1" fill="#feccad" d="M 731.5,539.5 C 732.067,540.42 731.401,540.754 729.5,540.5C 702.833,540.5 676.167,540.5 649.5,540.5C 649.802,543.059 649.468,545.393 648.5,547.5C 648.5,544.833 648.5,542.167 648.5,539.5C 676.167,539.5 703.833,539.5 731.5,539.5 Z"/></g>
<g><path style="opacity:1" fill="#fda272" d="M 411.5,540.5 C 477.167,540.5 542.833,540.5 608.5,540.5C 608.536,549.185 608.203,557.851 607.5,566.5C 568.358,573.701 529.358,581.701 490.5,590.5C 482.877,591.758 475.21,592.925 467.5,594C 465.815,597.231 464.815,600.731 464.5,604.5C 464.5,605.5 464.5,606.5 464.5,607.5C 463.017,609.924 461.85,612.591 461,615.5C 459.67,621.152 458.503,626.818 457.5,632.5C 457.152,636.258 456.485,639.924 455.5,643.5C 453.41,652.1 451.41,660.766 449.5,669.5C 449.5,669.833 449.5,670.167 449.5,670.5C 447.611,673.692 446.611,677.358 446.5,681.5C 441.9,700.27 437.567,719.27 433.5,738.5C 426.167,738.5 418.833,738.5 411.5,738.5C 411.5,672.5 411.5,606.5 411.5,540.5 Z"/></g>
<g><path style="opacity:1" fill="#fca374" d="M 729.5,540.5 C 721.44,542.224 713.44,544.224 705.5,546.5C 694.961,548.935 684.295,550.768 673.5,552C 669.616,552.864 665.949,554.03 662.5,555.5C 657.833,555.833 653.167,556.167 648.5,556.5C 648.5,553.5 648.5,550.5 648.5,547.5C 649.468,545.393 649.802,543.059 649.5,540.5C 676.167,540.5 702.833,540.5 729.5,540.5 Z"/></g>
<g><path style="opacity:1" fill="#a4a4a7" d="M 98.5,543.5 C 104.12,543.605 109.453,544.605 114.5,546.5C 108.853,546.409 103.52,545.409 98.5,543.5 Z"/></g>
<g><path style="opacity:1" fill="#7f5e52" d="M 731.5,539.5 C 731.5,539.167 731.5,538.833 731.5,538.5C 733.312,538.771 734.978,539.438 736.5,540.5C 735.667,540.833 734.833,541.167 734,541.5C 724.437,543.343 714.937,545.01 705.5,546.5C 713.44,544.224 721.44,542.224 729.5,540.5C 731.401,540.754 732.067,540.42 731.5,539.5 Z"/></g>
<g><path style="opacity:1" fill="#ffba93" d="M 410.5,540.5 C 410.833,540.5 411.167,540.5 411.5,540.5C 411.5,606.5 411.5,672.5 411.5,738.5C 418.833,738.5 426.167,738.5 433.5,738.5C 433.5,738.833 433.5,739.167 433.5,739.5C 425.809,739.403 418.142,739.737 410.5,740.5C 410.5,673.833 410.5,607.167 410.5,540.5 Z"/></g>
<g><path style="opacity:1" fill="#674d48" d="M 705.5,546.5 C 702.79,548.108 699.79,549.275 696.5,550C 685.083,551.416 673.749,553.25 662.5,555.5C 665.949,554.03 669.616,552.864 673.5,552C 684.295,550.768 694.961,548.935 705.5,546.5 Z"/></g>
<g><path style="opacity:1" fill="#6d6d74" d="M 170.5,557.5 C 172.147,566.654 173.48,575.988 174.5,585.5C 172.035,576.465 170.701,567.131 170.5,557.5 Z"/></g>
<g><path style="opacity:1" fill="#2d2d37" d="M 245.5,572.5 C 249.274,575.161 253.607,576.161 258.5,575.5C 263.103,576.334 267.769,577.334 272.5,578.5C 278.245,580.284 284.245,581.284 290.5,581.5C 311.358,586.32 332.358,590.653 353.5,594.5C 355.51,604.616 357.844,614.616 360.5,624.5C 360.633,631.194 361.966,637.527 364.5,643.5C 370.273,670.168 376.273,696.835 382.5,723.5C 382.08,727.754 382.747,731.754 384.5,735.5C 384.167,736.167 383.833,736.833 383.5,737.5C 376.555,736.449 369.555,735.782 362.5,735.5C 350.867,732.423 339.533,728.423 328.5,723.5C 325.514,720.556 321.847,718.889 317.5,718.5C 265.105,690.043 231.105,647.043 215.5,589.5C 214.736,583.249 213.403,577.249 211.5,571.5C 211.5,569.833 211.5,568.167 211.5,566.5C 222.951,568.297 234.284,570.297 245.5,572.5 Z"/></g>
<g><path style="opacity:1" fill="#2e2d37" d="M 607.5,566.5 C 607.437,574.651 606.27,582.651 604,590.5C 600.572,600.293 597.072,609.959 593.5,619.5C 591.755,621.033 590.755,623.033 590.5,625.5C 562.563,682.126 518.23,718.46 457.5,734.5C 452.923,734.925 448.59,735.925 444.5,737.5C 441.003,738.402 437.337,739.069 433.5,739.5C 433.5,739.167 433.5,738.833 433.5,738.5C 437.567,719.27 441.9,700.27 446.5,681.5C 448.37,678.191 449.37,674.525 449.5,670.5C 449.5,670.167 449.5,669.833 449.5,669.5C 452.983,661.318 454.983,652.651 455.5,643.5C 456.485,639.924 457.152,636.258 457.5,632.5C 458.117,632.389 458.617,632.056 459,631.5C 460.604,623.434 462.437,615.434 464.5,607.5C 464.5,606.5 464.5,605.5 464.5,604.5C 465.887,601.45 467.22,598.283 468.5,595C 476.2,594.631 483.534,593.131 490.5,590.5C 529.358,581.701 568.358,573.701 607.5,566.5 Z"/></g>
<g><path style="opacity:1" fill="#6f6f76" d="M 648.5,558.5 C 648.811,563.766 648.145,568.766 646.5,573.5C 646.302,568.25 646.969,563.25 648.5,558.5 Z"/></g>
<g><path style="opacity:1" fill="#9a9b9e" d="M 245.5,572.5 C 249.985,573.34 254.319,574.34 258.5,575.5C 253.607,576.161 249.274,575.161 245.5,572.5 Z"/></g>
<g><path style="opacity:1" fill="#a7a8ab" d="M 272.5,578.5 C 278.777,578.579 284.777,579.579 290.5,581.5C 284.245,581.284 278.245,580.284 272.5,578.5 Z"/></g>
<g><path style="opacity:1" fill="#9e9da2" d="M 211.5,571.5 C 213.403,577.249 214.736,583.249 215.5,589.5C 212.76,583.916 211.427,577.916 211.5,571.5 Z"/></g>
<g><path style="opacity:0.986" fill="#dbdbdb" d="M 1221.5,585.5 C 1257.47,581.455 1290.47,589.288 1320.5,609C 1346.79,632.194 1357.96,661.36 1354,696.5C 1346.77,740.736 1321.27,767.903 1277.5,778C 1250.01,783.203 1222.68,782.536 1195.5,776C 1148.47,760.258 1125.63,727.425 1127,677.5C 1130.39,635.449 1151.89,607.283 1191.5,593C 1201.43,589.654 1211.43,587.154 1221.5,585.5 Z M 1234.5,632.5 C 1271.39,630.231 1291.39,647.397 1294.5,684C 1292.29,717.621 1274.29,734.788 1240.5,735.5C 1203.47,733.303 1185.97,713.636 1188,676.5C 1191.75,649.248 1207.25,634.582 1234.5,632.5 Z"/></g>
<g><path style="opacity:0.982" fill="#dbdbdb" d="M 1475.5,585.5 C 1502.91,583.948 1528.91,589.115 1553.5,601C 1576.12,614.09 1588.79,633.59 1591.5,659.5C 1571.5,659.5 1551.5,659.5 1531.5,659.5C 1528.61,650.776 1523.28,643.942 1515.5,639C 1498.26,631.544 1480.59,630.544 1462.5,636C 1442.17,645.282 1432.17,661.282 1432.5,684C 1432.41,710.526 1445.08,727.193 1470.5,734C 1491.7,738.889 1510.2,734.056 1526,719.5C 1528.56,715.538 1530.73,711.371 1532.5,707C 1552.5,706.5 1572.5,706.333 1592.5,706.5C 1590.32,726.369 1581.65,742.869 1566.5,756C 1541.63,773.683 1513.8,782.183 1483,781.5C 1450.48,782.774 1422.15,772.774 1398,751.5C 1380.35,732.247 1371.52,709.414 1371.5,683C 1373.76,635.745 1397.43,605.078 1442.5,591C 1453.53,588.422 1464.53,586.589 1475.5,585.5 Z"/></g>
<g><path style="opacity:0.984" fill="#dadada" d="M 1980.5,585.5 C 2005.47,583.763 2026.64,591.763 2044,609.5C 2048.49,614.806 2051.65,620.806 2053.5,627.5C 2054.82,627.67 2055.99,627.337 2057,626.5C 2072.82,598.498 2096.98,584.831 2129.5,585.5C 2172.38,585.554 2197.88,606.554 2206,648.5C 2207.46,691.803 2207.96,735.137 2207.5,778.5C 2187.83,778.5 2168.17,778.5 2148.5,778.5C 2148.67,746.165 2148.5,713.832 2148,681.5C 2148.39,668.799 2145.73,656.799 2140,645.5C 2136.21,639.852 2131.05,636.018 2124.5,634C 2108.36,629.557 2093.36,631.89 2079.5,641C 2069.3,650.574 2063.8,662.407 2063,676.5C 2062.5,710.498 2062.33,744.498 2062.5,778.5C 2042.5,778.5 2022.5,778.5 2002.5,778.5C 2002.67,742.498 2002.5,706.498 2002,670.5C 1997.87,637.831 1979.71,625.664 1947.5,634C 1928.72,641.807 1918.88,655.974 1918,676.5C 1917.5,710.498 1917.33,744.498 1917.5,778.5C 1897.5,778.5 1877.5,778.5 1857.5,778.5C 1857.5,715.5 1857.5,652.5 1857.5,589.5C 1876.83,589.5 1896.17,589.5 1915.5,589.5C 1916.22,600.163 1916.88,610.83 1917.5,621.5C 1920.89,619.488 1923.39,616.488 1925,612.5C 1939.61,595.361 1958.11,586.361 1980.5,585.5 Z"/></g>
<g><path style="opacity:0.983" fill="#dbdbdb" d="M 2334.5,585.5 C 2360.06,584.564 2384.39,589.397 2407.5,600C 2436.27,616.35 2451.77,641.184 2454,674.5C 2454.9,682.246 2454.56,689.913 2453,697.5C 2399.9,698.497 2346.74,698.831 2293.5,698.5C 2294.73,717.911 2304.73,730.411 2323.5,736C 2338.17,739.333 2352.84,739.333 2367.5,736C 2378.69,733.257 2387.03,726.923 2392.5,717C 2411.83,716.333 2431.17,716.333 2450.5,717C 2451.06,717.725 2451.39,718.558 2451.5,719.5C 2445.21,741.92 2431.54,758.086 2410.5,768C 2395.57,774.982 2379.91,779.315 2363.5,781C 2340.08,783.176 2317.08,781.176 2294.5,775C 2247.28,756.769 2225.78,722.269 2230,671.5C 2236.01,630.493 2258.84,603.993 2298.5,592C 2310.51,589.172 2322.51,587.006 2334.5,585.5 Z M 2341.5,626.5 C 2355.19,626.534 2367.86,630.034 2379.5,637C 2387.44,644.046 2391.77,652.88 2392.5,663.5C 2359.17,663.5 2325.83,663.5 2292.5,663.5C 2295.5,646.661 2305.17,635.494 2321.5,630C 2328.31,628.864 2334.98,627.698 2341.5,626.5 Z"/></g>
<g><path style="opacity:0.982" fill="#dadada" d="M 2601.5,585.5 C 2624.33,583.629 2645.33,588.796 2664.5,601C 2680.64,615.124 2689.48,632.957 2691,654.5C 2691.5,695.832 2691.67,737.165 2691.5,778.5C 2671.59,778.826 2651.76,778.493 2632,777.5C 2631.67,746.833 2631.33,716.167 2631,685.5C 2633.09,644.247 2613.92,627.08 2573.5,634C 2551.52,641.656 2539.69,657.156 2538,680.5C 2537.5,713.165 2537.33,745.832 2537.5,778.5C 2517.5,778.5 2497.5,778.5 2477.5,778.5C 2477.5,715.5 2477.5,652.5 2477.5,589.5C 2496.84,589.167 2516.18,589.5 2535.5,590.5C 2536.7,600.774 2537.37,611.107 2537.5,621.5C 2538.68,621.719 2539.68,621.386 2540.5,620.5C 2551.59,603.271 2567.25,592.437 2587.5,588C 2592.29,587.098 2596.96,586.265 2601.5,585.5 Z"/></g>
<g><path style="opacity:0.98" fill="#dbdbdb" d="M 2947.5,585.5 C 2970.8,583.985 2992.13,589.485 3011.5,602C 3016.82,607.49 3022.15,612.656 3027.5,617.5C 3027.34,608.085 3028,598.752 3029.5,589.5C 3048.4,588.175 3067.23,588.175 3086,589.5C 3086.67,652.167 3086.67,714.833 3086,777.5C 3066.24,778.659 3046.41,778.826 3026.5,778C 3025.68,768.244 3025.18,758.41 3025,748.5C 3011.48,766.349 2993.64,777.182 2971.5,781C 2935.12,786.548 2904.96,775.715 2881,748.5C 2867.98,728.94 2861.48,707.274 2861.5,683.5C 2861.12,656.948 2869.29,633.615 2886,613.5C 2903.19,596.988 2923.69,587.655 2947.5,585.5 Z M 2961.5,632.5 C 3013.83,631.347 3034,656.347 3022,707.5C 3007.73,731.204 2986.9,740.037 2959.5,734C 2943.09,730.58 2931.92,721.08 2926,705.5C 2921.37,690.838 2921.37,676.171 2926,661.5C 2932.91,645.751 2944.74,636.085 2961.5,632.5 Z"/></g>
<g><path style="opacity:0.984" fill="#dbdbdb" d="M 3445.5,585.5 C 3481.54,581.382 3514.54,589.216 3544.5,609C 3568.1,628.314 3579.43,653.314 3578.5,684C 3577.21,730.958 3554.21,761.624 3509.5,776C 3479.48,783.332 3449.48,783.332 3419.5,776C 3375.62,761.106 3352.62,730.439 3350.5,684C 3352.54,637.864 3375.21,607.197 3418.5,592C 3427.5,589.239 3436.5,587.073 3445.5,585.5 Z M 3459.5,632.5 C 3480.15,630.176 3496.99,636.843 3510,652.5C 3521.28,673.176 3521.28,693.843 3510,714.5C 3498.46,728.656 3483.46,735.656 3465,735.5C 3425.15,732.679 3407.82,711.679 3413,672.5C 3418.44,647.561 3433.94,634.228 3459.5,632.5 Z"/></g>
<g><path style="opacity:0.986" fill="#dbdbdb" d="M 3725.5,585.5 C 3746.16,583.864 3765.49,588.03 3783.5,598C 3799.82,609.682 3809.65,625.515 3813,645.5C 3813.85,651.814 3814.51,658.147 3815,664.5C 3815.67,702.167 3815.67,739.833 3815,777.5C 3795.24,778.493 3775.41,778.826 3755.5,778.5C 3755.67,747.832 3755.5,717.165 3755,686.5C 3756.23,643.051 3735.73,625.885 3693.5,635C 3686.58,637.706 3680.41,641.54 3675,646.5C 3666.51,655.82 3662.18,666.82 3662,679.5C 3661.67,712.167 3661.33,744.833 3661,777.5C 3641,778.833 3621,778.833 3601,777.5C 3600.33,715.167 3600.33,652.833 3601,590.5C 3620.42,589.507 3639.92,589.174 3659.5,589.5C 3659.75,599.509 3660.25,609.509 3661,619.5C 3661.31,620.308 3661.81,620.975 3662.5,621.5C 3677.68,599.408 3698.68,587.408 3725.5,585.5 Z"/></g>
<g><path style="opacity:0.976" fill="#dbdbdb" d="M 1611.5,588.5 C 1630.74,588.174 1649.91,588.507 1669,589.5C 1670.32,623.415 1670.99,657.415 1671,691.5C 1672.24,724.732 1689.4,739.232 1722.5,735C 1746.92,729.578 1760.42,714.412 1763,689.5C 1763.17,656.162 1763.67,622.828 1764.5,589.5C 1784.17,588.167 1803.83,588.167 1823.5,589.5C 1824.67,652.164 1824.83,714.831 1824,777.5C 1804.91,778.659 1785.74,778.826 1766.5,778C 1765.18,767.2 1763.85,756.366 1762.5,745.5C 1748.85,765.603 1729.85,777.437 1705.5,781C 1683.36,783.477 1662.36,779.81 1642.5,770C 1631.36,763.507 1623.19,754.34 1618,742.5C 1614.73,734.771 1612.4,726.771 1611,718.5C 1609.9,695.188 1609.4,671.855 1609.5,648.5C 1609.51,628.283 1610.18,608.283 1611.5,588.5 Z"/></g>
<g><path style="opacity:1" fill="#5e4a46" d="M 490.5,590.5 C 483.534,593.131 476.2,594.631 468.5,595C 467.22,598.283 465.887,601.45 464.5,604.5C 464.815,600.731 465.815,597.231 467.5,594C 475.21,592.925 482.877,591.758 490.5,590.5 Z"/></g>
<g><path style="opacity:1" fill="#65656c" d="M 645.5,577.5 C 645.666,581.514 645.499,585.514 645,589.5C 643.518,597.136 641.352,604.469 638.5,611.5C 640.884,600.059 643.217,588.725 645.5,577.5 Z"/></g>
<g><path style="opacity:1" fill="#a9a9ae" d="M 177.5,598.5 C 178.117,598.611 178.617,598.944 179,599.5C 179.945,603.494 180.778,607.494 181.5,611.5C 179.422,607.491 178.089,603.158 177.5,598.5 Z"/></g>
<g><path style="opacity:1" fill="#8d8d92" d="M 181.5,611.5 C 182.924,613.515 183.59,615.848 183.5,618.5C 182.076,616.485 181.41,614.152 181.5,611.5 Z"/></g>
<g><path style="opacity:1" fill="#74554c" d="M 464.5,607.5 C 462.437,615.434 460.604,623.434 459,631.5C 458.617,632.056 458.117,632.389 457.5,632.5C 458.503,626.818 459.67,621.152 461,615.5C 461.85,612.591 463.017,609.924 464.5,607.5 Z"/></g>
<g><path style="opacity:1" fill="#8b8b91" d="M 593.5,619.5 C 593.245,621.967 592.245,623.967 590.5,625.5C 590.755,623.033 591.755,621.033 593.5,619.5 Z"/></g>
<g><path style="opacity:1" fill="#ffe8d5" d="M 209.5,539.5 C 276.167,539.5 342.833,539.5 409.5,539.5C 409.833,539.5 410.167,539.5 410.5,539.5C 410.5,539.833 410.5,540.167 410.5,540.5C 410.5,607.167 410.5,673.833 410.5,740.5C 409.501,674.002 409.168,607.335 409.5,540.5C 342.665,540.832 275.998,540.499 209.5,539.5 Z"/></g>
<g><path style="opacity:1" fill="#75757a" d="M 360.5,624.5 C 362.743,630.441 364.076,636.774 364.5,643.5C 361.966,637.527 360.633,631.194 360.5,624.5 Z"/></g>
<g><path style="opacity:1" fill="#8b8b91" d="M 190.5,635.5 C 192.481,639.744 194.481,644.077 196.5,648.5C 193,645.063 191,640.729 190.5,635.5 Z"/></g>
<g><path style="opacity:1" fill="#5e4945" d="M 455.5,643.5 C 454.983,652.651 452.983,661.318 449.5,669.5C 451.41,660.766 453.41,652.1 455.5,643.5 Z"/></g>
<g><path style="opacity:1" fill="#825c4f" d="M 449.5,670.5 C 449.37,674.525 448.37,678.191 446.5,681.5C 446.611,677.358 447.611,673.692 449.5,670.5 Z"/></g>
<g><path style="opacity:1" fill="#7b7b81" d="M 317.5,718.5 C 321.847,718.889 325.514,720.556 328.5,723.5C 324.592,722.231 320.925,720.565 317.5,718.5 Z"/></g>
<g><path style="opacity:0.004" fill="#000000" d="M 772.5,733.5 C 773.833,734.167 773.833,734.167 772.5,733.5 Z"/></g>
<g><path style="opacity:1" fill="#5d5d65" d="M 382.5,723.5 C 384.435,728.571 385.768,733.905 386.5,739.5C 378.203,739.175 370.203,737.841 362.5,735.5C 369.555,735.782 376.555,736.449 383.5,737.5C 383.833,736.833 384.167,736.167 384.5,735.5C 382.747,731.754 382.08,727.754 382.5,723.5 Z"/></g>
<g><path style="opacity:1" fill="#9c9ca1" d="M 457.5,734.5 C 453.694,737.034 449.36,738.034 444.5,737.5C 448.59,735.925 452.923,734.925 457.5,734.5 Z"/></g>
<g><path style="opacity:0.004" fill="#000000" d="M 765.5,745.5 C 766.833,746.167 766.833,746.167 765.5,745.5 Z"/></g>
<g><path style="opacity:1" fill="#8d8d92" d="M 520.5,752.5 C 518.967,754.245 516.967,755.245 514.5,755.5C 516.033,753.755 518.033,752.755 520.5,752.5 Z"/></g>
<g><path style="opacity:1" fill="#8a8a90" d="M 514.5,755.5 C 511.512,757.661 508.179,759.327 504.5,760.5C 507.004,757.357 510.337,755.691 514.5,755.5 Z"/></g>
<g><path style="opacity:0.004" fill="#000000" d="M 61.5,759.5 C 60.8333,760.167 60.8333,760.167 61.5,759.5 Z"/></g>
<g><path style="opacity:0.004" fill="#000000" d="M 757.5,759.5 C 758.833,760.167 758.833,760.167 757.5,759.5 Z"/></g>
<g><path style="opacity:1" fill="#8d8d93" d="M 443.5,777.5 C 437.383,778.879 431.05,779.546 424.5,779.5C 425.609,778.71 426.942,778.21 428.5,778C 433.489,777.501 438.489,777.334 443.5,777.5 Z"/></g>
<g><path style="opacity:1" fill="#a4a4a9" d="M 382.5,777.5 C 387.1,777.28 391.433,777.946 395.5,779.5C 390.9,779.72 386.567,779.054 382.5,777.5 Z"/></g>
<g><path style="opacity:1" fill="#f59e70" d="M 423.5,780.5 C 420.148,797.241 416.481,813.908 412.5,830.5C 412.167,830.5 411.833,830.5 411.5,830.5C 411.5,813.833 411.5,797.167 411.5,780.5C 415.5,780.5 419.5,780.5 423.5,780.5 Z"/></g>
<g><path style="opacity:1" fill="#febc95" d="M 410.5,779.5 C 414.833,779.5 419.167,779.5 423.5,779.5C 423.5,779.833 423.5,780.167 423.5,780.5C 419.5,780.5 415.5,780.5 411.5,780.5C 411.5,797.167 411.5,813.833 411.5,830.5C 411.672,831.492 411.338,832.158 410.5,832.5C 410.5,814.833 410.5,797.167 410.5,779.5 Z"/></g>
<g><path style="opacity:0.004" fill="#000000" d="M 82.5,789.5 C 82.8333,789.5 83.1667,789.5 83.5,789.5C 83.3147,790.17 82.9813,790.17 82.5,789.5 Z"/></g>
<g><path style="opacity:0.004" fill="#000000" d="M 735.5,789.5 C 735.833,789.5 736.167,789.5 736.5,789.5C 736.315,790.17 735.981,790.17 735.5,789.5 Z"/></g>
<g><path style="opacity:0.004" fill="#000000" d="M 719.5,810.5 C 720.833,811.167 720.833,811.167 719.5,810.5 Z"/></g>
<g><path style="opacity:0.004" fill="#000000" d="M 100.5,811.5 C 99.8333,812.167 99.8333,812.167 100.5,811.5 Z"/></g>
<g><path style="opacity:0.004" fill="#000000" d="M 718.5,811.5 C 718.833,811.5 719.167,811.5 719.5,811.5C 719.315,812.17 718.981,812.17 718.5,811.5 Z"/></g>
<g><path style="opacity:1" fill="#fde5d2" d="M 410.5,779.5 C 410.5,797.167 410.5,814.833 410.5,832.5C 410.633,839.651 409.966,839.984 408.5,833.5C 409.167,815.5 409.833,797.5 410.5,779.5 Z"/></g>
<g><path style="opacity:1" fill="#7a6d6b" d="M 411.5,830.5 C 411.833,830.5 412.167,830.5 412.5,830.5C 412.037,833.482 411.704,836.482 411.5,839.5C 408.221,838.969 406.887,836.969 407.5,833.5C 407.833,833.5 408.167,833.5 408.5,833.5C 409.966,839.984 410.633,839.651 410.5,832.5C 411.338,832.158 411.672,831.492 411.5,830.5 Z"/></g>
<g><path style="opacity:0.004" fill="#000000" d="M 681.5,848.5 C 682.833,849.167 682.833,849.167 681.5,848.5 Z"/></g>
<g><path style="opacity:0.004" fill="#000000" d="M 138.5,849.5 C 137.833,850.167 137.833,850.167 138.5,849.5 Z"/></g>
<g><path style="opacity:0.004" fill="#000000" d="M 680.5,849.5 C 680.833,849.5 681.167,849.5 681.5,849.5C 681.315,850.17 680.981,850.17 680.5,849.5 Z"/></g>
<g><path style="opacity:0.004" fill="#000000" d="M 659.5,865.5 C 660.833,866.167 660.833,866.167 659.5,865.5 Z"/></g>
<g><path style="opacity:0.004" fill="#000000" d="M 189.5,887.5 C 188.833,888.167 188.833,888.167 189.5,887.5 Z"/></g>
<g><path style="opacity:0.004" fill="#000000" d="M 629.5,887.5 C 630.833,888.167 630.833,888.167 629.5,887.5 Z"/></g>
<g><path style="opacity:0.004" fill="#000000" d="M 202.5,895.5 C 202.833,895.5 203.167,895.5 203.5,895.5C 203.315,896.17 202.981,896.17 202.5,895.5 Z"/></g>
<g><path style="opacity:0.004" fill="#000000" d="M 615.5,895.5 C 615.833,895.5 616.167,895.5 616.5,895.5C 616.315,896.17 615.981,896.17 615.5,895.5 Z"/></g>
<g><path style="opacity:0.004" fill="#000000" d="M 214.5,902.5 C 214.833,902.5 215.167,902.5 215.5,902.5C 215.315,903.17 214.981,903.17 214.5,902.5 Z"/></g>
<g><path style="opacity:0.004" fill="#000000" d="M 603.5,902.5 C 603.833,902.5 604.167,902.5 604.5,902.5C 604.315,903.17 603.981,903.17 603.5,902.5 Z"/></g>
</svg>
