<?xml version="1.0" encoding="UTF-8"?>
<!DOCTYPE svg PUBLIC "-//W3C//DTD SVG 1.1//EN" "http://www.w3.org/Graphics/SVG/1.1/DTD/svg11.dtd">
<svg xmlns="http://www.w3.org/2000/svg" version="1.1" width="3840px" height="1080px" style="shape-rendering:geometricPrecision; text-rendering:geometricPrecision; image-rendering:optimizeQuality; fill-rule:evenodd; clip-rule:evenodd" xmlns:xlink="http://www.w3.org/1999/xlink">
<g><path style="opacity:1" fill="#fdfdfd" d="M 398.5,193.5 C 400.716,201.341 402.883,209.341 405,217.5C 405.383,218.056 405.883,218.389 406.5,218.5C 406.5,219.167 406.5,219.833 406.5,220.5C 406.264,223.609 406.597,226.609 407.5,229.5C 407.858,233.509 408.358,237.509 409,241.5C 409.516,244.034 410.683,246.2 412.5,248C 424.647,248.889 436.647,250.389 448.5,252.5C 450.64,252.444 452.306,251.777 453.5,250.5C 454.167,250.833 454.833,251.167 455.5,251.5C 459.691,253.906 464.358,255.573 469.5,256.5C 469.833,256.5 470.167,256.5 470.5,256.5C 473.828,259.447 477.828,260.947 482.5,261C 484.956,262.711 487.623,264.044 490.5,265C 494.979,265.802 499.313,267.135 503.5,269C 505.81,269.497 508.143,269.663 510.5,269.5C 510.5,270.833 510.5,272.167 510.5,273.5C 516.718,274.671 522.718,276.338 528.5,278.5C 529.203,280.716 530.536,282.549 532.5,284C 546.113,291.959 559.446,300.292 572.5,309C 575.908,313.652 580.241,317.152 585.5,319.5C 588.166,323.162 591.499,326.162 595.5,328.5C 600.17,333.309 604.503,338.476 608.5,344C 609.793,344.49 611.127,344.657 612.5,344.5C 613.39,347.224 614.89,349.557 617,351.5C 617.816,352.823 618.983,353.489 620.5,353.5C 621.823,356.672 623.49,359.672 625.5,362.5C 626.265,363.612 627.265,364.279 628.5,364.5C 628.833,364.5 629.167,364.5 629.5,364.5C 630.62,368.1 631.787,371.767 633,375.5C 633.939,378.015 635.439,378.682 637.5,377.5C 638.694,382.574 641.361,386.574 645.5,389.5C 645.71,395.68 648.377,400.346 653.5,403.5C 653.511,405.547 653.844,407.547 654.5,409.5C 656.559,412.541 658.559,415.541 660.5,418.5C 661.506,424.214 663.839,429.214 667.5,433.5C 670.932,451.177 675.432,468.511 681,485.5C 681.318,489.195 681.818,492.862 682.5,496.5C 682.747,497.713 683.414,498.38 684.5,498.5C 684.5,500.167 684.5,501.833 684.5,503.5C 684.353,508.214 684.686,512.881 685.5,517.5C 688.167,517.833 690.833,518.167 693.5,518.5C 698.29,519.725 703.29,520.392 708.5,520.5C 711.59,521.727 714.59,523.061 717.5,524.5C 720.529,526.075 723.862,527.241 727.5,528C 740.536,529.974 753.536,532.141 766.5,534.5C 767.609,534.557 768.609,534.89 769.5,535.5C 770.952,536.302 772.618,536.802 774.5,537C 744.833,537.333 715.167,537.667 685.5,538C 684.519,545.413 684.186,552.913 684.5,560.5C 682.251,577.271 679.584,593.938 676.5,610.5C 673.745,621.209 671.079,631.876 668.5,642.5C 665.817,645.571 664.484,649.238 664.5,653.5C 662.1,655.589 660.1,658.089 658.5,661C 655.044,668.083 651.21,674.916 647,681.5C 645.008,689.455 641.008,696.122 635,701.5C 631.7,707.63 628.2,713.63 624.5,719.5C 623.675,720.386 622.675,720.719 621.5,720.5C 621.5,721.833 621.5,723.167 621.5,724.5C 617.362,724.973 615.362,727.307 615.5,731.5C 614.5,731.5 613.5,731.5 612.5,731.5C 612.762,732.978 612.429,734.311 611.5,735.5C 607.926,737.565 604.759,740.232 602,743.5C 601.517,744.448 601.351,745.448 601.5,746.5C 599.319,746.284 597.653,747.117 596.5,749C 596.833,749.333 597.167,749.667 597.5,750C 593.91,752.923 590.577,755.256 587.5,757C 587.833,757.333 588.167,757.667 588.5,758C 587.552,758.483 586.552,758.649 585.5,758.5C 585.191,761.346 583.525,762.846 580.5,763C 580.833,763.333 581.167,763.667 581.5,764C 577.204,767.487 572.537,770.487 567.5,773C 565.334,774.678 564.001,776.845 563.5,779.5C 554.826,781.348 547.493,785.515 541.5,792C 539.212,792.822 536.878,793.489 534.5,794C 528.663,797.567 522.997,801.067 517.5,804.5C 511.941,807.114 506.274,809.447 500.5,811.5C 497.654,811.03 495.321,811.863 493.5,814C 484.253,815.637 475.586,818.637 467.5,823C 460.971,824.277 454.638,825.777 448.5,827.5C 438.228,829.1 427.895,830.267 417.5,831C 416.944,831.383 416.611,831.883 416.5,832.5C 415.791,833.404 414.791,833.737 413.5,833.5C 412.609,832.89 411.609,832.557 410.5,832.5C 405.238,832.195 400.072,832.529 395,833.5C 395.158,855.19 394.325,876.524 392.5,897.5C 388.764,886.938 386.264,875.938 385,864.5C 383.622,862.938 382.789,861.105 382.5,859C 381.146,850.144 379.646,841.31 378,832.5C 375.519,830.686 372.685,830.02 369.5,830.5C 358.599,829.396 347.599,827.896 336.5,826C 329.677,823.673 322.677,821.84 315.5,820.5C 305.839,816.917 295.839,814.25 285.5,812.5C 283.786,811.262 281.786,810.595 279.5,810.5C 279.117,808.592 278.117,807.092 276.5,806C 271.792,804.929 267.126,803.763 262.5,802.5C 261.04,800.537 259.373,798.704 257.5,797C 253.712,796.126 250.046,794.959 246.5,793.5C 245.972,792.279 245.305,791.113 244.5,790C 239.687,787.343 235.021,784.51 230.5,781.5C 228.5,780.833 226.5,780.167 224.5,779.5C 219.51,776.667 214.844,773.334 210.5,769.5C 209.202,764.89 206.202,762.223 201.5,761.5C 199.396,755.728 195.396,752.061 189.5,750.5C 185.878,745.04 182.045,739.707 178,734.5C 175.749,733.588 173.583,732.588 171.5,731.5C 171.657,730.127 171.49,728.793 171,727.5C 168.642,725.976 166.809,723.976 165.5,721.5C 164.583,720.873 163.583,720.539 162.5,720.5C 162.628,718.345 162.128,716.345 161,714.5C 157.816,710.762 154.649,707.095 151.5,703.5C 151.167,703.5 150.833,703.5 150.5,703.5C 150.087,699.662 148.42,696.662 145.5,694.5C 143.903,689.738 142.07,685.071 140,680.5C 137.185,678.023 135.185,675.023 134,671.5C 132.989,670.663 131.822,670.33 130.5,670.5C 130.5,670.167 130.5,669.833 130.5,669.5C 129.465,665.091 128.132,660.758 126.5,656.5C 126.067,653.834 125.567,651.168 125,648.5C 119.941,639.462 115.775,630.129 112.5,620.5C 111.442,615.155 110.275,609.822 109,604.5C 108.329,603.748 107.496,603.414 106.5,603.5C 106.5,602.833 106.5,602.167 106.5,601.5C 107.139,600.903 107.472,600.07 107.5,599C 105.082,590.26 104.415,581.426 105.5,572.5C 104.979,568.809 104.312,565.143 103.5,561.5C 102.817,561.137 102.15,560.804 101.5,560.5C 99.8333,560.5 98.1667,560.5 96.5,560.5C 95.8333,560.5 95.1667,560.5 94.5,560.5C 92.7211,558.656 90.3878,557.99 87.5,558.5C 83.007,558.731 78.6737,558.064 74.5,556.5C 70.3068,553.91 65.6401,552.91 60.5,553.5C 58.0479,552.935 55.7146,552.268 53.5,551.5C 47.7785,549.737 41.7785,548.57 35.5,548C 26.0213,544.381 16.3547,541.881 6.5,540.5C 38.5017,540.667 70.5017,540.5 102.5,540C 103.481,532.587 103.814,525.087 103.5,517.5C 105.132,501.891 107.299,486.224 110,470.5C 114.627,461.504 117.127,451.837 117.5,441.5C 118.038,439.883 118.371,438.216 118.5,436.5C 119.5,436.5 120.5,436.5 121.5,436.5C 124.29,430.586 125.957,424.253 126.5,417.5C 129.747,414.685 131.747,411.018 132.5,406.5C 138.315,400.228 142.648,392.895 145.5,384.5C 148.852,382.13 151.519,379.13 153.5,375.5C 154.401,371.953 155.734,368.62 157.5,365.5C 158.701,363.091 160.367,361.091 162.5,359.5C 164.769,357.418 167.269,355.418 170,353.5C 170.655,351.372 171.489,349.372 172.5,347.5C 172.5,347.167 172.5,346.833 172.5,346.5C 176.268,343.794 179.935,340.961 183.5,338C 185.032,334.667 187.032,331.833 189.5,329.5C 190.922,329.291 192.255,328.791 193.5,328C 196.779,325.211 199.779,322.211 202.5,319C 207.658,316.341 211.658,312.508 214.5,307.5C 225.371,302.806 235.371,296.639 244.5,289C 255.195,283.017 266.195,277.517 277.5,272.5C 280.943,270.177 284.776,268.51 289,267.5C 290.749,266.59 291.916,265.257 292.5,263.5C 295.473,264.524 298.473,264.357 301.5,263C 305.656,261.239 309.656,259.405 313.5,257.5C 314.568,256.566 315.901,256.232 317.5,256.5C 324.201,255.686 330.867,254.686 337.5,253.5C 345.957,253.202 354.291,252.035 362.5,250C 373.153,249.124 383.82,248.457 394.5,248C 395.327,227.573 395.827,207.073 396,186.5C 396.156,189.191 396.989,191.524 398.5,193.5 Z M 361.5,303.5 C 359.227,304.271 358.894,305.604 360.5,307.5C 359.892,310.145 359.392,312.812 359,315.5C 358.086,314.346 357.253,314.513 356.5,316C 357.022,316.561 357.355,317.228 357.5,318C 351.342,341.546 346.175,365.379 342,389.5C 336.838,410.239 331.672,430.739 326.5,451C 327.337,452.011 327.67,453.178 327.5,454.5C 326.883,454.611 326.383,454.944 326,455.5C 325.154,459.941 323.987,464.274 322.5,468.5C 316.845,472.377 310.678,473.71 304,472.5C 302.69,473.897 301.19,474.897 299.5,475.5C 291.664,476.918 283.997,478.252 276.5,479.5C 241.904,486.514 207.238,493.347 172.5,500C 171.944,500.383 171.611,500.883 171.5,501.5C 170.5,501.5 169.5,501.5 168.5,501.5C 163.898,502.052 159.565,502.719 155.5,503.5C 156.114,497.147 156.947,490.814 158,484.5C 158.578,481.097 159.745,477.93 161.5,475C 160.944,474.617 160.611,474.117 160.5,473.5C 163.443,466.091 165.943,458.424 168,450.5C 173.507,438.775 179.34,427.441 185.5,416.5C 189.226,411.435 192.559,406.101 195.5,400.5C 208.351,382.949 223.351,366.616 240.5,351.5C 243.815,351.028 246.149,349.195 247.5,346C 258.096,339.736 268.43,333.07 278.5,326C 285.289,323.565 291.956,320.732 298.5,317.5C 298.863,316.817 299.196,316.15 299.5,315.5C 299.833,315.5 300.167,315.5 300.5,315.5C 312.086,312.441 323.419,308.774 334.5,304.5C 335.791,304.737 336.791,304.404 337.5,303.5C 345.409,302.432 353.242,301.099 361,299.5C 361.49,300.793 361.657,302.127 361.5,303.5 Z M 513.5,329.5 C 518.994,333.082 524.661,336.415 530.5,339.5C 530.842,340.338 531.508,340.672 532.5,340.5C 533.866,342.271 535.366,343.938 537,345.5C 537.414,345.043 537.914,344.709 538.5,344.5C 542.859,349.522 547.859,353.855 553.5,357.5C 561.436,364.954 569.103,372.621 576.5,380.5C 585.311,391.443 593.644,402.777 601.5,414.5C 607.422,425.01 613.256,436.676 619,449.5C 620.235,454.291 621.735,458.958 623.5,463.5C 627.741,476.473 630.741,489.806 632.5,503.5C 619.862,500.446 606.862,498.113 593.5,496.5C 584.15,493.357 574.15,491.023 563.5,489.5C 559.158,489.261 554.824,488.927 550.5,488.5C 550.167,488.5 549.833,488.5 549.5,488.5C 548.192,487.768 546.858,486.934 545.5,486C 534.026,484.366 522.693,482.2 511.5,479.5C 510.504,479.414 509.671,479.748 509,480.5C 506.817,478.164 504.317,477.497 501.5,478.5C 500.158,477.207 498.491,476.374 496.5,476C 488.22,474.423 479.887,473.09 471.5,472C 469.58,470.878 467.58,470.044 465.5,469.5C 463.83,462.791 462.163,456.124 460.5,449.5C 460.5,449.167 460.5,448.833 460.5,448.5C 459.761,442.623 458.428,437.29 456.5,432.5C 456.833,431.833 457.167,431.167 457.5,430.5C 456.437,427.915 455.103,425.582 453.5,423.5C 453.5,422.833 453.5,422.167 453.5,421.5C 452.753,414.438 451.586,407.438 450,400.5C 449.428,396.837 448.262,393.503 446.5,390.5C 446.5,389.833 446.5,389.167 446.5,388.5C 442.569,371.681 439.069,354.681 436,337.5C 434.586,332.234 432.753,327.234 430.5,322.5C 429.871,315.098 428.871,307.764 427.5,300.5C 433.866,301.006 440.2,301.839 446.5,303C 458.902,306.516 471.235,310.183 483.5,314C 493.313,319.626 503.313,324.793 513.5,329.5 Z M 187.5,581.5 C 192.44,582.069 197.273,583.403 202,585.5C 203.011,584.663 204.178,584.33 205.5,584.5C 208.171,586.118 211.171,586.785 214.5,586.5C 218.93,588.046 223.596,589.046 228.5,589.5C 239.052,590.772 249.385,592.772 259.5,595.5C 260.167,595.5 260.833,595.5 261.5,595.5C 265.836,596.595 270.169,597.929 274.5,599.5C 275.167,599.167 275.833,598.833 276.5,598.5C 287.556,601.778 298.889,604.278 310.5,606C 312.78,606.233 314.78,607.066 316.5,608.5C 318.644,607.047 320.477,607.38 322,609.5C 326.498,622.772 329.831,636.439 332,650.5C 333.688,651.325 333.855,652.325 332.5,653.5C 336.155,665.786 339.488,678.119 342.5,690.5C 342.291,691.086 341.957,691.586 341.5,692C 343.091,694.386 344.091,697.053 344.5,700C 343.941,700.725 343.608,701.558 343.5,702.5C 345.071,706.545 346.404,710.545 347.5,714.5C 347.617,720.952 348.951,726.952 351.5,732.5C 351.586,733.496 351.252,734.329 350.5,735C 351.578,735.674 352.245,736.674 352.5,738C 352.995,742.658 353.995,747.158 355.5,751.5C 357.95,760.659 359.95,769.992 361.5,779.5C 354.579,778.226 347.579,777.226 340.5,776.5C 326.426,772.354 312.093,767.687 297.5,762.5C 297.167,762.5 296.833,762.5 296.5,762.5C 296.047,761.542 295.381,760.708 294.5,760C 288.585,757.17 282.585,754.504 276.5,752C 270.322,747.076 263.656,742.91 256.5,739.5C 255.306,738.728 254.306,737.728 253.5,736.5C 251.745,735.928 250.078,735.094 248.5,734C 240.63,726.916 232.63,720.082 224.5,713.5C 215.885,703.842 207.219,694.176 198.5,684.5C 198.5,684.167 198.5,683.833 198.5,683.5C 187.261,666.063 177.094,648.063 168,629.5C 166.065,620.656 163.398,611.656 160,602.5C 157.893,593.347 156.059,584.181 154.5,575C 165.095,577.534 176.095,579.7 187.5,581.5 Z M 632.5,575.5 C 631.808,583.691 630.475,591.691 628.5,599.5C 625.986,608.881 623.152,618.214 620,627.5C 617.572,632.094 615.072,636.594 612.5,641C 612.833,641.333 613.167,641.667 613.5,642C 608.216,651.637 602.883,661.303 597.5,671C 595.862,674.277 593.529,676.944 590.5,679C 591.252,679.671 591.586,680.504 591.5,681.5C 590.5,681.5 589.5,681.5 588.5,681.5C 588.046,684.14 586.879,686.473 585,688.5C 577.944,695.721 571.444,703.387 565.5,711.5C 562.215,712.95 559.715,715.283 558,718.5C 557.667,718.167 557.333,717.833 557,717.5C 554.414,720.141 551.914,722.807 549.5,725.5C 548.833,725.5 548.5,725.833 548.5,726.5C 515.008,753.099 477.341,770.433 435.5,778.5C 435.167,778.5 434.833,778.5 434.5,778.5C 432.167,778.5 429.833,778.5 427.5,778.5C 431.027,762.575 434.36,746.575 437.5,730.5C 439.223,723.871 441.056,717.204 443,710.5C 443.923,706.21 444.423,701.877 444.5,697.5C 445.789,693.203 447.289,688.87 449,684.5C 449.88,679.84 450.713,675.173 451.5,670.5C 451.919,669.328 452.585,668.328 453.5,667.5C 452.332,660.346 453.666,653.679 457.5,647.5C 457.291,646.914 456.957,646.414 456.5,646C 458.868,640.612 460.535,635.112 461.5,629.5C 462.044,622.615 463.544,615.948 466,609.5C 466.689,608.643 467.522,607.977 468.5,607.5C 470.5,607.833 472.5,608.167 474.5,608.5C 475.354,607.478 476.354,606.645 477.5,606C 486.216,604.88 494.883,603.547 503.5,602C 505.898,600.982 508.231,599.815 510.5,598.5C 511.293,598.931 512.127,599.265 513,599.5C 536.389,594.153 559.889,589.153 583.5,584.5C 585.467,585.684 587.134,585.351 588.5,583.5C 599.195,582.204 609.695,580.204 620,577.5C 620.873,577.735 621.707,578.069 622.5,578.5C 623.281,577.263 624.281,576.263 625.5,575.5C 627.727,576.053 630.061,576.053 632.5,575.5 Z"/></g>
<g><path style="opacity:0.999" fill="#f59e70" d="M 391.5,177.5 C 391.842,176.662 392.508,176.328 393.5,176.5C 393.5,178.167 393.5,179.833 393.5,181.5C 392.545,202.807 392.212,224.14 392.5,245.5C 387.438,245.274 382.438,245.608 377.5,246.5C 377.342,243.098 377.676,239.764 378.5,236.5C 377.167,235.5 377.167,234.5 378.5,233.5C 379.117,233.389 379.617,233.056 380,232.5C 380.433,225.776 381.933,219.442 384.5,213.5C 385.117,213.389 385.617,213.056 386,212.5C 388.018,201.461 390.184,190.461 392.5,179.5C 392.457,178.584 392.124,177.917 391.5,177.5 Z"/></g>
<g><path style="opacity:0.502" fill="#9d6d55" d="M 391.5,177.5 C 392.124,177.917 392.457,178.584 392.5,179.5C 390.184,190.461 388.018,201.461 386,212.5C 385.617,213.056 385.117,213.389 384.5,213.5C 385.058,207.82 385.725,202.153 386.5,196.5C 387.156,189.87 388.823,183.537 391.5,177.5 Z"/></g>
<g><path style="opacity:1" fill="#e9dbd2" d="M 393.5,176.5 C 394.5,176.5 395.5,176.5 396.5,176.5C 396.433,177.959 396.766,179.292 397.5,180.5C 397.586,184.857 397.92,189.19 398.5,193.5C 396.989,191.524 396.156,189.191 396,186.5C 395.827,207.073 395.327,227.573 394.5,248C 383.82,248.457 373.153,249.124 362.5,250C 354.291,252.035 345.957,253.202 337.5,253.5C 343.718,251.362 350.051,249.696 356.5,248.5C 357.167,248.5 357.833,248.5 358.5,248.5C 364.523,248.498 370.523,248.165 376.5,247.5C 382.425,247.808 388.259,247.475 394,246.5C 394.829,224.663 394.663,202.996 393.5,181.5C 393.5,179.833 393.5,178.167 393.5,176.5 Z"/></g>
<g><path style="opacity:0.118" fill="#797a7c" d="M 397.5,180.5 C 401.984,192.684 404.984,205.351 406.5,218.5C 405.883,218.389 405.383,218.056 405,217.5C 402.883,209.341 400.716,201.341 398.5,193.5C 397.92,189.19 397.586,184.857 397.5,180.5 Z"/></g>
<g><path style="opacity:1" fill="#ffbd99" d="M 393.5,181.5 C 394.663,202.996 394.829,224.663 394,246.5C 388.259,247.475 382.425,247.808 376.5,247.5C 376.5,246.833 376.833,246.5 377.5,246.5C 382.438,245.608 387.438,245.274 392.5,245.5C 392.212,224.14 392.545,202.807 393.5,181.5 Z"/></g>
<g><path style="opacity:0.035" fill="#422f29" d="M 386.5,196.5 C 385.725,202.153 385.058,207.82 384.5,213.5C 381.933,219.442 380.433,225.776 380,232.5C 379.617,233.056 379.117,233.389 378.5,233.5C 380.427,220.855 383.093,208.522 386.5,196.5 Z"/></g>
<g><path style="opacity:0.02" fill="#414142" d="M 406.5,220.5 C 407.688,225.429 409.021,230.429 410.5,235.5C 409.203,233.629 408.203,231.629 407.5,229.5C 406.597,226.609 406.264,223.609 406.5,220.5 Z"/></g>
<g><path style="opacity:0.469" fill="#98979b" d="M 407.5,229.5 C 408.203,231.629 409.203,233.629 410.5,235.5C 410.963,238.221 411.629,240.888 412.5,243.5C 412.5,244.5 412.5,245.5 412.5,246.5C 418.178,247.085 423.845,247.751 429.5,248.5C 430.15,248.196 430.817,247.863 431.5,247.5C 438.784,248.791 446.118,249.791 453.5,250.5C 452.306,251.777 450.64,252.444 448.5,252.5C 436.647,250.389 424.647,248.889 412.5,248C 410.683,246.2 409.516,244.034 409,241.5C 408.358,237.509 407.858,233.509 407.5,229.5 Z"/></g>
<g><path style="opacity:0.986" fill="#e88e5f" d="M 972.5,243.5 C 991.891,243.076 1011.22,243.909 1030.5,246C 1055.48,250.208 1077.65,260.375 1097,276.5C 1112.25,291.551 1121.41,309.717 1124.5,331C 1123.83,332 1123.17,333 1122.5,334C 1107.5,334.667 1092.5,334.667 1077.5,334C 1072.25,322.847 1065.25,312.847 1056.5,304C 1045.02,295.927 1032.35,290.594 1018.5,288C 1003.2,286.454 987.869,286.121 972.5,287C 908.614,297.262 884.78,333.762 901,396.5C 911.729,418.286 928.896,432.119 952.5,438C 980.565,445.156 1008.57,444.49 1036.5,436C 1055.2,427.966 1068.53,414.633 1076.5,396C 1092.16,395.5 1107.83,395.333 1123.5,395.5C 1120.09,427.405 1104.43,451.238 1076.5,467C 1051.56,478.938 1025.22,485.104 997.5,485.5C 968.569,485.746 940.569,480.912 913.5,471C 873.071,453.233 850.238,422.399 845,378.5C 841.103,313.098 870.27,270.598 932.5,251C 945.789,247.503 959.122,245.003 972.5,243.5 Z"/></g>
<g><path style="opacity:0.416" fill="#625b5f" d="M 378.5,236.5 C 377.676,239.764 377.342,243.098 377.5,246.5C 376.833,246.5 376.5,246.833 376.5,247.5C 370.523,248.165 364.523,248.498 358.5,248.5C 363.804,247.567 369.137,246.233 374.5,244.5C 375.708,241.659 377.041,238.993 378.5,236.5 Z"/></g>
<g><path style="opacity:0.057" fill="#2f2c2f" d="M 412.5,243.5 C 418.09,245.567 423.757,247.234 429.5,248.5C 423.845,247.751 418.178,247.085 412.5,246.5C 412.5,245.5 412.5,244.5 412.5,243.5 Z"/></g>
<g><path style="opacity:0.435" fill="#89888e" d="M 356.5,248.5 C 350.051,249.696 343.718,251.362 337.5,253.5C 330.867,254.686 324.201,255.686 317.5,256.5C 317.611,255.883 317.944,255.383 318.5,255C 331.123,250.731 343.79,248.564 356.5,248.5 Z"/></g>
<g><path style="opacity:0.306" fill="#69696f" d="M 455.5,251.5 C 458.413,252.241 461.413,252.741 464.5,253C 466.431,253.902 468.097,255.069 469.5,256.5C 464.358,255.573 459.691,253.906 455.5,251.5 Z"/></g>
<g><path style="opacity:0.565" fill="#8a8a8f" d="M 470.5,256.5 C 484.49,259.18 497.823,263.513 510.5,269.5C 508.143,269.663 505.81,269.497 503.5,269C 499.313,267.135 494.979,265.802 490.5,265C 487.623,264.044 484.956,262.711 482.5,261C 477.828,260.947 473.828,259.447 470.5,256.5 Z"/></g>
<g><path style="opacity:0.38" fill="#8e8e92" d="M 313.5,257.5 C 309.656,259.405 305.656,261.239 301.5,263C 298.473,264.357 295.473,264.524 292.5,263.5C 299.045,260.442 306.045,258.442 313.5,257.5 Z"/></g>
<g><path style="opacity:0.008" fill="#0f0f13" d="M 288.5,265.5 C 285.785,267.072 282.785,268.072 279.5,268.5C 282.084,266.528 285.084,265.528 288.5,265.5 Z"/></g>
<g><path style="opacity:0.647" fill="#8a8a8f" d="M 292.5,263.5 C 291.916,265.257 290.749,266.59 289,267.5C 284.776,268.51 280.943,270.177 277.5,272.5C 271.364,274.323 265.364,276.323 259.5,278.5C 265.601,274.116 272.268,270.783 279.5,268.5C 282.785,268.072 285.785,267.072 288.5,265.5C 289.514,264.326 290.847,263.66 292.5,263.5 Z"/></g>
<g><path style="opacity:0.31" fill="#8c8b8c" d="M 510.5,269.5 C 516.818,271.992 522.818,274.992 528.5,278.5C 522.718,276.338 516.718,274.671 510.5,273.5C 510.5,272.167 510.5,270.833 510.5,269.5 Z"/></g>
<g><path style="opacity:1" fill="#fea272" d="M 364.5,297.5 C 364.833,297.5 365.167,297.5 365.5,297.5C 374.5,297.5 383.5,297.5 392.5,297.5C 392.5,377.5 392.5,457.5 392.5,537.5C 312.167,537.5 231.833,537.5 151.5,537.5C 151.93,527.084 151.93,516.75 151.5,506.5C 151.833,506.5 152.167,506.5 152.5,506.5C 154.167,506.5 155.833,506.5 157.5,506.5C 170.278,505.685 182.611,503.351 194.5,499.5C 209.224,496.854 223.724,493.521 238,489.5C 239,489.833 240,490.167 241,490.5C 246.546,489.217 252.046,487.884 257.5,486.5C 272.648,484.121 287.648,480.954 302.5,477C 310.11,475.701 317.777,474.701 325.5,474C 327.829,465.18 329.829,456.347 331.5,447.5C 334.508,435.282 337.008,422.949 339,410.5C 340.887,408.974 341.887,406.974 342,404.5C 347.545,375.086 354.212,346.086 362,317.5C 362.64,310.757 363.473,304.091 364.5,297.5 Z"/></g>
<g><path style="opacity:0.987" fill="#e88e60" d="M 1260.5,297.5 C 1288.88,295.874 1315.54,301.707 1340.5,315C 1372.86,336.913 1386.36,367.413 1381,406.5C 1375.09,438.413 1357.26,460.913 1327.5,474C 1302.05,483.94 1275.72,487.273 1248.5,484C 1220.26,481.827 1196.1,470.994 1176,451.5C 1157.7,428.694 1151.03,402.694 1156,373.5C 1164.55,336.284 1187.38,312.784 1224.5,303C 1236.51,300.246 1248.51,298.413 1260.5,297.5 Z M 1260.5,334.5 C 1277.86,333.337 1294.19,336.837 1309.5,345C 1330.09,361.392 1337.25,382.559 1331,408.5C 1321.73,431.091 1304.89,443.924 1280.5,447C 1264.6,449.035 1249.27,447.035 1234.5,441C 1206.93,425.993 1197.43,403.159 1206,372.5C 1213.61,353.569 1227.44,341.736 1247.5,337C 1251.99,336.24 1256.32,335.406 1260.5,334.5 Z"/></g>
<g><path style="opacity:0.994" fill="#e78d60" d="M 1540.5,297.5 C 1559.51,296.999 1577.18,301.499 1593.5,311C 1606.28,320.048 1614.44,332.215 1618,347.5C 1635.1,315.103 1662.1,298.437 1699,297.5C 1719.27,297.206 1737.43,303.039 1753.5,315C 1765.56,326.617 1772.73,340.783 1775,357.5C 1775.5,398.499 1775.67,439.499 1775.5,480.5C 1759.83,480.5 1744.17,480.5 1728.5,480.5C 1728.96,441.799 1728.46,403.132 1727,364.5C 1724.96,356.241 1720.8,349.408 1714.5,344C 1685.79,331.539 1658.79,334.539 1633.5,353C 1628.97,357.199 1624.8,361.699 1621,366.5C 1620.5,404.499 1620.33,442.499 1620.5,480.5C 1604.83,480.5 1589.17,480.5 1573.5,480.5C 1573.67,443.832 1573.5,407.165 1573,370.5C 1571.41,353.101 1562.24,342.268 1545.5,338C 1515.46,332.348 1489.96,340.514 1469,362.5C 1466.27,366.241 1463.93,370.241 1462,374.5C 1461.5,409.832 1461.33,445.165 1461.5,480.5C 1445.83,480.5 1430.17,480.5 1414.5,480.5C 1414.5,420.833 1414.5,361.167 1414.5,301.5C 1430.17,301.5 1445.83,301.5 1461.5,301.5C 1461.33,318.17 1461.5,334.837 1462,351.5C 1477.02,317.243 1503.19,299.243 1540.5,297.5 Z"/></g>
<g><path style="opacity:0.986" fill="#e88e60" d="M 1937.5,297.5 C 1982.17,295.067 2014.67,313.4 2035,352.5C 2044.89,378.483 2044.89,404.483 2035,430.5C 2016.73,465.897 1987.56,483.897 1947.5,484.5C 1907.69,484.518 1880.19,466.185 1865,429.5C 1864.5,470.165 1864.33,510.832 1864.5,551.5C 1849.87,552.617 1835.2,552.783 1820.5,552C 1819.23,551.691 1818.07,551.191 1817,550.5C 1816.33,467.833 1816.33,385.167 1817,302.5C 1831.76,301.343 1846.59,301.177 1861.5,302C 1862.96,317.088 1864.12,332.255 1865,347.5C 1874.35,325.481 1890.18,310.314 1912.5,302C 1920.91,300.161 1929.24,298.661 1937.5,297.5 Z M 1917.5,335.5 C 1934.08,333.867 1950.08,336.034 1965.5,342C 1984.53,353.211 1993.86,370.044 1993.5,392.5C 1991.53,422.304 1975.87,440.137 1946.5,446C 1924.04,449.709 1903.37,445.375 1884.5,433C 1864.98,415.09 1859.81,393.59 1869,368.5C 1876.04,354.796 1886.88,345.296 1901.5,340C 1906.93,338.351 1912.26,336.851 1917.5,335.5 Z"/></g>
<g><path style="opacity:0.983" fill="#e88e5f" d="M 2157.5,297.5 C 2177.22,296.6 2195.89,300.434 2213.5,309C 2228.36,318.562 2238.53,331.728 2244,348.5C 2244.17,332.926 2244.67,317.426 2245.5,302C 2261.07,301.176 2276.57,301.343 2292,302.5C 2292.83,361.737 2292.66,420.904 2291.5,480C 2277.16,480.833 2262.82,480.666 2248.5,479.5C 2246.34,462.921 2244.84,446.255 2244,429.5C 2226.98,468.438 2197.15,486.605 2154.5,484C 2117.36,480.861 2090.53,462.694 2074,429.5C 2064,403.824 2064,378.157 2074,352.5C 2086.08,327.083 2105.58,310.25 2132.5,302C 2140.92,300.147 2149.25,298.647 2157.5,297.5 Z M 2170.5,335.5 C 2185.64,334.638 2200.3,336.805 2214.5,342C 2237.82,354.41 2247.65,373.91 2244,400.5C 2239.06,423.44 2225.23,437.94 2202.5,444C 2181.87,449.576 2161.87,447.909 2142.5,439C 2124.41,428.208 2115.74,412.208 2116.5,391C 2118.11,356.556 2136.11,338.056 2170.5,335.5 Z"/></g>
<g><path style="opacity:0.985" fill="#e88e5f" d="M 2407.5,297.5 C 2421.99,297.55 2436.32,299.05 2450.5,302C 2478.81,310.796 2493.47,329.963 2494.5,359.5C 2480.5,359.667 2466.5,359.5 2452.5,359C 2451.1,351.522 2447.43,345.522 2441.5,341C 2423.52,332.442 2405.52,332.442 2387.5,341C 2380.27,346.967 2378.77,354.133 2383,362.5C 2385.23,364.7 2387.73,366.533 2390.5,368C 2408.01,372.636 2425.68,376.636 2443.5,380C 2458.09,383.059 2471.75,388.393 2484.5,396C 2502.13,412.876 2505.63,432.376 2495,454.5C 2485.02,468.425 2471.52,477.258 2454.5,481C 2424.21,487.251 2394.55,485.251 2365.5,475C 2344.44,465.716 2331.28,449.882 2326,427.5C 2325.29,425.101 2325.46,422.768 2326.5,420.5C 2340.82,419.334 2355.16,419.167 2369.5,420C 2377.44,436.001 2390.44,445.167 2408.5,447.5C 2414.99,446.237 2421.49,446.237 2428,447.5C 2434.21,446.824 2440.04,444.99 2445.5,442C 2456.49,425.298 2452.16,414.631 2432.5,410C 2416.9,406.678 2401.23,403.678 2385.5,401C 2367.35,397.676 2351.85,389.509 2339,376.5C 2325.09,349.398 2330.92,327.565 2356.5,311C 2372.58,302.566 2389.58,298.066 2407.5,297.5 Z"/></g>
<g><path style="opacity:0.804" fill="#b0afb3" d="M 277.5,272.5 C 266.195,277.517 255.195,283.017 244.5,289C 235.371,296.639 225.371,302.806 214.5,307.5C 228.174,295.835 243.174,286.168 259.5,278.5C 265.364,276.323 271.364,274.323 277.5,272.5 Z"/></g>
<g><path style="opacity:0.016" fill="#353436" d="M 557.5,296.5 C 560.326,296.998 562.66,298.331 564.5,300.5C 561.674,300.002 559.34,298.669 557.5,296.5 Z"/></g>
<g><path style="opacity:0.984" fill="#e88e5f" d="M 2608.5,297.5 C 2623.31,297.568 2637.98,299.068 2652.5,302C 2673.26,308.431 2687.1,321.931 2694,342.5C 2695.22,348.101 2695.72,353.768 2695.5,359.5C 2681.48,359.833 2667.48,359.499 2653.5,358.5C 2650.96,345.793 2643.29,338.293 2630.5,336C 2615.4,333.012 2601.06,335.012 2587.5,342C 2581.2,349.371 2580.86,357.037 2586.5,365C 2590.05,366.941 2593.71,368.607 2597.5,370C 2616.1,374.254 2634.77,378.254 2653.5,382C 2669.77,385.624 2683.61,393.458 2695,405.5C 2704.97,423.83 2704.3,441.83 2693,459.5C 2681.41,471.709 2667.24,479.209 2650.5,482C 2621.03,487.405 2592.36,484.739 2564.5,474C 2547.32,465.152 2535.48,451.652 2529,433.5C 2527.53,428.975 2527.37,424.475 2528.5,420C 2542.5,419.333 2556.5,419.333 2570.5,420C 2578.69,436.173 2591.86,445.34 2610,447.5C 2616.65,446.253 2623.32,446.253 2630,447.5C 2636.66,446.63 2642.82,444.464 2648.5,441C 2655.76,431.611 2655.1,422.944 2646.5,415C 2639.87,411.592 2632.87,409.259 2625.5,408C 2603.15,405.331 2581.48,399.998 2560.5,392C 2533.6,377.576 2526.43,356.41 2539,328.5C 2549.4,315.044 2562.9,306.21 2579.5,302C 2589.24,300.041 2598.91,298.541 2608.5,297.5 Z"/></g>
<g><path style="opacity:0.637" fill="#96969b" d="M 364.5,296.5 C 365.167,296.5 365.5,296.833 365.5,297.5C 365.167,297.5 364.833,297.5 364.5,297.5C 363.508,297.328 362.842,297.662 362.5,298.5C 354.442,299.206 346.442,300.373 338.5,302C 337.944,302.383 337.611,302.883 337.5,303.5C 336.791,304.404 335.791,304.737 334.5,304.5C 331.332,303.556 327.999,303.556 324.5,304.5C 337.096,299.542 350.429,296.876 364.5,296.5 Z"/></g>
<g><path style="opacity:0.024" fill="#3b3940" d="M 362.5,298.5 C 362.784,300.415 362.451,302.081 361.5,303.5C 361.657,302.127 361.49,300.793 361,299.5C 353.242,301.099 345.409,302.432 337.5,303.5C 337.611,302.883 337.944,302.383 338.5,302C 346.442,300.373 354.442,299.206 362.5,298.5 Z"/></g>
<g><path style="opacity:0.737" fill="#a8a8ab" d="M 528.5,278.5 C 533.505,281.002 538.505,283.502 543.5,286C 548.414,289.277 553.08,292.777 557.5,296.5C 559.34,298.669 561.674,300.002 564.5,300.5C 574.201,307.349 583.534,314.849 592.5,323C 599.761,329.756 606.428,336.922 612.5,344.5C 611.127,344.657 609.793,344.49 608.5,344C 604.503,338.476 600.17,333.309 595.5,328.5C 591.499,326.162 588.166,323.162 585.5,319.5C 580.241,317.152 575.908,313.652 572.5,309C 559.446,300.292 546.113,291.959 532.5,284C 530.536,282.549 529.203,280.716 528.5,278.5 Z"/></g>
<g><path style="opacity:0.522" fill="#56565c" d="M 334.5,304.5 C 323.419,308.774 312.086,312.441 300.5,315.5C 300.414,314.504 300.748,313.671 301.5,313C 309.55,310.843 317.217,308.01 324.5,304.5C 327.999,303.556 331.332,303.556 334.5,304.5 Z"/></g>
<g><path style="opacity:0.216" fill="#8d8c90" d="M 214.5,307.5 C 211.658,312.508 207.658,316.341 202.5,319C 199.779,322.211 196.779,325.211 193.5,328C 192.255,328.791 190.922,329.291 189.5,329.5C 189.987,328.527 190.487,327.527 191,326.5C 198.053,321.233 204.553,315.4 210.5,309C 211.745,308.209 213.078,307.709 214.5,307.5 Z"/></g>
<g><path style="opacity:0.671" fill="#7e7e83" d="M 517.5,328.5 C 516.041,328.433 514.708,328.766 513.5,329.5C 503.313,324.793 493.313,319.626 483.5,314C 471.235,310.183 458.902,306.516 446.5,303C 440.2,301.839 433.866,301.006 427.5,300.5C 428.871,307.764 429.871,315.098 430.5,322.5C 431.389,329.794 433.223,336.794 436,343.5C 436.583,347.832 437.083,352.165 437.5,356.5C 430.97,337.042 426.304,317.042 423.5,296.5C 427.401,295.857 430.734,296.857 433.5,299.5C 434.772,298.954 436.106,298.621 437.5,298.5C 444.851,300.07 452.184,301.57 459.5,303C 466.779,305.482 474.113,307.649 481.5,309.5C 490.208,314.395 499.208,318.561 508.5,322C 510.864,325.158 513.864,327.324 517.5,328.5 Z"/></g>
<g><path style="opacity:0.953" fill="#c4c4c7" d="M 324.5,304.5 C 317.217,308.01 309.55,310.843 301.5,313C 300.748,313.671 300.414,314.504 300.5,315.5C 300.167,315.5 299.833,315.5 299.5,315.5C 292.471,315.587 286.471,318.087 281.5,323C 278.148,324.17 274.814,325.336 271.5,326.5C 278.588,320.864 286.588,316.697 295.5,314C 296.833,313 298.167,312 299.5,311C 307.853,309.028 316.186,306.861 324.5,304.5 Z"/></g>
<g><path style="opacity:0.545" fill="#6a6a6e" d="M 299.5,315.5 C 299.196,316.15 298.863,316.817 298.5,317.5C 291.956,320.732 285.289,323.565 278.5,326C 268.43,333.07 258.096,339.736 247.5,346C 246.149,349.195 243.815,351.028 240.5,351.5C 240.393,349.097 241.393,347.264 243.5,346C 252.737,339.247 262.07,332.747 271.5,326.5C 274.814,325.336 278.148,324.17 281.5,323C 286.471,318.087 292.471,315.587 299.5,315.5 Z"/></g>
<g><path style="opacity:0.216" fill="#3c3b3f" d="M 517.5,328.5 C 517.5,329.5 517.5,330.5 517.5,331.5C 522.935,332.384 527.269,335.051 530.5,339.5C 524.661,336.415 518.994,333.082 513.5,329.5C 514.708,328.766 516.041,328.433 517.5,328.5 Z"/></g>
<g><path style="opacity:0.573" fill="#9c9ca1" d="M 517.5,328.5 C 526.876,333.183 535.876,338.349 544.5,344C 545.305,345.113 545.972,346.279 546.5,347.5C 542.901,346.436 539.901,344.269 537.5,341C 535.701,339.964 534.034,339.797 532.5,340.5C 531.508,340.672 530.842,340.338 530.5,339.5C 527.269,335.051 522.935,332.384 517.5,331.5C 517.5,330.5 517.5,329.5 517.5,328.5 Z"/></g>
<g><path style="opacity:0.196" fill="#6e6b75" d="M 189.5,329.5 C 187.032,331.833 185.032,334.667 183.5,338C 179.935,340.961 176.268,343.794 172.5,346.5C 177.215,339.785 182.882,334.118 189.5,329.5 Z"/></g>
<g><path style="opacity:0.029" fill="#59595d" d="M 430.5,322.5 C 432.753,327.234 434.586,332.234 436,337.5C 439.069,354.681 442.569,371.681 446.5,388.5C 445.178,388.67 444.011,388.337 443,387.5C 441.059,377.181 439.226,366.847 437.5,356.5C 437.083,352.165 436.583,347.832 436,343.5C 433.223,336.794 431.389,329.794 430.5,322.5 Z"/></g>
<g><path style="opacity:0.071" fill="#67666c" d="M 612.5,344.5 C 615.861,346.895 618.528,349.895 620.5,353.5C 618.983,353.489 617.816,352.823 617,351.5C 614.89,349.557 613.39,347.224 612.5,344.5 Z"/></g>
<g><path style="opacity:0.58" fill="#929292" d="M 172.5,347.5 C 171.489,349.372 170.655,351.372 170,353.5C 167.269,355.418 164.769,357.418 162.5,359.5C 164.709,354.619 168.043,350.619 172.5,347.5 Z"/></g>
<g><path style="opacity:0.278" fill="#7f7e80" d="M 620.5,353.5 C 624.288,356.297 626.954,359.963 628.5,364.5C 627.265,364.279 626.265,363.612 625.5,362.5C 623.49,359.672 621.823,356.672 620.5,353.5 Z"/></g>
<g><path style="opacity:0.494" fill="#69686d" d="M 546.5,347.5 C 556.75,356.081 566.417,365.414 575.5,375.5C 576.038,377.117 576.371,378.784 576.5,380.5C 569.103,372.621 561.436,364.954 553.5,357.5C 547.859,353.855 542.859,349.522 538.5,344.5C 537.914,344.709 537.414,345.043 537,345.5C 535.366,343.938 533.866,342.271 532.5,340.5C 534.034,339.797 535.701,339.964 537.5,341C 539.901,344.269 542.901,346.436 546.5,347.5 Z"/></g>
<g><path style="opacity:0.757" fill="#8b8b90" d="M 157.5,365.5 C 155.734,368.62 154.401,371.953 153.5,375.5C 151.519,379.13 148.852,382.13 145.5,384.5C 146.045,382.407 146.878,380.407 148,378.5C 151.188,374.099 154.355,369.766 157.5,365.5 Z"/></g>
<g><path style="opacity:0.812" fill="#b2b2b3" d="M 629.5,364.5 C 632.981,368.318 635.648,372.652 637.5,377.5C 635.439,378.682 633.939,378.015 633,375.5C 631.787,371.767 630.62,368.1 629.5,364.5 Z"/></g>
<g><path style="opacity:0.082" fill="#747475" d="M 637.5,377.5 C 641.336,380.678 644.002,384.678 645.5,389.5C 641.361,386.574 638.694,382.574 637.5,377.5 Z"/></g>
<g><path style="opacity:0.424" fill="#9c9b9f" d="M 145.5,384.5 C 142.648,392.895 138.315,400.228 132.5,406.5C 135.041,400.727 137.874,395.06 141,389.5C 142.067,387.308 143.567,385.642 145.5,384.5 Z"/></g>
<g><path style="opacity:0.871" fill="#abaab2" d="M 645.5,389.5 C 648.673,393.842 651.34,398.509 653.5,403.5C 648.377,400.346 645.71,395.68 645.5,389.5 Z"/></g>
<g><path style="opacity:0.404" fill="#45454a" d="M 195.5,400.5 C 192.559,406.101 189.226,411.435 185.5,416.5C 187.286,411.828 189.286,407.162 191.5,402.5C 192.622,401.37 193.956,400.703 195.5,400.5 Z"/></g>
<g><path style="opacity:0.847" fill="#8c8c90" d="M 575.5,375.5 C 581.134,381.304 586.634,387.304 592,393.5C 596.333,399.833 600.667,406.167 605,412.5C 605.49,413.793 605.657,415.127 605.5,416.5C 604.167,415.833 602.833,415.167 601.5,414.5C 593.644,402.777 585.311,391.443 576.5,380.5C 576.371,378.784 576.038,377.117 575.5,375.5 Z"/></g>
<g><path style="opacity:0.2" fill="#5c5c60" d="M 132.5,406.5 C 131.747,411.018 129.747,414.685 126.5,417.5C 128.133,413.571 130.133,409.904 132.5,406.5 Z"/></g>
<g><path style="opacity:0.6" fill="#86868c" d="M 240.5,351.5 C 223.351,366.616 208.351,382.949 195.5,400.5C 193.956,400.703 192.622,401.37 191.5,402.5C 189.286,407.162 187.286,411.828 185.5,416.5C 179.34,427.441 173.507,438.775 168,450.5C 165.943,458.424 163.443,466.091 160.5,473.5C 159.91,472.234 159.41,470.901 159,469.5C 158.333,471.5 157.667,473.5 157,475.5C 154.45,485.656 152.95,495.989 152.5,506.5C 152.167,506.5 151.833,506.5 151.5,506.5C 151.95,495.325 153.45,484.325 156,473.5C 156.749,470.243 158.416,467.576 161,465.5C 163.033,459.28 164.7,452.947 166,446.5C 167.574,445.016 168.907,443.349 170,441.5C 172.984,433.893 175.984,426.226 179,418.5C 180.447,416.597 182.114,414.93 184,413.5C 185.03,410.05 186.363,406.717 188,403.5C 193.872,398.967 198.206,393.301 201,386.5C 211.23,373.269 223.063,361.769 236.5,352C 237.793,351.51 239.127,351.343 240.5,351.5 Z"/></g>
<g><path style="opacity:0.224" fill="#8c8c8e" d="M 653.5,403.5 C 657.145,407.834 659.478,412.834 660.5,418.5C 658.559,415.541 656.559,412.541 654.5,409.5C 653.844,407.547 653.511,405.547 653.5,403.5 Z"/></g>
<g><path style="opacity:0.6" fill="#6f6f73" d="M 446.5,390.5 C 448.262,393.503 449.428,396.837 450,400.5C 451.586,407.438 452.753,414.438 453.5,421.5C 452.504,421.586 451.671,421.252 451,420.5C 449.058,411.18 447.225,401.847 445.5,392.5C 445.543,391.584 445.876,390.917 446.5,390.5 Z"/></g>
<g><path style="opacity:0.29" fill="#707073" d="M 660.5,418.5 C 664.161,422.825 666.494,427.825 667.5,433.5C 663.839,429.214 661.506,424.214 660.5,418.5 Z"/></g>
<g><path style="opacity:0.416" fill="#79797b" d="M 126.5,417.5 C 125.957,424.253 124.29,430.586 121.5,436.5C 120.5,436.5 119.5,436.5 118.5,436.5C 120.928,429.988 123.595,423.655 126.5,417.5 Z"/></g>
<g><path style="opacity:0.337" fill="#7c594a" d="M 364.5,297.5 C 363.473,304.091 362.64,310.757 362,317.5C 354.212,346.086 347.545,375.086 342,404.5C 341.887,406.974 340.887,408.974 339,410.5C 337.008,422.949 334.508,435.282 331.5,447.5C 330.896,450.218 329.563,452.551 327.5,454.5C 327.67,453.178 327.337,452.011 326.5,451C 331.672,430.739 336.838,410.239 342,389.5C 346.175,365.379 351.342,341.546 357.5,318C 357.355,317.228 357.022,316.561 356.5,316C 357.253,314.513 358.086,314.346 359,315.5C 359.392,312.812 359.892,310.145 360.5,307.5C 358.894,305.604 359.227,304.271 361.5,303.5C 362.451,302.081 362.784,300.415 362.5,298.5C 362.842,297.662 363.508,297.328 364.5,297.5 Z"/></g>
<g><path style="opacity:0.588" fill="#787779" d="M 453.5,423.5 C 455.103,425.582 456.437,427.915 457.5,430.5C 457.167,431.167 456.833,431.833 456.5,432.5C 458.428,437.29 459.761,442.623 460.5,448.5C 459.178,448.67 458.011,448.337 457,447.5C 454.732,439.659 453.565,431.659 453.5,423.5 Z"/></g>
<g><path style="opacity:0.565" fill="#a7a7ab" d="M 607.5,419.5 C 609.113,419.944 610.28,420.944 611,422.5C 613.515,429.523 616.015,436.523 618.5,443.5C 616.53,440.672 614.697,437.672 613,434.5C 611.723,429.24 609.89,424.24 607.5,419.5 Z"/></g>
<g><path style="opacity:0.8" fill="#b1b0b2" d="M 117.5,441.5 C 117.127,451.837 114.627,461.504 110,470.5C 107.299,486.224 105.132,501.891 103.5,517.5C 102.833,517.833 102.167,518.167 101.5,518.5C 101.5,518.167 101.5,517.833 101.5,517.5C 101.993,515.194 102.326,512.861 102.5,510.5C 102.772,497.988 104.272,485.654 107,473.5C 110.704,463.527 114.204,452.861 117.5,441.5 Z"/></g>
<g><path style="opacity:0.737" fill="#ababae" d="M 667.5,433.5 C 675.826,454.471 681.493,476.138 684.5,498.5C 683.414,498.38 682.747,497.713 682.5,496.5C 681.818,492.862 681.318,489.195 681,485.5C 675.432,468.511 670.932,451.177 667.5,433.5 Z"/></g>
<g><path style="opacity:0.18" fill="#5a443c" d="M 327.5,454.5 C 326.139,460.349 325.139,466.349 324.5,472.5C 316.363,473.034 308.363,474.367 300.5,476.5C 299.893,476.376 299.56,476.043 299.5,475.5C 301.19,474.897 302.69,473.897 304,472.5C 310.678,473.71 316.845,472.377 322.5,468.5C 323.987,464.274 325.154,459.941 326,455.5C 326.383,454.944 326.883,454.611 327.5,454.5 Z"/></g>
<g><path style="opacity:0.784" fill="#6d6d72" d="M 460.5,449.5 C 462.163,456.124 463.83,462.791 465.5,469.5C 467.58,470.044 469.58,470.878 471.5,472C 479.887,473.09 488.22,474.423 496.5,476C 498.491,476.374 500.158,477.207 501.5,478.5C 489.467,477.781 477.467,476.115 465.5,473.5C 464.878,472.373 464.045,471.373 463,470.5C 461.838,463.531 461.004,456.531 460.5,449.5 Z"/></g>
<g><path style="opacity:0.847" fill="#b2b3b5" d="M 465.5,473.5 C 477.467,476.115 489.467,477.781 501.5,478.5C 504.317,477.497 506.817,478.164 509,480.5C 509.671,479.748 510.504,479.414 511.5,479.5C 511.5,480.5 511.5,481.5 511.5,482.5C 515.337,482.931 519.003,483.598 522.5,484.5C 519.15,484.665 515.817,484.498 512.5,484C 496.749,480.354 481.082,476.854 465.5,473.5 Z"/></g>
<g><path style="opacity:0.949" fill="#a7725a" d="M 331.5,447.5 C 329.829,456.347 327.829,465.18 325.5,474C 317.777,474.701 310.11,475.701 302.5,477C 287.648,480.954 272.648,484.121 257.5,486.5C 257.611,485.883 257.944,485.383 258.5,485C 263.906,484.385 269.239,483.385 274.5,482C 275.756,481.583 276.423,480.75 276.5,479.5C 283.997,478.252 291.664,476.918 299.5,475.5C 299.56,476.043 299.893,476.376 300.5,476.5C 308.363,474.367 316.363,473.034 324.5,472.5C 325.139,466.349 326.139,460.349 327.5,454.5C 329.563,452.551 330.896,450.218 331.5,447.5 Z"/></g>
<g><path style="opacity:0.545" fill="#707176" d="M 511.5,479.5 C 522.693,482.2 534.026,484.366 545.5,486C 546.858,486.934 548.192,487.768 549.5,488.5C 548.423,489.018 547.256,489.352 546,489.5C 538.009,487.962 530.176,486.296 522.5,484.5C 519.003,483.598 515.337,482.931 511.5,482.5C 511.5,481.5 511.5,480.5 511.5,479.5 Z"/></g>
<g><path style="opacity:0.643" fill="#9d9da1" d="M 550.5,488.5 C 554.824,488.927 559.158,489.261 563.5,489.5C 563.47,490.497 563.97,491.164 565,491.5C 574.178,494.599 583.678,496.266 593.5,496.5C 593.804,497.15 594.137,497.817 594.5,498.5C 598.938,499.011 602.938,500.344 606.5,502.5C 588.549,498.856 570.549,495.19 552.5,491.5C 551.388,490.735 550.721,489.735 550.5,488.5 Z"/></g>
<g><path style="opacity:0.129" fill="#464549" d="M 563.5,489.5 C 574.15,491.023 584.15,493.357 593.5,496.5C 583.678,496.266 574.178,494.599 565,491.5C 563.97,491.164 563.47,490.497 563.5,489.5 Z"/></g>
<g><path style="opacity:0.42" fill="#675f61" d="M 160.5,473.5 C 160.611,474.117 160.944,474.617 161.5,475C 159.745,477.93 158.578,481.097 158,484.5C 156.947,490.814 156.114,497.147 155.5,503.5C 159.565,502.719 163.898,502.052 168.5,501.5C 165.061,503.614 161.394,505.281 157.5,506.5C 155.833,506.5 154.167,506.5 152.5,506.5C 152.95,495.989 154.45,485.656 157,475.5C 157.667,473.5 158.333,471.5 159,469.5C 159.41,470.901 159.91,472.234 160.5,473.5 Z"/></g>
<g><path style="opacity:0.565" fill="#6d4e43" d="M 276.5,479.5 C 276.423,480.75 275.756,481.583 274.5,482C 269.239,483.385 263.906,484.385 258.5,485C 257.944,485.383 257.611,485.883 257.5,486.5C 252.046,487.884 246.546,489.217 241,490.5C 240,490.167 239,489.833 238,489.5C 223.724,493.521 209.224,496.854 194.5,499.5C 192.599,499.567 190.766,499.233 189,498.5C 184.555,500.991 179.888,501.658 175,500.5C 174.076,502.495 172.91,502.828 171.5,501.5C 171.611,500.883 171.944,500.383 172.5,500C 207.238,493.347 241.904,486.514 276.5,479.5 Z"/></g>
<g><path style="opacity:0.945" fill="#c0c1c4" d="M 622.5,450.5 C 625.728,458.154 628.895,465.82 632,473.5C 632.269,478.666 633.269,483.666 635,488.5C 635.897,494.806 636.397,501.139 636.5,507.5C 634.585,507.784 632.919,507.451 631.5,506.5C 632.833,506.5 634.167,506.5 635.5,506.5C 635.184,501.156 634.684,495.822 634,490.5C 630.604,477.003 626.77,463.67 622.5,450.5 Z"/></g>
<g><path style="opacity:0.8" fill="#747479" d="M 601.5,414.5 C 602.833,415.167 604.167,415.833 605.5,416.5C 606.906,416.973 607.573,417.973 607.5,419.5C 609.89,424.24 611.723,429.24 613,434.5C 614.697,437.672 616.53,440.672 618.5,443.5C 620.942,445.121 622.275,447.454 622.5,450.5C 626.77,463.67 630.604,477.003 634,490.5C 634.684,495.822 635.184,501.156 635.5,506.5C 634.167,506.5 632.833,506.5 631.5,506.5C 623.397,504.276 615.064,502.942 606.5,502.5C 602.938,500.344 598.938,499.011 594.5,498.5C 594.137,497.817 593.804,497.15 593.5,496.5C 606.862,498.113 619.862,500.446 632.5,503.5C 630.741,489.806 627.741,476.473 623.5,463.5C 621.735,458.958 620.235,454.291 619,449.5C 613.256,436.676 607.422,425.01 601.5,414.5 Z"/></g>
<g><path style="opacity:0.965" fill="#b2785d" d="M 194.5,499.5 C 182.611,503.351 170.278,505.685 157.5,506.5C 161.394,505.281 165.061,503.614 168.5,501.5C 169.5,501.5 170.5,501.5 171.5,501.5C 172.91,502.828 174.076,502.495 175,500.5C 179.888,501.658 184.555,500.991 189,498.5C 190.766,499.233 192.599,499.567 194.5,499.5 Z"/></g>
<g><path style="opacity:0.039" fill="#4b3d3f" d="M 102.5,510.5 C 102.326,512.861 101.993,515.194 101.5,517.5C 99.0872,519.051 96.4206,519.717 93.5,519.5C 95.2774,518.4 97.2774,517.566 99.5,517C 100.422,514.706 101.422,512.539 102.5,510.5 Z"/></g>
<g><path style="opacity:0.365" fill="#67666c" d="M 684.5,503.5 C 685.385,507.07 686.385,510.737 687.5,514.5C 689.243,516.038 691.243,517.038 693.5,517.5C 693.5,517.833 693.5,518.167 693.5,518.5C 690.833,518.167 688.167,517.833 685.5,517.5C 684.686,512.881 684.353,508.214 684.5,503.5 Z"/></g>
<g><path style="opacity:0.012" fill="#121212" d="M 693.5,517.5 C 698.637,518.261 703.637,519.261 708.5,520.5C 703.29,520.392 698.29,519.725 693.5,518.5C 693.5,518.167 693.5,517.833 693.5,517.5 Z"/></g>
<g><path style="opacity:0.972" fill="#dadada" d="M 3288.5,519.5 C 3298.31,518.927 3307.98,519.76 3317.5,522C 3332.73,530.031 3336.57,541.864 3329,557.5C 3324.35,562.913 3318.51,566.413 3311.5,568C 3301.35,569.125 3291.35,568.458 3281.5,566C 3267.65,559.802 3262.82,549.302 3267,534.5C 3269.5,529.333 3273.33,525.5 3278.5,523C 3282.05,522.122 3285.39,520.956 3288.5,519.5 Z"/></g>
<g><path style="opacity:0.035" fill="#42261c" d="M 93.5,519.5 C 90.7273,520.657 87.7273,521.324 84.5,521.5C 87.1709,519.882 90.1709,519.215 93.5,519.5 Z"/></g>
<g><path style="opacity:0.959" fill="#f9a173" d="M 101.5,517.5 C 101.5,517.833 101.5,518.167 101.5,518.5C 101.5,525.167 101.5,531.833 101.5,538.5C 68.5,538.5 35.5,538.5 2.5,538.5C 1.5,538.5 0.5,538.5 -0.5,538.5C -0.5,537.833 -0.5,537.167 -0.5,536.5C 4.13196,535.624 8.79862,534.957 13.5,534.5C 16.1873,534.664 18.854,534.497 21.5,534C 25.6718,532.636 30.0051,531.636 34.5,531C 35.056,530.617 35.3893,530.117 35.5,529.5C 37.8333,529.5 40.1667,529.5 42.5,529.5C 49.7489,528.134 57.0822,527.301 64.5,527C 65.056,526.617 65.3893,526.117 65.5,525.5C 69.7051,525.283 73.7051,524.617 77.5,523.5C 79.8333,522.833 82.1667,522.167 84.5,521.5C 87.7273,521.324 90.7273,520.657 93.5,519.5C 96.4206,519.717 99.0872,519.051 101.5,517.5 Z"/></g>
<g><path style="opacity:0.991" fill="#dbdbdb" d="M 851.5,520.5 C 893.501,520.333 935.501,520.5 977.5,521C 1013.54,520.677 1045.21,532.011 1072.5,555C 1094.81,578.551 1106.64,606.717 1108,639.5C 1110.68,674.462 1102.01,706.128 1082,734.5C 1058.18,760.324 1028.68,774.824 993.5,778C 945.5,778.667 897.5,778.667 849.5,778C 848.335,692.903 848.168,607.737 849,522.5C 849.995,521.934 850.828,521.267 851.5,520.5 Z M 911.5,569.5 C 935.891,568.919 960.225,569.753 984.5,572C 1025.95,580.973 1045.95,606.806 1044.5,649.5C 1044.98,697.177 1021.65,723.677 974.5,729C 953.503,729.5 932.503,729.667 911.5,729.5C 911.5,676.167 911.5,622.833 911.5,569.5 Z"/></g>
<g><path style="opacity:0.043" fill="#614239" d="M 77.5,523.5 C 73.7051,524.617 69.7051,525.283 65.5,525.5C 69.2095,523.864 73.2095,523.198 77.5,523.5 Z"/></g>
<g><path style="opacity:0.055" fill="#37373a" d="M 708.5,520.5 C 714.75,521.263 720.75,522.596 726.5,524.5C 723.5,524.5 720.5,524.5 717.5,524.5C 714.59,523.061 711.59,521.727 708.5,520.5 Z"/></g>
<g><path style="opacity:0.043" fill="#604339" d="M 65.5,525.5 C 65.3893,526.117 65.056,526.617 64.5,527C 57.0822,527.301 49.7489,528.134 42.5,529.5C 42.6107,528.883 42.944,528.383 43.5,528C 50.8496,527.089 58.183,526.256 65.5,525.5 Z"/></g>
<g><path style="opacity:0.643" fill="#cacacc" d="M 717.5,524.5 C 720.5,524.5 723.5,524.5 726.5,524.5C 727.609,525.29 728.942,525.79 730.5,526C 729.833,526.333 729.167,526.667 728.5,527C 739.266,528.877 750.1,530.377 761,531.5C 762.07,531.472 762.903,531.139 763.5,530.5C 763.833,530.5 764.167,530.5 764.5,530.5C 764.733,532.062 765.4,533.395 766.5,534.5C 753.536,532.141 740.536,529.974 727.5,528C 723.862,527.241 720.529,526.075 717.5,524.5 Z"/></g>
<g><path style="opacity:0.392" fill="#808083" d="M 726.5,524.5 C 738.881,526.189 751.214,528.189 763.5,530.5C 762.903,531.139 762.07,531.472 761,531.5C 750.1,530.377 739.266,528.877 728.5,527C 729.167,526.667 729.833,526.333 730.5,526C 728.942,525.79 727.609,525.29 726.5,524.5 Z"/></g>
<g><path style="opacity:0.982" fill="#dadada" d="M 2794.5,530.5 C 2797.08,530.083 2799.25,530.75 2801,532.5C 2801.64,551.245 2801.64,569.912 2801,588.5C 2816.42,589.491 2831.92,589.824 2847.5,589.5C 2847.83,604.515 2847.5,619.515 2846.5,634.5C 2831.64,635.827 2816.8,635.827 2802,634.5C 2801.5,635 2801,635.5 2800.5,636C 2801.33,663.761 2801.83,691.595 2802,719.5C 2803.7,723.205 2806.53,725.372 2810.5,726C 2822.55,726.187 2834.55,726.687 2846.5,727.5C 2847.82,744.397 2847.82,761.231 2846.5,778C 2823.83,778.667 2801.17,778.667 2778.5,778C 2753.92,772.405 2741.42,756.905 2741,731.5C 2740.67,699.167 2740.33,666.833 2740,634.5C 2728.54,635.782 2717.04,635.782 2705.5,634.5C 2705.33,619.83 2705.5,605.163 2706,590.5C 2717.33,589.833 2728.67,589.167 2740,588.5C 2740.33,573.167 2740.67,557.833 2741,542.5C 2742.49,540.996 2744.32,540.163 2746.5,540C 2762.69,537.112 2778.69,533.945 2794.5,530.5 Z"/></g>
<g><path style="opacity:0.986" fill="#dbdbdb" d="M 3191.5,530.5 C 3193.83,530.5 3196.17,530.5 3198.5,530.5C 3199.48,549.841 3199.82,569.008 3199.5,588C 3242.74,588.17 3285.9,588.67 3329,589.5C 3329.83,652.404 3329.66,715.237 3328.5,778C 3308.59,778.826 3288.76,778.659 3269,777.5C 3269,729.691 3268.33,682.024 3267,634.5C 3244.67,635.833 3222.33,635.833 3200,634.5C 3199.5,635 3199,635.5 3198.5,636C 3199.33,663.428 3199.83,690.928 3200,718.5C 3200.44,722.567 3202.61,725.067 3206.5,726C 3219.41,726.177 3232.24,726.677 3245,727.5C 3245.67,744.167 3245.67,760.833 3245,777.5C 3223.24,778.66 3201.41,778.827 3179.5,778C 3152.69,773.522 3139.19,757.689 3139,730.5C 3138.17,698.791 3138.34,667.125 3139.5,635.5C 3129.01,635.608 3118.34,635.441 3107.5,635C 3105.94,634.682 3104.77,633.849 3104,632.5C 3103.03,618.073 3103.37,603.74 3105,589.5C 3116.58,588.99 3128.08,588.157 3139.5,587C 3138.2,571.876 3138.2,556.709 3139.5,541.5C 3157.02,538.064 3174.36,534.397 3191.5,530.5 Z"/></g>
<g><path style="opacity:0.2" fill="#765448" d="M 35.5,529.5 C 35.3893,530.117 35.056,530.617 34.5,531C 30.0051,531.636 25.6718,532.636 21.5,534C 18.854,534.497 16.1873,534.664 13.5,534.5C 14.6808,532.933 16.3474,532.099 18.5,532C 24.1684,531.034 29.8351,530.201 35.5,529.5 Z"/></g>
<g><path style="opacity:0.635" fill="#81716e" d="M 764.5,530.5 C 773.548,532.615 782.548,534.615 791.5,536.5C 791.5,538.167 791.5,539.833 791.5,541.5C 782.02,544.464 772.354,546.797 762.5,548.5C 764.91,545.266 768.243,543.599 772.5,543.5C 777.818,543.173 782.818,541.839 787.5,539.5C 787.376,538.893 787.043,538.56 786.5,538.5C 781.146,536.493 775.479,535.493 769.5,535.5C 768.609,534.89 767.609,534.557 766.5,534.5C 765.4,533.395 764.733,532.062 764.5,530.5 Z"/></g>
<g><path style="opacity:1" fill="#feb389" d="M 364.5,296.5 C 367.287,295.523 370.287,295.19 373.5,295.5C 380.167,295.5 386.833,295.5 393.5,295.5C 393.5,376.5 393.5,457.5 393.5,538.5C 312.5,538.5 231.5,538.5 150.5,538.5C 150.5,531.5 150.5,524.5 150.5,517.5C 150.5,513.833 150.5,510.167 150.5,506.5C 150.833,506.5 151.167,506.5 151.5,506.5C 151.93,516.75 151.93,527.084 151.5,537.5C 231.833,537.5 312.167,537.5 392.5,537.5C 392.5,457.5 392.5,377.5 392.5,297.5C 383.5,297.5 374.5,297.5 365.5,297.5C 365.5,296.833 365.167,296.5 364.5,296.5 Z"/></g>
<g><path style="opacity:1" fill="#fce9dc" d="M 769.5,535.5 C 775.479,535.493 781.146,536.493 786.5,538.5C 753.529,539.312 720.529,539.812 687.5,540C 686.086,546.715 685.42,553.548 685.5,560.5C 685.167,560.5 684.833,560.5 684.5,560.5C 684.186,552.913 684.519,545.413 685.5,538C 715.167,537.667 744.833,537.333 774.5,537C 772.618,536.802 770.952,536.302 769.5,535.5 Z"/></g>
<g><path style="opacity:1" fill="#ffd9c2" d="M 373.5,295.5 C 380.648,294.508 387.981,294.175 395.5,294.5C 395.5,375.833 395.5,457.167 395.5,538.5C 476.335,538.167 557.002,538.501 637.5,539.5C 556.5,539.5 475.5,539.5 394.5,539.5C 312.833,539.5 231.167,539.5 149.5,539.5C 149.175,531.981 149.508,524.648 150.5,517.5C 150.5,524.5 150.5,531.5 150.5,538.5C 231.5,538.5 312.5,538.5 393.5,538.5C 393.5,457.5 393.5,376.5 393.5,295.5C 386.833,295.5 380.167,295.5 373.5,295.5 Z"/></g>
<g><path style="opacity:1" fill="#fee5d4" d="M 103.5,517.5 C 103.814,525.087 103.481,532.587 102.5,540C 70.5017,540.5 38.5017,540.667 6.5,540.5C 4.6203,540.771 3.28696,540.104 2.5,538.5C 35.5,538.5 68.5,538.5 101.5,538.5C 101.5,531.833 101.5,525.167 101.5,518.5C 102.167,518.167 102.833,517.833 103.5,517.5 Z"/></g>
<g><path style="opacity:1" fill="#fab189" d="M 786.5,538.5 C 787.043,538.56 787.376,538.893 787.5,539.5C 782.818,541.839 777.818,543.173 772.5,543.5C 772.611,542.883 772.944,542.383 773.5,542C 745.169,541.5 716.835,541.333 688.5,541.5C 688.849,547.968 688.183,554.301 686.5,560.5C 686.167,560.5 685.833,560.5 685.5,560.5C 685.42,553.548 686.086,546.715 687.5,540C 720.529,539.812 753.529,539.312 786.5,538.5 Z"/></g>
<g><path style="opacity:1" fill="#fea272" d="M 636.5,541.5 C 636.666,551.524 636.332,561.524 635.5,571.5C 629.433,571.799 623.433,572.632 617.5,574C 616.584,574.278 615.918,574.778 615.5,575.5C 612.246,575.207 609.246,575.874 606.5,577.5C 594.341,579.951 582.341,582.284 570.5,584.5C 559.615,586.702 548.615,588.369 537.5,589.5C 531.691,591.952 525.691,593.786 519.5,595C 512.714,595.223 506.047,596.223 499.5,598C 497.748,600.52 495.582,601.353 493,600.5C 489.158,601.068 485.325,601.735 481.5,602.5C 481.291,603.086 480.957,603.586 480.5,604C 474.825,604.594 469.158,605.26 463.5,606C 463,606.5 462.5,607 462,607.5C 460.545,618.913 457.878,629.913 454,640.5C 452.246,650.222 450.412,659.889 448.5,669.5C 446.925,673.93 445.758,678.597 445,683.5C 444.333,684.167 443.667,684.833 443,685.5C 440.374,698.097 438.208,710.764 436.5,723.5C 430.673,742.442 426.34,761.775 423.5,781.5C 422.833,781.5 422.5,781.833 422.5,782.5C 419.5,782.5 416.5,782.5 413.5,782.5C 407.833,782.5 402.167,782.5 396.5,782.5C 396.5,702.167 396.5,621.833 396.5,541.5C 476.5,541.5 556.5,541.5 636.5,541.5 Z"/></g>
<g><path style="opacity:0.999" fill="#f69f71" d="M 772.5,543.5 C 768.243,543.599 764.91,545.266 762.5,548.5C 762.167,548.5 761.833,548.5 761.5,548.5C 760.551,547.848 759.385,547.514 758,547.5C 749.358,549.2 740.858,550.867 732.5,552.5C 732.5,553.167 732.167,553.5 731.5,553.5C 726.106,553.124 721.106,554.124 716.5,556.5C 715.609,557.11 714.609,557.443 713.5,557.5C 711.304,557.41 709.137,557.077 707,556.5C 702.495,557.541 698.328,558.874 694.5,560.5C 694.167,560.5 693.833,560.5 693.5,560.5C 691.167,560.5 688.833,560.5 686.5,560.5C 688.183,554.301 688.849,547.968 688.5,541.5C 716.835,541.333 745.169,541.5 773.5,542C 772.944,542.383 772.611,542.883 772.5,543.5 Z"/></g>
<g><path style="opacity:0.559" fill="#aeacae" d="M -0.5,538.5 C 0.5,538.5 1.5,538.5 2.5,538.5C 3.28696,540.104 4.6203,540.771 6.5,540.5C 16.3547,541.881 26.0213,544.381 35.5,548C 41.7785,548.57 47.7785,549.737 53.5,551.5C 48.113,551.595 42.7797,551.095 37.5,550C 24.5963,547.772 11.9297,544.938 -0.5,541.5C -0.5,540.5 -0.5,539.5 -0.5,538.5 Z"/></g>
<g><path style="opacity:1" fill="#ffb187" d="M 636.5,541.5 C 556.5,541.5 476.5,541.5 396.5,541.5C 396.5,621.833 396.5,702.167 396.5,782.5C 402.167,782.5 407.833,782.5 413.5,782.5C 407.69,783.49 401.69,783.823 395.5,783.5C 395.5,702.5 395.5,621.5 395.5,540.5C 476.002,540.167 556.335,540.501 636.5,541.5 Z"/></g>
<g><path style="opacity:0.075" fill="#634036" d="M 761.5,548.5 C 751.944,550.57 742.278,551.903 732.5,552.5C 740.858,550.867 749.358,549.2 758,547.5C 759.385,547.514 760.551,547.848 761.5,548.5 Z"/></g>
<g><path style="opacity:0.058" fill="#4f4f50" d="M 60.5,553.5 C 65.6401,552.91 70.3068,553.91 74.5,556.5C 69.7665,555.334 65.0998,554.334 60.5,553.5 Z"/></g>
<g><path style="opacity:0.043" fill="#362824" d="M 731.5,553.5 C 726.649,554.658 721.649,555.658 716.5,556.5C 721.106,554.124 726.106,553.124 731.5,553.5 Z"/></g>
<g><path style="opacity:0.165" fill="#614534" d="M 713.5,557.5 C 707.397,559.136 701.064,560.136 694.5,560.5C 698.328,558.874 702.495,557.541 707,556.5C 709.137,557.077 711.304,557.41 713.5,557.5 Z"/></g>
<g><path style="opacity:0.006" fill="#171717" d="M 87.5,558.5 C 90.3878,557.99 92.7211,558.656 94.5,560.5C 92.0479,559.935 89.7146,559.268 87.5,558.5 Z"/></g>
<g><path style="opacity:0.302" fill="#606066" d="M 96.5,560.5 C 98.1667,560.5 99.8333,560.5 101.5,560.5C 103.182,567.712 103.848,575.045 103.5,582.5C 102.674,578.018 102.174,573.351 102,568.5C 101.552,564.742 99.719,562.075 96.5,560.5 Z"/></g>
<g><path style="opacity:0.704" fill="#b2b1b5" d="M 101.5,560.5 C 102.15,560.804 102.817,561.137 103.5,561.5C 104.312,565.143 104.979,568.809 105.5,572.5C 104.415,581.426 105.082,590.26 107.5,599C 107.472,600.07 107.139,600.903 106.5,601.5C 105.301,595.222 104.301,588.889 103.5,582.5C 103.848,575.045 103.182,567.712 101.5,560.5 Z"/></g>
<g><path style="opacity:0.082" fill="#514744" d="M 686.5,560.5 C 688.833,560.5 691.167,560.5 693.5,560.5C 691.709,561.391 689.876,562.391 688,563.5C 686.362,568.871 685.195,574.204 684.5,579.5C 684.327,573.064 684.994,566.731 686.5,560.5 Z"/></g>
<g><path style="opacity:0.933" fill="#b47b5f" d="M 635.5,571.5 C 635.5,572.167 635.5,572.833 635.5,573.5C 635.167,573.5 634.833,573.5 634.5,573.5C 628.123,573.792 621.79,574.459 615.5,575.5C 615.918,574.778 616.584,574.278 617.5,574C 623.433,572.632 629.433,571.799 635.5,571.5 Z"/></g>
<g><path style="opacity:0.518" fill="#5c443c" d="M 634.5,573.5 C 633.502,580.154 632.502,586.821 631.5,593.5C 631.383,596.05 630.383,598.05 628.5,599.5C 630.475,591.691 631.808,583.691 632.5,575.5C 630.061,576.053 627.727,576.053 625.5,575.5C 624.281,576.263 623.281,577.263 622.5,578.5C 621.707,578.069 620.873,577.735 620,577.5C 609.695,580.204 599.195,582.204 588.5,583.5C 593.814,581.966 599.314,580.633 605,579.5C 606.03,579.164 606.53,578.497 606.5,577.5C 609.246,575.874 612.246,575.207 615.5,575.5C 621.79,574.459 628.123,573.792 634.5,573.5 Z"/></g>
<g><path style="opacity:0.992" fill="#b5b5b9" d="M 155.5,572.5 C 154.5,572.5 153.5,572.5 152.5,572.5C 154.057,580.723 155.057,589.056 155.5,597.5C 154.883,597.389 154.383,597.056 154,596.5C 151.963,588.282 150.797,579.948 150.5,571.5C 152.415,571.216 154.081,571.549 155.5,572.5 Z"/></g>
<g><path style="opacity:0.537" fill="#946755" d="M 606.5,577.5 C 606.53,578.497 606.03,579.164 605,579.5C 599.314,580.633 593.814,581.966 588.5,583.5C 582.491,583.701 576.491,584.034 570.5,584.5C 582.341,582.284 594.341,579.951 606.5,577.5 Z"/></g>
<g><path style="opacity:0.247" fill="#bbbabf" d="M 684.5,560.5 C 684.833,560.5 685.167,560.5 685.5,560.5C 685.833,560.5 686.167,560.5 686.5,560.5C 684.994,566.731 684.327,573.064 684.5,579.5C 683.508,586.064 682.675,592.73 682,599.5C 681.254,603.364 680.087,607.03 678.5,610.5C 677.833,610.5 677.167,610.5 676.5,610.5C 679.584,593.938 682.251,577.271 684.5,560.5 Z"/></g>
<g><path style="opacity:0.318" fill="#3b3a40" d="M 187.5,581.5 C 193.845,581.224 199.845,582.224 205.5,584.5C 204.178,584.33 203.011,584.663 202,585.5C 197.273,583.403 192.44,582.069 187.5,581.5 Z"/></g>
<g><path style="opacity:0.482" fill="#9e9ea1" d="M 161.5,573.5 C 164.518,573.335 167.518,573.502 170.5,574C 182.483,576.829 194.483,579.496 206.5,582C 218.887,582.577 230.887,584.91 242.5,589C 247.76,590.366 253.093,591.199 258.5,591.5C 258.433,592.959 258.766,594.292 259.5,595.5C 249.385,592.772 239.052,590.772 228.5,589.5C 228.611,588.883 228.944,588.383 229.5,588C 224.552,586.95 219.552,586.45 214.5,586.5C 211.727,585.343 208.727,584.676 205.5,584.5C 199.845,582.224 193.845,581.224 187.5,581.5C 187.389,580.883 187.056,580.383 186.5,580C 182.181,579.24 177.848,578.573 173.5,578C 169.743,575.572 165.743,574.072 161.5,573.5 Z"/></g>
<g><path style="opacity:0.006" fill="#030303" d="M 205.5,584.5 C 208.727,584.676 211.727,585.343 214.5,586.5C 211.171,586.785 208.171,586.118 205.5,584.5 Z"/></g>
<g><path style="opacity:0.986" fill="#dbdbdb" d="M 1221.5,585.5 C 1257.47,581.455 1290.47,589.288 1320.5,609C 1346.79,632.194 1357.96,661.36 1354,696.5C 1346.77,740.736 1321.27,767.903 1277.5,778C 1250.01,783.203 1222.68,782.536 1195.5,776C 1148.47,760.258 1125.63,727.425 1127,677.5C 1130.39,635.449 1151.89,607.283 1191.5,593C 1201.43,589.654 1211.43,587.154 1221.5,585.5 Z M 1234.5,632.5 C 1271.39,630.231 1291.39,647.397 1294.5,684C 1292.29,717.621 1274.29,734.788 1240.5,735.5C 1203.47,733.303 1185.97,713.636 1188,676.5C 1191.75,649.248 1207.25,634.582 1234.5,632.5 Z"/></g>
<g><path style="opacity:0.982" fill="#dbdbdb" d="M 1475.5,585.5 C 1502.91,583.948 1528.91,589.115 1553.5,601C 1576.12,614.09 1588.79,633.59 1591.5,659.5C 1571.5,659.5 1551.5,659.5 1531.5,659.5C 1528.61,650.776 1523.28,643.942 1515.5,639C 1498.26,631.544 1480.59,630.544 1462.5,636C 1442.17,645.282 1432.17,661.282 1432.5,684C 1432.41,710.526 1445.08,727.193 1470.5,734C 1491.7,738.889 1510.2,734.056 1526,719.5C 1528.56,715.538 1530.73,711.371 1532.5,707C 1552.5,706.5 1572.5,706.333 1592.5,706.5C 1590.32,726.369 1581.65,742.869 1566.5,756C 1541.63,773.683 1513.8,782.183 1483,781.5C 1450.48,782.774 1422.15,772.774 1398,751.5C 1380.35,732.247 1371.52,709.414 1371.5,683C 1373.76,635.745 1397.43,605.078 1442.5,591C 1453.53,588.422 1464.53,586.589 1475.5,585.5 Z"/></g>
<g><path style="opacity:0.984" fill="#dadada" d="M 1980.5,585.5 C 2005.47,583.763 2026.64,591.763 2044,609.5C 2048.49,614.806 2051.65,620.806 2053.5,627.5C 2054.82,627.67 2055.99,627.337 2057,626.5C 2072.82,598.498 2096.98,584.831 2129.5,585.5C 2172.38,585.554 2197.88,606.554 2206,648.5C 2207.46,691.803 2207.96,735.137 2207.5,778.5C 2187.83,778.5 2168.17,778.5 2148.5,778.5C 2148.67,746.165 2148.5,713.832 2148,681.5C 2148.39,668.799 2145.73,656.799 2140,645.5C 2136.21,639.852 2131.05,636.018 2124.5,634C 2108.36,629.557 2093.36,631.89 2079.5,641C 2069.3,650.574 2063.8,662.407 2063,676.5C 2062.5,710.498 2062.33,744.498 2062.5,778.5C 2042.5,778.5 2022.5,778.5 2002.5,778.5C 2002.67,742.498 2002.5,706.498 2002,670.5C 1997.87,637.831 1979.71,625.664 1947.5,634C 1928.72,641.807 1918.88,655.974 1918,676.5C 1917.5,710.498 1917.33,744.498 1917.5,778.5C 1897.5,778.5 1877.5,778.5 1857.5,778.5C 1857.5,715.5 1857.5,652.5 1857.5,589.5C 1876.83,589.5 1896.17,589.5 1915.5,589.5C 1916.22,600.163 1916.88,610.83 1917.5,621.5C 1920.89,619.488 1923.39,616.488 1925,612.5C 1939.61,595.361 1958.11,586.361 1980.5,585.5 Z"/></g>
<g><path style="opacity:0.983" fill="#dbdbdb" d="M 2334.5,585.5 C 2360.06,584.564 2384.39,589.397 2407.5,600C 2436.27,616.35 2451.77,641.184 2454,674.5C 2454.9,682.246 2454.56,689.913 2453,697.5C 2399.9,698.497 2346.74,698.831 2293.5,698.5C 2294.73,717.911 2304.73,730.411 2323.5,736C 2338.17,739.333 2352.84,739.333 2367.5,736C 2378.69,733.257 2387.03,726.923 2392.5,717C 2411.83,716.333 2431.17,716.333 2450.5,717C 2451.06,717.725 2451.39,718.558 2451.5,719.5C 2445.21,741.92 2431.54,758.086 2410.5,768C 2395.57,774.982 2379.91,779.315 2363.5,781C 2340.08,783.176 2317.08,781.176 2294.5,775C 2247.28,756.769 2225.78,722.269 2230,671.5C 2236.01,630.493 2258.84,603.993 2298.5,592C 2310.51,589.172 2322.51,587.006 2334.5,585.5 Z M 2341.5,626.5 C 2355.19,626.534 2367.86,630.034 2379.5,637C 2387.44,644.046 2391.77,652.88 2392.5,663.5C 2359.17,663.5 2325.83,663.5 2292.5,663.5C 2295.5,646.661 2305.17,635.494 2321.5,630C 2328.31,628.864 2334.98,627.698 2341.5,626.5 Z"/></g>
<g><path style="opacity:0.982" fill="#dadada" d="M 2601.5,585.5 C 2624.33,583.629 2645.33,588.796 2664.5,601C 2680.64,615.124 2689.48,632.957 2691,654.5C 2691.5,695.832 2691.67,737.165 2691.5,778.5C 2671.59,778.826 2651.76,778.493 2632,777.5C 2631.67,746.833 2631.33,716.167 2631,685.5C 2633.09,644.247 2613.92,627.08 2573.5,634C 2551.52,641.656 2539.69,657.156 2538,680.5C 2537.5,713.165 2537.33,745.832 2537.5,778.5C 2517.5,778.5 2497.5,778.5 2477.5,778.5C 2477.5,715.5 2477.5,652.5 2477.5,589.5C 2496.84,589.167 2516.18,589.5 2535.5,590.5C 2536.7,600.774 2537.37,611.107 2537.5,621.5C 2538.68,621.719 2539.68,621.386 2540.5,620.5C 2551.59,603.271 2567.25,592.437 2587.5,588C 2592.29,587.098 2596.96,586.265 2601.5,585.5 Z"/></g>
<g><path style="opacity:0.98" fill="#dbdbdb" d="M 2947.5,585.5 C 2970.8,583.985 2992.13,589.485 3011.5,602C 3016.82,607.49 3022.15,612.656 3027.5,617.5C 3027.34,608.085 3028,598.752 3029.5,589.5C 3048.4,588.175 3067.23,588.175 3086,589.5C 3086.67,652.167 3086.67,714.833 3086,777.5C 3066.24,778.659 3046.41,778.826 3026.5,778C 3025.68,768.244 3025.18,758.41 3025,748.5C 3011.48,766.349 2993.64,777.182 2971.5,781C 2935.12,786.548 2904.96,775.715 2881,748.5C 2867.98,728.94 2861.48,707.274 2861.5,683.5C 2861.12,656.948 2869.29,633.615 2886,613.5C 2903.19,596.988 2923.69,587.655 2947.5,585.5 Z M 2961.5,632.5 C 3013.83,631.347 3034,656.347 3022,707.5C 3007.73,731.204 2986.9,740.037 2959.5,734C 2943.09,730.58 2931.92,721.08 2926,705.5C 2921.37,690.838 2921.37,676.171 2926,661.5C 2932.91,645.751 2944.74,636.085 2961.5,632.5 Z"/></g>
<g><path style="opacity:0.984" fill="#dbdbdb" d="M 3445.5,585.5 C 3481.54,581.382 3514.54,589.216 3544.5,609C 3568.1,628.314 3579.43,653.314 3578.5,684C 3577.21,730.958 3554.21,761.624 3509.5,776C 3479.48,783.332 3449.48,783.332 3419.5,776C 3375.62,761.106 3352.62,730.439 3350.5,684C 3352.54,637.864 3375.21,607.197 3418.5,592C 3427.5,589.239 3436.5,587.073 3445.5,585.5 Z M 3459.5,632.5 C 3480.15,630.176 3496.99,636.843 3510,652.5C 3521.28,673.176 3521.28,693.843 3510,714.5C 3498.46,728.656 3483.46,735.656 3465,735.5C 3425.15,732.679 3407.82,711.679 3413,672.5C 3418.44,647.561 3433.94,634.228 3459.5,632.5 Z"/></g>
<g><path style="opacity:0.986" fill="#dbdbdb" d="M 3725.5,585.5 C 3746.16,583.864 3765.49,588.03 3783.5,598C 3799.82,609.682 3809.65,625.515 3813,645.5C 3813.85,651.814 3814.51,658.147 3815,664.5C 3815.67,702.167 3815.67,739.833 3815,777.5C 3795.24,778.493 3775.41,778.826 3755.5,778.5C 3755.67,747.832 3755.5,717.165 3755,686.5C 3756.23,643.051 3735.73,625.885 3693.5,635C 3686.58,637.706 3680.41,641.54 3675,646.5C 3666.51,655.82 3662.18,666.82 3662,679.5C 3661.67,712.167 3661.33,744.833 3661,777.5C 3641,778.833 3621,778.833 3601,777.5C 3600.33,715.167 3600.33,652.833 3601,590.5C 3620.42,589.507 3639.92,589.174 3659.5,589.5C 3659.75,599.509 3660.25,609.509 3661,619.5C 3661.31,620.308 3661.81,620.975 3662.5,621.5C 3677.68,599.408 3698.68,587.408 3725.5,585.5 Z"/></g>
<g><path style="opacity:0.282" fill="#3f3f42" d="M 214.5,586.5 C 219.552,586.45 224.552,586.95 229.5,588C 228.944,588.383 228.611,588.883 228.5,589.5C 223.596,589.046 218.93,588.046 214.5,586.5 Z"/></g>
<g><path style="opacity:0.976" fill="#dbdbdb" d="M 1611.5,588.5 C 1630.74,588.174 1649.91,588.507 1669,589.5C 1670.32,623.415 1670.99,657.415 1671,691.5C 1672.24,724.732 1689.4,739.232 1722.5,735C 1746.92,729.578 1760.42,714.412 1763,689.5C 1763.17,656.162 1763.67,622.828 1764.5,589.5C 1784.17,588.167 1803.83,588.167 1823.5,589.5C 1824.67,652.164 1824.83,714.831 1824,777.5C 1804.91,778.659 1785.74,778.826 1766.5,778C 1765.18,767.2 1763.85,756.366 1762.5,745.5C 1748.85,765.603 1729.85,777.437 1705.5,781C 1683.36,783.477 1662.36,779.81 1642.5,770C 1631.36,763.507 1623.19,754.34 1618,742.5C 1614.73,734.771 1612.4,726.771 1611,718.5C 1609.9,695.188 1609.4,671.855 1609.5,648.5C 1609.51,628.283 1610.18,608.283 1611.5,588.5 Z"/></g>
<g><path style="opacity:0.839" fill="#7b584a" d="M 588.5,583.5 C 587.134,585.351 585.467,585.684 583.5,584.5C 559.889,589.153 536.389,594.153 513,599.5C 512.127,599.265 511.293,598.931 510.5,598.5C 508.231,599.815 505.898,600.982 503.5,602C 494.883,603.547 486.216,604.88 477.5,606C 476.354,606.645 475.354,607.478 474.5,608.5C 472.5,608.167 470.5,607.833 468.5,607.5C 467.522,607.977 466.689,608.643 466,609.5C 463.544,615.948 462.044,622.615 461.5,629.5C 460.535,635.112 458.868,640.612 456.5,646C 456.957,646.414 457.291,646.914 457.5,647.5C 453.666,653.679 452.332,660.346 453.5,667.5C 452.585,668.328 451.919,669.328 451.5,670.5C 450.713,675.173 449.88,679.84 449,684.5C 447.289,688.87 445.789,693.203 444.5,697.5C 443.241,702.678 442.075,708.011 441,713.5C 440.617,714.056 440.117,714.389 439.5,714.5C 441.653,699.244 444.653,684.244 448.5,669.5C 450.412,659.889 452.246,650.222 454,640.5C 457.878,629.913 460.545,618.913 462,607.5C 462.5,607 463,606.5 463.5,606C 469.158,605.26 474.825,604.594 480.5,604C 480.957,603.586 481.291,603.086 481.5,602.5C 485.325,601.735 489.158,601.068 493,600.5C 495.582,601.353 497.748,600.52 499.5,598C 506.047,596.223 512.714,595.223 519.5,595C 525.691,593.786 531.691,591.952 537.5,589.5C 548.615,588.369 559.615,586.702 570.5,584.5C 576.491,584.034 582.491,583.701 588.5,583.5 Z"/></g>
<g><path style="opacity:0.11" fill="#898889" d="M 106.5,603.5 C 107.496,603.414 108.329,603.748 109,604.5C 110.275,609.822 111.442,615.155 112.5,620.5C 109.519,615.435 107.519,609.768 106.5,603.5 Z"/></g>
<g><path style="opacity:0.18" fill="#6f6f76" d="M 634.5,573.5 C 634.833,573.5 635.167,573.5 635.5,573.5C 634.43,584.421 632.763,595.255 630.5,606C 628.693,610.768 626.526,615.268 624,619.5C 619.788,631.604 615.454,643.604 611,655.5C 608.969,658.355 606.803,661.022 604.5,663.5C 603.624,663.369 602.957,663.702 602.5,664.5C 600.459,667.919 598.959,671.586 598,675.5C 596.405,678.15 594.238,680.15 591.5,681.5C 591.586,680.504 591.252,679.671 590.5,679C 593.529,676.944 595.862,674.277 597.5,671C 602.883,661.303 608.216,651.637 613.5,642C 613.167,641.667 612.833,641.333 612.5,641C 615.072,636.594 617.572,632.094 620,627.5C 623.152,618.214 625.986,608.881 628.5,599.5C 630.383,598.05 631.383,596.05 631.5,593.5C 632.502,586.821 633.502,580.154 634.5,573.5 Z"/></g>
<g><path style="opacity:0.553" fill="#77777d" d="M 676.5,610.5 C 677.167,610.5 677.833,610.5 678.5,610.5C 676.683,621.808 673.349,632.474 668.5,642.5C 671.079,631.876 673.745,621.209 676.5,610.5 Z"/></g>
<g><path style="opacity:1" fill="#ffeada" d="M 150.5,506.5 C 150.5,510.167 150.5,513.833 150.5,517.5C 149.508,524.648 149.175,531.981 149.5,539.5C 231.167,539.5 312.833,539.5 394.5,539.5C 394.5,620.833 394.5,702.167 394.5,783.5C 393.501,702.668 393.167,621.668 393.5,540.5C 311.833,540.5 230.167,540.5 148.5,540.5C 148.334,531.161 148.5,521.827 149,512.5C 149.191,510.292 149.691,508.292 150.5,506.5 Z"/></g>
<g><path style="opacity:0.082" fill="#2f2f31" d="M 119.5,643.5 C 122.12,647.343 123.787,651.676 124.5,656.5C 122.036,652.556 120.37,648.223 119.5,643.5 Z"/></g>
<g><path style="opacity:0.09" fill="#5f5e63" d="M 668.5,642.5 C 668.333,646.673 667,650.34 664.5,653.5C 664.484,649.238 665.817,645.571 668.5,642.5 Z"/></g>
<g><path style="opacity:0.859" fill="#c7c7ca" d="M 112.5,620.5 C 115.775,630.129 119.941,639.462 125,648.5C 125.567,651.168 126.067,653.834 126.5,656.5C 125.833,656.5 125.167,656.5 124.5,656.5C 123.787,651.676 122.12,647.343 119.5,643.5C 115.792,636.355 113.459,628.688 112.5,620.5 Z"/></g>
<g><path style="opacity:0.749" fill="#717175" d="M 155.5,572.5 C 157.735,572.205 159.735,572.539 161.5,573.5C 165.743,574.072 169.743,575.572 173.5,578C 177.848,578.573 182.181,579.24 186.5,580C 187.056,580.383 187.389,580.883 187.5,581.5C 176.095,579.7 165.095,577.534 154.5,575C 156.059,584.181 157.893,593.347 160,602.5C 163.398,611.656 166.065,620.656 168,629.5C 177.094,648.063 187.261,666.063 198.5,683.5C 195.805,683.067 193.638,681.734 192,679.5C 190.737,675.766 188.904,672.433 186.5,669.5C 185.504,669.586 184.671,669.252 184,668.5C 182.085,663.439 179.418,658.773 176,654.5C 174.013,646.85 170.679,639.85 166,633.5C 162.305,621.504 158.805,609.504 155.5,597.5C 155.057,589.056 154.057,580.723 152.5,572.5C 153.5,572.5 154.5,572.5 155.5,572.5 Z"/></g>
<g><path style="opacity:0.247" fill="#808084" d="M 355.5,738.5 C 354.044,736.63 352.711,734.63 351.5,732.5C 352.255,725.903 350.922,719.903 347.5,714.5C 346.404,710.545 345.071,706.545 343.5,702.5C 343.608,701.558 343.941,700.725 344.5,700C 344.091,697.053 343.091,694.386 341.5,692C 341.957,691.586 342.291,691.086 342.5,690.5C 339.488,678.119 336.155,665.786 332.5,653.5C 333.855,652.325 333.688,651.325 332,650.5C 329.831,636.439 326.498,622.772 322,609.5C 320.477,607.38 318.644,607.047 316.5,608.5C 314.78,607.066 312.78,606.233 310.5,606C 298.889,604.278 287.556,601.778 276.5,598.5C 275.833,598.833 275.167,599.167 274.5,599.5C 270.169,597.929 265.836,596.595 261.5,595.5C 262.742,594.957 264.075,594.623 265.5,594.5C 273.101,595.995 280.768,597.162 288.5,598C 300.915,600.899 313.248,603.732 325.5,606.5C 326.797,612.796 327.964,619.129 329,625.5C 330.397,626.226 331.231,627.393 331.5,629C 334.416,640.766 336.583,652.6 338,664.5C 338.727,666.953 339.727,669.286 341,671.5C 345.4,693.885 350.233,716.218 355.5,738.5 Z"/></g>
<g><path style="opacity:0.102" fill="#63616c" d="M 124.5,656.5 C 125.167,656.5 125.833,656.5 126.5,656.5C 128.132,660.758 129.465,665.091 130.5,669.5C 127.733,665.626 125.733,661.293 124.5,656.5 Z"/></g>
<g><path style="opacity:1" fill="#ffc9a8" d="M 394.5,539.5 C 475.5,539.5 556.5,539.5 637.5,539.5C 638.655,546.655 638.822,553.988 638,561.5C 638.083,565.311 637.25,568.645 635.5,571.5C 636.332,561.524 636.666,551.524 636.5,541.5C 556.335,540.501 476.002,540.167 395.5,540.5C 395.5,621.5 395.5,702.5 395.5,783.5C 395.167,783.5 394.833,783.5 394.5,783.5C 394.5,702.167 394.5,620.833 394.5,539.5 Z"/></g>
<g><path style="opacity:0.847" fill="#bbbbbf" d="M 604.5,663.5 C 601.832,668.18 599.666,673.18 598,678.5C 594,683.833 590,689.167 586,694.5C 581.305,698.03 577.138,702.03 573.5,706.5C 576.044,701.117 579.878,696.783 585,693.5C 586.513,690.476 588.513,687.809 591,685.5C 591.49,684.207 591.657,682.873 591.5,681.5C 594.238,680.15 596.405,678.15 598,675.5C 598.959,671.586 600.459,667.919 602.5,664.5C 602.957,663.702 603.624,663.369 604.5,663.5 Z"/></g>
<g><path style="opacity:0.667" fill="#a5a5a8" d="M 130.5,670.5 C 131.822,670.33 132.989,670.663 134,671.5C 135.185,675.023 137.185,678.023 140,680.5C 142.07,685.071 143.903,689.738 145.5,694.5C 143.926,694.063 142.759,693.063 142,691.5C 138.154,684.473 134.321,677.473 130.5,670.5 Z"/></g>
<g><path style="opacity:1" fill="#c6c6c9" d="M 186.5,669.5 C 188.904,672.433 190.737,675.766 192,679.5C 193.638,681.734 195.805,683.067 198.5,683.5C 198.5,683.833 198.5,684.167 198.5,684.5C 200.687,692.02 205.354,697.353 212.5,700.5C 212.34,702.199 212.506,703.866 213,705.5C 215.934,709.623 219.768,712.29 224.5,713.5C 225.167,715.5 225.833,717.5 226.5,719.5C 219.143,714.476 213.143,708.142 208.5,700.5C 201.051,693.58 194.551,685.913 189,677.5C 187.293,675.091 186.46,672.425 186.5,669.5 Z"/></g>
<g><path style="opacity:0.514" fill="#67676b" d="M 198.5,684.5 C 207.219,694.176 215.885,703.842 224.5,713.5C 219.768,712.29 215.934,709.623 213,705.5C 212.506,703.866 212.34,702.199 212.5,700.5C 205.354,697.353 200.687,692.02 198.5,684.5 Z"/></g>
<g><path style="opacity:0.478" fill="#7d7d83" d="M 145.5,694.5 C 148.42,696.662 150.087,699.662 150.5,703.5C 147.595,701.244 145.928,698.244 145.5,694.5 Z"/></g>
<g><path style="opacity:0.396" fill="#616167" d="M 591.5,681.5 C 591.657,682.873 591.49,684.207 591,685.5C 588.513,687.809 586.513,690.476 585,693.5C 579.878,696.783 576.044,701.117 573.5,706.5C 570.816,708.193 568.149,709.86 565.5,711.5C 571.444,703.387 577.944,695.721 585,688.5C 586.879,686.473 588.046,684.14 588.5,681.5C 589.5,681.5 590.5,681.5 591.5,681.5 Z"/></g>
<g><path style="opacity:0.827" fill="#b1775d" d="M 448.5,669.5 C 444.653,684.244 441.653,699.244 439.5,714.5C 439.296,717.518 438.963,720.518 438.5,723.5C 437.833,723.5 437.167,723.5 436.5,723.5C 438.208,710.764 440.374,698.097 443,685.5C 443.667,684.833 444.333,684.167 445,683.5C 445.758,678.597 446.925,673.93 448.5,669.5 Z"/></g>
<g><path style="opacity:0.325" fill="#9a999b" d="M 151.5,703.5 C 154.649,707.095 157.816,710.762 161,714.5C 162.128,716.345 162.628,718.345 162.5,720.5C 159.112,716.751 155.945,712.751 153,708.5C 151.991,706.975 151.491,705.308 151.5,703.5 Z"/></g>
<g><path style="opacity:0.208" fill="#67666d" d="M 565.5,711.5 C 564.523,714.989 562.523,717.823 559.5,720C 557.208,721.29 555.208,722.957 553.5,725C 552.207,725.49 550.873,725.657 549.5,725.5C 551.914,722.807 554.414,720.141 557,717.5C 557.333,717.833 557.667,718.167 558,718.5C 559.715,715.283 562.215,712.95 565.5,711.5 Z"/></g>
<g><path style="opacity:0.545" fill="#414145" d="M 347.5,714.5 C 350.922,719.903 352.255,725.903 351.5,732.5C 348.951,726.952 347.617,720.952 347.5,714.5 Z"/></g>
<g><path style="opacity:0.071" fill="#241d19" d="M 444.5,697.5 C 444.423,701.877 443.923,706.21 443,710.5C 441.056,717.204 439.223,723.871 437.5,730.5C 437.674,728.139 438.007,725.806 438.5,723.5C 438.963,720.518 439.296,717.518 439.5,714.5C 440.117,714.389 440.617,714.056 441,713.5C 442.075,708.011 443.241,702.678 444.5,697.5 Z"/></g>
<g><path style="opacity:0.435" fill="#929296" d="M 162.5,720.5 C 163.583,720.539 164.583,720.873 165.5,721.5C 166.809,723.976 168.642,725.976 171,727.5C 171.49,728.793 171.657,730.127 171.5,731.5C 168.152,728.149 165.152,724.482 162.5,720.5 Z"/></g>
<g><path style="opacity:0.788" fill="#96959a" d="M 171.5,731.5 C 173.583,732.588 175.749,733.588 178,734.5C 182.045,739.707 185.878,745.04 189.5,750.5C 182.797,744.798 176.797,738.464 171.5,731.5 Z"/></g>
<g><path style="opacity:0.376" fill="#7d7c81" d="M 224.5,713.5 C 232.63,720.082 240.63,726.916 248.5,734C 250.078,735.094 251.745,735.928 253.5,736.5C 254.306,737.728 255.306,738.728 256.5,739.5C 256.703,741.044 257.37,742.378 258.5,743.5C 260.184,744.15 261.517,745.15 262.5,746.5C 259.533,746.011 256.867,744.845 254.5,743C 250.452,739.284 246.118,735.95 241.5,733C 238.687,729.353 235.687,725.853 232.5,722.5C 230.68,721.117 228.68,720.117 226.5,719.5C 225.833,717.5 225.167,715.5 224.5,713.5 Z"/></g>
<g><path style="opacity:0.612" fill="#80594d" d="M 436.5,723.5 C 437.167,723.5 437.833,723.5 438.5,723.5C 438.007,725.806 437.674,728.139 437.5,730.5C 434.36,746.575 431.027,762.575 427.5,778.5C 429.833,778.5 432.167,778.5 434.5,778.5C 433.653,779.966 432.32,780.8 430.5,781C 428.19,781.497 425.857,781.663 423.5,781.5C 426.34,761.775 430.673,742.442 436.5,723.5 Z"/></g>
<g><path style="opacity:0.169" fill="#55565a" d="M 351.5,732.5 C 352.711,734.63 354.044,736.63 355.5,738.5C 356.234,739.708 356.567,741.041 356.5,742.5C 356.81,745.713 356.477,748.713 355.5,751.5C 353.995,747.158 352.995,742.658 352.5,738C 352.245,736.674 351.578,735.674 350.5,735C 351.252,734.329 351.586,733.496 351.5,732.5 Z"/></g>
<g><path style="opacity:0.392" fill="#a1a1a5" d="M 262.5,746.5 C 263.873,746.343 265.207,746.51 266.5,747C 272.628,751.236 278.962,755.236 285.5,759C 289.215,760.295 292.882,761.462 296.5,762.5C 296.833,762.5 297.167,762.5 297.5,762.5C 297.414,763.496 297.748,764.329 298.5,765C 302.366,765.612 305.699,767.112 308.5,769.5C 305.478,769.196 302.478,768.696 299.5,768C 291.352,762.722 282.685,758.389 273.5,755C 269.765,752.147 266.098,749.313 262.5,746.5 Z"/></g>
<g><path style="opacity:0.102" fill="#515057" d="M 256.5,739.5 C 263.656,742.91 270.322,747.076 276.5,752C 282.585,754.504 288.585,757.17 294.5,760C 295.381,760.708 296.047,761.542 296.5,762.5C 292.882,761.462 289.215,760.295 285.5,759C 278.962,755.236 272.628,751.236 266.5,747C 265.207,746.51 263.873,746.343 262.5,746.5C 261.517,745.15 260.184,744.15 258.5,743.5C 257.37,742.378 256.703,741.044 256.5,739.5 Z"/></g>
<g><path style="opacity:0.537" fill="#848488" d="M 189.5,750.5 C 195.396,752.061 199.396,755.728 201.5,761.5C 196.874,758.542 192.874,754.876 189.5,750.5 Z"/></g>
<g><path style="opacity:0.494" fill="#89898d" d="M 664.5,653.5 C 643.347,704.928 609.68,746.928 563.5,779.5C 564.001,776.845 565.334,774.678 567.5,773C 572.537,770.487 577.204,767.487 581.5,764C 581.167,763.667 580.833,763.333 580.5,763C 583.525,762.846 585.191,761.346 585.5,758.5C 586.552,758.649 587.552,758.483 588.5,758C 588.167,757.667 587.833,757.333 587.5,757C 590.577,755.256 593.91,752.923 597.5,750C 597.167,749.667 596.833,749.333 596.5,749C 597.653,747.117 599.319,746.284 601.5,746.5C 601.351,745.448 601.517,744.448 602,743.5C 604.759,740.232 607.926,737.565 611.5,735.5C 612.429,734.311 612.762,732.978 612.5,731.5C 613.5,731.5 614.5,731.5 615.5,731.5C 615.362,727.307 617.362,724.973 621.5,724.5C 621.5,723.167 621.5,721.833 621.5,720.5C 622.675,720.719 623.675,720.386 624.5,719.5C 628.2,713.63 631.7,707.63 635,701.5C 641.008,696.122 645.008,689.455 647,681.5C 651.21,674.916 655.044,668.083 658.5,661C 660.1,658.089 662.1,655.589 664.5,653.5 Z"/></g>
<g><path style="opacity:0.278" fill="#6b6b71" d="M 548.5,726.5 C 548.617,728.484 547.95,730.15 546.5,731.5C 539.414,738.087 531.414,743.253 522.5,747C 518.5,750 514.5,753 510.5,756C 501.843,759.332 493.509,763.165 485.5,767.5C 481.138,768.285 476.804,769.285 472.5,770.5C 461.529,776.057 449.862,779.391 437.5,780.5C 436.287,780.253 435.62,779.586 435.5,778.5C 477.341,770.433 515.008,753.099 548.5,726.5 Z"/></g>
<g><path style="opacity:0.18" fill="#89898d" d="M 201.5,761.5 C 206.202,762.223 209.202,764.89 210.5,769.5C 207.474,766.805 204.474,764.138 201.5,761.5 Z"/></g>
<g><path style="opacity:0.388" fill="#58585d" d="M 297.5,762.5 C 312.093,767.687 326.426,772.354 340.5,776.5C 331.229,776.233 322.229,774.566 313.5,771.5C 311.989,770.498 310.322,769.831 308.5,769.5C 305.699,767.112 302.366,765.612 298.5,765C 297.748,764.329 297.414,763.496 297.5,762.5 Z"/></g>
<g><path style="opacity:0.531" fill="#959599" d="M 356.5,742.5 C 357.41,744.019 358.243,745.685 359,747.5C 361.491,759.411 363.657,771.411 365.5,783.5C 355.992,781.937 346.325,780.77 336.5,780C 328.415,778.03 320.748,775.197 313.5,771.5C 322.229,774.566 331.229,776.233 340.5,776.5C 347.579,777.226 354.579,778.226 361.5,779.5C 359.95,769.992 357.95,760.659 355.5,751.5C 356.477,748.713 356.81,745.713 356.5,742.5 Z"/></g>
<g><path style="opacity:0.994" fill="#c9c9cb" d="M 485.5,767.5 C 465.81,778.247 444.81,783.247 422.5,782.5C 422.5,781.833 422.833,781.5 423.5,781.5C 425.857,781.663 428.19,781.497 430.5,781C 432.32,780.8 433.653,779.966 434.5,778.5C 434.833,778.5 435.167,778.5 435.5,778.5C 435.62,779.586 436.287,780.253 437.5,780.5C 449.862,779.391 461.529,776.057 472.5,770.5C 476.804,769.285 481.138,768.285 485.5,767.5 Z"/></g>
<g><path style="opacity:0.035" fill="#2b2b26" d="M 224.5,779.5 C 226.5,780.167 228.5,780.833 230.5,781.5C 230.5,781.833 230.5,782.167 230.5,782.5C 227.911,782.539 225.911,781.539 224.5,779.5 Z"/></g>
<g><path style="opacity:0.694" fill="#a0a0a5" d="M 230.5,781.5 C 235.021,784.51 239.687,787.343 244.5,790C 245.305,791.113 245.972,792.279 246.5,793.5C 241.829,790.209 236.829,787.375 231.5,785C 230.748,784.329 230.414,783.496 230.5,782.5C 230.5,782.167 230.5,781.833 230.5,781.5 Z"/></g>
<g><path style="opacity:0.667" fill="#a2a2a6" d="M 563.5,779.5 C 552.84,787.501 541.507,794.501 529.5,800.5C 525.51,801.826 521.51,803.16 517.5,804.5C 522.997,801.067 528.663,797.567 534.5,794C 536.878,793.489 539.212,792.822 541.5,792C 547.493,785.515 554.826,781.348 563.5,779.5 Z"/></g>
<g><path style="opacity:0.173" fill="#88888c" d="M 246.5,793.5 C 250.046,794.959 253.712,796.126 257.5,797C 259.373,798.704 261.04,800.537 262.5,802.5C 256.692,800.241 251.358,797.241 246.5,793.5 Z"/></g>
<g><path style="opacity:0.404" fill="#86868a" d="M 262.5,802.5 C 267.126,803.763 271.792,804.929 276.5,806C 278.117,807.092 279.117,808.592 279.5,810.5C 273.369,808.672 267.702,806.005 262.5,802.5 Z"/></g>
<g><path style="opacity:0.537" fill="#68686a" d="M 529.5,800.5 C 519.614,806.908 508.948,811.575 497.5,814.5C 498.9,813.9 499.9,812.9 500.5,811.5C 506.274,809.447 511.941,807.114 517.5,804.5C 521.51,803.16 525.51,801.826 529.5,800.5 Z"/></g>
<g><path style="opacity:0.01" fill="#181818" d="M 279.5,810.5 C 281.786,810.595 283.786,811.262 285.5,812.5C 283.102,812.741 281.102,812.074 279.5,810.5 Z"/></g>
<g><path style="opacity:0.69" fill="#9d9ca2" d="M 500.5,811.5 C 499.9,812.9 498.9,813.9 497.5,814.5C 493.534,816.995 489.2,818.829 484.5,820C 476.063,823.05 467.396,825.217 458.5,826.5C 455.14,826.616 451.807,826.949 448.5,827.5C 454.638,825.777 460.971,824.277 467.5,823C 475.586,818.637 484.253,815.637 493.5,814C 495.321,811.863 497.654,811.03 500.5,811.5 Z"/></g>
<g><path style="opacity:0.337" fill="#c8c8cb" d="M 315.5,820.5 C 322.677,821.84 329.677,823.673 336.5,826C 347.599,827.896 358.599,829.396 369.5,830.5C 363.491,830.666 357.491,830.499 351.5,830C 348.024,828.746 344.358,828.079 340.5,828C 333.469,825.323 326.136,823.656 318.5,823C 317.058,822.623 316.058,821.79 315.5,820.5 Z"/></g>
<g><path style="opacity:0.067" fill="#65656a" d="M 458.5,826.5 C 458.389,827.117 458.056,827.617 457.5,828C 443.923,830.349 430.256,831.849 416.5,832.5C 416.611,831.883 416.944,831.383 417.5,831C 427.895,830.267 438.228,829.1 448.5,827.5C 451.807,826.949 455.14,826.616 458.5,826.5 Z"/></g>
<g><path style="opacity:0.997" fill="#fba272" d="M 410.5,833.5 C 407.761,847.934 404.595,862.267 401,876.5C 399.193,880.144 397.693,883.811 396.5,887.5C 396.5,869.5 396.5,851.5 396.5,833.5C 401.167,833.5 405.833,833.5 410.5,833.5 Z"/></g>
<g><path style="opacity:0.314" fill="#848488" d="M 285.5,812.5 C 295.839,814.25 305.839,816.917 315.5,820.5C 316.058,821.79 317.058,822.623 318.5,823C 326.136,823.656 333.469,825.323 340.5,828C 344.358,828.079 348.024,828.746 351.5,830C 357.491,830.499 363.491,830.666 369.5,830.5C 372.685,830.02 375.519,830.686 378,832.5C 379.646,841.31 381.146,850.144 382.5,859C 382.789,861.105 383.622,862.938 385,864.5C 386.264,875.938 388.764,886.938 392.5,897.5C 392.5,898.833 392.5,900.167 392.5,901.5C 391.685,900.571 390.852,899.571 390,898.5C 386.087,880.817 382.42,863.151 379,845.5C 378.181,841.38 376.681,837.546 374.5,834C 359.786,832.395 345.119,830.395 330.5,828C 318.741,823.801 306.741,820.134 294.5,817C 291.276,815.641 288.276,814.141 285.5,812.5 Z"/></g>
<g><path style="opacity:1" fill="#fbbc97" d="M 410.5,832.5 C 410.5,832.833 410.5,833.167 410.5,833.5C 405.833,833.5 401.167,833.5 396.5,833.5C 396.5,851.5 396.5,869.5 396.5,887.5C 396.5,891.5 396.5,895.5 396.5,899.5C 395.817,901.176 394.483,901.843 392.5,901.5C 392.5,900.167 392.5,898.833 392.5,897.5C 394.325,876.524 395.158,855.19 395,833.5C 400.072,832.529 405.238,832.195 410.5,832.5 Z"/></g>
<g><path style="opacity:0.075" fill="#98654f" d="M 410.5,832.5 C 411.609,832.557 412.609,832.89 413.5,833.5C 411.229,839.342 409.396,845.342 408,851.5C 406.113,868.131 402.28,884.131 396.5,899.5C 396.5,895.5 396.5,891.5 396.5,887.5C 397.693,883.811 399.193,880.144 401,876.5C 404.595,862.267 407.761,847.934 410.5,833.5C 410.5,833.167 410.5,832.833 410.5,832.5 Z"/></g>
</svg>
