<?xml version="1.0" encoding="UTF-8"?>
<!DOCTYPE svg PUBLIC "-//W3C//DTD SVG 1.1//EN" "http://www.w3.org/Graphics/SVG/1.1/DTD/svg11.dtd">
<svg xmlns="http://www.w3.org/2000/svg" version="1.1" width="3840px" height="1080px" style="shape-rendering:geometricPrecision; text-rendering:geometricPrecision; image-rendering:optimizeQuality; fill-rule:evenodd; clip-rule:evenodd" xmlns:xlink="http://www.w3.org/1999/xlink">
<g><path style="opacity:1" fill="#2d2d37" d="M 528.5,117.5 C 663.848,112.757 777.682,159.423 870,257.5C 964.621,368.649 996.621,495.983 966,639.5C 931.765,769.18 854.598,863.68 734.5,923C 631.066,969.431 525.4,975.098 417.5,940C 305.722,899.891 223.889,826.391 172,719.5C 125.569,616.066 119.902,510.4 155,402.5C 195.109,290.722 268.609,208.889 375.5,157C 424.214,134.572 475.214,121.406 528.5,117.5 Z"/></g>
<g><path style="opacity:1" fill="#f9e2d0" d="M 556.5,236.5 C 557.933,238.558 558.6,240.892 558.5,243.5C 557.732,242.737 557.232,241.737 557,240.5C 556.832,258.338 556.332,276.005 555.5,293.5C 555.17,274.326 555.503,255.326 556.5,236.5 Z"/></g>
<g><path style="opacity:1" fill="#fdfdfd" d="M 558.5,243.5 C 562.278,260.229 566.111,276.896 570,293.5C 580.633,294.835 591.133,296.502 601.5,298.5C 606.05,299.491 610.717,300.491 615.5,301.5C 619.404,302.492 623.404,303.492 627.5,304.5C 631.817,306.94 636.483,308.607 641.5,309.5C 671.617,320.998 698.617,337.665 722.5,359.5C 725.833,363.5 729.5,367.167 733.5,370.5C 773.75,412.919 796.417,463.253 801.5,521.5C 801.611,522.117 801.944,522.617 802.5,523C 809.74,524.354 817.073,525.52 824.5,526.5C 830.027,528.134 835.693,529.134 841.5,529.5C 845.509,531.578 849.842,532.911 854.5,533.5C 865.271,534.692 875.938,536.526 886.5,539C 887.056,539.383 887.389,539.883 887.5,540.5C 858.833,540.5 830.167,540.5 801.5,540.5C 801.5,546.5 801.5,552.5 801.5,558.5C 801.5,558.833 801.5,559.167 801.5,559.5C 799.783,562.845 799.116,566.511 799.5,570.5C 799.5,571.5 799.5,572.5 799.5,573.5C 798.087,578.63 797.087,583.963 796.5,589.5C 780.43,663.436 739.43,719.269 673.5,757C 664.263,761.786 654.93,766.286 645.5,770.5C 641.642,770.77 638.309,772.103 635.5,774.5C 631.508,774.764 627.841,775.764 624.5,777.5C 617.898,778.547 611.565,780.214 605.5,782.5C 601.709,782.659 598.042,783.325 594.5,784.5C 585.942,784.786 577.609,785.786 569.5,787.5C 565.167,787.5 560.833,787.5 556.5,787.5C 555.833,806.167 555.167,824.833 554.5,843.5C 554.02,840.922 553.02,838.588 551.5,836.5C 550.926,829.407 549.76,822.407 548,815.5C 544.992,806.175 542.492,796.842 540.5,787.5C 540.389,786.883 540.056,786.383 539.5,786C 528.04,785.785 516.707,784.618 505.5,782.5C 422.628,763.24 363.628,714.907 328.5,637.5C 327.069,632.989 325.402,628.655 323.5,624.5C 321.299,620.886 319.966,616.886 319.5,612.5C 318.408,607.345 317.075,602.345 315.5,597.5C 314.301,593.231 313.301,588.897 312.5,584.5C 312.72,579.9 312.054,575.567 310.5,571.5C 310.5,570.833 310.5,570.167 310.5,569.5C 310.884,565.511 310.217,561.845 308.5,558.5C 279.644,552.446 250.644,546.779 221.5,541.5C 250.5,540.833 279.5,540.167 308.5,539.5C 308.5,533.833 308.5,528.167 308.5,522.5C 310.16,513.588 311.493,504.588 312.5,495.5C 314.237,491.458 315.237,487.124 315.5,482.5C 334.299,409.533 376.966,355.533 443.5,320.5C 450.224,317.496 456.891,314.496 463.5,311.5C 487.86,301 513.527,295.333 540.5,294.5C 545.695,294.821 550.695,294.487 555.5,293.5C 556.332,276.005 556.832,258.338 557,240.5C 557.232,241.737 557.732,242.737 558.5,243.5 Z"/></g>
<g><path style="opacity:1" fill="#f9be9d" d="M 556.5,236.5 C 555.503,255.326 555.17,274.326 555.5,293.5C 550.695,294.487 545.695,294.821 540.5,294.5C 540.5,293.833 540.833,293.5 541.5,293.5C 545.833,293.5 550.167,293.5 554.5,293.5C 554.83,274.326 554.497,255.326 553.5,236.5C 555.029,230.004 556.029,230.004 556.5,236.5 Z"/></g>
<g><path style="opacity:1" fill="#f39c6f" d="M 553.5,236.5 C 554.497,255.326 554.83,274.326 554.5,293.5C 550.167,293.5 545.833,293.5 541.5,293.5C 541.335,290.482 541.502,287.482 542,284.5C 546.365,268.658 550.198,252.658 553.5,236.5 Z"/></g>
<g><path style="opacity:0.983" fill="#e78d5f" d="M 1127.5,291.5 C 1146.97,290.661 1166.31,291.828 1185.5,295C 1205.57,299.946 1222.4,310.112 1236,325.5C 1243.68,336.131 1247.84,347.797 1248.5,360.5C 1236.17,361.833 1223.83,361.833 1211.5,360.5C 1204.25,342.755 1191.25,331.588 1172.5,327C 1144.99,320.723 1118.99,324.389 1094.5,338C 1076.71,352.677 1069.55,371.51 1073,394.5C 1076.55,416.452 1088.72,431.285 1109.5,439C 1130.62,445.7 1151.95,446.7 1173.5,442C 1191.61,437.457 1204.27,426.624 1211.5,409.5C 1223.83,408.167 1236.17,408.167 1248.5,409.5C 1245.95,434.716 1233.29,453.216 1210.5,465C 1183.39,477.028 1155.06,481.028 1125.5,477C 1101.23,474.531 1079.56,465.864 1060.5,451C 1042,433.113 1032.66,411.113 1032.5,385C 1033.88,342.301 1054.55,313.635 1094.5,299C 1105.4,295.633 1116.4,293.133 1127.5,291.5 Z"/></g>
<g><path style="opacity:1" fill="#7c7c83" d="M 601.5,298.5 C 606.596,298.044 611.262,299.044 615.5,301.5C 610.717,300.491 606.05,299.491 601.5,298.5 Z"/></g>
<g><path style="opacity:1" fill="#7c7c82" d="M 627.5,304.5 C 632.638,305.079 637.305,306.746 641.5,309.5C 636.483,308.607 631.817,306.94 627.5,304.5 Z"/></g>
<g><path style="opacity:1" fill="#8e8e94" d="M 463.5,311.5 C 456.891,314.496 450.224,317.496 443.5,320.5C 449.379,315.975 456.046,312.975 463.5,311.5 Z"/></g>
<g><path style="opacity:0.983" fill="#e88e5f" d="M 1340.5,333.5 C 1362.78,331.482 1384.44,333.982 1405.5,341C 1438.74,357.638 1452.24,384.471 1446,421.5C 1439.48,447.023 1423.65,463.856 1398.5,472C 1365.74,481.606 1334.07,478.94 1303.5,464C 1277.79,446.267 1267.63,421.767 1273,390.5C 1278.08,366.743 1291.92,350.243 1314.5,341C 1323.2,338.149 1331.87,335.649 1340.5,333.5 Z M 1353.5,361.5 C 1366.26,360.896 1378.6,363.396 1390.5,369C 1406.89,381.642 1412.72,398.142 1408,418.5C 1402.22,433.602 1391.39,443.102 1375.5,447C 1357.73,450.439 1341.06,447.772 1325.5,439C 1309.93,424.752 1305.76,407.586 1313,387.5C 1322.07,371.886 1335.57,363.219 1353.5,361.5 Z"/></g>
<g><path style="opacity:0.981" fill="#e88d60" d="M 1558.5,333.5 C 1576.98,330.89 1594.31,334.056 1610.5,343C 1619.28,349.623 1625.61,358.123 1629.5,368.5C 1649.98,337.941 1678.31,327.107 1714.5,336C 1733.64,342.139 1745.47,354.972 1750,374.5C 1751.74,407.485 1751.91,440.485 1750.5,473.5C 1738.88,474.645 1727.21,474.812 1715.5,474C 1715,473.5 1714.5,473 1714,472.5C 1713.96,442.127 1713.29,411.794 1712,381.5C 1707.99,371.238 1700.49,365.405 1689.5,364C 1666.26,360.741 1647.09,367.908 1632,385.5C 1631.83,414.839 1631.33,444.172 1630.5,473.5C 1618.83,474.833 1607.17,474.833 1595.5,473.5C 1594.94,443.142 1594.11,412.809 1593,382.5C 1589.19,371.991 1581.69,365.824 1570.5,364C 1547.34,360.718 1528.17,367.885 1513,385.5C 1512.25,387.332 1511.25,388.999 1510,390.5C 1509.83,418.173 1509.33,445.839 1508.5,473.5C 1496.83,474.833 1485.17,474.833 1473.5,473.5C 1472.33,427.837 1472.17,382.17 1473,336.5C 1484.76,335.346 1496.59,335.179 1508.5,336C 1509.32,347.758 1509.82,359.591 1510,371.5C 1519.95,350.789 1536.12,338.122 1558.5,333.5 Z"/></g>
<g><path style="opacity:0.985" fill="#e88e5f" d="M 1866.5,333.5 C 1895.97,329.337 1920.8,338.003 1941,359.5C 1957.2,382.671 1960.53,407.671 1951,434.5C 1937.1,462.877 1914.26,477.21 1882.5,477.5C 1852.37,477.188 1831.54,463.188 1820,435.5C 1819.67,466.5 1819.33,497.5 1819,528.5C 1806.91,529.488 1794.75,529.822 1782.5,529.5C 1782.33,465.166 1782.5,400.832 1783,336.5C 1794.09,335.347 1805.26,335.18 1816.5,336C 1818.16,347.733 1819.32,359.566 1820,371.5C 1828.78,350.553 1844.28,337.886 1866.5,333.5 Z M 1863.5,361.5 C 1879.53,360.161 1893.86,364.328 1906.5,374C 1920.57,391.737 1922.07,410.571 1911,430.5C 1896.12,446.234 1877.95,451.734 1856.5,447C 1825.67,439.521 1814.17,420.354 1822,389.5C 1825.77,380.436 1831.93,373.603 1840.5,369C 1848.1,365.847 1855.76,363.347 1863.5,361.5 Z"/></g>
<g><path style="opacity:0.983" fill="#e88e60" d="M 2035.5,333.5 C 2056.12,330.291 2075.12,334.124 2092.5,345C 2100.74,351.678 2106.91,359.845 2111,369.5C 2112.09,358.314 2112.92,347.147 2113.5,336C 2124.83,335.333 2136.17,335.333 2147.5,336C 2148,336.5 2148.5,337 2149,337.5C 2149.83,382.738 2149.66,427.904 2148.5,473C 2142.94,474.121 2137.27,474.621 2131.5,474.5C 2126.12,474.477 2120.78,474.144 2115.5,473.5C 2114.23,470.633 2113.39,467.633 2113,464.5C 2112.89,455.107 2112.22,445.774 2111,436.5C 2096.51,466.938 2072.34,480.438 2038.5,477C 1998.08,469.913 1976.74,445.913 1974.5,405C 1977.12,365.892 1997.45,342.059 2035.5,333.5 Z M 2051.5,362.5 C 2068.25,360.547 2083.59,364.047 2097.5,373C 2111.63,386.679 2115.46,402.846 2109,421.5C 2101.79,435.694 2090.29,444.194 2074.5,447C 2065.17,447.667 2055.83,447.667 2046.5,447C 2019.99,438.826 2009.16,420.993 2014,393.5C 2019.75,374.913 2032.25,364.579 2051.5,362.5 Z"/></g>
<g><path style="opacity:0.981" fill="#e88e5f" d="M 2225.5,333.5 C 2237.17,333.333 2248.84,333.5 2260.5,334C 2279.6,336.618 2293.44,346.451 2302,363.5C 2304.27,369.262 2304.77,375.095 2303.5,381C 2293.5,381.667 2283.5,381.667 2273.5,381C 2271.06,376.047 2268.06,371.381 2264.5,367C 2261.13,364.816 2257.47,363.483 2253.5,363C 2244.79,362.202 2236.12,362.536 2227.5,364C 2218.4,367.028 2215.24,373.195 2218,382.5C 2219.17,383.667 2220.33,384.833 2221.5,386C 2242.16,391.115 2262.82,396.448 2283.5,402C 2305.61,410.636 2313.45,426.469 2307,449.5C 2302.44,459.727 2294.94,466.894 2284.5,471C 2258.04,479.953 2231.71,479.619 2205.5,470C 2188.14,462.763 2177.81,449.93 2174.5,431.5C 2174.57,430.228 2174.9,429.062 2175.5,428C 2186.5,427.333 2197.5,427.333 2208.5,428C 2216.5,442.754 2229,449.587 2246,448.5C 2253.13,448.507 2259.96,447.174 2266.5,444.5C 2271.07,439.492 2272.23,433.825 2270,427.5C 2266.91,423.365 2262.74,420.865 2257.5,420C 2240.31,417.158 2223.31,413.491 2206.5,409C 2180.2,398.912 2172.87,381.079 2184.5,355.5C 2191.08,347.206 2199.41,341.373 2209.5,338C 2214.99,336.598 2220.33,335.098 2225.5,333.5 Z"/></g>
<g><path style="opacity:0.98" fill="#e88e60" d="M 2381.5,333.5 C 2392.84,333.333 2404.17,333.5 2415.5,334C 2434.95,336.139 2448.78,345.972 2457,363.5C 2459.39,369.239 2459.89,375.072 2458.5,381C 2448.5,381.667 2438.5,381.667 2428.5,381C 2426.05,376.02 2423.05,371.354 2419.5,367C 2416.13,364.816 2412.47,363.483 2408.5,363C 2399.79,362.202 2391.12,362.536 2382.5,364C 2372.04,368.283 2369.7,375.283 2375.5,385C 2377.33,385.748 2379,386.748 2380.5,388C 2400.08,391.649 2419.41,396.316 2438.5,402C 2461.42,410.685 2469.26,426.852 2462,450.5C 2457.07,460.089 2449.57,466.922 2439.5,471C 2413.04,479.953 2386.71,479.619 2360.5,470C 2343.27,462.617 2332.94,449.784 2329.5,431.5C 2329.57,430.228 2329.9,429.062 2330.5,428C 2341.5,427.333 2352.5,427.333 2363.5,428C 2371.63,442.904 2384.3,449.737 2401.5,448.5C 2408.46,448.466 2415.13,447.132 2421.5,444.5C 2430.17,432.697 2427.5,424.53 2413.5,420C 2395.94,417.366 2378.6,413.7 2361.5,409C 2333.46,397.535 2326.96,378.701 2342,352.5C 2346.62,347.867 2351.79,344.034 2357.5,341C 2365.39,337.756 2373.39,335.256 2381.5,333.5 Z"/></g>
<g><path style="opacity:1" fill="#ffbf9a" d="M 555.5,334.5 C 555.833,403.002 555.499,471.335 554.5,539.5C 554.5,471.5 554.5,403.5 554.5,335.5C 546.833,335.5 539.167,335.5 531.5,335.5C 539.46,333.645 547.46,333.312 555.5,334.5 Z"/></g>
<g><path style="opacity:1" fill="#87878c" d="M 591.5,337.5 C 587.785,337.577 584.119,337.244 580.5,336.5C 580.5,337.833 580.5,339.167 580.5,340.5C 579.549,339.081 579.216,337.415 579.5,335.5C 583.705,335.717 587.705,336.383 591.5,337.5 Z"/></g>
<g><path style="opacity:1" fill="#fda272" d="M 530.5,335.5 C 530.833,335.5 531.167,335.5 531.5,335.5C 539.167,335.5 546.833,335.5 554.5,335.5C 554.5,403.5 554.5,471.5 554.5,539.5C 486.167,539.5 417.833,539.5 349.5,539.5C 349.5,532.833 349.5,526.167 349.5,519.5C 350.15,517.565 350.483,515.565 350.5,513.5C 350.833,513.5 351.167,513.5 351.5,513.5C 393.496,504.946 435.496,496.613 477.5,488.5C 484.045,486.601 490.711,485.268 497.5,484.5C 497.366,482.708 497.699,481.042 498.5,479.5C 498.337,477.143 498.503,474.81 499,472.5C 510.309,427.399 520.809,382.066 530.5,336.5C 530.5,336.167 530.5,335.833 530.5,335.5 Z"/></g>
<g><path style="opacity:1" fill="#2e2d37" d="M 530.5,336.5 C 520.809,382.066 510.309,427.399 499,472.5C 498.503,474.81 498.337,477.143 498.5,479.5C 496.824,480.183 496.157,481.517 496.5,483.5C 489.584,483.809 483.251,485.476 477.5,488.5C 435.496,496.613 393.496,504.946 351.5,513.5C 352.162,509.534 352.495,505.534 352.5,501.5C 352.366,499.708 352.699,498.042 353.5,496.5C 354.222,496.082 354.722,495.416 355,494.5C 356.318,489.567 357.151,484.567 357.5,479.5C 358.183,476.453 359.183,473.453 360.5,470.5C 362.912,467.632 364.579,464.299 365.5,460.5C 382.054,420.425 408.721,388.592 445.5,365C 453.754,361.205 461.754,356.872 469.5,352C 473.215,350.705 476.882,349.538 480.5,348.5C 484.853,348.154 488.52,346.487 491.5,343.5C 492.167,343.5 492.833,343.5 493.5,343.5C 505.968,341.667 518.301,339.334 530.5,336.5 Z"/></g>
<g><path style="opacity:1" fill="#2e2e37" d="M 591.5,337.5 C 651.327,349.177 697.827,380.511 731,431.5C 740.6,446.811 747.766,463.144 752.5,480.5C 752.186,487.827 753.853,494.494 757.5,500.5C 757.5,500.833 757.5,501.167 757.5,501.5C 757.423,505.215 757.756,508.881 758.5,512.5C 757.167,512.5 755.833,512.5 754.5,512.5C 722.009,506.666 689.676,499.999 657.5,492.5C 651.14,490.249 644.474,488.916 637.5,488.5C 636.5,488.5 635.5,488.5 634.5,488.5C 634.082,487.778 633.416,487.278 632.5,487C 627.844,486.335 623.177,485.835 618.5,485.5C 616.703,484.27 614.703,483.604 612.5,483.5C 612.37,474.874 610.703,466.54 607.5,458.5C 606.074,447.974 603.574,437.64 600,427.5C 599.667,424.167 599.333,420.833 599,417.5C 593.97,398.34 589.47,379.006 585.5,359.5C 585.169,355.086 584.335,350.752 583,346.5C 582.617,345.944 582.117,345.611 581.5,345.5C 581.784,343.585 581.451,341.919 580.5,340.5C 580.5,339.167 580.5,337.833 580.5,336.5C 584.119,337.244 587.785,337.577 591.5,337.5 Z"/></g>
<g><path style="opacity:1" fill="#67676e" d="M 530.5,335.5 C 530.5,335.833 530.5,336.167 530.5,336.5C 518.301,339.334 505.968,341.667 493.5,343.5C 505.263,338.812 517.596,336.145 530.5,335.5 Z"/></g>
<g><path style="opacity:1" fill="#79797f" d="M 491.5,343.5 C 488.52,346.487 484.853,348.154 480.5,348.5C 483.644,346.101 487.31,344.435 491.5,343.5 Z"/></g>
<g><path style="opacity:1" fill="#717277" d="M 581.5,345.5 C 582.117,345.611 582.617,345.944 583,346.5C 584.335,350.752 585.169,355.086 585.5,359.5C 583.797,355.045 582.464,350.379 581.5,345.5 Z"/></g>
<g><path style="opacity:1" fill="#717178" d="M 722.5,359.5 C 727.167,362.167 730.833,365.833 733.5,370.5C 729.5,367.167 725.833,363.5 722.5,359.5 Z"/></g>
<g><path style="opacity:1" fill="#7e7e85" d="M 365.5,460.5 C 364.579,464.299 362.912,467.632 360.5,470.5C 361.168,466.497 362.834,463.164 365.5,460.5 Z"/></g>
<g><path style="opacity:1" fill="#5f4a46" d="M 498.5,479.5 C 497.699,481.042 497.366,482.708 497.5,484.5C 490.711,485.268 484.045,486.601 477.5,488.5C 483.251,485.476 489.584,483.809 496.5,483.5C 496.157,481.517 496.824,480.183 498.5,479.5 Z"/></g>
<g><path style="opacity:1" fill="#8c8d91" d="M 618.5,485.5 C 623.177,485.835 627.844,486.335 632.5,487C 633.416,487.278 634.082,487.778 634.5,488.5C 628.939,488.044 623.606,487.044 618.5,485.5 Z"/></g>
<g><path style="opacity:1" fill="#88888e" d="M 357.5,479.5 C 357.151,484.567 356.318,489.567 355,494.5C 354.722,495.416 354.222,496.082 353.5,496.5C 353.882,490.493 355.216,484.827 357.5,479.5 Z"/></g>
<g><path style="opacity:1" fill="#6d6e73" d="M 637.5,488.5 C 644.474,488.916 651.14,490.249 657.5,492.5C 651.07,492.412 644.736,491.579 638.5,490C 637.944,489.617 637.611,489.117 637.5,488.5 Z"/></g>
<g><path style="opacity:1" fill="#5b5b63" d="M 752.5,480.5 C 755.082,486.827 756.748,493.493 757.5,500.5C 753.853,494.494 752.186,487.827 752.5,480.5 Z"/></g>
<g><path style="opacity:1" fill="#95959b" d="M 315.5,482.5 C 315.237,487.124 314.237,491.458 312.5,495.5C 312.952,491.837 313.452,488.17 314,484.5C 314.278,483.584 314.778,482.918 315.5,482.5 Z"/></g>
<g><path style="opacity:1" fill="#7c7b80" d="M 352.5,501.5 C 352.495,505.534 352.162,509.534 351.5,513.5C 351.167,513.5 350.833,513.5 350.5,513.5C 350.198,509.21 350.864,505.21 352.5,501.5 Z"/></g>
<g><path style="opacity:0.97" fill="#dbdbdb" d="M 3210.5,509.5 C 3218.51,509.334 3226.51,509.5 3234.5,510C 3252.17,515.683 3257,526.85 3249,543.5C 3244.65,547.758 3239.49,550.592 3233.5,552C 3226.17,552.667 3218.83,552.667 3211.5,552C 3194.49,546.751 3189.32,535.917 3196,519.5C 3199.98,514.774 3204.81,511.441 3210.5,509.5 Z"/></g>
<g><path style="opacity:0.987" fill="#dbdbdb" d="M 1040.5,510.5 C 1083.85,510.074 1127.19,510.574 1170.5,512C 1235.41,522.42 1268.41,560.586 1269.5,626.5C 1270.4,662.507 1257.74,692.674 1231.5,717C 1209.42,732.694 1184.76,741.027 1157.5,742C 1117.47,742.816 1077.47,742.649 1037.5,741.5C 1037.5,664.833 1037.5,588.167 1037.5,511.5C 1038.79,511.737 1039.79,511.404 1040.5,510.5 Z M 1093.5,554.5 C 1110.84,554.333 1128.17,554.5 1145.5,555C 1190.28,557.28 1212.62,580.78 1212.5,625.5C 1213.33,670.502 1191.33,694.669 1146.5,698C 1128.84,698.5 1111.17,698.667 1093.5,698.5C 1093.5,650.5 1093.5,602.5 1093.5,554.5 Z"/></g>
<g><path style="opacity:1" fill="#6e6f74" d="M 757.5,501.5 C 758.795,505.267 759.461,509.267 759.5,513.5C 757.585,513.784 755.919,513.451 754.5,512.5C 755.833,512.5 757.167,512.5 758.5,512.5C 757.756,508.881 757.423,505.215 757.5,501.5 Z"/></g>
<g><path style="opacity:0.984" fill="#dadada" d="M 3126.5,519.5 C 3128.83,519.5 3131.17,519.5 3133.5,519.5C 3133.5,537.167 3133.5,554.833 3133.5,572.5C 3172.07,572.17 3210.57,572.504 3249,573.5C 3249.83,629.503 3249.67,685.503 3248.5,741.5C 3230.85,742.807 3213.18,742.807 3195.5,741.5C 3195.5,699.167 3195.5,656.833 3195.5,614.5C 3174.83,614.5 3154.17,614.5 3133.5,614.5C 3133.03,639.898 3133.53,665.231 3135,690.5C 3136.73,693.953 3139.56,695.786 3143.5,696C 3154.08,696.179 3164.58,696.679 3175,697.5C 3175.67,711.833 3175.67,726.167 3175,740.5C 3174.25,741.126 3173.42,741.626 3172.5,742C 3152.47,742.897 3132.47,742.563 3112.5,741C 3095.76,737.257 3085.26,727.09 3081,710.5C 3080.5,678.502 3080.33,646.502 3080.5,614.5C 3070.17,614.5 3059.83,614.5 3049.5,614.5C 3049.33,600.829 3049.5,587.163 3050,573.5C 3060.08,572.514 3070.25,572.181 3080.5,572.5C 3080.33,558.163 3080.5,543.829 3081,529.5C 3083.07,528.475 3085.24,527.642 3087.5,527C 3100.72,524.938 3113.72,522.438 3126.5,519.5 Z"/></g>
<g><path style="opacity:0.981" fill="#dbdbdb" d="M 2769.5,520.5 C 2772.45,520.223 2775.28,520.556 2778,521.5C 2778.5,538.497 2778.67,555.497 2778.5,572.5C 2791.84,572.333 2805.17,572.5 2818.5,573C 2819,573.5 2819.5,574 2820,574.5C 2820.17,581 2820.33,587.5 2820.5,594C 2820.48,600.906 2819.81,607.572 2818.5,614C 2805.17,614.5 2791.84,614.667 2778.5,614.5C 2778.33,639.169 2778.5,663.836 2779,688.5C 2780.27,692.77 2783.1,695.27 2787.5,696C 2798.21,696.189 2808.88,696.689 2819.5,697.5C 2820.67,711.822 2820.83,726.155 2820,740.5C 2819.25,741.126 2818.42,741.626 2817.5,742C 2796.81,742.886 2776.14,742.553 2755.5,741C 2736.47,735.807 2726.31,723.307 2725,703.5C 2724.18,674.125 2724.34,644.791 2725.5,615.5C 2714.76,615.135 2704.26,614.135 2694,612.5C 2693.04,599.405 2693.37,586.405 2695,573.5C 2705.11,572.844 2715.27,572.178 2725.5,571.5C 2724.85,565.047 2724.52,558.547 2724.5,552C 2724.39,544.758 2724.89,537.591 2726,530.5C 2740.56,527.068 2755.06,523.734 2769.5,520.5 Z"/></g>
<g><path style="opacity:1" fill="#626269" d="M 801.5,521.5 C 809.577,521.913 817.243,523.58 824.5,526.5C 817.073,525.52 809.74,524.354 802.5,523C 801.944,522.617 801.611,522.117 801.5,521.5 Z"/></g>
<g><path style="opacity:1" fill="#f79e70" d="M 308.5,522.5 C 308.5,528.167 308.5,533.833 308.5,539.5C 279.833,539.5 251.167,539.5 222.5,539.5C 250.987,533.214 279.654,527.548 308.5,522.5 Z"/></g>
<g><path style="opacity:1" fill="#9f9fa3" d="M 841.5,529.5 C 843.527,529.338 845.527,529.505 847.5,530C 850.084,530.86 852.417,532.027 854.5,533.5C 849.842,532.911 845.509,531.578 841.5,529.5 Z"/></g>
<g><path style="opacity:1" fill="#fccbac" d="M 222.5,539.5 C 251.167,539.5 279.833,539.5 308.5,539.5C 279.5,540.167 250.5,540.833 221.5,541.5C 219.207,540.699 219.54,540.032 222.5,539.5 Z"/></g>
<g><path style="opacity:1" fill="#ffdbc1" d="M 555.5,334.5 C 556.499,402.665 556.833,470.998 556.5,539.5C 625.002,539.167 693.335,539.501 761.5,540.5C 693.167,540.5 624.833,540.5 556.5,540.5C 556.5,609.167 556.5,677.833 556.5,746.5C 560.167,746.5 563.833,746.5 567.5,746.5C 563.702,747.483 559.702,747.817 555.5,747.5C 555.5,678.5 555.5,609.5 555.5,540.5C 486.5,540.5 417.5,540.5 348.5,540.5C 348.175,533.313 348.509,526.313 349.5,519.5C 349.5,526.167 349.5,532.833 349.5,539.5C 417.833,539.5 486.167,539.5 554.5,539.5C 555.499,471.335 555.833,403.002 555.5,334.5 Z"/></g>
<g><path style="opacity:1" fill="#ffb287" d="M 761.5,540.5 C 761.666,547.508 761.5,554.508 761,561.5C 760.809,563.708 760.309,565.708 759.5,567.5C 760.203,558.851 760.536,550.185 760.5,541.5C 692.833,541.5 625.167,541.5 557.5,541.5C 557.5,609.5 557.5,677.5 557.5,745.5C 564.833,745.5 572.167,745.5 579.5,745.5C 575.702,746.483 571.702,746.817 567.5,746.5C 563.833,746.5 560.167,746.5 556.5,746.5C 556.5,677.833 556.5,609.167 556.5,540.5C 624.833,540.5 693.167,540.5 761.5,540.5 Z"/></g>
<g><path style="opacity:1" fill="#f9a174" d="M 887.5,540.5 C 888.873,540.343 890.207,540.51 891.5,541C 880.971,542.571 870.638,544.738 860.5,547.5C 840.664,550.554 820.997,554.22 801.5,558.5C 801.5,552.5 801.5,546.5 801.5,540.5C 830.167,540.5 858.833,540.5 887.5,540.5 Z"/></g>
<g><path style="opacity:1" fill="#fea272" d="M 759.5,567.5 C 759.5,567.833 759.5,568.167 759.5,568.5C 730.11,573.444 700.777,578.778 671.5,584.5C 664.807,585.691 658.474,587.358 652.5,589.5C 639.209,591.076 626.209,593.742 613.5,597.5C 602.912,642.775 592.578,688.109 582.5,733.5C 581.264,737.338 580.264,741.338 579.5,745.5C 572.167,745.5 564.833,745.5 557.5,745.5C 557.5,677.5 557.5,609.5 557.5,541.5C 625.167,541.5 692.833,541.5 760.5,541.5C 760.536,550.185 760.203,558.851 759.5,567.5 Z"/></g>
<g><path style="opacity:1" fill="#79797f" d="M 308.5,558.5 C 310.217,561.845 310.884,565.511 310.5,569.5C 309.778,569.082 309.278,568.416 309,567.5C 308.502,564.518 308.335,561.518 308.5,558.5 Z"/></g>
<g><path style="opacity:1" fill="#838389" d="M 801.5,559.5 C 801.884,563.489 801.217,567.155 799.5,570.5C 799.116,566.511 799.783,562.845 801.5,559.5 Z"/></g>
<g><path style="opacity:1" fill="#2d2d37" d="M 503.5,622.5 C 503.216,630.797 504.883,638.463 508.5,645.5C 509.824,649.516 510.824,653.516 511.5,657.5C 511.49,667.763 513.49,677.43 517.5,686.5C 516.99,692.731 518.323,698.397 521.5,703.5C 521.786,711.28 523.453,718.613 526.5,725.5C 526.5,725.833 526.5,726.167 526.5,726.5C 527.005,732.603 528.005,738.603 529.5,744.5C 527.167,744.5 524.833,744.5 522.5,744.5C 521.5,744.5 520.5,744.5 519.5,744.5C 516.393,743.019 513.059,741.852 509.5,741C 506.854,740.503 504.187,740.336 501.5,740.5C 494.033,736.721 486.033,734.054 477.5,732.5C 434.009,714.69 400.342,685.357 376.5,644.5C 368.653,630.776 362.153,616.442 357,601.5C 354.387,590.268 352.22,578.935 350.5,567.5C 399.47,577.027 448.47,586.694 497.5,596.5C 499.428,605.232 501.428,613.899 503.5,622.5 Z"/></g>
<g><path style="opacity:1" fill="#2e2d37" d="M 759.5,568.5 C 756.433,589.131 750.766,608.798 742.5,627.5C 738.799,633.574 735.465,639.908 732.5,646.5C 703.368,693.02 662.701,724.02 610.5,739.5C 601.295,741.701 591.961,743.034 582.5,743.5C 582.5,740.167 582.5,736.833 582.5,733.5C 592.578,688.109 602.912,642.775 613.5,597.5C 626.209,593.742 639.209,591.076 652.5,589.5C 656.472,588.892 660.472,588.392 664.5,588C 667.187,587.272 669.52,586.105 671.5,584.5C 700.777,578.778 730.11,573.444 759.5,568.5 Z"/></g>
<g><path style="opacity:0.984" fill="#dbdbdb" d="M 1373.5,570.5 C 1401.33,568.08 1427.66,573.58 1452.5,587C 1481.51,608.547 1493.34,637.38 1488,673.5C 1479.46,710.371 1456.63,732.871 1419.5,741C 1393.14,746.398 1367.14,745.065 1341.5,737C 1304.76,722.934 1286.09,696.267 1285.5,657C 1287.35,614.13 1309.02,586.796 1350.5,575C 1358.28,573.349 1365.94,571.849 1373.5,570.5 Z M 1380.5,612.5 C 1424.72,612.95 1441.55,634.617 1431,677.5C 1425.84,689.329 1417,696.829 1404.5,700C 1390.63,703.594 1376.96,702.927 1363.5,698C 1353.19,692.68 1346.02,684.514 1342,673.5C 1340.54,664.88 1340.2,656.213 1341,647.5C 1343.01,635.327 1349.17,625.827 1359.5,619C 1366.29,615.785 1373.29,613.619 1380.5,612.5 Z"/></g>
<g><path style="opacity:0.981" fill="#dbdbdb" d="M 1591.5,570.5 C 1614.98,568.926 1637.65,572.426 1659.5,581C 1676.64,588.808 1689.14,601.308 1697,618.5C 1698.65,623.555 1699.81,628.722 1700.5,634C 1700.25,635.326 1699.58,636.326 1698.5,637C 1681.83,637.667 1665.17,637.667 1648.5,637C 1641.32,622.059 1629.32,614.059 1612.5,613C 1568.11,612.734 1551.28,634.234 1562,677.5C 1567.05,688.886 1575.55,696.386 1587.5,700C 1604.3,704.238 1620.3,702.238 1635.5,694C 1641.1,689.753 1645.1,684.42 1647.5,678C 1665.18,677.167 1682.84,677.334 1700.5,678.5C 1699.51,692.815 1693.85,705.149 1683.5,715.5C 1671.99,726.928 1658.32,734.761 1642.5,739C 1614.29,746.698 1586.29,746.032 1558.5,737C 1518.18,719.89 1500.35,689.39 1505,645.5C 1510.02,610.809 1529.19,587.976 1562.5,577C 1572.17,574.236 1581.84,572.069 1591.5,570.5 Z"/></g>
<g><path style="opacity:0.985" fill="#dbdbdb" d="M 2043.5,570.5 C 2064.33,568.703 2082.99,574.036 2099.5,586.5C 2104.94,592.271 2109.61,598.604 2113.5,605.5C 2129.19,581.487 2151.52,569.821 2180.5,570.5C 2219.44,570.946 2242.27,590.279 2249,628.5C 2249.83,666.171 2249.67,703.838 2248.5,741.5C 2231.5,742.833 2214.5,742.833 2197.5,741.5C 2196.67,710.505 2196.17,679.505 2196,648.5C 2192.8,618.127 2176.3,606.961 2146.5,615C 2133.77,620.064 2125.6,629.231 2122,642.5C 2120.55,675.468 2120.05,708.468 2120.5,741.5C 2102.5,742.833 2084.5,742.833 2066.5,741.5C 2066.67,709.832 2066.5,678.165 2066,646.5C 2065.29,637.311 2062.29,628.977 2057,621.5C 2040.01,609.785 2022.85,609.619 2005.5,621C 1999.17,626.481 1995.01,633.314 1993,641.5C 1991.73,674.476 1991.07,707.476 1991,740.5C 1990.25,741.126 1989.42,741.626 1988.5,742C 1971.79,742.818 1955.12,742.652 1938.5,741.5C 1937.33,685.503 1937.17,629.503 1938,573.5C 1954.43,572.342 1970.93,572.176 1987.5,573C 1988.62,573.839 1989.29,575.006 1989.5,576.5C 1990.22,583.48 1990.72,590.48 1991,597.5C 1991.31,598.308 1991.81,598.975 1992.5,599.5C 2005.19,582.32 2022.19,572.653 2043.5,570.5 Z"/></g>
<g><path style="opacity:0.981" fill="#dbdbdb" d="M 2356.5,570.5 C 2378.89,568.96 2400.55,572.126 2421.5,580C 2457.74,597.974 2473.41,627.14 2468.5,667.5C 2420.83,668.167 2373.17,668.833 2325.5,669.5C 2326.32,680.65 2330.99,689.817 2339.5,697C 2359.56,708.391 2380.23,709.391 2401.5,700C 2407.36,696.972 2411.69,692.472 2414.5,686.5C 2431.83,685.167 2449.17,685.167 2466.5,686.5C 2464.14,702.021 2456.47,714.521 2443.5,724C 2421.3,738.135 2396.97,744.968 2370.5,744.5C 2344.05,745.059 2320.05,737.893 2298.5,723C 2271.94,698.57 2263.1,668.737 2272,633.5C 2280.7,605.13 2299.2,586.296 2327.5,577C 2337.12,574.007 2346.79,571.841 2356.5,570.5 Z M 2364.5,606.5 C 2377.11,606.275 2389.11,608.775 2400.5,614C 2409.16,619.824 2413.83,627.991 2414.5,638.5C 2384.83,638.5 2355.17,638.5 2325.5,638.5C 2327.04,625.291 2334.04,616.124 2346.5,611C 2352.56,609.265 2358.56,607.765 2364.5,606.5 Z"/></g>
<g><path style="opacity:0.985" fill="#dbdbdb" d="M 2599.5,570.5 C 2652.36,567.869 2679.86,592.869 2682,645.5C 2682.82,677.03 2682.66,708.53 2681.5,740C 2681.09,740.945 2680.43,741.612 2679.5,742C 2662.14,742.792 2644.8,742.625 2627.5,741.5C 2627.67,710.498 2627.5,679.498 2627,648.5C 2625.38,625.046 2612.88,613.046 2589.5,612.5C 2569.54,612.556 2555.37,621.556 2547,639.5C 2545.74,645.122 2544.74,650.789 2544,656.5C 2543.83,684.839 2543.33,713.173 2542.5,741.5C 2525.88,742.652 2509.21,742.818 2492.5,742C 2491.33,741.5 2490.5,740.667 2490,739.5C 2489.01,684.084 2489.34,628.751 2491,573.5C 2507.8,572.172 2524.64,572.172 2541.5,573.5C 2542.98,582.095 2543.81,590.762 2544,599.5C 2544.25,600.624 2544.75,601.624 2545.5,602.5C 2558.62,583.607 2576.62,572.94 2599.5,570.5 Z"/></g>
<g><path style="opacity:0.984" fill="#dbdbdb" d="M 2905.5,570.5 C 2926.18,568.777 2945.52,572.944 2963.5,583C 2969.69,587.687 2975.02,593.187 2979.5,599.5C 2980.52,591.188 2981.36,582.855 2982,574.5C 2982.5,574 2983,573.5 2983.5,573C 2999.74,572.176 3015.91,572.342 3032,573.5C 3032.83,629.503 3032.67,685.503 3031.5,741.5C 3014.88,742.652 2998.21,742.818 2981.5,742C 2980.33,741.581 2979.33,740.915 2978.5,740C 2979.65,732.914 2979.81,725.747 2979,718.5C 2978.75,717.376 2978.25,716.376 2977.5,715.5C 2966.1,731.029 2950.77,740.196 2931.5,743C 2896.9,748.473 2868.73,737.64 2847,710.5C 2830.01,679.874 2828.01,648.207 2841,615.5C 2854.68,589.248 2876.18,574.248 2905.5,570.5 Z M 2925.5,612.5 C 2968.89,612.974 2985.73,634.307 2976,676.5C 2970.51,688.657 2961.34,696.49 2948.5,700C 2933.96,704.072 2919.96,702.739 2906.5,696C 2896.78,689.739 2890.61,680.906 2888,669.5C 2885.2,654.316 2887.86,640.316 2896,627.5C 2904.1,618.974 2913.94,613.974 2925.5,612.5 Z"/></g>
<g><path style="opacity:0.984" fill="#dbdbdb" d="M 3357.5,570.5 C 3380.46,568.996 3402.79,572.496 3424.5,581C 3456.24,596.581 3472.24,622.081 3472.5,657.5C 3471.61,696.551 3452.94,723.051 3416.5,737C 3383.95,747.386 3351.62,746.72 3319.5,735C 3280.61,716.014 3264.11,684.847 3270,641.5C 3277.24,607.917 3297.41,586.084 3330.5,576C 3339.55,573.719 3348.55,571.885 3357.5,570.5 Z M 3364.5,612.5 C 3381.13,611.02 3395.63,615.686 3408,626.5C 3419,641.845 3421.33,658.511 3415,676.5C 3409.61,688.222 3400.78,696.055 3388.5,700C 3370.8,704.523 3354.14,702.19 3338.5,693C 3324.75,679.181 3320.25,662.681 3325,643.5C 3331.32,624.424 3344.49,614.091 3364.5,612.5 Z"/></g>
<g><path style="opacity:0.984" fill="#dbdbdb" d="M 3601.5,570.5 C 3622.56,568.807 3641.89,573.641 3659.5,585C 3672.38,596.267 3679.88,610.434 3682,627.5C 3683.73,665.488 3683.9,703.488 3682.5,741.5C 3664.85,742.807 3647.18,742.807 3629.5,741.5C 3629.67,710.832 3629.5,680.165 3629,649.5C 3628.46,636.588 3623.29,626.088 3613.5,618C 3596.87,610.301 3580.54,610.967 3564.5,620C 3552.66,628.863 3546.49,640.696 3546,655.5C 3545.83,684.172 3545.33,712.839 3544.5,741.5C 3527.88,742.652 3511.21,742.818 3494.5,742C 3493.58,741.626 3492.75,741.126 3492,740.5C 3491.33,685.167 3491.33,629.833 3492,574.5C 3492.5,574 3493,573.5 3493.5,573C 3510.21,572.182 3526.88,572.348 3543.5,573.5C 3544.96,582.769 3545.79,592.103 3546,601.5C 3546.41,601.957 3546.91,602.291 3547.5,602.5C 3560.58,583.623 3578.58,572.956 3601.5,570.5 Z"/></g>
<g><path style="opacity:0.977" fill="#dadada" d="M 1718.5,572.5 C 1735.55,572.181 1752.55,572.514 1769.5,573.5C 1770.33,605.161 1770.83,636.828 1771,668.5C 1773.3,690.81 1785.64,702.143 1808,702.5C 1833.56,701.597 1848.56,688.597 1853,663.5C 1853.17,633.494 1853.67,603.494 1854.5,573.5C 1872.03,572.172 1889.53,572.172 1907,573.5C 1908.66,628.751 1908.99,684.084 1908,739.5C 1907.5,740.667 1906.67,741.5 1905.5,742C 1888.8,742.79 1872.14,742.623 1855.5,741.5C 1855.12,731.989 1854.12,722.322 1852.5,712.5C 1836.66,733.755 1815.32,744.422 1788.5,744.5C 1743.51,744.015 1719.35,721.348 1716,676.5C 1715.33,642.833 1715.33,609.167 1716,575.5C 1716.7,574.309 1717.53,573.309 1718.5,572.5 Z"/></g>
<g><path style="opacity:1" fill="#8f8f95" d="M 310.5,571.5 C 312.054,575.567 312.72,579.9 312.5,584.5C 310.946,580.433 310.28,576.1 310.5,571.5 Z"/></g>
<g><path style="opacity:1" fill="#76767d" d="M 799.5,573.5 C 799.665,576.85 799.498,580.183 799,583.5C 798.76,585.852 797.927,587.852 796.5,589.5C 797.087,583.963 798.087,578.63 799.5,573.5 Z"/></g>
<g><path style="opacity:1" fill="#79584d" d="M 671.5,584.5 C 669.52,586.105 667.187,587.272 664.5,588C 660.472,588.392 656.472,588.892 652.5,589.5C 658.474,587.358 664.807,585.691 671.5,584.5 Z"/></g>
<g><path style="opacity:1" fill="#8f8f95" d="M 315.5,597.5 C 317.075,602.345 318.408,607.345 319.5,612.5C 316.916,607.95 315.583,602.95 315.5,597.5 Z"/></g>
<g><path style="opacity:1" fill="#74747b" d="M 323.5,624.5 C 325.402,628.655 327.069,632.989 328.5,637.5C 324.983,634.029 323.317,629.696 323.5,624.5 Z"/></g>
<g><path style="opacity:1" fill="#a0a0a5" d="M 742.5,627.5 C 740.285,634.522 736.952,640.855 732.5,646.5C 735.465,639.908 738.799,633.574 742.5,627.5 Z"/></g>
<g><path style="opacity:1" fill="#64646a" d="M 503.5,622.5 C 505.218,630.039 506.884,637.706 508.5,645.5C 504.883,638.463 503.216,630.797 503.5,622.5 Z"/></g>
<g><path style="opacity:1" fill="#5c5d63" d="M 511.5,657.5 C 513.947,666.97 515.947,676.637 517.5,686.5C 513.49,677.43 511.49,667.763 511.5,657.5 Z"/></g>
<g><path style="opacity:1" fill="#5a5a61" d="M 517.5,686.5 C 519.997,691.763 521.33,697.43 521.5,703.5C 518.323,698.397 516.99,692.731 517.5,686.5 Z"/></g>
<g><path style="opacity:1" fill="#5d5e63" d="M 521.5,703.5 C 523.766,710.575 525.433,717.908 526.5,725.5C 523.453,718.613 521.786,711.28 521.5,703.5 Z"/></g>
<g><path style="opacity:1" fill="#717178" d="M 477.5,732.5 C 486.033,734.054 494.033,736.721 501.5,740.5C 493.147,738.484 485.147,735.818 477.5,732.5 Z"/></g>
<g><path style="opacity:1" fill="#6c6c72" d="M 526.5,726.5 C 528.91,732.85 530.576,739.517 531.5,746.5C 528.171,746.785 525.171,746.118 522.5,744.5C 524.833,744.5 527.167,744.5 529.5,744.5C 528.005,738.603 527.005,732.603 526.5,726.5 Z"/></g>
<g><path style="opacity:1" fill="#61585b" d="M 582.5,733.5 C 582.5,736.833 582.5,740.167 582.5,743.5C 591.961,743.034 601.295,741.701 610.5,739.5C 600.58,742.971 590.247,744.971 579.5,745.5C 580.264,741.338 581.264,737.338 582.5,733.5 Z"/></g>
<g><path style="opacity:1" fill="#75757c" d="M 501.5,740.5 C 504.187,740.336 506.854,740.503 509.5,741C 513.059,741.852 516.393,743.019 519.5,744.5C 513.172,744.008 507.172,742.675 501.5,740.5 Z"/></g>
<g><path style="opacity:1" fill="#6d6d73" d="M 645.5,770.5 C 642.73,772.941 639.397,774.274 635.5,774.5C 638.309,772.103 641.642,770.77 645.5,770.5 Z"/></g>
<g><path style="opacity:1" fill="#5e5e66" d="M 624.5,777.5 C 623.756,779.453 622.256,780.453 620,780.5C 615.163,781.215 610.33,781.882 605.5,782.5C 611.565,780.214 617.898,778.547 624.5,777.5 Z"/></g>
<g><path style="opacity:1" fill="#9f9fa4" d="M 505.5,782.5 C 516.707,784.618 528.04,785.785 539.5,786C 540.056,786.383 540.389,786.883 540.5,787.5C 529.428,787.037 518.428,785.871 507.5,784C 506.584,783.722 505.918,783.222 505.5,782.5 Z"/></g>
<g><path style="opacity:1" fill="#7e787c" d="M 594.5,784.5 C 586.75,786.308 578.75,787.308 570.5,787.5C 570.59,790.152 569.924,792.485 568.5,794.5C 568.674,792.139 569.007,789.806 569.5,787.5C 577.609,785.786 585.942,784.786 594.5,784.5 Z"/></g>
<g><path style="opacity:1" fill="#fdd5ba" d="M 556.5,787.5 C 556.5,805.5 556.5,823.5 556.5,841.5C 556.662,843.527 556.495,845.527 556,847.5C 554.812,846.437 554.312,845.103 554.5,843.5C 555.167,824.833 555.833,806.167 556.5,787.5 Z"/></g>
<g><path style="opacity:1" fill="#f9a173" d="M 556.5,787.5 C 560.833,787.5 565.167,787.5 569.5,787.5C 569.007,789.806 568.674,792.139 568.5,794.5C 567.401,798.93 566.401,803.263 565.5,807.5C 563.389,812.525 562.056,817.858 561.5,823.5C 559.986,829.404 558.986,835.404 558.5,841.5C 557.833,841.5 557.167,841.5 556.5,841.5C 556.5,823.5 556.5,805.5 556.5,787.5 Z"/></g>
<g><path style="opacity:1" fill="#9a6a56" d="M 565.5,807.5 C 565.663,809.857 565.497,812.19 565,814.5C 563.893,817.584 562.727,820.584 561.5,823.5C 562.056,817.858 563.389,812.525 565.5,807.5 Z"/></g>
<g><path style="opacity:1" fill="#6a6568" d="M 551.5,836.5 C 553.02,838.588 554.02,840.922 554.5,843.5C 554.312,845.103 554.812,846.437 556,847.5C 556.495,845.527 556.662,843.527 556.5,841.5C 557.167,841.5 557.833,841.5 558.5,841.5C 557.701,844.43 557.368,847.43 557.5,850.5C 556.5,850.5 555.5,850.5 554.5,850.5C 553.016,846.007 552.016,841.34 551.5,836.5 Z"/></g>
</svg>
