<?xml version="1.0" encoding="UTF-8"?>
<!DOCTYPE svg PUBLIC "-//W3C//DTD SVG 1.1//EN" "http://www.w3.org/Graphics/SVG/1.1/DTD/svg11.dtd">
<svg xmlns="http://www.w3.org/2000/svg" version="1.1" width="3840px" height="1080px" style="shape-rendering:geometricPrecision; text-rendering:geometricPrecision; image-rendering:optimizeQuality; fill-rule:evenodd; clip-rule:evenodd" xmlns:xlink="http://www.w3.org/1999/xlink">
<g><path style="opacity:0.006" fill="#000000" d="M 374.5,130.5 C 375.601,129.402 376.934,129.235 378.5,130C 377.207,130.49 375.873,130.657 374.5,130.5 Z"/></g>
<g><path style="opacity:0.396" fill="#000000" d="M 383.5,129.5 C 384.833,130.167 384.833,130.167 383.5,129.5 Z"/></g>
<g><path style="opacity:0.341" fill="#000000" d="M 434.5,129.5 C 435.833,130.167 435.833,130.167 434.5,129.5 Z"/></g>
<g><path style="opacity:0.006" fill="#000000" d="M 440.5,130.5 C 441.601,129.402 442.934,129.235 444.5,130C 443.207,130.49 441.873,130.657 440.5,130.5 Z"/></g>
<g><path style="opacity:0.254" fill="#000000" d="M 317.5,139.5 C 318.848,138.814 320.015,137.814 321,136.5C 321.725,137.059 322.558,137.392 323.5,137.5C 339.61,133.413 355.943,131.246 372.5,131C 354.248,132.928 335.915,135.762 317.5,139.5 Z"/></g>
<g><path style="opacity:0.252" fill="#000000" d="M 501.5,139.5 C 483.085,135.762 464.752,132.928 446.5,131C 463.057,131.246 479.39,133.413 495.5,137.5C 496.442,137.392 497.275,137.059 498,136.5C 498.985,137.814 500.152,138.814 501.5,139.5 Z"/></g>
<g><path style="opacity:0.316" fill="#000000" d="M 317.5,139.5 C 309.035,142.205 300.368,144.538 291.5,146.5C 296.6,144.588 301.767,142.588 307,140.5C 307.914,141.654 308.747,141.487 309.5,140C 312.146,139.503 314.813,139.336 317.5,139.5 Z"/></g>
<g><path style="opacity:0.32" fill="#000000" d="M 501.5,139.5 C 505.007,138.994 508.174,139.66 511,141.5C 511.333,141.167 511.667,140.833 512,140.5C 517.233,142.588 522.4,144.588 527.5,146.5C 518.632,144.538 509.965,142.205 501.5,139.5 Z"/></g>
<g><path style="opacity:0.326" fill="#000000" d="M 291.5,146.5 C 282.62,150.59 273.287,153.59 263.5,155.5C 270.562,152.275 277.728,149.275 285,146.5C 287.027,146.986 289.193,146.986 291.5,146.5 Z"/></g>
<g><path style="opacity:0.324" fill="#000000" d="M 527.5,146.5 C 529.807,146.986 531.973,146.986 534,146.5C 541.272,149.275 548.438,152.275 555.5,155.5C 545.713,153.59 536.38,150.59 527.5,146.5 Z"/></g>
<g><path style="opacity:0.031" fill="#000000" d="M 263.5,155.5 C 262.833,156.167 262.833,156.167 263.5,155.5 Z"/></g>
<g><path style="opacity:0.031" fill="#000000" d="M 555.5,155.5 C 556.833,156.167 556.833,156.167 555.5,155.5 Z"/></g>
<g><path style="opacity:0.278" fill="#000000" d="M 259.5,157.5 C 257.846,160.137 257.346,159.803 258,156.5C 258.383,157.056 258.883,157.389 259.5,157.5 Z"/></g>
<g><path style="opacity:0.137" fill="#000000" d="M 259.5,156.5 C 260.833,157.167 260.833,157.167 259.5,156.5 Z"/></g>
<g><path style="opacity:0.137" fill="#000000" d="M 559.5,157.5 C 558.833,156.167 558.833,156.167 559.5,157.5 Z"/></g>
<g><path style="opacity:0.278" fill="#000000" d="M 559.5,157.5 C 561.353,156.386 561.853,157.052 561,159.5C 560.283,158.956 559.783,158.289 559.5,157.5 Z"/></g>
<g><path style="opacity:0.277" fill="#000000" d="M 225.5,172.5 C 235.038,167.147 244.872,162.147 255,157.5C 255.5,158 256,158.5 256.5,159C 246.419,163.357 236.085,167.857 225.5,172.5 Z"/></g>
<g><path style="opacity:0.287" fill="#000000" d="M 593.5,172.5 C 583.199,168.018 572.866,163.518 562.5,159C 563,158.5 563.5,158 564,157.5C 574.128,162.147 583.962,167.147 593.5,172.5 Z"/></g>
<g><path style="opacity:0.48" fill="#000000" d="M 223.5,173.5 C 223.842,172.662 224.508,172.328 225.5,172.5C 225.158,173.338 224.492,173.672 223.5,173.5 Z"/></g>
<g><path style="opacity:0.48" fill="#000000" d="M 593.5,172.5 C 594.492,172.328 595.158,172.662 595.5,173.5C 594.508,173.672 593.842,173.338 593.5,172.5 Z"/></g>
<g><path style="opacity:0.296" fill="#000000" d="M 223.5,173.5 C 217.83,177.337 211.83,180.67 205.5,183.5C 208.113,181.069 210.946,178.735 214,176.5C 215.558,177.345 216.558,176.679 217,174.5C 218.016,175.634 218.683,175.301 219,173.5C 220.299,173.966 221.799,173.966 223.5,173.5 Z"/></g>
<g><path style="opacity:0.296" fill="#000000" d="M 595.5,173.5 C 599.181,173.365 602.014,174.698 604,177.5C 604.333,177.167 604.667,176.833 605,176.5C 607.864,178.706 610.697,180.872 613.5,183C 610.725,182.626 608.058,181.626 605.5,180C 601.931,178.058 598.598,175.892 595.5,173.5 Z"/></g>
<g><path style="opacity:0.344" fill="#000000" d="M 203.5,184.5 C 203.158,185.338 202.492,185.672 201.5,185.5C 201.409,183.302 202.075,182.969 203.5,184.5 Z"/></g>
<g><path style="opacity:0.449" fill="#000000" d="M 203.5,184.5 C 203.842,183.662 204.508,183.328 205.5,183.5C 205.158,184.338 204.492,184.672 203.5,184.5 Z"/></g>
<g><path style="opacity:0.344" fill="#000000" d="M 617.5,185.5 C 614.999,185.489 614.832,184.822 617,183.5C 617.464,184.094 617.631,184.761 617.5,185.5 Z"/></g>
<g><path style="opacity:0.302" fill="#000000" d="M 201.5,185.5 C 197.292,189.685 192.292,192.685 186.5,194.5C 187.306,193.272 188.306,192.272 189.5,191.5C 193.229,189.549 196.729,187.216 200,184.5C 200.383,185.056 200.883,185.389 201.5,185.5 Z"/></g>
<g><path style="opacity:0.302" fill="#000000" d="M 629.5,191.5 C 630.694,192.272 631.694,193.272 632.5,194.5C 626.708,192.685 621.708,189.685 617.5,185.5C 618.117,185.389 618.617,185.056 619,184.5C 622.271,187.216 625.771,189.549 629.5,191.5 Z"/></g>
<g><path style="opacity:0.004" fill="#000000" d="M 189.5,191.5 C 188.833,190.167 188.833,190.167 189.5,191.5 Z"/></g>
<g><path style="opacity:0.004" fill="#000000" d="M 629.5,190.5 C 630.833,191.167 630.833,191.167 629.5,190.5 Z"/></g>
<g><path style="opacity:0.251" fill="#000000" d="M 186.5,194.5 C 186.167,195.5 185.5,196.167 184.5,196.5C 184.5,195.167 185.167,194.5 186.5,194.5 Z"/></g>
<g><path style="opacity:0.251" fill="#000000" d="M 632.5,194.5 C 633.833,194.5 634.5,195.167 634.5,196.5C 633.5,196.167 632.833,195.5 632.5,194.5 Z"/></g>
<g><path style="opacity:0.271" fill="#000000" d="M 184.5,196.5 C 176.538,202.154 168.538,207.821 160.5,213.5C 159.402,212.603 159.402,211.77 160.5,211C 166.659,207.749 172.325,203.749 177.5,199C 179.65,197.589 181.984,196.755 184.5,196.5 Z"/></g>
<g><path style="opacity:0.269" fill="#000000" d="M 634.5,196.5 C 637.016,196.755 639.35,197.589 641.5,199C 647.423,203.777 653.423,208.277 659.5,212.5C 658.833,212.5 658.5,212.833 658.5,213.5C 650.462,207.821 642.462,202.154 634.5,196.5 Z"/></g>
<g><path style="opacity:0.004" fill="#000000" d="M 659.5,212.5 C 660.833,213.167 660.833,213.167 659.5,212.5 Z"/></g>
<g><path style="opacity:0.549" fill="#000000" d="M 160.5,213.5 C 159.833,214.167 159.833,214.167 160.5,213.5 Z"/></g>
<g><path style="opacity:0.549" fill="#000000" d="M 658.5,213.5 C 658.833,213.5 659.167,213.5 659.5,213.5C 659.5,213.833 659.5,214.167 659.5,214.5C 659.167,214.167 658.833,213.833 658.5,213.5 Z"/></g>
<g><path style="opacity:0.527" fill="#000000" d="M 157.5,215.5 C 157.842,214.662 158.508,214.328 159.5,214.5C 159.158,215.338 158.492,215.672 157.5,215.5 Z"/></g>
<g><path style="opacity:0.527" fill="#000000" d="M 659.5,214.5 C 660.492,214.328 661.158,214.662 661.5,215.5C 660.508,215.672 659.842,215.338 659.5,214.5 Z"/></g>
<g><path style="opacity:0.228" fill="#000000" d="M 157.5,215.5 C 156.109,217.89 154.109,219.557 151.5,220.5C 151.862,217.113 153.862,215.447 157.5,215.5 Z"/></g>
<g><path style="opacity:0.226" fill="#000000" d="M 661.5,215.5 C 665.138,215.447 667.138,217.113 667.5,220.5C 664.891,219.557 662.891,217.89 661.5,215.5 Z"/></g>
<g><path style="opacity:0.375" fill="#000000" d="M 150.5,221.5 C 150.158,222.338 149.492,222.672 148.5,222.5C 148.409,220.302 149.075,219.969 150.5,221.5 Z"/></g>
<g><path style="opacity:0.475" fill="#000000" d="M 151.5,220.5 C 150.833,221.167 150.833,221.167 151.5,220.5 Z"/></g>
<g><path style="opacity:0.475" fill="#000000" d="M 667.5,220.5 C 668.167,220.5 668.5,220.833 668.5,221.5C 668.167,221.167 667.833,220.833 667.5,220.5 Z"/></g>
<g><path style="opacity:0.375" fill="#000000" d="M 670.5,222.5 C 669.508,222.672 668.842,222.338 668.5,221.5C 669.925,219.969 670.591,220.302 670.5,222.5 Z"/></g>
<g><path style="opacity:0.639" fill="#000000" d="M 148.5,222.5 C 147.833,223.167 147.833,223.167 148.5,222.5 Z"/></g>
<g><path style="opacity:0.639" fill="#000000" d="M 670.5,222.5 C 671.167,222.5 671.5,222.833 671.5,223.5C 671.167,223.167 670.833,222.833 670.5,222.5 Z"/></g>
<g><path style="opacity:0.553" fill="#000000" d="M 147.5,223.5 C 146.833,224.167 146.833,224.167 147.5,223.5 Z"/></g>
<g><path style="opacity:0.553" fill="#000000" d="M 671.5,223.5 C 672.167,223.5 672.5,223.833 672.5,224.5C 672.167,224.167 671.833,223.833 671.5,223.5 Z"/></g>
<g><path style="opacity:0.435" fill="#000000" d="M 146.5,224.5 C 145.833,225.167 145.833,225.167 146.5,224.5 Z"/></g>
<g><path style="opacity:0.435" fill="#000000" d="M 672.5,224.5 C 673.167,224.5 673.5,224.833 673.5,225.5C 673.167,225.167 672.833,224.833 672.5,224.5 Z"/></g>
<g><path style="opacity:0.238" fill="#000000" d="M 145.5,225.5 C 141.861,229.127 137.861,232.461 133.5,235.5C 135.916,232.9 138.249,230.067 140.5,227C 142.154,226.392 143.821,225.892 145.5,225.5 Z"/></g>
<g><path style="opacity:0.238" fill="#000000" d="M 673.5,225.5 C 675.179,225.892 676.846,226.392 678.5,227C 679.163,228.518 680.163,229.685 681.5,230.5C 683.367,231.76 684.7,233.427 685.5,235.5C 681.139,232.461 677.139,229.127 673.5,225.5 Z"/></g>
<g><path style="opacity:0.004" fill="#000000" d="M 681.5,229.5 C 682.833,230.167 682.833,230.167 681.5,229.5 Z"/></g>
<g><path style="opacity:0.208" fill="#000000" d="M 133.5,235.5 C 132.833,236.167 132.833,236.167 133.5,235.5 Z"/></g>
<g><path style="opacity:0.208" fill="#000000" d="M 685.5,235.5 C 686.167,235.5 686.5,235.833 686.5,236.5C 686.167,236.167 685.833,235.833 685.5,235.5 Z"/></g>
<g><path style="opacity:0.314" fill="#000000" d="M 132.5,236.5 C 131.833,237.167 131.833,237.167 132.5,236.5 Z"/></g>
<g><path style="opacity:0.314" fill="#000000" d="M 686.5,236.5 C 687.167,236.5 687.5,236.833 687.5,237.5C 687.167,237.167 686.833,236.833 686.5,236.5 Z"/></g>
<g><path style="opacity:0.435" fill="#000000" d="M 131.5,237.5 C 130.833,238.167 130.833,238.167 131.5,237.5 Z"/></g>
<g><path style="opacity:0.435" fill="#000000" d="M 687.5,237.5 C 688.167,237.5 688.5,237.833 688.5,238.5C 688.167,238.167 687.833,237.833 687.5,237.5 Z"/></g>
<g><path style="opacity:0.238" fill="#000000" d="M 130.5,238.5 C 128.158,242.21 125.158,245.21 121.5,247.5C 122.798,242.869 125.798,239.869 130.5,238.5 Z"/></g>
<g><path style="opacity:0.238" fill="#000000" d="M 688.5,238.5 C 693.202,239.869 696.202,242.869 697.5,247.5C 693.842,245.21 690.842,242.21 688.5,238.5 Z"/></g>
<g><path style="opacity:0.998" fill="#000000" d="M 409.5,239.5 C 410.117,239.611 410.617,239.944 411,240.5C 415.828,260.475 420.328,280.475 424.5,300.5C 517.456,309.378 584.956,355.378 627,438.5C 639.582,464.749 646.749,492.416 648.5,521.5C 676.491,526.888 704.491,532.388 732.5,538C 734.421,538.36 736.088,539.194 737.5,540.5C 707.877,546.758 678.21,552.758 648.5,558.5C 640.311,638.788 602.645,700.955 535.5,745C 501.463,765.621 464.463,777.121 424.5,779.5C 420.426,799.538 416.092,819.538 411.5,839.5C 410.5,839.5 409.5,839.5 408.5,839.5C 404.276,819.542 399.609,799.709 394.5,780C 309.598,772.154 245.098,731.987 201,659.5C 183.969,627.905 173.469,594.239 169.5,558.5C 140.364,552.537 111.364,546.37 82.5,540C 111.642,532.872 140.976,526.705 170.5,521.5C 177.769,447.443 211.103,388.277 270.5,344C 307.783,318.237 349.116,303.57 394.5,300C 399.424,279.806 404.424,259.639 409.5,239.5 Z M 382.5,341.5 C 383.995,341.415 384.995,342.081 385.5,343.5C 374.77,390.226 363.937,436.892 353,483.5C 351.184,484.329 349.351,485.163 347.5,486C 302.606,495.045 257.773,504.212 213,513.5C 212.5,513 212,512.5 211.5,512C 220.478,458.392 246.145,414.726 288.5,381C 316.555,360.145 347.888,346.978 382.5,341.5 Z M 434.5,341.5 C 510.278,354.123 563.778,395.457 595,465.5C 600.493,480.478 604.66,495.811 607.5,511.5C 606.833,511.833 606.167,512.167 605.5,512.5C 558.951,503.911 512.618,494.577 466.5,484.5C 455.833,436.832 445.166,389.166 434.5,341.5 Z M 211.5,568.5 C 212.274,567.853 213.274,567.52 214.5,567.5C 260.213,576.452 305.88,585.619 351.5,595C 352.893,596.171 353.727,597.671 354,599.5C 364.714,645.781 375.214,692.114 385.5,738.5C 318.153,728.602 267.653,694.269 234,635.5C 222.986,614.29 215.486,591.957 211.5,568.5 Z M 603.5,567.5 C 604.978,567.238 606.311,567.571 607.5,568.5C 594.276,643.215 552.942,695.715 483.5,726C 468.039,732.322 452.039,736.488 435.5,738.5C 435.167,738.167 434.833,737.833 434.5,737.5C 445.025,690.427 455.858,643.427 467,596.5C 467.5,596 468,595.5 468.5,595C 513.665,586.033 558.665,576.866 603.5,567.5 Z"/></g>
<g><path style="opacity:0.522" fill="#000000" d="M 121.5,247.5 C 120.833,248.167 120.833,248.167 121.5,247.5 Z"/></g>
<g><path style="opacity:0.522" fill="#000000" d="M 697.5,247.5 C 698.167,247.5 698.5,247.833 698.5,248.5C 698.167,248.167 697.833,247.833 697.5,247.5 Z"/></g>
<g><path style="opacity:0.631" fill="#000000" d="M 120.5,248.5 C 119.833,249.167 119.833,249.167 120.5,248.5 Z"/></g>
<g><path style="opacity:0.631" fill="#000000" d="M 698.5,248.5 C 699.167,248.5 699.5,248.833 699.5,249.5C 699.167,249.167 698.833,248.833 698.5,248.5 Z"/></g>
<g><path style="opacity:0.631" fill="#000000" d="M 119.5,249.5 C 118.833,250.167 118.833,250.167 119.5,249.5 Z"/></g>
<g><path style="opacity:0.631" fill="#000000" d="M 699.5,249.5 C 700.167,249.5 700.5,249.833 700.5,250.5C 700.167,250.167 699.833,249.833 699.5,249.5 Z"/></g>
<g><path style="opacity:0.522" fill="#000000" d="M 118.5,250.5 C 117.833,251.167 117.833,251.167 118.5,250.5 Z"/></g>
<g><path style="opacity:0.522" fill="#000000" d="M 700.5,250.5 C 701.167,250.5 701.5,250.833 701.5,251.5C 701.167,251.167 700.833,250.833 700.5,250.5 Z"/></g>
<g><path style="opacity:0.238" fill="#000000" d="M 117.5,251.5 C 115.21,255.158 112.21,258.158 108.5,260.5C 109.869,255.798 112.869,252.798 117.5,251.5 Z"/></g>
<g><path style="opacity:0.238" fill="#000000" d="M 701.5,251.5 C 706.131,252.798 709.131,255.798 710.5,260.5C 706.79,258.158 703.79,255.158 701.5,251.5 Z"/></g>
<g><path style="opacity:0.963" fill="#000000" d="M 967.5,255.5 C 998.654,252.607 1028.99,256.107 1058.5,266C 1092.93,279.25 1112.6,304.084 1117.5,340.5C 1102.67,341.808 1087.83,341.808 1073,340.5C 1060.12,312.123 1037.96,297.29 1006.5,296C 980.424,293.413 955.758,298.08 932.5,310C 911.502,324.158 901.169,343.992 901.5,369.5C 901.699,403.204 917.699,425.704 949.5,437C 977.853,445.665 1006.19,445.665 1034.5,437C 1052.5,429.667 1065.17,417 1072.5,399C 1087.17,398.333 1101.83,398.333 1116.5,399C 1114.82,425.081 1103.15,445.748 1081.5,461C 1060.02,473.935 1036.69,481.268 1011.5,483C 976.838,485.522 943.505,480.189 911.5,467C 868.23,442.635 849.064,405.469 854,355.5C 860.047,311.454 883.88,281.62 925.5,266C 939.378,261.53 953.378,258.03 967.5,255.5 Z"/></g>
<g><path style="opacity:0.435" fill="#000000" d="M 108.5,260.5 C 107.833,261.167 107.833,261.167 108.5,260.5 Z"/></g>
<g><path style="opacity:0.435" fill="#000000" d="M 710.5,260.5 C 711.167,260.5 711.5,260.833 711.5,261.5C 711.167,261.167 710.833,260.833 710.5,260.5 Z"/></g>
<g><path style="opacity:0.314" fill="#000000" d="M 107.5,261.5 C 106.833,262.167 106.833,262.167 107.5,261.5 Z"/></g>
<g><path style="opacity:0.314" fill="#000000" d="M 711.5,261.5 C 712.167,261.5 712.5,261.833 712.5,262.5C 712.167,262.167 711.833,261.833 711.5,261.5 Z"/></g>
<g><path style="opacity:0.208" fill="#000000" d="M 106.5,262.5 C 105.833,263.167 105.833,263.167 106.5,262.5 Z"/></g>
<g><path style="opacity:0.208" fill="#000000" d="M 712.5,262.5 C 713.167,262.5 713.5,262.833 713.5,263.5C 713.167,263.167 712.833,262.833 712.5,262.5 Z"/></g>
<g><path style="opacity:0.238" fill="#000000" d="M 105.5,263.5 C 102.461,267.861 99.1275,271.861 95.5,275.5C 95.8923,273.821 96.3923,272.154 97,270.5C 100.067,268.249 102.9,265.916 105.5,263.5 Z"/></g>
<g><path style="opacity:0.238" fill="#000000" d="M 713.5,263.5 C 715.696,264.838 717.696,266.505 719.5,268.5C 721.936,270.079 723.269,272.412 723.5,275.5C 719.873,271.861 716.539,267.861 713.5,263.5 Z"/></g>
<g><path style="opacity:0.004" fill="#000000" d="M 719.5,267.5 C 720.833,268.167 720.833,268.167 719.5,267.5 Z"/></g>
<g><path style="opacity:0.435" fill="#000000" d="M 95.5,275.5 C 94.8333,276.167 94.8333,276.167 95.5,275.5 Z"/></g>
<g><path style="opacity:0.435" fill="#000000" d="M 723.5,275.5 C 724.167,275.5 724.5,275.833 724.5,276.5C 724.167,276.167 723.833,275.833 723.5,275.5 Z"/></g>
<g><path style="opacity:0.553" fill="#000000" d="M 94.5,276.5 C 93.8333,277.167 93.8333,277.167 94.5,276.5 Z"/></g>
<g><path style="opacity:0.553" fill="#000000" d="M 724.5,276.5 C 725.167,276.5 725.5,276.833 725.5,277.5C 725.167,277.167 724.833,276.833 724.5,276.5 Z"/></g>
<g><path style="opacity:0.639" fill="#000000" d="M 93.5,277.5 C 92.8333,278.167 92.8333,278.167 93.5,277.5 Z"/></g>
<g><path style="opacity:0.639" fill="#000000" d="M 725.5,277.5 C 726.167,277.5 726.5,277.833 726.5,278.5C 726.167,278.167 725.833,277.833 725.5,277.5 Z"/></g>
<g><path style="opacity:0.397" fill="#000000" d="M 92.5,278.5 C 92.6716,279.492 92.3382,280.158 91.5,280.5C 89.9689,279.075 90.3023,278.409 92.5,278.5 Z"/></g>
<g><path style="opacity:0.375" fill="#000000" d="M 726.5,278.5 C 728.698,278.409 729.031,279.075 727.5,280.5C 726.662,280.158 726.328,279.492 726.5,278.5 Z"/></g>
<g><path style="opacity:0.475" fill="#000000" d="M 91.5,280.5 C 90.8333,281.167 90.8333,281.167 91.5,280.5 Z"/></g>
<g><path style="opacity:0.475" fill="#000000" d="M 727.5,280.5 C 728.167,280.5 728.5,280.833 728.5,281.5C 728.167,281.167 727.833,280.833 727.5,280.5 Z"/></g>
<g><path style="opacity:0.228" fill="#000000" d="M 90.5,281.5 C 89.5569,284.109 87.8903,286.109 85.5,287.5C 85.4467,283.862 87.1134,281.862 90.5,281.5 Z"/></g>
<g><path style="opacity:0.23" fill="#000000" d="M 728.5,281.5 C 731.887,281.862 733.553,283.862 733.5,287.5C 731.11,286.109 729.443,284.109 728.5,281.5 Z"/></g>
<g><path style="opacity:0.527" fill="#000000" d="M 85.5,287.5 C 85.6716,288.492 85.3382,289.158 84.5,289.5C 84.3284,288.508 84.6618,287.842 85.5,287.5 Z"/></g>
<g><path style="opacity:0.527" fill="#000000" d="M 733.5,287.5 C 734.525,287.897 734.692,288.563 734,289.5C 733.536,288.906 733.369,288.239 733.5,287.5 Z"/></g>
<g><path style="opacity:0.269" fill="#000000" d="M 83.5,290.5 C 77.821,298.538 72.1543,306.538 66.5,314.5C 66.7553,311.984 67.5886,309.65 69,307.5C 73.749,302.325 77.749,296.659 81,290.5C 81.7697,289.402 82.603,289.402 83.5,290.5 Z"/></g>
<g><path style="opacity:0.549" fill="#000000" d="M 84.5,289.5 C 83.8333,290.167 83.8333,290.167 84.5,289.5 Z"/></g>
<g><path style="opacity:0.269" fill="#000000" d="M 752.5,314.5 C 746.977,306.645 741.311,298.812 735.5,291C 736,290.5 736.5,290 737,289.5C 740.832,295.819 745.166,301.819 750,307.5C 751.411,309.65 752.245,311.984 752.5,314.5 Z"/></g>
<g><path style="opacity:0.963" fill="#000000" d="M 1235.5,306.5 C 1261.35,304.181 1286.35,307.681 1310.5,317C 1338.66,329.498 1355.16,350.998 1360,381.5C 1363.81,435.36 1339.31,468.194 1286.5,480C 1260.27,484.117 1234.27,483.117 1208.5,477C 1168.96,463.918 1147.96,436.585 1145.5,395C 1148.22,350.936 1170.89,322.936 1213.5,311C 1221.04,309.813 1228.37,308.313 1235.5,306.5 Z M 1245.5,341.5 C 1262.34,340.171 1278.34,343.671 1293.5,352C 1309.95,365.563 1316.79,383.063 1314,404.5C 1308.87,426.96 1295.04,440.794 1272.5,446C 1250.16,450.929 1229.49,447.263 1210.5,435C 1197.98,424.63 1191.65,411.296 1191.5,395C 1192.47,371.366 1203.8,355.032 1225.5,346C 1232.26,344.285 1238.93,342.785 1245.5,341.5 Z"/></g>
<g><path style="opacity:0.974" fill="#000000" d="M 1506.5,306.5 C 1527.79,304.82 1547.12,309.987 1564.5,322C 1573.87,330.359 1580.37,340.526 1584,352.5C 1600.64,322.336 1626.31,307.003 1661,306.5C 1687.17,305.586 1707.83,315.586 1723,336.5C 1727.6,344.966 1730.6,353.966 1732,363.5C 1732.5,401.832 1732.67,440.165 1732.5,478.5C 1717.83,478.5 1703.17,478.5 1688.5,478.5C 1688.67,446.832 1688.5,415.165 1688,383.5C 1687.43,355.103 1672.93,341.77 1644.5,343.5C 1620.89,343.225 1601.72,352.225 1587,370.5C 1586.5,406.498 1586.33,442.498 1586.5,478.5C 1571.5,478.5 1556.5,478.5 1541.5,478.5C 1541.67,443.498 1541.5,408.498 1541,373.5C 1539.25,358.424 1531.09,348.924 1516.5,345C 1488.28,338.967 1464.11,346.133 1444,366.5C 1441.27,370.241 1438.93,374.241 1437,378.5C 1436.5,411.832 1436.33,445.165 1436.5,478.5C 1421.5,478.5 1406.5,478.5 1391.5,478.5C 1391.5,422.5 1391.5,366.5 1391.5,310.5C 1406.5,310.5 1421.5,310.5 1436.5,310.5C 1436.33,325.17 1436.5,339.837 1437,354.5C 1451.11,325.204 1474.27,309.204 1506.5,306.5 Z"/></g>
<g><path style="opacity:0.959" fill="#000000" d="M 1879.5,306.5 C 1914.79,302.643 1943.96,313.976 1967,340.5C 1982.14,361.829 1987.47,385.495 1983,411.5C 1975.37,446.799 1954.2,469.632 1919.5,480C 1895.15,485.659 1871.82,482.992 1849.5,472C 1834.48,461.461 1823.64,447.627 1817,430.5C 1816.67,468.833 1816.33,507.167 1816,545.5C 1801.24,546.491 1786.41,546.824 1771.5,546.5C 1771.17,467.831 1771.5,389.164 1772.5,310.5C 1786.17,309.167 1799.83,309.167 1813.5,310.5C 1814.89,324.811 1816.06,339.145 1817,353.5C 1828.86,325.797 1849.69,310.13 1879.5,306.5 Z M 1870.5,341.5 C 1885.91,340.788 1900.57,343.622 1914.5,350C 1930.32,360.64 1938.32,375.64 1938.5,395C 1937.09,420.743 1924.09,437.41 1899.5,445C 1877.58,449.758 1856.91,446.758 1837.5,436C 1819.76,422.472 1813.26,404.639 1818,382.5C 1823.09,362.741 1835.59,350.241 1855.5,345C 1860.73,344.248 1865.73,343.081 1870.5,341.5 Z"/></g>
<g><path style="opacity:0.961" fill="#000000" d="M 2091.5,306.5 C 2110.52,304.965 2128.52,308.465 2145.5,317C 2159.26,326.024 2169.09,338.191 2175,353.5C 2175.5,339.171 2175.67,324.837 2175.5,310.5C 2190.5,310.5 2205.5,310.5 2220.5,310.5C 2220.5,366.5 2220.5,422.5 2220.5,478.5C 2206.5,478.5 2192.5,478.5 2178.5,478.5C 2176.12,462.941 2174.96,447.274 2175,431.5C 2155.45,471.859 2123.29,488.359 2078.5,481C 2033.7,470.028 2009.7,441.528 2006.5,395.5C 2007.92,355.131 2027.26,327.298 2064.5,312C 2073.45,309.178 2082.45,307.344 2091.5,306.5 Z M 2108.5,341.5 C 2124.42,341.117 2139.42,344.617 2153.5,352C 2172.14,365.911 2178.98,384.411 2174,407.5C 2167.28,429.547 2152.44,442.38 2129.5,446C 2107.97,450.526 2088.31,446.526 2070.5,434C 2057.27,421.328 2051.77,405.828 2054,387.5C 2056.89,367.897 2067.39,354.063 2085.5,346C 2093.12,343.622 2100.79,342.122 2108.5,341.5 Z"/></g>
<g><path style="opacity:0.955" fill="#000000" d="M 2319.5,306.5 C 2329.84,306.334 2340.17,306.5 2350.5,307C 2369.33,308.378 2385.49,315.545 2399,328.5C 2407.28,339.349 2411.12,351.516 2410.5,365C 2397.49,365.833 2384.49,365.666 2371.5,364.5C 2368.1,350.444 2359.1,342.944 2344.5,342C 2332.69,340.591 2321.36,342.258 2310.5,347C 2303.2,352.553 2301.7,359.386 2306,367.5C 2310.86,371.512 2316.36,374.346 2322.5,376C 2339.91,379.283 2357.25,382.95 2374.5,387C 2382.06,389.447 2389.39,392.447 2396.5,396C 2415.25,408.455 2421.42,425.621 2415,447.5C 2409.13,460.367 2399.63,469.534 2386.5,475C 2354.04,486.637 2321.71,486.303 2289.5,474C 2268.83,464.507 2256.17,448.673 2251.5,426.5C 2251.62,425.106 2251.95,423.772 2252.5,422.5C 2266.15,421.334 2279.82,421.167 2293.5,422C 2299.09,434.251 2308.42,442.251 2321.5,446C 2334.6,448.28 2347.6,447.947 2360.5,445C 2368.62,440.581 2371.79,433.747 2370,424.5C 2368.94,421.438 2367.11,418.938 2364.5,417C 2359.05,414.405 2353.38,412.405 2347.5,411C 2325.84,408.669 2304.84,403.669 2284.5,396C 2259.92,384.265 2252.08,365.432 2261,339.5C 2267.33,328.166 2276.5,319.999 2288.5,315C 2298.76,311.356 2309.09,308.522 2319.5,306.5 Z"/></g>
<g><path style="opacity:0.955" fill="#000000" d="M 2509.5,306.5 C 2528.98,304.904 2547.98,307.071 2566.5,313C 2590.02,322.497 2601.36,339.83 2600.5,365C 2587.49,365.833 2574.49,365.666 2561.5,364.5C 2558.08,350.44 2549.08,342.94 2534.5,342C 2523.5,340.715 2512.83,342.048 2502.5,346C 2495.53,349.772 2492.7,355.606 2494,363.5C 2494.91,366.576 2496.74,368.909 2499.5,370.5C 2503.71,372.626 2508.04,374.459 2512.5,376C 2533.89,379.477 2554.89,384.477 2575.5,391C 2602.34,400.854 2612.18,419.687 2605,447.5C 2598.22,462.279 2587.05,472.113 2571.5,477C 2540.49,486.499 2509.82,485.499 2479.5,474C 2458.84,464.515 2446.18,448.681 2441.5,426.5C 2441.62,425.106 2441.95,423.772 2442.5,422.5C 2456.15,421.334 2469.82,421.167 2483.5,422C 2489.84,436.329 2500.84,444.663 2516.5,447C 2527.22,447.875 2537.88,447.541 2548.5,446C 2557.95,441.933 2561.79,434.767 2560,424.5C 2558.97,421.461 2557.14,418.961 2554.5,417C 2549.05,414.405 2543.38,412.405 2537.5,411C 2515.84,408.669 2494.84,403.669 2474.5,396C 2449.92,384.273 2442.08,365.44 2451,339.5C 2457.34,328.233 2466.51,320.066 2478.5,315C 2488.76,311.356 2499.09,308.522 2509.5,306.5 Z"/></g>
<g><path style="opacity:0.251" fill="#000000" d="M 66.5,314.5 C 66.1667,315.5 65.5,316.167 64.5,316.5C 64.5,315.167 65.1667,314.5 66.5,314.5 Z"/></g>
<g><path style="opacity:0.251" fill="#000000" d="M 752.5,314.5 C 753.833,314.5 754.5,315.167 754.5,316.5C 753.5,316.167 752.833,315.5 752.5,314.5 Z"/></g>
<g><path style="opacity:0.302" fill="#000000" d="M 64.5,316.5 C 62.6849,322.292 59.6849,327.292 55.5,331.5C 55.3893,330.883 55.056,330.383 54.5,330C 57.2157,326.729 59.549,323.229 61.5,319.5C 62.2719,318.306 63.2719,317.306 64.5,316.5 Z"/></g>
<g><path style="opacity:0.302" fill="#000000" d="M 754.5,316.5 C 755.728,317.306 756.728,318.306 757.5,319.5C 759.451,323.229 761.784,326.729 764.5,330C 763.944,330.383 763.611,330.883 763.5,331.5C 759.315,327.292 756.315,322.292 754.5,316.5 Z"/></g>
<g><path style="opacity:0.004" fill="#000000" d="M 61.5,319.5 C 60.8333,318.167 60.8333,318.167 61.5,319.5 Z"/></g>
<g><path style="opacity:0.004" fill="#000000" d="M 757.5,318.5 C 758.833,319.167 758.833,319.167 757.5,318.5 Z"/></g>
<g><path style="opacity:0.344" fill="#000000" d="M 55.5,331.5 C 55.6716,332.492 55.3382,333.158 54.5,333.5C 52.9689,332.075 53.3023,331.409 55.5,331.5 Z"/></g>
<g><path style="opacity:0.344" fill="#000000" d="M 763.5,331.5 C 764.492,331.328 765.158,331.662 765.5,332.5C 764.833,332.5 764.5,332.833 764.5,333.5C 763.662,333.158 763.328,332.492 763.5,331.5 Z"/></g>
<g><path style="opacity:0.004" fill="#000000" d="M 765.5,332.5 C 766.833,333.167 766.833,333.167 765.5,332.5 Z"/></g>
<g><path style="opacity:0.449" fill="#000000" d="M 54.5,333.5 C 54.6716,334.492 54.3382,335.158 53.5,335.5C 53.3284,334.508 53.6618,333.842 54.5,333.5 Z"/></g>
<g><path style="opacity:0.449" fill="#000000" d="M 764.5,333.5 C 764.833,333.5 765.167,333.5 765.5,333.5C 765.5,334.167 765.5,334.833 765.5,335.5C 764.662,335.158 764.328,334.492 764.5,333.5 Z"/></g>
<g><path style="opacity:0.296" fill="#000000" d="M 53.5,335.5 C 50.6704,341.83 47.337,347.83 43.5,353.5C 43.3646,349.819 44.6979,346.986 47.5,345C 47.1667,344.667 46.8333,344.333 46.5,344C 48.7353,340.946 51.0686,338.113 53.5,335.5 Z"/></g>
<g><path style="opacity:0.296" fill="#000000" d="M 765.5,335.5 C 768.146,338.159 770.479,341.159 772.5,344.5C 771.167,344.833 771.167,345.167 772.5,345.5C 773.662,346.678 774.662,347.845 775.5,349C 775.034,350.299 775.034,351.799 775.5,353.5C 771.663,347.83 768.33,341.83 765.5,335.5 Z"/></g>
<g><path style="opacity:0.004" fill="#000000" d="M 772.5,344.5 C 773.833,345.167 773.833,345.167 772.5,344.5 Z"/></g>
<g><path style="opacity:0.48" fill="#000000" d="M 43.5,353.5 C 43.6716,354.492 43.3382,355.158 42.5,355.5C 42.3284,354.508 42.6618,353.842 43.5,353.5 Z"/></g>
<g><path style="opacity:0.48" fill="#000000" d="M 775.5,353.5 C 776.338,353.842 776.672,354.508 776.5,355.5C 775.662,355.158 775.328,354.492 775.5,353.5 Z"/></g>
<g><path style="opacity:0.286" fill="#000000" d="M 42.5,355.5 C 38.0183,365.801 33.5183,376.134 29,386.5C 28.5,386 28,385.5 27.5,385C 32.1467,374.872 37.1467,365.038 42.5,355.5 Z"/></g>
<g><path style="opacity:0.277" fill="#000000" d="M 776.5,355.5 C 781.853,365.038 786.853,374.872 791.5,385C 791,385.5 790.5,386 790,386.5C 785.643,376.419 781.143,366.085 776.5,355.5 Z"/></g>
<g><path style="opacity:0.278" fill="#000000" d="M 27.5,389.5 C 26.3857,387.647 27.0524,387.147 29.5,388C 28.9558,388.717 28.2891,389.217 27.5,389.5 Z"/></g>
<g><path style="opacity:0.278" fill="#000000" d="M 791.5,389.5 C 788.863,387.846 789.197,387.346 792.5,388C 791.944,388.383 791.611,388.883 791.5,389.5 Z"/></g>
<g><path style="opacity:0.137" fill="#000000" d="M 27.5,389.5 C 26.8333,390.167 26.8333,390.167 27.5,389.5 Z"/></g>
<g><path style="opacity:0.137" fill="#000000" d="M 791.5,389.5 C 792.833,390.167 792.833,390.167 791.5,389.5 Z"/></g>
<g><path style="opacity:0.031" fill="#000000" d="M 25.5,392.5 C 26.8333,393.167 26.8333,393.167 25.5,392.5 Z"/></g>
<g><path style="opacity:0.031" fill="#000000" d="M 793.5,393.5 C 792.833,392.167 792.833,392.167 793.5,393.5 Z"/></g>
<g><path style="opacity:0.327" fill="#000000" d="M 25.5,393.5 C 23.5903,403.287 20.5903,412.62 16.5,421.5C 16.9863,419.193 16.9863,417.027 16.5,415C 19.2747,407.728 22.2747,400.562 25.5,393.5 Z"/></g>
<g><path style="opacity:0.325" fill="#000000" d="M 793.5,393.5 C 796.725,400.562 799.725,407.728 802.5,415C 802.014,417.027 802.014,419.193 802.5,421.5C 798.41,412.62 795.41,403.287 793.5,393.5 Z"/></g>
<g><path style="opacity:0.32" fill="#000000" d="M 16.5,421.5 C 14.5379,430.368 12.2045,439.035 9.5,447.5C 8.99353,443.993 9.66019,440.826 11.5,438C 11.1667,437.667 10.8333,437.333 10.5,437C 12.588,431.767 14.588,426.6 16.5,421.5 Z"/></g>
<g><path style="opacity:0.317" fill="#000000" d="M 802.5,421.5 C 804.412,426.6 806.412,431.767 808.5,437C 807.346,437.914 807.513,438.747 809,439.5C 809.497,442.146 809.664,444.813 809.5,447.5C 806.795,439.035 804.462,430.368 802.5,421.5 Z"/></g>
<g><path style="opacity:0.252" fill="#000000" d="M 9.5,447.5 C 5.7616,465.915 2.92827,484.248 1,502.5C 1.24594,485.943 3.41261,469.61 7.5,453.5C 7.39184,452.558 7.05851,451.725 6.5,451C 7.81414,450.015 8.81414,448.848 9.5,447.5 Z"/></g>
<g><path style="opacity:0.253" fill="#000000" d="M 809.5,447.5 C 810.186,448.848 811.186,450.015 812.5,451C 811.941,451.725 811.608,452.558 811.5,453.5C 815.587,469.61 817.754,485.943 818,502.5C 816.072,484.248 813.238,465.915 809.5,447.5 Z"/></g>
<g><path style="opacity:0.006" fill="#000000" d="M -0.5,504.5 C 0.833333,505.833 0.833333,507.167 -0.5,508.5C -0.5,507.167 -0.5,505.833 -0.5,504.5 Z"/></g>
<g><path style="opacity:0.006" fill="#000000" d="M 818.5,504.5 C 819.598,505.601 819.765,506.934 819,508.5C 818.51,507.207 818.343,505.873 818.5,504.5 Z"/></g>
<g><path style="opacity:0.341" fill="#000000" d="M -0.5,513.5 C 0.833333,514.167 0.833333,514.167 -0.5,513.5 Z"/></g>
<g><path style="opacity:0.341" fill="#000000" d="M 818.5,513.5 C 819.833,514.167 819.833,514.167 818.5,513.5 Z"/></g>
<g><path style="opacity:0.95" fill="#000000" d="M 3288.5,519.5 C 3298.31,518.927 3307.98,519.76 3317.5,522C 3332.73,530.031 3336.57,541.864 3329,557.5C 3324.35,562.913 3318.51,566.413 3311.5,568C 3301.35,569.125 3291.35,568.458 3281.5,566C 3267.65,559.802 3262.82,549.302 3267,534.5C 3269.5,529.333 3273.33,525.5 3278.5,523C 3282.05,522.122 3285.39,520.956 3288.5,519.5 Z"/></g>
<g><path style="opacity:0.97" fill="#000000" d="M 851.5,520.5 C 893.501,520.333 935.501,520.5 977.5,521C 1013.54,520.677 1045.21,532.011 1072.5,555C 1094.81,578.551 1106.64,606.717 1108,639.5C 1110.68,674.462 1102.01,706.128 1082,734.5C 1058.18,760.324 1028.68,774.824 993.5,778C 945.5,778.667 897.5,778.667 849.5,778C 848.335,692.903 848.168,607.737 849,522.5C 849.995,521.934 850.828,521.267 851.5,520.5 Z M 911.5,569.5 C 935.891,568.919 960.225,569.753 984.5,572C 1025.95,580.973 1045.95,606.806 1044.5,649.5C 1044.98,697.177 1021.65,723.677 974.5,729C 953.503,729.5 932.503,729.667 911.5,729.5C 911.5,676.167 911.5,622.833 911.5,569.5 Z"/></g>
<g><path style="opacity:0.962" fill="#000000" d="M 2794.5,530.5 C 2797.08,530.083 2799.25,530.75 2801,532.5C 2801.64,551.245 2801.64,569.912 2801,588.5C 2816.42,589.491 2831.92,589.824 2847.5,589.5C 2847.83,604.515 2847.5,619.515 2846.5,634.5C 2831.64,635.827 2816.8,635.827 2802,634.5C 2801.5,635 2801,635.5 2800.5,636C 2801.33,663.761 2801.83,691.595 2802,719.5C 2803.7,723.205 2806.53,725.372 2810.5,726C 2822.55,726.187 2834.55,726.687 2846.5,727.5C 2847.82,744.397 2847.82,761.231 2846.5,778C 2823.83,778.667 2801.17,778.667 2778.5,778C 2753.92,772.405 2741.42,756.905 2741,731.5C 2740.67,699.167 2740.33,666.833 2740,634.5C 2728.54,635.782 2717.04,635.782 2705.5,634.5C 2705.33,619.83 2705.5,605.163 2706,590.5C 2717.33,589.833 2728.67,589.167 2740,588.5C 2740.33,573.167 2740.67,557.833 2741,542.5C 2742.49,540.996 2744.32,540.163 2746.5,540C 2762.69,537.112 2778.69,533.945 2794.5,530.5 Z"/></g>
<g><path style="opacity:0.963" fill="#000000" d="M 3191.5,530.5 C 3193.83,530.5 3196.17,530.5 3198.5,530.5C 3199.48,549.841 3199.82,569.008 3199.5,588C 3242.74,588.17 3285.9,588.67 3329,589.5C 3329.83,652.404 3329.66,715.237 3328.5,778C 3308.59,778.826 3288.76,778.659 3269,777.5C 3269,729.691 3268.33,682.024 3267,634.5C 3244.67,635.833 3222.33,635.833 3200,634.5C 3199.5,635 3199,635.5 3198.5,636C 3199.33,663.428 3199.83,690.928 3200,718.5C 3200.44,722.567 3202.61,725.067 3206.5,726C 3219.41,726.177 3232.24,726.677 3245,727.5C 3245.67,744.167 3245.67,760.833 3245,777.5C 3223.24,778.66 3201.41,778.827 3179.5,778C 3152.69,773.522 3139.19,757.689 3139,730.5C 3138.17,698.791 3138.34,667.125 3139.5,635.5C 3129.01,635.608 3118.34,635.441 3107.5,635C 3105.94,634.682 3104.77,633.849 3104,632.5C 3103.03,618.073 3103.37,603.74 3105,589.5C 3116.58,588.99 3128.08,588.157 3139.5,587C 3138.2,571.876 3138.2,556.709 3139.5,541.5C 3157.02,538.064 3174.36,534.397 3191.5,530.5 Z"/></g>
<g><path style="opacity:0.396" fill="#000000" d="M -0.5,564.5 C 0.833333,565.167 0.833333,565.167 -0.5,564.5 Z"/></g>
<g><path style="opacity:0.341" fill="#000000" d="M 818.5,564.5 C 819.833,565.167 819.833,565.167 818.5,564.5 Z"/></g>
<g><path style="opacity:0.006" fill="#000000" d="M -0.5,570.5 C 0.833333,571.833 0.833333,573.167 -0.5,574.5C -0.5,573.167 -0.5,571.833 -0.5,570.5 Z"/></g>
<g><path style="opacity:0.006" fill="#000000" d="M 818.5,570.5 C 819.598,571.601 819.765,572.934 819,574.5C 818.51,573.207 818.343,571.873 818.5,570.5 Z"/></g>
<g><path style="opacity:0.253" fill="#000000" d="M 9.5,631.5 C 8.81414,630.152 7.81414,628.985 6.5,628C 7.05851,627.275 7.39184,626.442 7.5,625.5C 3.41261,609.39 1.24594,593.057 1,576.5C 2.92827,594.752 5.7616,613.085 9.5,631.5 Z"/></g>
<g><path style="opacity:0.252" fill="#000000" d="M 809.5,631.5 C 813.238,613.085 816.072,594.752 818,576.5C 817.754,593.057 815.587,609.39 811.5,625.5C 811.608,626.442 811.941,627.275 812.5,628C 811.186,628.985 810.186,630.152 809.5,631.5 Z"/></g>
<g><path style="opacity:0.972" fill="#000000" d="M 1221.5,585.5 C 1257.47,581.455 1290.47,589.288 1320.5,609C 1346.79,632.194 1357.96,661.36 1354,696.5C 1346.77,740.736 1321.27,767.903 1277.5,778C 1250.01,783.203 1222.68,782.536 1195.5,776C 1148.47,760.258 1125.63,727.425 1127,677.5C 1130.39,635.449 1151.89,607.283 1191.5,593C 1201.43,589.654 1211.43,587.154 1221.5,585.5 Z M 1234.5,632.5 C 1271.39,630.231 1291.39,647.397 1294.5,684C 1292.29,717.621 1274.29,734.788 1240.5,735.5C 1203.47,733.303 1185.97,713.636 1188,676.5C 1191.75,649.248 1207.25,634.582 1234.5,632.5 Z"/></g>
<g><path style="opacity:0.969" fill="#000000" d="M 1475.5,585.5 C 1502.91,583.948 1528.91,589.115 1553.5,601C 1576.12,614.09 1588.79,633.59 1591.5,659.5C 1571.5,659.5 1551.5,659.5 1531.5,659.5C 1528.61,650.776 1523.28,643.942 1515.5,639C 1498.26,631.544 1480.59,630.544 1462.5,636C 1442.17,645.282 1432.17,661.282 1432.5,684C 1432.41,710.526 1445.08,727.193 1470.5,734C 1491.7,738.889 1510.2,734.056 1526,719.5C 1528.56,715.538 1530.73,711.371 1532.5,707C 1552.5,706.5 1572.5,706.333 1592.5,706.5C 1590.32,726.369 1581.65,742.869 1566.5,756C 1541.63,773.683 1513.8,782.183 1483,781.5C 1450.48,782.774 1422.15,772.774 1398,751.5C 1380.35,732.247 1371.52,709.414 1371.5,683C 1373.76,635.745 1397.43,605.078 1442.5,591C 1453.53,588.422 1464.53,586.589 1475.5,585.5 Z"/></g>
<g><path style="opacity:0.981" fill="#000000" d="M 1980.5,585.5 C 2005.47,583.763 2026.64,591.763 2044,609.5C 2048.49,614.806 2051.65,620.806 2053.5,627.5C 2054.82,627.67 2055.99,627.337 2057,626.5C 2072.82,598.498 2096.98,584.831 2129.5,585.5C 2172.38,585.554 2197.88,606.554 2206,648.5C 2207.46,691.803 2207.96,735.137 2207.5,778.5C 2187.83,778.5 2168.17,778.5 2148.5,778.5C 2148.67,746.165 2148.5,713.832 2148,681.5C 2148.39,668.799 2145.73,656.799 2140,645.5C 2136.21,639.852 2131.05,636.018 2124.5,634C 2108.36,629.557 2093.36,631.89 2079.5,641C 2069.3,650.574 2063.8,662.407 2063,676.5C 2062.5,710.498 2062.33,744.498 2062.5,778.5C 2042.5,778.5 2022.5,778.5 2002.5,778.5C 2002.67,742.498 2002.5,706.498 2002,670.5C 1997.87,637.831 1979.71,625.664 1947.5,634C 1928.72,641.807 1918.88,655.974 1918,676.5C 1917.5,710.498 1917.33,744.498 1917.5,778.5C 1897.5,778.5 1877.5,778.5 1857.5,778.5C 1857.5,715.5 1857.5,652.5 1857.5,589.5C 1876.83,589.5 1896.17,589.5 1915.5,589.5C 1916.22,600.163 1916.88,610.83 1917.5,621.5C 1920.89,619.488 1923.39,616.488 1925,612.5C 1939.61,595.361 1958.11,586.361 1980.5,585.5 Z"/></g>
<g><path style="opacity:0.963" fill="#000000" d="M 2334.5,585.5 C 2360.06,584.564 2384.39,589.397 2407.5,600C 2436.27,616.35 2451.77,641.184 2454,674.5C 2454.9,682.246 2454.56,689.913 2453,697.5C 2399.9,698.497 2346.74,698.831 2293.5,698.5C 2294.73,717.911 2304.73,730.411 2323.5,736C 2338.17,739.333 2352.84,739.333 2367.5,736C 2378.69,733.257 2387.03,726.923 2392.5,717C 2411.83,716.333 2431.17,716.333 2450.5,717C 2451.06,717.725 2451.39,718.558 2451.5,719.5C 2445.21,741.92 2431.54,758.086 2410.5,768C 2395.57,774.982 2379.91,779.315 2363.5,781C 2340.08,783.176 2317.08,781.176 2294.5,775C 2247.28,756.769 2225.78,722.269 2230,671.5C 2236.01,630.493 2258.84,603.993 2298.5,592C 2310.51,589.172 2322.51,587.006 2334.5,585.5 Z M 2341.5,626.5 C 2355.19,626.534 2367.86,630.034 2379.5,637C 2387.44,644.046 2391.77,652.88 2392.5,663.5C 2359.17,663.5 2325.83,663.5 2292.5,663.5C 2295.5,646.661 2305.17,635.494 2321.5,630C 2328.31,628.864 2334.98,627.698 2341.5,626.5 Z"/></g>
<g><path style="opacity:0.974" fill="#000000" d="M 2601.5,585.5 C 2624.33,583.629 2645.33,588.796 2664.5,601C 2680.64,615.124 2689.48,632.957 2691,654.5C 2691.5,695.832 2691.67,737.165 2691.5,778.5C 2671.59,778.826 2651.76,778.493 2632,777.5C 2631.67,746.833 2631.33,716.167 2631,685.5C 2633.09,644.247 2613.92,627.08 2573.5,634C 2551.52,641.656 2539.69,657.156 2538,680.5C 2537.5,713.165 2537.33,745.832 2537.5,778.5C 2517.5,778.5 2497.5,778.5 2477.5,778.5C 2477.5,715.5 2477.5,652.5 2477.5,589.5C 2496.84,589.167 2516.18,589.5 2535.5,590.5C 2536.7,600.774 2537.37,611.107 2537.5,621.5C 2538.68,621.719 2539.68,621.386 2540.5,620.5C 2551.59,603.271 2567.25,592.437 2587.5,588C 2592.29,587.098 2596.96,586.265 2601.5,585.5 Z"/></g>
<g><path style="opacity:0.971" fill="#000000" d="M 2947.5,585.5 C 2970.8,583.985 2992.13,589.485 3011.5,602C 3016.82,607.49 3022.15,612.656 3027.5,617.5C 3027.34,608.085 3028,598.752 3029.5,589.5C 3048.4,588.175 3067.23,588.175 3086,589.5C 3086.67,652.167 3086.67,714.833 3086,777.5C 3066.24,778.659 3046.41,778.826 3026.5,778C 3025.68,768.244 3025.18,758.41 3025,748.5C 3011.48,766.349 2993.64,777.182 2971.5,781C 2935.12,786.548 2904.96,775.715 2881,748.5C 2867.98,728.94 2861.48,707.274 2861.5,683.5C 2861.12,656.948 2869.29,633.615 2886,613.5C 2903.19,596.988 2923.69,587.655 2947.5,585.5 Z M 2961.5,632.5 C 3013.83,631.347 3034,656.347 3022,707.5C 3007.73,731.204 2986.9,740.037 2959.5,734C 2943.09,730.58 2931.92,721.08 2926,705.5C 2921.37,690.838 2921.37,676.171 2926,661.5C 2932.91,645.751 2944.74,636.085 2961.5,632.5 Z"/></g>
<g><path style="opacity:0.972" fill="#000000" d="M 3445.5,585.5 C 3481.54,581.382 3514.54,589.216 3544.5,609C 3568.1,628.314 3579.43,653.314 3578.5,684C 3577.21,730.958 3554.21,761.624 3509.5,776C 3479.48,783.332 3449.48,783.332 3419.5,776C 3375.62,761.106 3352.62,730.439 3350.5,684C 3352.54,637.864 3375.21,607.197 3418.5,592C 3427.5,589.239 3436.5,587.073 3445.5,585.5 Z M 3459.5,632.5 C 3480.15,630.176 3496.99,636.843 3510,652.5C 3521.28,673.176 3521.28,693.843 3510,714.5C 3498.46,728.656 3483.46,735.656 3465,735.5C 3425.15,732.679 3407.82,711.679 3413,672.5C 3418.44,647.561 3433.94,634.228 3459.5,632.5 Z"/></g>
<g><path style="opacity:0.969" fill="#000000" d="M 3725.5,585.5 C 3746.16,583.864 3765.49,588.03 3783.5,598C 3799.82,609.682 3809.65,625.515 3813,645.5C 3813.85,651.814 3814.51,658.147 3815,664.5C 3815.67,702.167 3815.67,739.833 3815,777.5C 3795.24,778.493 3775.41,778.826 3755.5,778.5C 3755.67,747.832 3755.5,717.165 3755,686.5C 3756.23,643.051 3735.73,625.885 3693.5,635C 3686.58,637.706 3680.41,641.54 3675,646.5C 3666.51,655.82 3662.18,666.82 3662,679.5C 3661.67,712.167 3661.33,744.833 3661,777.5C 3641,778.833 3621,778.833 3601,777.5C 3600.33,715.167 3600.33,652.833 3601,590.5C 3620.42,589.507 3639.92,589.174 3659.5,589.5C 3659.75,599.509 3660.25,609.509 3661,619.5C 3661.31,620.308 3661.81,620.975 3662.5,621.5C 3677.68,599.408 3698.68,587.408 3725.5,585.5 Z"/></g>
<g><path style="opacity:0.965" fill="#000000" d="M 1611.5,588.5 C 1630.74,588.174 1649.91,588.507 1669,589.5C 1670.32,623.415 1670.99,657.415 1671,691.5C 1672.24,724.732 1689.4,739.232 1722.5,735C 1746.92,729.578 1760.42,714.412 1763,689.5C 1763.17,656.162 1763.67,622.828 1764.5,589.5C 1784.17,588.167 1803.83,588.167 1823.5,589.5C 1824.67,652.164 1824.83,714.831 1824,777.5C 1804.91,778.659 1785.74,778.826 1766.5,778C 1765.18,767.2 1763.85,756.366 1762.5,745.5C 1748.85,765.603 1729.85,777.437 1705.5,781C 1683.36,783.477 1662.36,779.81 1642.5,770C 1631.36,763.507 1623.19,754.34 1618,742.5C 1614.73,734.771 1612.4,726.771 1611,718.5C 1609.9,695.188 1609.4,671.855 1609.5,648.5C 1609.51,628.283 1610.18,608.283 1611.5,588.5 Z"/></g>
<g><path style="opacity:0.32" fill="#000000" d="M 9.5,631.5 C 12.2045,639.965 14.5379,648.632 16.5,657.5C 14.588,652.4 12.588,647.233 10.5,642C 11.6537,641.086 11.487,640.253 10,639.5C 9.50258,636.854 9.33591,634.187 9.5,631.5 Z"/></g>
<g><path style="opacity:0.32" fill="#000000" d="M 809.5,631.5 C 810.006,635.007 809.34,638.174 807.5,641C 807.833,641.333 808.167,641.667 808.5,642C 806.412,647.233 804.412,652.4 802.5,657.5C 804.462,648.632 806.795,639.965 809.5,631.5 Z"/></g>
<g><path style="opacity:0.325" fill="#000000" d="M 16.5,657.5 C 20.5903,666.38 23.5903,675.713 25.5,685.5C 22.2747,678.438 19.2747,671.272 16.5,664C 16.9863,661.973 16.9863,659.807 16.5,657.5 Z"/></g>
<g><path style="opacity:0.328" fill="#000000" d="M 802.5,657.5 C 802.014,659.807 802.014,661.973 802.5,664C 799.725,671.272 796.725,678.438 793.5,685.5C 795.41,675.713 798.41,666.38 802.5,657.5 Z"/></g>
<g><path style="opacity:0.031" fill="#000000" d="M 25.5,685.5 C 26.8333,686.167 26.8333,686.167 25.5,685.5 Z"/></g>
<g><path style="opacity:0.031" fill="#000000" d="M 793.5,685.5 C 792.833,686.167 792.833,686.167 793.5,685.5 Z"/></g>
<g><path style="opacity:0.137" fill="#000000" d="M 27.5,689.5 C 26.8333,688.167 26.8333,688.167 27.5,689.5 Z"/></g>
<g><path style="opacity:0.137" fill="#000000" d="M 791.5,688.5 C 792.833,689.167 792.833,689.167 791.5,688.5 Z"/></g>
<g><path style="opacity:0.278" fill="#000000" d="M 27.5,689.5 C 30.1368,691.154 29.8034,691.654 26.5,691C 27.056,690.617 27.3893,690.117 27.5,689.5 Z"/></g>
<g><path style="opacity:0.278" fill="#000000" d="M 791.5,689.5 C 792.614,691.353 791.948,691.853 789.5,691C 790.044,690.283 790.711,689.783 791.5,689.5 Z"/></g>
<g><path style="opacity:0.286" fill="#000000" d="M 42.5,723.5 C 37.1467,713.962 32.1467,704.128 27.5,694C 28,693.5 28.5,693 29,692.5C 33.5183,702.866 38.0183,713.199 42.5,723.5 Z"/></g>
<g><path style="opacity:0.286" fill="#000000" d="M 776.5,723.5 C 780.982,713.199 785.482,702.866 790,692.5C 790.5,693 791,693.5 791.5,694C 786.853,704.128 781.853,713.962 776.5,723.5 Z"/></g>
<g><path style="opacity:0.48" fill="#000000" d="M 42.5,723.5 C 43.3382,723.842 43.6716,724.508 43.5,725.5C 42.6618,725.158 42.3284,724.492 42.5,723.5 Z"/></g>
<g><path style="opacity:0.48" fill="#000000" d="M 776.5,723.5 C 776.672,724.492 776.338,725.158 775.5,725.5C 775.328,724.508 775.662,723.842 776.5,723.5 Z"/></g>
<g><path style="opacity:0.296" fill="#000000" d="M 43.5,725.5 C 45.8916,728.598 48.0583,731.931 50,735.5C 51.6263,738.058 52.6263,740.725 53,743.5C 50.8725,740.697 48.7058,737.864 46.5,735C 47.3452,733.442 46.6785,732.442 44.5,732C 45.6341,730.984 45.3008,730.317 43.5,730C 43.9662,728.701 43.9662,727.201 43.5,725.5 Z"/></g>
<g><path style="opacity:0.298" fill="#000000" d="M 775.5,725.5 C 775.034,727.201 775.034,728.701 775.5,730C 774.662,731.155 773.662,732.322 772.5,733.5C 771.167,733.833 771.167,734.167 772.5,734.5C 770.841,737.148 769.174,739.815 767.5,742.5C 766.604,743.506 765.938,743.506 765.5,742.5C 768.608,736.606 771.941,730.939 775.5,725.5 Z"/></g>
<g><path style="opacity:0.004" fill="#000000" d="M 772.5,733.5 C 773.833,734.167 773.833,734.167 772.5,733.5 Z"/></g>
<g><path style="opacity:0.344" fill="#000000" d="M 55.5,747.5 C 52.9991,747.489 52.8324,746.822 55,745.5C 55.4643,746.094 55.631,746.761 55.5,747.5 Z"/></g>
<g><path style="opacity:0.344" fill="#000000" d="M 765.5,746.5 C 765.158,747.338 764.492,747.672 763.5,747.5C 763.409,745.302 764.075,744.969 765.5,746.5 Z"/></g>
<g><path style="opacity:0.004" fill="#000000" d="M 765.5,745.5 C 766.833,746.167 766.833,746.167 765.5,745.5 Z"/></g>
<g><path style="opacity:0.302" fill="#000000" d="M 55.5,747.5 C 59.6849,751.708 62.6849,756.708 64.5,762.5C 63.2719,761.694 62.2719,760.694 61.5,759.5C 59.549,755.771 57.2157,752.271 54.5,749C 55.056,748.617 55.3893,748.117 55.5,747.5 Z"/></g>
<g><path style="opacity:0.302" fill="#000000" d="M 763.5,747.5 C 763.611,748.117 763.944,748.617 764.5,749C 761.784,752.271 759.451,755.771 757.5,759.5C 756.728,760.694 755.728,761.694 754.5,762.5C 756.315,756.708 759.315,751.708 763.5,747.5 Z"/></g>
<g><path style="opacity:0.004" fill="#000000" d="M 61.5,759.5 C 60.8333,760.167 60.8333,760.167 61.5,759.5 Z"/></g>
<g><path style="opacity:0.004" fill="#000000" d="M 757.5,759.5 C 758.833,760.167 758.833,760.167 757.5,759.5 Z"/></g>
<g><path style="opacity:0.251" fill="#000000" d="M 64.5,762.5 C 65.5,762.833 66.1667,763.5 66.5,764.5C 65.1667,764.5 64.5,763.833 64.5,762.5 Z"/></g>
<g><path style="opacity:0.251" fill="#000000" d="M 754.5,762.5 C 754.5,763.833 753.833,764.5 752.5,764.5C 752.833,763.5 753.5,762.833 754.5,762.5 Z"/></g>
<g><path style="opacity:0.269" fill="#000000" d="M 66.5,764.5 C 72.1543,772.462 77.821,780.462 83.5,788.5C 82.8333,788.5 82.5,788.833 82.5,789.5C 78.2766,783.423 73.7766,777.423 69,771.5C 67.5886,769.35 66.7553,767.016 66.5,764.5 Z"/></g>
<g><path style="opacity:0.269" fill="#000000" d="M 752.5,764.5 C 752.245,767.016 751.411,769.35 750,771.5C 745.223,777.423 740.723,783.423 736.5,789.5C 735.499,788.211 735.666,786.878 737,785.5C 742.188,778.432 747.354,771.432 752.5,764.5 Z"/></g>
<g><path style="opacity:0.549" fill="#000000" d="M 83.5,788.5 C 84.1667,788.5 84.5,788.833 84.5,789.5C 84.1667,789.167 83.8333,788.833 83.5,788.5 Z"/></g>
<g><path style="opacity:0.004" fill="#000000" d="M 82.5,789.5 C 82.8333,789.5 83.1667,789.5 83.5,789.5C 83.3147,790.17 82.9813,790.17 82.5,789.5 Z"/></g>
<g><path style="opacity:0.527" fill="#000000" d="M 84.5,789.5 C 85.3382,789.842 85.6716,790.508 85.5,791.5C 84.6618,791.158 84.3284,790.492 84.5,789.5 Z"/></g>
<g><path style="opacity:0.527" fill="#000000" d="M 733.5,791.5 C 733.369,790.761 733.536,790.094 734,789.5C 734.692,790.437 734.525,791.103 733.5,791.5 Z"/></g>
<g><path style="opacity:0.004" fill="#000000" d="M 736.5,789.5 C 735.833,790.167 735.833,790.167 736.5,789.5 Z"/></g>
<g><path style="opacity:0.23" fill="#000000" d="M 85.5,791.5 C 87.8903,792.891 89.5569,794.891 90.5,797.5C 87.1134,797.138 85.4467,795.138 85.5,791.5 Z"/></g>
<g><path style="opacity:0.228" fill="#000000" d="M 733.5,791.5 C 733.553,795.138 731.887,797.138 728.5,797.5C 729.443,794.891 731.11,792.891 733.5,791.5 Z"/></g>
<g><path style="opacity:0.475" fill="#000000" d="M 90.5,797.5 C 91.1667,797.5 91.5,797.833 91.5,798.5C 91.1667,798.167 90.8333,797.833 90.5,797.5 Z"/></g>
<g><path style="opacity:0.475" fill="#000000" d="M 728.5,797.5 C 727.833,798.167 727.833,798.167 728.5,797.5 Z"/></g>
<g><path style="opacity:0.375" fill="#000000" d="M 91.5,798.5 C 92.3382,798.842 92.6716,799.508 92.5,800.5C 90.3023,800.591 89.9689,799.925 91.5,798.5 Z"/></g>
<g><path style="opacity:0.375" fill="#000000" d="M 727.5,798.5 C 729.031,799.925 728.698,800.591 726.5,800.5C 726.328,799.508 726.662,798.842 727.5,798.5 Z"/></g>
<g><path style="opacity:0.639" fill="#000000" d="M 92.5,800.5 C 93.1667,800.5 93.5,800.833 93.5,801.5C 93.1667,801.167 92.8333,800.833 92.5,800.5 Z"/></g>
<g><path style="opacity:0.639" fill="#000000" d="M 726.5,800.5 C 725.833,801.167 725.833,801.167 726.5,800.5 Z"/></g>
<g><path style="opacity:0.553" fill="#000000" d="M 93.5,801.5 C 94.1667,801.5 94.5,801.833 94.5,802.5C 94.1667,802.167 93.8333,801.833 93.5,801.5 Z"/></g>
<g><path style="opacity:0.553" fill="#000000" d="M 725.5,801.5 C 724.833,802.167 724.833,802.167 725.5,801.5 Z"/></g>
<g><path style="opacity:0.435" fill="#000000" d="M 94.5,802.5 C 95.1667,802.5 95.5,802.833 95.5,803.5C 95.1667,803.167 94.8333,802.833 94.5,802.5 Z"/></g>
<g><path style="opacity:0.435" fill="#000000" d="M 724.5,802.5 C 723.833,803.167 723.833,803.167 724.5,802.5 Z"/></g>
<g><path style="opacity:0.238" fill="#000000" d="M 95.5,803.5 C 99.1275,807.139 102.461,811.139 105.5,815.5C 103.427,814.7 101.76,813.367 100.5,811.5C 99.6851,810.163 98.5185,809.163 97,808.5C 96.3923,806.846 95.8923,805.179 95.5,803.5 Z"/></g>
<g><path style="opacity:0.236" fill="#000000" d="M 723.5,803.5 C 723.269,806.588 721.936,808.921 719.5,810.5C 718.833,810.5 718.5,810.833 718.5,811.5C 717.24,813.367 715.573,814.7 713.5,815.5C 716.539,811.139 719.873,807.139 723.5,803.5 Z"/></g>
<g><path style="opacity:0.004" fill="#000000" d="M 719.5,810.5 C 720.833,811.167 720.833,811.167 719.5,810.5 Z"/></g>
<g><path style="opacity:0.004" fill="#000000" d="M 100.5,811.5 C 99.8333,812.167 99.8333,812.167 100.5,811.5 Z"/></g>
<g><path style="opacity:0.004" fill="#000000" d="M 718.5,811.5 C 718.833,811.5 719.167,811.5 719.5,811.5C 719.315,812.17 718.981,812.17 718.5,811.5 Z"/></g>
<g><path style="opacity:0.208" fill="#000000" d="M 105.5,815.5 C 106.167,815.5 106.5,815.833 106.5,816.5C 106.167,816.167 105.833,815.833 105.5,815.5 Z"/></g>
<g><path style="opacity:0.208" fill="#000000" d="M 713.5,815.5 C 712.833,816.167 712.833,816.167 713.5,815.5 Z"/></g>
<g><path style="opacity:0.314" fill="#000000" d="M 106.5,816.5 C 107.167,816.5 107.5,816.833 107.5,817.5C 107.167,817.167 106.833,816.833 106.5,816.5 Z"/></g>
<g><path style="opacity:0.314" fill="#000000" d="M 712.5,816.5 C 711.833,817.167 711.833,817.167 712.5,816.5 Z"/></g>
<g><path style="opacity:0.435" fill="#000000" d="M 107.5,817.5 C 108.167,817.5 108.5,817.833 108.5,818.5C 108.167,818.167 107.833,817.833 107.5,817.5 Z"/></g>
<g><path style="opacity:0.435" fill="#000000" d="M 711.5,817.5 C 710.833,818.167 710.833,818.167 711.5,817.5 Z"/></g>
<g><path style="opacity:0.238" fill="#000000" d="M 108.5,818.5 C 112.21,820.842 115.21,823.842 117.5,827.5C 112.869,826.202 109.869,823.202 108.5,818.5 Z"/></g>
<g><path style="opacity:0.238" fill="#000000" d="M 710.5,818.5 C 709.131,823.202 706.131,826.202 701.5,827.5C 703.79,823.842 706.79,820.842 710.5,818.5 Z"/></g>
<g><path style="opacity:0.522" fill="#000000" d="M 117.5,827.5 C 118.167,827.5 118.5,827.833 118.5,828.5C 118.167,828.167 117.833,827.833 117.5,827.5 Z"/></g>
<g><path style="opacity:0.522" fill="#000000" d="M 701.5,827.5 C 700.833,828.167 700.833,828.167 701.5,827.5 Z"/></g>
<g><path style="opacity:0.631" fill="#000000" d="M 118.5,828.5 C 119.167,828.5 119.5,828.833 119.5,829.5C 119.167,829.167 118.833,828.833 118.5,828.5 Z"/></g>
<g><path style="opacity:0.631" fill="#000000" d="M 700.5,828.5 C 699.833,829.167 699.833,829.167 700.5,828.5 Z"/></g>
<g><path style="opacity:0.631" fill="#000000" d="M 119.5,829.5 C 120.167,829.5 120.5,829.833 120.5,830.5C 120.167,830.167 119.833,829.833 119.5,829.5 Z"/></g>
<g><path style="opacity:0.631" fill="#000000" d="M 699.5,829.5 C 698.833,830.167 698.833,830.167 699.5,829.5 Z"/></g>
<g><path style="opacity:0.522" fill="#000000" d="M 120.5,830.5 C 121.167,830.5 121.5,830.833 121.5,831.5C 121.167,831.167 120.833,830.833 120.5,830.5 Z"/></g>
<g><path style="opacity:0.522" fill="#000000" d="M 698.5,830.5 C 697.833,831.167 697.833,831.167 698.5,830.5 Z"/></g>
<g><path style="opacity:0.238" fill="#000000" d="M 121.5,831.5 C 125.158,833.79 128.158,836.79 130.5,840.5C 125.798,839.131 122.798,836.131 121.5,831.5 Z"/></g>
<g><path style="opacity:0.238" fill="#000000" d="M 697.5,831.5 C 696.202,836.131 693.202,839.131 688.5,840.5C 690.842,836.79 693.842,833.79 697.5,831.5 Z"/></g>
<g><path style="opacity:0.435" fill="#000000" d="M 130.5,840.5 C 131.167,840.5 131.5,840.833 131.5,841.5C 131.167,841.167 130.833,840.833 130.5,840.5 Z"/></g>
<g><path style="opacity:0.435" fill="#000000" d="M 688.5,840.5 C 687.833,841.167 687.833,841.167 688.5,840.5 Z"/></g>
<g><path style="opacity:0.314" fill="#000000" d="M 131.5,841.5 C 132.167,841.5 132.5,841.833 132.5,842.5C 132.167,842.167 131.833,841.833 131.5,841.5 Z"/></g>
<g><path style="opacity:0.314" fill="#000000" d="M 687.5,841.5 C 686.833,842.167 686.833,842.167 687.5,841.5 Z"/></g>
<g><path style="opacity:0.208" fill="#000000" d="M 132.5,842.5 C 133.167,842.5 133.5,842.833 133.5,843.5C 133.167,843.167 132.833,842.833 132.5,842.5 Z"/></g>
<g><path style="opacity:0.208" fill="#000000" d="M 686.5,842.5 C 685.833,843.167 685.833,843.167 686.5,842.5 Z"/></g>
<g><path style="opacity:0.238" fill="#000000" d="M 133.5,843.5 C 137.861,846.539 141.861,849.873 145.5,853.5C 142.412,853.269 140.079,851.936 138.5,849.5C 136.505,847.696 134.838,845.696 133.5,843.5 Z"/></g>
<g><path style="opacity:0.238" fill="#000000" d="M 685.5,843.5 C 684.7,845.573 683.367,847.24 681.5,848.5C 680.833,848.5 680.5,848.833 680.5,849.5C 678.921,851.936 676.588,853.269 673.5,853.5C 677.139,849.873 681.139,846.539 685.5,843.5 Z"/></g>
<g><path style="opacity:0.004" fill="#000000" d="M 681.5,848.5 C 682.833,849.167 682.833,849.167 681.5,848.5 Z"/></g>
<g><path style="opacity:0.004" fill="#000000" d="M 138.5,849.5 C 137.833,850.167 137.833,850.167 138.5,849.5 Z"/></g>
<g><path style="opacity:0.004" fill="#000000" d="M 680.5,849.5 C 680.833,849.5 681.167,849.5 681.5,849.5C 681.315,850.17 680.981,850.17 680.5,849.5 Z"/></g>
<g><path style="opacity:0.435" fill="#000000" d="M 145.5,853.5 C 146.167,853.5 146.5,853.833 146.5,854.5C 146.167,854.167 145.833,853.833 145.5,853.5 Z"/></g>
<g><path style="opacity:0.435" fill="#000000" d="M 673.5,853.5 C 672.833,854.167 672.833,854.167 673.5,853.5 Z"/></g>
<g><path style="opacity:0.553" fill="#000000" d="M 146.5,854.5 C 147.167,854.5 147.5,854.833 147.5,855.5C 147.167,855.167 146.833,854.833 146.5,854.5 Z"/></g>
<g><path style="opacity:0.553" fill="#000000" d="M 672.5,854.5 C 671.833,855.167 671.833,855.167 672.5,854.5 Z"/></g>
<g><path style="opacity:0.639" fill="#000000" d="M 147.5,855.5 C 148.167,855.5 148.5,855.833 148.5,856.5C 148.167,856.167 147.833,855.833 147.5,855.5 Z"/></g>
<g><path style="opacity:0.639" fill="#000000" d="M 671.5,855.5 C 670.833,856.167 670.833,856.167 671.5,855.5 Z"/></g>
<g><path style="opacity:0.375" fill="#000000" d="M 148.5,856.5 C 149.492,856.328 150.158,856.662 150.5,857.5C 149.075,859.031 148.409,858.698 148.5,856.5 Z"/></g>
<g><path style="opacity:0.375" fill="#000000" d="M 668.5,857.5 C 668.842,856.662 669.508,856.328 670.5,856.5C 670.591,858.698 669.925,859.031 668.5,857.5 Z"/></g>
<g><path style="opacity:0.475" fill="#000000" d="M 150.5,857.5 C 151.167,857.5 151.5,857.833 151.5,858.5C 151.167,858.167 150.833,857.833 150.5,857.5 Z"/></g>
<g><path style="opacity:0.475" fill="#000000" d="M 668.5,857.5 C 667.833,858.167 667.833,858.167 668.5,857.5 Z"/></g>
<g><path style="opacity:0.228" fill="#000000" d="M 151.5,858.5 C 154.109,859.443 156.109,861.11 157.5,863.5C 153.862,863.553 151.862,861.887 151.5,858.5 Z"/></g>
<g><path style="opacity:0.23" fill="#000000" d="M 667.5,858.5 C 667.138,861.887 665.138,863.553 661.5,863.5C 662.891,861.11 664.891,859.443 667.5,858.5 Z"/></g>
<g><path style="opacity:0.527" fill="#000000" d="M 157.5,863.5 C 158.239,863.369 158.906,863.536 159.5,864C 158.563,864.692 157.897,864.525 157.5,863.5 Z"/></g>
<g><path style="opacity:0.527" fill="#000000" d="M 661.5,863.5 C 661.103,864.525 660.437,864.692 659.5,864C 660.094,863.536 660.761,863.369 661.5,863.5 Z"/></g>
<g><path style="opacity:0.271" fill="#000000" d="M 184.5,882.5 C 181.984,882.245 179.65,881.411 177.5,880C 171.819,875.166 165.819,870.832 159.5,867C 160.656,865.385 161.989,865.385 163.5,867C 170.568,872.188 177.568,877.354 184.5,882.5 Z"/></g>
<g><path style="opacity:0.269" fill="#000000" d="M 659.5,866.5 C 653.423,870.723 647.423,875.223 641.5,880C 639.35,881.411 637.016,882.245 634.5,882.5C 642.355,876.977 650.188,871.311 658,865.5C 658.383,866.056 658.883,866.389 659.5,866.5 Z"/></g>
<g><path style="opacity:0.004" fill="#000000" d="M 659.5,865.5 C 660.833,866.167 660.833,866.167 659.5,865.5 Z"/></g>
<g><path style="opacity:0.251" fill="#000000" d="M 184.5,882.5 C 185.5,882.833 186.167,883.5 186.5,884.5C 185.167,884.5 184.5,883.833 184.5,882.5 Z"/></g>
<g><path style="opacity:0.251" fill="#000000" d="M 634.5,882.5 C 634.5,883.833 633.833,884.5 632.5,884.5C 632.833,883.5 633.5,882.833 634.5,882.5 Z"/></g>
<g><path style="opacity:0.302" fill="#000000" d="M 186.5,884.5 C 192.292,886.315 197.292,889.315 201.5,893.5C 200.883,893.611 200.383,893.944 200,894.5C 196.729,891.784 193.229,889.451 189.5,887.5C 188.306,886.728 187.306,885.728 186.5,884.5 Z"/></g>
<g><path style="opacity:0.302" fill="#000000" d="M 632.5,884.5 C 631.694,885.728 630.694,886.728 629.5,887.5C 625.771,889.451 622.271,891.784 619,894.5C 618.617,893.944 618.117,893.611 617.5,893.5C 621.708,889.315 626.708,886.315 632.5,884.5 Z"/></g>
<g><path style="opacity:0.004" fill="#000000" d="M 189.5,887.5 C 188.833,888.167 188.833,888.167 189.5,887.5 Z"/></g>
<g><path style="opacity:0.004" fill="#000000" d="M 629.5,887.5 C 630.833,888.167 630.833,888.167 629.5,887.5 Z"/></g>
<g><path style="opacity:0.344" fill="#000000" d="M 201.5,893.5 C 202.492,893.328 203.158,893.662 203.5,894.5C 202.833,894.5 202.5,894.833 202.5,895.5C 201.662,895.158 201.328,894.492 201.5,893.5 Z"/></g>
<g><path style="opacity:0.344" fill="#000000" d="M 617.5,893.5 C 617.672,894.492 617.338,895.158 616.5,895.5C 614.969,894.075 615.302,893.409 617.5,893.5 Z"/></g>
<g><path style="opacity:0.449" fill="#000000" d="M 203.5,895.5 C 203.5,895.167 203.5,894.833 203.5,894.5C 204.492,894.328 205.158,894.662 205.5,895.5C 204.833,895.5 204.167,895.5 203.5,895.5 Z"/></g>
<g><path style="opacity:0.004" fill="#000000" d="M 202.5,895.5 C 202.833,895.5 203.167,895.5 203.5,895.5C 203.315,896.17 202.981,896.17 202.5,895.5 Z"/></g>
<g><path style="opacity:0.298" fill="#000000" d="M 205.5,895.5 C 211.83,898.33 217.83,901.663 223.5,905.5C 221.799,905.034 220.299,905.034 219,905.5C 217.845,904.662 216.678,903.662 215.5,902.5C 215.167,901.167 214.833,901.167 214.5,902.5C 211.159,900.479 208.159,898.146 205.5,895.5 Z"/></g>
<g><path style="opacity:0.298" fill="#000000" d="M 604.5,902.5 C 604.167,901.167 603.833,901.167 603.5,902.5C 602.322,903.662 601.155,904.662 600,905.5C 598.701,905.034 597.201,905.034 595.5,905.5C 600.939,901.941 606.606,898.608 612.5,895.5C 613.506,895.938 613.506,896.604 612.5,897.5C 609.815,899.174 607.148,900.841 604.5,902.5 Z"/></g>
<g><path style="opacity:0.004" fill="#000000" d="M 616.5,895.5 C 615.833,896.167 615.833,896.167 616.5,895.5 Z"/></g>
<g><path style="opacity:0.004" fill="#000000" d="M 214.5,902.5 C 214.833,902.5 215.167,902.5 215.5,902.5C 215.315,903.17 214.981,903.17 214.5,902.5 Z"/></g>
<g><path style="opacity:0.004" fill="#000000" d="M 603.5,902.5 C 603.833,902.5 604.167,902.5 604.5,902.5C 604.315,903.17 603.981,903.17 603.5,902.5 Z"/></g>
<g><path style="opacity:0.48" fill="#000000" d="M 223.5,905.5 C 224.492,905.328 225.158,905.662 225.5,906.5C 224.508,906.672 223.842,906.338 223.5,905.5 Z"/></g>
<g><path style="opacity:0.48" fill="#000000" d="M 593.5,906.5 C 593.842,905.662 594.508,905.328 595.5,905.5C 595.158,906.338 594.492,906.672 593.5,906.5 Z"/></g>
<g><path style="opacity:0.287" fill="#000000" d="M 225.5,906.5 C 235.801,910.982 246.134,915.482 256.5,920C 256,920.5 255.5,921 255,921.5C 244.872,916.853 235.038,911.853 225.5,906.5 Z"/></g>
<g><path style="opacity:0.277" fill="#000000" d="M 593.5,906.5 C 583.962,911.853 574.128,916.853 564,921.5C 563.5,921 563,920.5 562.5,920C 572.581,915.643 582.915,911.143 593.5,906.5 Z"/></g>
<g><path style="opacity:0.278" fill="#000000" d="M 259.5,921.5 C 257.647,922.614 257.147,921.948 258,919.5C 258.717,920.044 259.217,920.711 259.5,921.5 Z"/></g>
<g><path style="opacity:0.278" fill="#000000" d="M 559.5,921.5 C 561.154,918.863 561.654,919.197 561,922.5C 560.617,921.944 560.117,921.611 559.5,921.5 Z"/></g>
<g><path style="opacity:0.137" fill="#000000" d="M 259.5,921.5 C 260.833,922.167 260.833,922.167 259.5,921.5 Z"/></g>
<g><path style="opacity:0.137" fill="#000000" d="M 559.5,921.5 C 558.833,922.167 558.833,922.167 559.5,921.5 Z"/></g>
<g><path style="opacity:0.031" fill="#000000" d="M 263.5,923.5 C 262.833,922.167 262.833,922.167 263.5,923.5 Z"/></g>
<g><path style="opacity:0.031" fill="#000000" d="M 555.5,922.5 C 556.833,923.167 556.833,923.167 555.5,922.5 Z"/></g>
<g><path style="opacity:0.328" fill="#000000" d="M 263.5,923.5 C 273.287,925.41 282.62,928.41 291.5,932.5C 289.193,932.014 287.027,932.014 285,932.5C 277.728,929.725 270.562,926.725 263.5,923.5 Z"/></g>
<g><path style="opacity:0.328" fill="#000000" d="M 555.5,923.5 C 548.438,926.725 541.272,929.725 534,932.5C 531.973,932.014 529.807,932.014 527.5,932.5C 536.38,928.41 545.713,925.41 555.5,923.5 Z"/></g>
<g><path style="opacity:0.32" fill="#000000" d="M 291.5,932.5 C 300.368,934.462 309.035,936.795 317.5,939.5C 313.993,940.006 310.826,939.34 308,937.5C 307.667,937.833 307.333,938.167 307,938.5C 301.767,936.412 296.6,934.412 291.5,932.5 Z"/></g>
<g><path style="opacity:0.32" fill="#000000" d="M 527.5,932.5 C 522.4,934.412 517.233,936.412 512,938.5C 511.086,937.346 510.253,937.513 509.5,939C 506.854,939.497 504.187,939.664 501.5,939.5C 509.965,936.795 518.632,934.462 527.5,932.5 Z"/></g>
<g><path style="opacity:0.252" fill="#000000" d="M 317.5,939.5 C 335.915,943.238 354.248,946.072 372.5,948C 355.943,947.754 339.61,945.587 323.5,941.5C 322.558,941.608 321.725,941.941 321,942.5C 320.015,941.186 318.848,940.186 317.5,939.5 Z"/></g>
<g><path style="opacity:0.252" fill="#000000" d="M 501.5,939.5 C 500.152,940.186 498.985,941.186 498,942.5C 497.275,941.941 496.442,941.608 495.5,941.5C 479.39,945.587 463.057,947.754 446.5,948C 464.752,946.072 483.085,943.238 501.5,939.5 Z"/></g>
<g><path style="opacity:0.006" fill="#000000" d="M 374.5,949.5 C 375.601,948.402 376.934,948.235 378.5,949C 377.207,949.49 375.873,949.657 374.5,949.5 Z"/></g>
<g><path style="opacity:0.341" fill="#000000" d="M 383.5,948.5 C 384.833,949.167 384.833,949.167 383.5,948.5 Z"/></g>
<g><path style="opacity:0.341" fill="#000000" d="M 434.5,948.5 C 435.833,949.167 435.833,949.167 434.5,948.5 Z"/></g>
<g><path style="opacity:0.006" fill="#000000" d="M 440.5,949.5 C 441.601,948.402 442.934,948.235 444.5,949C 443.207,949.49 441.873,949.657 440.5,949.5 Z"/></g>
</svg>
