<?xml version="1.0" encoding="UTF-8"?>
<!DOCTYPE svg PUBLIC "-//W3C//DTD SVG 1.1//EN" "http://www.w3.org/Graphics/SVG/1.1/DTD/svg11.dtd">
<svg xmlns="http://www.w3.org/2000/svg" version="1.1" width="3840px" height="1080px" style="shape-rendering:geometricPrecision; text-rendering:geometricPrecision; image-rendering:optimizeQuality; fill-rule:evenodd; clip-rule:evenodd" xmlns:xlink="http://www.w3.org/1999/xlink">
<g><path style="opacity:0.926" fill="#000000" d="M -0.5,542.5 C -0.5,540.5 -0.5,538.5 -0.5,536.5C 5.88857,535.324 12.2219,533.824 18.5,532C 36.2227,529.434 53.8894,526.768 71.5,524C 76.4364,522.391 81.4364,521.058 86.5,520C 98.7369,421.451 148.737,349.451 236.5,304C 256.425,295.939 276.758,289.272 297.5,284C 305.484,283.144 313.484,282.477 321.5,282C 324.272,281.474 326.938,280.641 329.5,279.5C 333.34,260.469 337.507,241.469 342,222.5C 345.03,219.64 347.697,219.973 350,223.5C 354.942,240.602 358.942,257.935 362,275.5C 362.707,277.081 363.54,278.581 364.5,280C 468.77,292.292 542.603,346.125 586,441.5C 589.333,451.5 592.667,461.5 596,471.5C 599.451,487.073 602.285,502.739 604.5,518.5C 634.174,523.721 663.841,529.555 693.5,536C 695.25,537.754 695.917,539.921 695.5,542.5C 671.439,547.103 647.439,551.936 623.5,557C 617.207,556.854 611.207,558.02 605.5,560.5C 596.854,633.975 564.521,694.475 508.5,742C 466.177,774.81 418.177,793.81 364.5,799C 362.319,802.872 360.819,807.039 360,811.5C 357.609,826.396 354.276,841.063 350,855.5C 347.333,858.167 344.667,858.167 342,855.5C 337.826,836.808 333.66,818.141 329.5,799.5C 240.637,790.033 172.137,748.033 124,673.5C 111.413,651.414 101.747,628.081 95,603.5C 91.7892,590.692 89.7892,577.692 89,564.5C 88.2607,562.779 87.4274,561.113 86.5,559.5C 57.6666,553.267 28.6666,547.6 -0.5,542.5 Z M 311.5,329.5 C 313.527,329.338 315.527,329.505 317.5,330C 306.439,379.363 294.773,428.53 282.5,477.5C 255.115,482.396 228.281,488.396 202,495.5C 201.127,495.265 200.293,494.931 199.5,494.5C 182.775,498.531 165.942,502.197 149,505.5C 148.275,504.941 147.442,504.608 146.5,504.5C 143.346,506.026 140.013,506.693 136.5,506.5C 137.439,501.197 138.273,495.863 139,490.5C 142.615,481.379 145.615,472.046 148,462.5C 179.546,390.135 234.046,345.802 311.5,329.5 Z M 376.5,329.5 C 447.146,341.794 499.813,379.128 534.5,441.5C 543.083,459.414 549.583,478.081 554,497.5C 554.997,500.801 555.33,504.134 555,507.5C 541.387,503.943 527.887,501.277 514.5,499.5C 513.692,499.192 513.025,498.692 512.5,498C 491.911,495.644 471.911,491.644 452.5,486C 438.323,483.858 424.323,481.024 410.5,477.5C 403.447,452.034 396.947,426.367 391,400.5C 386.972,376.363 382.139,352.697 376.5,329.5 Z M 136.5,571.5 C 158.291,576.283 180.125,580.616 202,584.5C 202.414,584.043 202.914,583.709 203.5,583.5C 217.425,587.25 231.425,590.75 245.5,594C 257.826,596.332 270.159,598.665 282.5,601C 295.087,650.116 306.42,699.616 316.5,749.5C 299.286,747.53 282.619,743.363 266.5,737C 261.892,733.863 256.892,731.53 251.5,730C 232.211,719.339 214.211,706.672 197.5,692C 190.359,684.52 183.526,676.687 177,668.5C 165.258,652.351 155.591,635.018 148,616.5C 145.597,606.96 142.597,597.626 139,588.5C 137.948,582.856 137.115,577.189 136.5,571.5 Z M 554.5,571.5 C 555.239,571.369 555.906,571.536 556.5,572C 541.716,648.493 498.716,703.16 427.5,736C 411.094,742.851 394.094,747.351 376.5,749.5C 382.035,726.372 386.869,703.039 391,679.5C 394.927,667.064 397.927,654.064 400,640.5C 400.667,639.833 401.333,639.167 402,638.5C 404.509,626.131 407.176,613.798 410,601.5C 447.609,593.181 485.276,585.181 523,577.5C 523.561,578.022 524.228,578.355 525,578.5C 534.973,576.664 544.806,574.331 554.5,571.5 Z"/></g>
<g><path style="opacity:0.925" fill="#000000" d="M 862.5,222.5 C 883.986,221.963 905.319,223.463 926.5,227C 981.639,239.79 1012.31,274.124 1018.5,330C 1009.72,331.107 1000.89,331.607 992,331.5C 983.428,331.622 974.928,331.122 966.5,330C 955.6,297.769 933.267,279.436 899.5,275C 866.266,269.588 835.933,276.255 808.5,295C 794.542,305.065 785.709,318.565 782,335.5C 774.104,366.444 778.437,395.444 795,422.5C 809.779,437.884 827.612,448.051 848.5,453C 868.826,456.293 889.159,456.293 909.5,453C 937.812,445.681 956.812,428.347 966.5,401C 969.706,400.704 972.872,400.204 976,399.5C 989.168,399.86 1002.67,400.36 1016.5,401C 1017.8,401.804 1018.47,402.971 1018.5,404.5C 1011.3,453.821 984.304,485.988 937.5,501C 901.359,510.298 865.025,510.965 828.5,503C 769.848,489.35 735.681,452.85 726,393.5C 720.07,355.586 725.737,319.586 743,285.5C 761.858,256.661 788.024,237.828 821.5,229C 835.137,225.745 848.803,223.578 862.5,222.5 Z"/></g>
<g><path style="opacity:0.919" fill="#000000" d="M 1153.5,284.5 C 1178.6,283.011 1202.93,286.511 1226.5,295C 1263.51,313.365 1284.01,343.198 1288,384.5C 1292.33,427.222 1277.83,461.722 1244.5,488C 1227.77,498.69 1209.43,505.023 1189.5,507C 1161.62,510.365 1134.62,507.032 1108.5,497C 1068.12,476.6 1048.12,443.6 1048.5,398C 1047.81,353.031 1066.81,319.364 1105.5,297C 1121.05,290.598 1137.05,286.431 1153.5,284.5 Z M 1160.5,331.5 C 1186.21,328.861 1207.37,337.194 1224,356.5C 1234.14,372.729 1237.8,390.396 1235,409.5C 1230.6,432.574 1217.43,448.407 1195.5,457C 1172.36,463.877 1150.02,461.877 1128.5,451C 1121.33,445.167 1114.83,438.667 1109,431.5C 1099.8,410.13 1099.13,388.464 1107,366.5C 1113.17,353.667 1122.67,344.167 1135.5,338C 1143.8,335.246 1152.14,333.079 1160.5,331.5 Z"/></g>
<g><path style="opacity:0.913" fill="#000000" d="M 1449.5,284.5 C 1470.61,282.895 1490.28,287.728 1508.5,299C 1522.21,310.062 1531.05,324.228 1535,341.5C 1559.61,292.952 1598.44,275.452 1651.5,289C 1672.33,296.5 1686.5,310.667 1694,331.5C 1697.97,340.074 1700.3,349.074 1701,358.5C 1701.67,406.5 1701.67,454.5 1701,502.5C 1684,503.833 1667,503.833 1650,502.5C 1649.67,458.833 1649.33,415.167 1649,371.5C 1648.07,353.595 1639.24,341.762 1622.5,336C 1587.82,328.773 1559.98,339.273 1539,367.5C 1538.5,412.832 1538.33,458.165 1538.5,503.5C 1521.26,503.825 1504.09,503.492 1487,502.5C 1487.12,465.403 1487.29,428.403 1487.5,391.5C 1489.81,344.322 1467.81,325.822 1421.5,336C 1402.71,341.791 1387.55,352.625 1376,368.5C 1375.4,371.637 1374.4,374.637 1373,377.5C 1372.83,419.171 1372.33,460.837 1371.5,502.5C 1354.64,503.828 1337.8,503.828 1321,502.5C 1320.33,431.5 1320.33,360.5 1321,289.5C 1337.76,288.342 1354.59,288.175 1371.5,289C 1372.33,306.426 1372.83,323.926 1373,341.5C 1376.75,334.337 1380.75,327.337 1385,320.5C 1391.29,314.054 1397.46,307.554 1403.5,301C 1417.44,291.41 1432.77,285.91 1449.5,284.5 Z"/></g>
<g><path style="opacity:0.911" fill="#000000" d="M 1866.5,284.5 C 1916.33,281.319 1951.5,302.319 1972,347.5C 1989.3,394.169 1982.96,437.169 1953,476.5C 1923.19,505.754 1888.03,514.587 1847.5,503C 1840.07,500.085 1833.07,496.418 1826.5,492C 1812.8,479.969 1802.63,465.469 1796,448.5C 1795.67,493.833 1795.33,539.167 1795,584.5C 1794.63,585.416 1794.13,586.25 1793.5,587C 1777.17,587.667 1760.83,587.667 1744.5,587C 1743.33,487.903 1743.17,388.737 1744,289.5C 1759.8,288.173 1775.64,288.173 1791.5,289.5C 1792.25,290.376 1792.75,291.376 1793,292.5C 1794.01,308.818 1794.68,325.152 1795,341.5C 1803.72,316.487 1820.22,298.987 1844.5,289C 1851.99,287.59 1859.32,286.09 1866.5,284.5 Z M 1850.5,332.5 C 1867.52,330.893 1883.85,333.393 1899.5,340C 1919.08,353.987 1928.41,373.154 1927.5,397.5C 1927.19,427.307 1913.19,447.474 1885.5,458C 1866.41,462.199 1847.74,460.866 1829.5,454C 1803.17,439.758 1792,417.592 1796,387.5C 1797.64,365.701 1808.14,349.868 1827.5,340C 1835.04,336.708 1842.7,334.208 1850.5,332.5 Z"/></g>
<g><path style="opacity:0.904" fill="#000000" d="M 2099.5,284.5 C 2142.98,280.641 2173.15,298.641 2190,338.5C 2190.17,322.259 2190.67,306.093 2191.5,290C 2199.9,288.862 2208.4,288.362 2217,288.5C 2224.83,288.667 2232.67,288.833 2240.5,289C 2241.31,289.308 2241.97,289.808 2242.5,290.5C 2243.83,361.03 2243.83,431.53 2242.5,502C 2241.27,502.781 2239.94,503.281 2238.5,503.5C 2225.9,503.46 2213.23,503.46 2200.5,503.5C 2198.41,503.514 2196.57,502.848 2195,501.5C 2192.07,483.629 2190.41,465.629 2190,447.5C 2171.19,494.331 2136.69,513.831 2086.5,506C 2071,502.914 2057,496.581 2044.5,487C 2015.21,460.883 2002.04,428.05 2005,388.5C 2007.72,338.814 2032.22,305.314 2078.5,288C 2085.66,286.956 2092.66,285.789 2099.5,284.5 Z M 2113.5,332.5 C 2176.02,332.195 2200.19,362.528 2186,423.5C 2176.77,442.873 2161.61,454.706 2140.5,459C 2118.81,463.72 2098.81,460.053 2080.5,448C 2062.39,431.094 2055.22,410.26 2059,385.5C 2063.64,353.689 2081.81,336.022 2113.5,332.5 Z"/></g>
<g><path style="opacity:0.904" fill="#000000" d="M 2362.5,284.5 C 2379.43,283.846 2396.1,286.013 2412.5,291C 2441.19,305.208 2455.53,328.375 2455.5,360.5C 2440.16,360.667 2424.83,360.5 2409.5,360C 2407.82,352.964 2404.99,346.464 2401,340.5C 2395.5,336.442 2389.33,333.942 2382.5,333C 2371.38,331.961 2360.38,332.628 2349.5,335C 2335.93,340.694 2332.43,350.194 2339,363.5C 2342.29,366.787 2346.13,369.287 2350.5,371C 2363.37,374.307 2376.37,376.974 2389.5,379C 2406.94,382.105 2423.27,388.105 2438.5,397C 2459.77,413.132 2466.93,434.299 2460,460.5C 2453.23,480.172 2440.07,493.672 2420.5,501C 2389.03,511.249 2357.7,510.916 2326.5,500C 2305.09,491.588 2289.92,476.754 2281,455.5C 2279.36,450.565 2278.03,445.565 2277,440.5C 2276.21,436.909 2276.38,433.409 2277.5,430C 2281.95,429.103 2286.45,428.603 2291,428.5C 2301.52,428.359 2312.02,428.526 2322.5,429C 2323.42,429.374 2324.25,429.874 2325,430.5C 2330.67,447.169 2342.17,457.002 2359.5,460C 2366.58,460.426 2373.41,460.926 2380,461.5C 2388.45,461.261 2396.29,458.928 2403.5,454.5C 2409.94,444.973 2409.94,435.473 2403.5,426C 2397.95,423.39 2392.28,421.057 2386.5,419C 2374.5,416.667 2362.5,414.333 2350.5,412C 2338.96,408.931 2327.63,405.264 2316.5,401C 2288.78,387.733 2277.95,365.899 2284,335.5C 2293.05,309.788 2310.88,293.955 2337.5,288C 2345.93,286.451 2354.26,285.284 2362.5,284.5 Z"/></g>
<g><path style="opacity:0.903" fill="#000000" d="M 2569.5,284.5 C 2587.12,283.702 2604.45,285.536 2621.5,290C 2651.82,303.53 2666.49,327.03 2665.5,360.5C 2650.5,360.667 2635.5,360.5 2620.5,360C 2618.7,353.902 2616.2,348.069 2613,342.5C 2607.95,336.476 2601.45,333.309 2593.5,333C 2582.71,331.933 2572.04,332.599 2561.5,335C 2549.95,338.577 2545.45,346.411 2548,358.5C 2549.2,361.726 2551.03,364.559 2553.5,367C 2570.24,373.518 2587.57,377.852 2605.5,380C 2622.32,383.604 2637.99,389.937 2652.5,399C 2670.67,415.848 2676.5,436.348 2670,460.5C 2664.42,479.745 2652.26,492.911 2633.5,500C 2600.38,511.595 2567.38,511.262 2534.5,499C 2504.75,485.332 2489.09,462.166 2487.5,429.5C 2503.54,428.001 2519.54,428.168 2535.5,430C 2539.95,441.119 2547.29,449.785 2557.5,456C 2572.27,460.827 2587.27,462.161 2602.5,460C 2615.59,456.553 2621.09,448.053 2619,434.5C 2617.7,430.726 2615.53,427.559 2612.5,425C 2607.74,422.413 2602.74,420.413 2597.5,419C 2578.3,415.427 2559.3,411.094 2540.5,406C 2523.28,400.752 2509.44,390.918 2499,376.5C 2485.86,339.948 2496.36,312.448 2530.5,294C 2543.16,288.899 2556.16,285.733 2569.5,284.5 Z"/></g>
<g><path style="opacity:0.883" fill="#000000" d="M 3292.5,545.5 C 3304.51,544.562 3315.34,547.562 3325,554.5C 3334.62,566.598 3335.96,579.598 3329,593.5C 3321.11,603.859 3310.61,608.526 3297.5,607.5C 3272.67,606.839 3260.84,594.173 3262,569.5C 3264.46,559.719 3270.29,552.885 3279.5,549C 3283.93,547.682 3288.26,546.516 3292.5,545.5 Z"/></g>
<g><path style="opacity:0.948" fill="#000000" d="M 758.5,547.5 C 788.194,548.239 818.028,548.239 848,547.5C 874.004,546.654 899.17,550.821 923.5,560C 938.087,567.915 951.587,577.415 964,588.5C 985.053,613.624 997.053,642.624 1000,675.5C 1004.54,714.434 998.878,751.767 983,787.5C 957.391,830.574 919.224,852.407 868.5,853C 821.929,853.83 775.429,853.664 729,852.5C 728.5,751.167 728.333,649.834 728.5,548.5C 738.681,548.827 748.681,548.494 758.5,547.5 Z M 794.5,608.5 C 816.859,608.131 839.192,608.631 861.5,610C 890.309,612.467 911.475,626.301 925,651.5C 936.333,683.835 936.333,716.168 925,748.5C 921.773,755.956 917.773,762.956 913,769.5C 897.914,783.316 880.081,791.15 859.5,793C 837.836,793.5 816.169,793.667 794.5,793.5C 794.5,731.833 794.5,670.167 794.5,608.5 Z"/></g>
<g><path style="opacity:0.936" fill="#000000" d="M 2770.5,558.5 C 2772.99,558.329 2774.83,559.329 2776,561.5C 2776.82,583.543 2776.66,605.543 2775.5,627.5C 2791.49,628.499 2807.49,628.833 2823.5,628.5C 2824.46,647.514 2824.46,666.514 2823.5,685.5C 2807.5,685.333 2791.5,685.5 2775.5,686C 2776.33,718.428 2776.83,750.928 2777,783.5C 2779.17,787.01 2782.34,789.177 2786.5,790C 2798.83,790.5 2811.16,790.667 2823.5,790.5C 2823.21,810.019 2823.54,829.519 2824.5,849C 2824.32,850.658 2823.66,851.991 2822.5,853C 2798.47,853.916 2774.47,853.583 2750.5,852C 2732.68,848.845 2721.18,838.678 2716,821.5C 2713.93,813.291 2712.6,804.958 2712,796.5C 2711.67,759.167 2711.33,721.833 2711,684.5C 2699.58,685.654 2688.08,685.82 2676.5,685C 2676,684.5 2675.5,684 2675,683.5C 2674.33,665.5 2674.33,647.5 2675,629.5C 2687.09,628.512 2699.25,628.178 2711.5,628.5C 2711.22,609.473 2711.55,590.473 2712.5,571.5C 2732.3,568.652 2751.64,564.318 2770.5,558.5 Z"/></g>
<g><path style="opacity:0.936" fill="#000000" d="M 3188.5,558.5 C 3191.24,557.965 3193.07,558.965 3194,561.5C 3194.5,583.831 3194.67,606.164 3194.5,628.5C 3239.41,628.17 3284.24,628.503 3329,629.5C 3329.18,640.077 3329.68,650.577 3330.5,661C 3329.42,723.394 3329.42,785.894 3330.5,848.5C 3330.1,850.434 3329.1,851.934 3327.5,853C 3306.47,853.799 3285.47,853.633 3264.5,852.5C 3264.5,796.833 3264.5,741.167 3264.5,685.5C 3241.17,685.5 3217.83,685.5 3194.5,685.5C 3194.33,717.168 3194.5,748.835 3195,780.5C 3195.85,787.18 3199.68,790.514 3206.5,790.5C 3209.72,790.421 3212.89,790.087 3216,789.5C 3224.67,790.167 3233.33,790.833 3242,791.5C 3242.18,811.21 3242.68,830.877 3243.5,850.5C 3242.91,851.799 3241.91,852.632 3240.5,853C 3219.83,853.667 3199.17,853.667 3178.5,853C 3158.43,852.06 3143.6,842.894 3134,825.5C 3132.2,821.317 3130.87,816.984 3130,812.5C 3128.73,769.853 3128.06,727.186 3128,684.5C 3117.24,685.653 3106.41,685.82 3095.5,685C 3093.67,684.5 3092.5,683.333 3092,681.5C 3091.33,664.5 3091.33,647.5 3092,630.5C 3092.5,630 3093,629.5 3093.5,629C 3105.16,628.5 3116.83,628.333 3128.5,628.5C 3128.33,610.497 3128.5,592.497 3129,574.5C 3129.83,573.667 3130.67,572.833 3131.5,572C 3150.89,568.567 3169.89,564.067 3188.5,558.5 Z"/></g>
<g><path style="opacity:0.937" fill="#000000" d="M 1137.5,623.5 C 1167.31,622.862 1194.31,631.029 1218.5,648C 1242.03,667.216 1255.53,692.049 1259,722.5C 1262.49,752.871 1257.16,781.538 1243,808.5C 1222.65,837.104 1194.81,852.938 1159.5,856C 1135.78,858.159 1112.45,856.159 1089.5,850C 1059.41,838.413 1038.25,817.58 1026,787.5C 1015.66,754.929 1016.33,722.595 1028,690.5C 1043.71,656.456 1069.88,635.289 1106.5,627C 1116.93,625.385 1127.26,624.218 1137.5,623.5 Z M 1137.5,681.5 C 1152.37,681.711 1165.7,686.211 1177.5,695C 1188.05,705.61 1193.55,718.443 1194,733.5C 1197.71,761.922 1187.21,783.089 1162.5,797C 1149.35,800.769 1136.01,801.436 1122.5,799C 1100.96,791.45 1088.79,776.284 1086,753.5C 1083.78,736.804 1086.12,720.804 1093,705.5C 1103.92,690.29 1118.75,682.29 1137.5,681.5 Z"/></g>
<g><path style="opacity:0.93" fill="#000000" d="M 1390.5,623.5 C 1415.54,622.971 1439.54,628.138 1462.5,639C 1490.42,656.007 1505.76,680.841 1508.5,713.5C 1496.4,713.76 1484.23,714.093 1472,714.5C 1462.56,713.845 1453.06,713.179 1443.5,712.5C 1437.97,694.887 1425.97,685.054 1407.5,683C 1364.91,678.925 1342.91,698.258 1341.5,741C 1339.98,769.305 1352.31,788.639 1378.5,799C 1398.98,804.094 1417.31,800.094 1433.5,787C 1438.67,781.821 1442.17,775.654 1444,768.5C 1444.75,767.874 1445.58,767.374 1446.5,767C 1466.83,766.333 1487.17,766.333 1507.5,767C 1508.81,772.489 1508.64,777.989 1507,783.5C 1501.26,805.168 1489.42,822.668 1471.5,836C 1431.88,857.991 1390.21,862.657 1346.5,850C 1309.66,835.814 1287.16,809.314 1279,770.5C 1272.44,738.896 1276.11,708.563 1290,679.5C 1311.5,644.833 1342.66,626.833 1383.5,625.5C 1386.03,625.071 1388.36,624.404 1390.5,623.5 Z"/></g>
<g><path style="opacity:0.929" fill="#000000" d="M 2571.5,623.5 C 2619.77,622.631 2648.94,645.631 2659,692.5C 2659.83,697.143 2660.5,701.81 2661,706.5C 2661.25,754.763 2661.75,802.929 2662.5,851C 2662.09,851.945 2661.43,852.612 2660.5,853C 2639.46,853.822 2618.46,853.655 2597.5,852.5C 2596.67,814.838 2596.17,777.171 2596,739.5C 2596.6,724.687 2593.6,710.687 2587,697.5C 2578.39,686.013 2566.89,681.013 2552.5,682.5C 2528.04,682.804 2511.88,694.47 2504,717.5C 2502.48,723.752 2501.48,730.086 2501,736.5C 2500.67,775.167 2500.33,813.833 2500,852.5C 2478.21,853.808 2456.38,853.808 2434.5,852.5C 2434.01,778.084 2434.51,703.751 2436,629.5C 2456.44,628.174 2476.94,628.174 2497.5,629.5C 2498.47,641.835 2499.63,654.168 2501,666.5C 2511.66,645.57 2528.49,632.404 2551.5,627C 2558.35,626.101 2565.02,624.934 2571.5,623.5 Z"/></g>
<g><path style="opacity:0.94" fill="#000000" d="M 3469.5,623.5 C 3498.74,622.973 3525.41,630.806 3549.5,647C 3583.66,677.113 3597.49,714.946 3591,760.5C 3582.01,817.493 3548.84,849.326 3491.5,856C 3467.78,858.159 3444.44,856.159 3421.5,850C 3389.93,837.76 3368.43,815.593 3357,783.5C 3340.86,729.624 3353.36,683.791 3394.5,646C 3417.38,631.199 3442.38,623.699 3469.5,623.5 Z M 3470.5,681.5 C 3493.09,681.533 3509.92,691.2 3521,710.5C 3529.14,733.298 3528.14,755.632 3518,777.5C 3511.33,785.509 3503.5,792.009 3494.5,797C 3481.35,800.81 3468.02,801.477 3454.5,799C 3437.58,793.748 3426.25,782.748 3420.5,766C 3415.31,745.282 3416.81,725.115 3425,705.5C 3436.17,689.997 3451.34,681.997 3470.5,681.5 Z"/></g>
<g><path style="opacity:0.936" fill="#000000" d="M 3839.5,722.5 C 3839.5,765.833 3839.5,809.167 3839.5,852.5C 3818.2,853.832 3796.86,853.832 3775.5,852.5C 3774.67,810.837 3774.17,769.171 3774,727.5C 3771.83,692.329 3753.33,677.496 3718.5,683C 3693.19,691.672 3680.02,709.506 3679,736.5C 3678.83,775.171 3678.33,813.838 3677.5,852.5C 3656.88,853.655 3636.21,853.821 3615.5,853C 3614.17,852.333 3613.17,851.333 3612.5,850C 3613.63,790.571 3613.63,731.571 3612.5,673C 3613.17,658.53 3613.84,644.03 3614.5,629.5C 3634.49,628.334 3654.49,628.167 3674.5,629C 3675.13,629.75 3675.63,630.584 3676,631.5C 3676.23,643.24 3677.23,654.907 3679,666.5C 3692.86,640.916 3714.2,627.249 3743,625.5C 3796.72,619.853 3828.05,643.853 3837,697.5C 3837.86,705.983 3838.69,714.317 3839.5,722.5 Z"/></g>
<g><path style="opacity:0.937" fill="#000000" d="M 1908.5,624.5 C 1933.23,621.441 1955.23,627.608 1974.5,643C 1982.63,652.098 1989.13,662.264 1994,673.5C 2006.47,645.041 2028.13,628.707 2059,624.5C 2075.85,622.88 2092.35,625.047 2108.5,631C 2124.72,638.89 2136.56,651.057 2144,667.5C 2148.62,678.042 2151.62,689.042 2153,700.5C 2154.46,751.476 2154.96,802.476 2154.5,853.5C 2132.92,853.827 2111.42,853.494 2090,852.5C 2089.18,829.79 2089.34,807.124 2090.5,784.5C 2089.93,761.511 2089.1,738.511 2088,715.5C 2081.13,686.058 2062.97,675.558 2033.5,684C 2018.74,689.755 2009.24,700.255 2005,715.5C 2004.09,719.795 2003.42,724.128 2003,728.5C 2002.5,770.165 2002.33,811.832 2002.5,853.5C 1980.5,853.5 1958.5,853.5 1936.5,853.5C 1936.84,819.34 1937.17,785.34 1937.5,751.5C 1937.07,738.101 1935.91,724.767 1934,711.5C 1929.79,691.792 1917.63,681.792 1897.5,681.5C 1873.56,682.934 1858.39,695.268 1852,718.5C 1850.97,722.773 1850.3,727.106 1850,731.5C 1849.5,772.165 1849.33,812.832 1849.5,853.5C 1827.68,853.988 1806.02,853.488 1784.5,852C 1785.5,777.571 1785.83,703.071 1785.5,628.5C 1806.17,628.5 1826.83,628.5 1847.5,628.5C 1847.53,641.256 1848.53,653.923 1850.5,666.5C 1853.24,661.827 1856.07,657.16 1859,652.5C 1866.78,642.714 1876.28,635.214 1887.5,630C 1894.59,627.98 1901.59,626.147 1908.5,624.5 Z"/></g>
<g><path style="opacity:0.928" fill="#000000" d="M 2285.5,624.5 C 2316.64,622.393 2345.31,629.559 2371.5,646C 2405.28,676.326 2418.61,713.993 2411.5,759C 2355.5,759.167 2299.5,759.667 2243.5,760.5C 2246.82,785.323 2260.82,799.823 2285.5,804C 2303.56,807.054 2320.23,803.721 2335.5,794C 2340.15,789.676 2343.82,784.676 2346.5,779C 2367.51,778.167 2388.51,778.334 2409.5,779.5C 2409.99,780.446 2410.32,781.446 2410.5,782.5C 2405.26,805.827 2392.93,824.327 2373.5,838C 2336.69,856.354 2298.02,861.354 2257.5,853C 2209.3,839.792 2182.14,808.292 2176,758.5C 2173.58,736.295 2175.92,714.628 2183,693.5C 2196.35,662.749 2218.85,641.916 2250.5,631C 2262.17,628.124 2273.84,625.957 2285.5,624.5 Z M 2289.5,675.5 C 2304.59,675.014 2318.59,678.514 2331.5,686C 2340.31,694.577 2344.98,705.077 2345.5,717.5C 2311.17,717.5 2276.83,717.5 2242.5,717.5C 2247.49,691.512 2263.15,677.512 2289.5,675.5 Z"/></g>
<g><path style="opacity:0.937" fill="#000000" d="M 2929.5,624.5 C 2952.22,623.139 2973.22,628.306 2992.5,640C 3000.18,646.337 3006.34,653.837 3011,662.5C 3011.27,651.187 3012.44,640.021 3014.5,629C 3024.24,627.857 3034.07,627.357 3044,627.5C 3053.17,627.667 3062.33,627.833 3071.5,628C 3072.77,628.309 3073.93,628.809 3075,629.5C 3075.83,703.836 3075.67,778.169 3074.5,852.5C 3053.54,853.655 3032.54,853.822 3011.5,853C 3009.7,842.418 3008.87,831.584 3009,820.5C 2995.52,841.274 2976.35,853.107 2951.5,856C 2897.25,861.803 2861.41,838.969 2844,787.5C 2838.29,762.766 2836.96,737.766 2840,712.5C 2844.99,682.869 2859.16,658.702 2882.5,640C 2897.09,631.276 2912.75,626.11 2929.5,624.5 Z M 2943.5,682.5 C 2962.79,679.493 2979.79,684.16 2994.5,696.5C 3005.46,709.034 3010.46,723.701 3009.5,740.5C 3010.96,770.141 2997.96,789.974 2970.5,800C 2941.07,806.038 2920.24,795.538 2908,768.5C 2900.75,746.11 2902.41,724.443 2913,703.5C 2920.64,692.668 2930.81,685.668 2943.5,682.5 Z"/></g>
<g><path style="opacity:0.93" fill="#000000" d="M 1550.5,627.5 C 1563.75,628.481 1577.09,628.814 1590.5,628.5C 1591.04,661.279 1591.04,693.612 1590.5,725.5C 1591.26,735.814 1591.76,746.147 1592,756.5C 1596.74,795.556 1617.91,809.056 1655.5,797C 1673.22,787.073 1683.06,771.907 1685,751.5C 1685.02,710.774 1685.68,670.107 1687,629.5C 1699,628.833 1711,628.167 1723,627.5C 1732.85,627.843 1742.51,628.843 1752,630.5C 1752.67,704.5 1752.67,778.5 1752,852.5C 1731.2,853.829 1710.36,853.829 1689.5,852.5C 1687.8,840.234 1686.63,827.901 1686,815.5C 1679.91,828.157 1670.74,837.991 1658.5,845C 1644.47,853.117 1629.3,856.95 1613,856.5C 1590.53,857.512 1570.36,851.345 1552.5,838C 1541.68,827.163 1534.18,814.33 1530,799.5C 1527.58,789.293 1525.91,778.96 1525,768.5C 1524.33,722.167 1524.33,675.833 1525,629.5C 1533.6,628.846 1542.1,628.18 1550.5,627.5 Z"/></g>
</svg>
