<?xml version="1.0" standalone="no"?>
<!DOCTYPE svg PUBLIC "-//W3C//DTD SVG 20010904//EN"
 "http://www.w3.org/TR/2001/REC-SVG-20010904/DTD/svg10.dtd">
<svg version="1.0" xmlns="http://www.w3.org/2000/svg"
 width="2275.000000pt" height="480.000000pt" viewBox="0 0 2275.000000 480.000000"
 preserveAspectRatio="xMidYMid meet">

<g transform="translate(0.000000,480.000000) scale(0.100000,-0.100000)"
fill="#000000" stroke="none">
<path d="M2387 4783 c-3 -5 -10 -35 -17 -68 -17 -88 -117 -562 -146 -690 -30
-135 -33 -149 -38 -177 -3 -13 -7 -32 -10 -43 -3 -11 -28 -126 -57 -255 l-51
-234 24 -21 c36 -31 290 -192 314 -199 16 -5 59 18 170 90 82 52 155 101 162
109 12 10 10 32 -13 131 -14 66 -28 128 -31 139 -2 11 -6 29 -8 40 -9 38 -136
632 -187 870 -68 320 -66 315 -89 315 -10 0 -21 -3 -23 -7z"/>
<path d="M2030 4189 c-146 -30 -290 -83 -455 -165 -143 -71 -325 -188 -325
-209 0 -5 41 -36 90 -67 l91 -58 67 44 c168 107 325 177 509 225 l108 28 22
99 c12 54 22 105 22 112 1 16 -15 15 -129 -9z"/>
<path d="M2660 4205 c0 -4 10 -54 21 -110 l22 -102 81 -17 c182 -39 397 -126
541 -220 39 -25 78 -46 88 -46 29 0 178 100 175 118 -4 20 -151 120 -268 181
-129 67 -306 136 -432 166 -112 27 -228 42 -228 30z"/>
<path d="M5650 4120 c-249 -30 -438 -147 -530 -330 -50 -100 -62 -150 -67
-290 -6 -160 8 -235 65 -350 71 -146 223 -261 409 -312 114 -31 364 -31 478 0
229 62 410 226 432 391 l6 41 -151 0 -151 0 -24 -47 c-28 -56 -94 -111 -170
-139 -74 -27 -280 -27 -352 0 -76 29 -132 72 -170 129 -52 80 -68 150 -63 281
5 138 32 209 112 284 70 66 143 94 265 100 106 5 181 -8 252 -44 51 -25 126
-104 135 -141 6 -23 7 -23 161 -23 l156 0 -7 41 c-14 90 -86 200 -176 271
-143 113 -376 165 -610 138z"/>
<path d="M892 3878 c-7 -7 -12 -18 -12 -24 0 -7 75 -129 167 -271 91 -142 192
-298 223 -348 31 -49 146 -229 257 -400 282 -438 305 -475 299 -492 -6 -14
-91 -147 -245 -383 -41 -63 -97 -152 -125 -197 -28 -45 -111 -176 -185 -290
-74 -114 -192 -297 -263 -406 -70 -109 -128 -204 -128 -212 0 -17 26 -37 43
-33 7 2 181 111 385 243 205 132 384 247 399 256 16 9 175 111 355 228 180
116 333 214 341 217 14 5 125 -62 401 -241 64 -41 221 -142 349 -223 127 -82
348 -224 489 -316 142 -92 265 -166 274 -164 25 5 41 35 29 53 -6 9 -93 145
-195 303 -102 158 -268 416 -370 574 -351 545 -375 583 -375 603 0 11 54 103
119 205 161 249 555 861 705 1093 66 104 121 194 121 201 0 16 -20 36 -37 36
-7 0 -56 -29 -110 -64 -127 -82 -469 -301 -703 -451 -102 -65 -205 -132 -230
-150 -25 -17 -52 -35 -60 -38 -8 -4 -98 -61 -200 -127 -102 -67 -192 -119
-201 -117 -17 5 -92 52 -744 472 -198 128 -425 274 -505 325 -80 51 -164 105
-188 121 -47 32 -62 35 -80 17z"/>
<path d="M6935 3776 c-254 -50 -400 -201 -420 -437 -12 -135 32 -273 116 -364
96 -104 226 -155 414 -162 144 -6 235 10 342 61 189 90 287 281 255 499 -29
197 -161 339 -367 392 -85 22 -254 28 -340 11z m293 -251 c93 -50 131 -136
119 -266 -12 -139 -110 -219 -266 -219 -177 0 -281 108 -269 279 9 118 69 196
178 232 14 5 61 7 105 6 66 -3 90 -8 133 -32z"/>
<path d="M8335 3783 c-106 -22 -186 -69 -232 -133 -15 -22 -31 -40 -35 -40 -5
0 -8 15 -8 34 0 18 -3 54 -6 80 l-7 46 -138 0 -139 0 0 -470 0 -470 144 0 145
0 3 278 3 278 30 59 c25 50 39 63 84 87 88 46 194 38 254 -20 50 -48 57 -97
57 -404 l0 -278 149 0 150 0 3 288 3 289 30 49 c45 73 115 107 212 102 87 -4
117 -22 153 -94 25 -48 25 -52 28 -341 l3 -293 150 0 151 0 -5 323 c-4 346 -9
382 -61 470 -93 160 -338 215 -534 119 -54 -26 -124 -92 -144 -137 -14 -31
-34 -32 -42 -2 -9 37 -84 116 -135 141 -75 38 -192 55 -266 39z"/>
<path d="M10226 3779 c-85 -12 -163 -52 -218 -111 l-48 -50 0 45 c0 24 -3 59
-6 76 l-6 31 -139 0 -139 0 0 -620 0 -620 150 0 150 0 0 226 0 227 39 -45 c78
-89 205 -134 350 -125 248 15 412 182 428 437 15 227 -73 403 -240 485 -103
50 -195 62 -321 44z m139 -246 c81 -42 116 -104 123 -216 5 -90 -12 -148 -62
-205 -92 -105 -306 -100 -400 9 -41 49 -56 98 -56 185 0 121 58 206 162 240
61 20 182 13 233 -13z"/>
<path d="M11263 3780 c-147 -27 -255 -106 -318 -234 -98 -199 -65 -462 76
-607 164 -168 501 -170 648 -2 l41 46 0 -77 0 -76 150 0 150 0 0 470 0 470
-139 0 c-159 0 -150 6 -151 -100 l-1 -55 -32 36 c-49 55 -100 89 -166 109 -73
23 -189 32 -258 20z m328 -257 c76 -43 111 -100 117 -196 8 -130 -34 -214
-132 -262 -68 -33 -175 -38 -244 -10 -51 21 -114 90 -130 143 -19 63 -15 170
9 222 46 103 118 142 250 136 63 -2 86 -8 130 -33z"/>
<path d="M12495 3780 c-219 -35 -345 -144 -345 -300 0 -174 121 -246 475 -280
169 -17 209 -37 209 -107 0 -72 -82 -108 -224 -101 -113 7 -164 32 -191 94
l-20 44 -141 0 -141 0 6 -39 c11 -86 68 -163 154 -208 85 -46 162 -63 303 -70
332 -15 527 84 547 279 13 130 -54 228 -185 268 -36 11 -122 27 -191 36 -277
33 -311 45 -311 105 0 76 48 103 181 104 87 0 99 -2 136 -27 26 -17 46 -40 54
-63 l13 -36 136 3 135 3 -3 34 c-4 47 -49 127 -92 162 -44 37 -105 67 -173 85
-66 18 -254 26 -332 14z"/>
<path d="M13585 3780 c-253 -40 -385 -188 -331 -372 18 -62 68 -116 133 -144
54 -23 198 -51 333 -64 142 -14 195 -35 205 -80 17 -77 -40 -121 -167 -128
-135 -8 -237 36 -253 108 l-7 30 -144 0 c-165 0 -160 4 -124 -94 36 -96 138
-171 280 -207 84 -21 366 -18 449 5 127 35 204 92 241 178 18 43 22 65 18 124
-11 175 -106 232 -446 269 -169 19 -228 39 -238 81 -17 69 39 113 155 122 112
7 189 -26 217 -95 l14 -33 135 0 c153 0 148 -3 119 82 -31 94 -118 165 -243
200 -78 22 -259 31 -346 18z"/>
<path d="M3830 3463 c-30 -47 -56 -90 -58 -94 -2 -4 23 -47 56 -96 112 -167
189 -332 233 -503 12 -47 27 -90 33 -96 6 -6 49 -19 96 -28 47 -10 93 -20 103
-22 24 -7 22 28 -8 154 -43 179 -125 374 -226 539 -45 73 -161 233 -169 233
-3 0 -30 -39 -60 -87z"/>
<path d="M885 3443 c-151 -206 -274 -480 -322 -715 -9 -48 -15 -89 -12 -92 3
-3 52 4 110 16 l104 22 48 145 c52 161 126 317 206 438 l53 78 -18 35 c-34 68
-89 150 -101 150 -6 0 -37 -35 -68 -77z"/>
<path d="M1265 2684 c-193 -44 -186 -42 -215 -48 -14 -2 -36 -7 -50 -11 -14
-4 -34 -8 -45 -11 -11 -2 -81 -17 -155 -33 -126 -28 -575 -123 -720 -153 -59
-12 -65 -16 -65 -38 0 -20 7 -26 35 -32 19 -4 154 -32 300 -63 146 -31 357
-76 470 -100 228 -50 249 -55 270 -59 8 -1 24 -5 35 -9 16 -5 353 -77 361 -77
4 0 170 252 183 277 16 31 15 33 -31 104 -24 35 -45 69 -48 74 -3 6 -36 56
-73 113 -43 64 -75 102 -85 101 -9 0 -84 -16 -167 -35z"/>
<path d="M3368 2702 c-27 -32 -206 -317 -212 -338 -5 -15 16 -56 80 -155 47
-74 91 -139 97 -146 11 -11 161 15 327 57 25 7 55 14 68 16 12 2 32 6 45 9
136 30 583 126 772 167 244 51 283 65 255 92 -8 8 -148 42 -310 76 -162 34
-365 78 -450 96 -85 19 -164 36 -175 38 -11 3 -31 7 -45 11 -14 4 -34 8 -45
10 -11 2 -47 11 -80 19 -33 8 -107 24 -165 35 -58 12 -114 23 -126 26 -13 3
-27 -2 -36 -13z"/>
<path d="M19370 2525 l0 -135 160 0 160 0 0 135 0 135 -160 0 -160 0 0 -135z"/>
<path d="M5010 1781 l0 -861 339 0 c375 0 452 7 590 52 339 112 522 432 498
873 -14 260 -80 427 -227 576 -61 61 -94 85 -170 123 -175 86 -199 89 -642 94
l-388 3 0 -860z m711 575 c265 -48 389 -231 389 -577 0 -322 -109 -501 -346
-564 -39 -11 -123 -18 -246 -22 l-188 -6 0 592 0 591 158 0 c87 -1 191 -7 233
-14z"/>
<path d="M16090 2370 l0 -150 -100 0 -100 0 0 -126 0 -125 98 2 97 2 5 -399
c7 -464 8 -473 95 -560 77 -77 111 -86 353 -92 l202 -4 0 121 0 121 -107 0
c-134 0 -175 11 -205 53 -23 32 -23 33 -23 395 l0 364 168 -2 167 -1 0 126 0
125 -170 0 -170 0 0 150 0 150 -155 0 -155 0 0 -150z"/>
<path d="M18480 2370 l0 -149 -102 -3 -103 -3 0 -120 0 -120 100 -1 100 -2 5
-409 5 -408 33 -68 c37 -74 73 -107 154 -140 47 -18 78 -22 256 -25 l202 -4 0
121 0 121 -115 0 c-134 0 -175 12 -205 62 -19 31 -20 50 -20 393 l0 360 167 0
168 0 3 123 3 122 -171 0 -170 0 0 150 0 150 -155 0 -155 0 0 -150z"/>
<path d="M7106 2224 c-283 -68 -456 -314 -458 -649 -1 -148 18 -240 71 -349
98 -201 280 -318 518 -333 325 -20 580 163 659 472 26 102 24 313 -4 418 -61
227 -220 387 -437 442 -75 19 -268 19 -349 -1z m310 -262 c56 -29 119 -103
144 -169 46 -122 49 -304 8 -429 -46 -140 -147 -218 -283 -218 -95 0 -151 22
-209 84 -77 83 -106 175 -106 338 0 213 73 358 204 406 60 22 188 16 242 -12z"/>
<path d="M8560 2224 c-238 -63 -399 -249 -446 -515 -43 -246 25 -490 180 -645
120 -120 249 -169 446 -169 135 0 196 13 306 65 142 68 253 211 285 367 7 34
11 64 8 67 -2 2 -74 7 -159 11 l-155 7 -13 -53 c-27 -116 -101 -189 -214 -209
-112 -21 -230 21 -288 102 -66 91 -97 248 -79 403 12 109 39 181 91 239 64 74
105 91 218 91 86 0 100 -3 142 -27 63 -38 106 -92 126 -161 l17 -58 125 6
c168 8 190 12 190 34 0 33 -32 126 -63 185 -66 123 -204 224 -357 260 -84 20
-285 20 -360 0z"/>
<path d="M11519 2222 c-78 -32 -136 -79 -181 -148 l-43 -65 -5 103 -5 103
-137 3 -138 3 0 -651 0 -650 155 0 155 0 0 414 c0 384 1 419 20 477 36 116
112 178 218 179 92 0 154 -42 189 -130 16 -40 18 -93 21 -492 l3 -448 144 0
145 0 0 388 c0 218 5 415 10 451 12 70 46 145 82 178 86 80 252 67 313 -26 51
-76 55 -121 55 -573 l0 -418 156 0 155 0 -3 488 c-3 471 -4 489 -25 552 -46
135 -132 223 -256 261 -56 17 -86 21 -170 17 -93 -3 -108 -7 -165 -38 -72 -38
-132 -101 -159 -165 -10 -25 -20 -45 -23 -45 -3 0 -15 22 -28 49 -30 67 -101
137 -170 169 -77 35 -241 43 -313 14z"/>
<path d="M13513 2221 c-104 -30 -173 -71 -253 -151 -83 -82 -134 -172 -166
-290 -25 -91 -26 -329 -1 -420 83 -310 331 -486 657 -467 178 11 321 75 427
190 50 55 95 134 108 188 l7 27 -109 6 c-59 4 -129 9 -155 12 -46 6 -47 5 -66
-33 -27 -52 -61 -87 -113 -115 -61 -32 -211 -33 -279 -2 -87 40 -148 126 -169
239 -6 32 -11 62 -11 67 0 4 208 8 461 8 l462 0 -6 128 c-3 70 -13 154 -22
187 -60 219 -215 377 -420 430 -83 21 -271 19 -352 -4z m288 -238 c100 -32
165 -120 185 -250 l7 -43 -301 0 -301 0 6 33 c15 82 46 143 99 194 81 80 189
103 305 66z"/>
<path d="M15105 2226 c-102 -33 -187 -101 -222 -176 -10 -22 -21 -40 -25 -40
-4 0 -9 46 -10 103 l-3 102 -137 3 -138 3 0 -651 0 -650 155 0 154 0 3 433 c3
414 4 434 24 477 49 105 131 160 239 160 64 0 128 -23 157 -56 10 -11 28 -42
40 -69 23 -49 23 -55 26 -497 l3 -448 154 0 155 0 0 465 c0 300 -4 483 -11
517 -28 135 -114 247 -229 302 -59 28 -75 31 -180 33 -75 2 -129 -2 -155 -11z"/>
<path d="M17326 2224 c-184 -44 -319 -169 -372 -343 -8 -25 -14 -49 -14 -53 0
-8 75 -16 212 -22 l107 -4 6 28 c12 56 60 116 116 144 44 22 66 26 134 26 147
0 221 -60 247 -199 6 -33 9 -64 5 -67 -3 -4 -116 -29 -249 -55 -264 -53 -313
-67 -401 -111 -127 -63 -187 -153 -195 -289 -8 -137 31 -229 130 -302 135 -99
406 -114 575 -31 59 28 159 114 168 145 9 27 22 16 29 -26 11 -54 78 -119 145
-139 54 -16 175 -22 205 -10 13 5 16 25 16 120 l0 114 -39 0 c-70 0 -71 3 -71
340 0 326 -8 386 -59 497 -55 116 -171 204 -313 238 -81 19 -302 18 -382 -1z
m441 -793 c-13 -189 -121 -299 -305 -309 -98 -5 -160 13 -193 59 -23 33 -35
94 -25 133 10 40 63 93 109 111 49 18 349 83 391 84 l29 1 -6 -79z"/>
<path d="M20400 2221 c-102 -27 -187 -77 -265 -156 -122 -122 -174 -252 -182
-456 -7 -164 11 -261 73 -386 82 -170 231 -283 417 -318 307 -58 581 66 701
318 24 51 50 117 58 147 20 83 17 328 -5 410 -61 226 -222 390 -438 444 -89
22 -272 21 -359 -3z m289 -246 c126 -44 197 -168 208 -360 17 -299 -103 -473
-322 -469 -201 3 -320 189 -302 470 13 193 82 311 212 361 43 16 155 16 204
-2z"/>
<path d="M21992 2221 c-98 -36 -158 -86 -206 -171 l-26 -45 0 55 c0 30 -3 79
-7 108 l-6 53 -136 -3 -136 -3 -3 -647 -2 -648 154 0 155 0 3 423 c3 411 4
423 26 478 24 61 74 119 125 146 18 9 64 18 107 21 65 3 81 0 120 -20 54 -30
95 -101 110 -193 6 -33 10 -239 10 -457 l0 -398 155 0 155 0 0 453 c0 492 -4
539 -57 647 -38 79 -124 161 -198 190 -85 33 -266 39 -343 11z"/>
<path d="M9560 1758 c0 -513 4 -551 61 -659 42 -78 122 -151 196 -179 112 -42
288 -34 385 16 47 24 127 103 151 149 l22 40 3 -103 3 -103 140 3 139 3 0 645
0 645 -152 0 -153 0 -5 -440 c-6 -485 -4 -474 -72 -550 -48 -56 -101 -78 -183
-79 -77 0 -112 14 -157 61 -61 63 -62 76 -68 563 l-5 445 -152 3 -153 3 0
-463z"/>
<path d="M19377 2214 c-4 -4 -7 -297 -7 -651 l0 -643 155 0 155 0 0 640 c0
352 0 643 0 648 0 9 -294 15 -303 6z"/>
<path d="M4205 2138 l-90 -20 -16 -91 c-20 -113 -19 -111 -63 -240 -45 -136
-118 -289 -189 -396 l-55 -85 34 -54 c19 -29 47 -72 61 -94 l27 -40 24 28
c107 131 246 392 306 574 38 114 71 266 82 373 8 79 16 76 -121 45z"/>
<path d="M534 2089 c22 -196 83 -403 176 -597 77 -159 194 -342 220 -342 4 0
27 30 52 68 77 116 76 103 20 190 -116 181 -206 407 -239 600 l-17 101 -71 16
c-38 8 -87 18 -109 22 l-39 6 7 -64z"/>
<path d="M2239 1514 c-79 -53 -147 -99 -151 -103 -6 -5 16 -110 97 -478 3 -13
7 -33 10 -45 2 -13 6 -32 9 -43 3 -11 17 -74 31 -140 14 -66 48 -223 75 -350
27 -126 54 -258 61 -293 11 -59 13 -63 38 -60 25 3 27 7 78 248 48 225 188
878 198 925 3 11 7 29 9 40 3 11 14 59 24 108 l20 87 -31 24 c-116 86 -266
176 -293 176 -21 0 -72 -28 -175 -96z"/>
<path d="M1283 925 c-46 -30 -83 -58 -83 -63 0 -13 166 -134 261 -191 215
-127 396 -191 697 -245 22 -4 32 -2 32 7 0 24 -41 202 -48 208 -4 3 -34 12
-67 18 -214 45 -480 164 -637 285 -26 20 -53 36 -60 36 -7 -1 -50 -25 -95 -55z"/>
<path d="M3370 909 c-163 -113 -406 -214 -610 -255 -47 -9 -86 -17 -87 -18 -4
-3 -43 -190 -43 -204 0 -12 11 -13 53 -8 194 25 405 88 574 172 103 51 312
182 373 235 l24 21 -24 19 c-14 10 -37 24 -52 31 -16 7 -28 16 -28 20 0 5 -7
8 -15 8 -8 0 -15 4 -15 9 0 5 -8 11 -17 14 -10 2 -25 7 -33 10 -8 3 -52 -20
-100 -54z"/>
</g>
</svg>
