<?xml version="1.0" standalone="no"?>
<!DOCTYPE svg PUBLIC "-//W3C//DTD SVG 20010904//EN"
 "http://www.w3.org/TR/2001/REC-SVG-20010904/DTD/svg10.dtd">
<svg version="1.0" xmlns="http://www.w3.org/2000/svg"
 width="512.000000pt" height="512.000000pt" viewBox="0 0 512.000000 512.000000"
 preserveAspectRatio="xMidYMid meet">

<g transform="translate(0.000000,512.000000) scale(0.100000,-0.100000)"
fill="#000000" stroke="none">
<path d="M2320 5110 c-321 -34 -612 -118 -899 -261 -509 -253 -897 -641 -1150
-1150 -276 -554 -342 -1167 -191 -1769 86 -344 263 -697 487 -976 483 -599
1225 -954 1993 -954 577 0 1155 204 1606 568 599 482 954 1224 954 1992 0 577
-204 1155 -567 1606 -231 286 -518 516 -854 683 -246 123 -506 205 -779 246
-124 19 -478 28 -600 15z m427 -870 c84 -388 152 -714 152 -725 1 -31 -293
-219 -329 -210 -30 8 -310 185 -317 201 -4 10 288 1393 302 1432 3 8 13 12 22
10 15 -3 42 -117 170 -708z m228 123 c198 -38 469 -151 645 -268 128 -86 126
-75 27 -139 -47 -31 -89 -56 -95 -56 -5 0 -54 27 -108 60 -156 95 -395 188
-532 206 l-49 6 -22 103 c-11 56 -21 105 -21 109 0 7 27 4 155 -21z m-649 -5
c-3 -13 -13 -60 -22 -106 -15 -75 -19 -83 -43 -88 -82 -18 -240 -68 -319 -102
-81 -36 -247 -127 -296 -165 -17 -13 -27 -9 -107 42 -49 31 -89 59 -89 63 0
22 203 151 345 219 154 74 417 155 509 158 25 1 28 -2 22 -21z m-881 -487
c171 -110 414 -266 540 -347 127 -81 310 -198 407 -261 97 -62 182 -113 188
-113 6 0 93 52 193 116 330 211 668 428 957 615 172 111 295 184 310 184 49 0
29 -43 -149 -320 -96 -148 -249 -387 -341 -530 -92 -143 -219 -342 -283 -442
-65 -100 -117 -187 -117 -193 0 -6 42 -76 93 -156 246 -385 477 -745 641 -999
181 -280 203 -327 161 -333 -12 -1 -178 99 -430 262 -225 145 -466 300 -535
344 -69 43 -207 131 -307 196 -100 64 -187 116 -193 116 -6 0 -93 -52 -193
-116 -100 -64 -254 -163 -342 -219 -88 -56 -326 -210 -530 -341 -226 -145
-380 -238 -395 -239 -20 0 -25 5 -25 25 0 15 99 177 256 420 141 217 311 483
379 590 68 107 158 250 202 317 43 67 78 127 78 133 0 6 -51 91 -113 188 -63
97 -183 285 -267 417 -85 132 -238 371 -342 532 -103 160 -191 299 -194 307
-9 23 3 46 23 46 10 0 158 -90 328 -199z m2696 -296 c119 -176 223 -422 270
-637 11 -50 18 -92 17 -94 -2 -1 -50 7 -107 19 l-104 23 -37 119 c-58 193
-128 339 -237 492 l-43 62 57 91 58 91 33 -38 c18 -21 60 -78 93 -128z m-2932
65 c28 -44 54 -86 57 -93 2 -7 -15 -43 -40 -80 -99 -147 -181 -327 -226 -492
l-22 -81 -106 -22 c-58 -12 -107 -21 -108 -19 -2 1 6 42 16 90 41 187 131 412
230 572 37 61 140 205 146 205 1 0 25 -36 53 -80z m545 -877 c74 -116 106
-175 103 -190 -7 -35 -171 -283 -187 -282 -8 0 -332 69 -720 152 -648 140
-705 154 -705 172 0 18 56 32 680 167 374 80 689 147 701 147 16 1 44 -36 128
-166z m2491 14 c606 -130 660 -144 660 -162 0 -18 -58 -32 -705 -172 -388 -83
-710 -152 -715 -152 -6 -1 -50 61 -98 136 -71 110 -87 143 -82 163 4 14 52 96
108 183 l102 158 35 -6 c19 -3 332 -70 695 -148z m200 -414 c-3 -16 -10 -64
-16 -108 -24 -173 -93 -385 -181 -557 -48 -94 -137 -235 -183 -290 l-23 -27
-56 86 c-31 47 -56 89 -56 93 0 5 28 52 61 106 114 180 196 390 227 578 l17
105 90 19 c124 28 125 28 120 -5z m-3559 -8 l71 -16 12 -81 c27 -178 110 -396
212 -564 34 -54 62 -104 62 -111 1 -19 -105 -174 -116 -170 -19 6 -125 168
-181 277 -96 186 -162 394 -190 594 l-13 98 36 -6 c20 -3 68 -13 107 -21z
m1867 -595 c138 -90 138 -90 132 -122 -4 -18 -70 -330 -148 -693 -130 -605
-144 -660 -162 -660 -18 0 -32 55 -162 660 -78 363 -144 674 -147 690 -6 29
-2 32 137 122 110 72 150 93 177 93 27 0 66 -20 173 -90z m-1076 -586 c169
-114 404 -213 576 -245 l64 -12 22 -105 c12 -57 21 -106 19 -107 -7 -7 -176
26 -263 51 -240 69 -499 201 -660 338 l-39 33 84 56 c47 31 88 56 92 57 3 0
50 -30 105 -66z m2018 -1 l87 -57 -33 -28 c-170 -141 -446 -278 -691 -342
-102 -26 -256 -52 -264 -43 -5 4 33 197 39 204 1 1 48 11 104 22 192 39 401
128 568 240 50 33 93 60 96 61 3 0 45 -26 94 -57z"/>
</g>
</svg>
